<svg width="120" height="120" viewBox="0 0 120 120" fill="none" xmlns="http://www.w3.org/2000/svg">
<rect width="120" height="120" rx="4" fill="#FFF2DF"/>
<path d="M58.2427 80.711C57.8228 81.1339 57.2523 81.3725 56.6566 81.375L56.6553 81.3753C56.0596 81.3727 55.4891 81.1342 55.0692 80.7113L55.0687 80.7118L46.0687 71.7118L49.2414 68.5392L56.6553 75.9415L70.2569 62.3515L73.4295 65.5242L58.2427 80.711Z" fill="#AA0064"/>
<path fill-rule="evenodd" clip-rule="evenodd" d="M77.7501 96H41.75C39.9595 96 38.2429 95.2888 36.9768 94.0232C35.7112 92.757 35 91.0405 35 89.25V53.2499C35 51.4594 35.7112 49.7428 36.9768 48.4767C38.243 47.2111 39.9595 46.4999 41.75 46.4999V41.9999C41.75 35.5696 45.1808 29.6272 50.75 26.4119C56.3192 23.196 63.1809 23.196 68.7501 26.4119C74.3193 29.6269 77.7501 35.5693 77.7501 41.9999V46.4999C79.5406 46.4999 81.2572 47.2111 82.5233 48.4767C83.7889 49.7429 84.5001 51.4594 84.5001 53.2499V89.25C84.5001 91.0405 83.7889 92.7571 82.5233 94.0232C81.2571 95.2888 79.5406 96 77.7501 96ZM53 30.3084C48.823 32.7201 46.25 37.1769 46.25 41.9999V46.4999H73.2501V41.9999C73.2501 37.1769 70.6771 32.7201 66.5001 30.3084C62.323 27.8971 57.1771 27.8971 53 30.3084ZM40.1589 51.6588C39.7371 52.0807 39.5 52.6533 39.5 53.2499V89.25C39.5 89.8466 39.7371 90.4192 40.1589 90.8411C40.5808 91.2629 41.1534 91.5 41.75 91.5H77.7501C78.3467 91.5 78.9193 91.2629 79.3412 90.8411C79.763 90.4192 80.0001 89.8466 80.0001 89.25V53.2499C80.0001 52.6533 79.763 52.0807 79.3412 51.6588C78.9193 51.237 78.3467 50.9999 77.7501 50.9999H41.75C41.1534 50.9999 40.5808 51.237 40.1589 51.6588Z" fill="#AA0064"/>
</svg>
