<svg width="120" height="120" viewBox="0 0 120 120" fill="none" xmlns="http://www.w3.org/2000/svg">
<rect width="120" height="120" rx="4" fill="#FFB400"/>
<path d="M80.3398 32.874C79.8774 32.093 78.8755 31.8183 78.0775 32.2524L70.4468 36.421C70.0395 36.6415 69.7465 37.0184 69.6242 37.4628C69.5012 37.9096 69.5673 38.387 69.8034 38.7841L71.139 41.0433C68.7216 40.503 65.8706 40.2992 63.9157 40.4337C61.7993 40.5803 60.4792 41.0837 59.7635 42.013L57.816 44.5401L51.7174 42.6186L53.3454 40.8593C53.9802 40.1793 53.9486 39.1155 53.2805 38.469L47.036 32.4724C46.7005 32.1578 46.2622 31.9864 45.806 32.0008C45.3505 32.0182 44.9179 32.2196 44.6094 32.555L24.4395 54.8084C23.8467 55.4636 23.8547 56.4702 24.4568 57.1202L30.418 63.4787C30.7345 63.8216 31.1826 64.0138 31.648 64.0138H31.6968C32.1765 63.9999 32.6338 63.7812 32.9417 63.4129L33.7413 62.4605L35.1339 66.0266L32.5286 69.0591C32.5114 69.0822 32.4867 69.1082 32.47 69.1313C30.8914 71.1942 31.2653 74.1738 33.3099 75.771C34.1325 76.414 35.1499 76.769 36.1857 76.769C36.2593 76.769 36.323 76.7655 36.3879 76.7603C36.6074 77.8241 37.1859 78.8146 38.097 79.5297C38.9282 80.1866 39.9301 80.5329 40.9802 80.5329C41.0451 80.5329 41.1106 80.5277 41.1766 80.5243C41.4047 81.5881 41.9821 82.5785 42.8944 83.2937C43.7256 83.9488 44.7188 84.2917 45.7702 84.2917C45.834 84.2917 45.9075 84.2865 45.9724 84.2865C46.1919 85.3468 46.7704 86.3407 47.6832 87.0525C48.5127 87.7076 49.5061 88.0557 50.5573 88.0557C50.7612 88.0557 50.9577 88.0419 51.1519 88.0188C52.3818 87.8583 53.4721 87.2361 54.2385 86.2559L56.1669 84.0089L61.2424 87.9564C62.1455 88.66 63.2197 89 64.2871 89C65.7761 89 67.2507 88.3339 68.2365 87.0606C69.0103 86.0505 69.3441 84.8262 69.2619 83.6411C70.477 83.4189 71.542 82.7655 72.2997 81.7825C73.0821 80.769 73.4159 79.5446 73.3269 78.3597C74.4976 78.1461 75.5909 77.5158 76.3715 76.5063C77.1293 75.5193 77.4964 74.3176 77.405 73.0852C78.6097 72.8613 79.6851 72.2096 80.4428 71.2249C81.3711 70.0179 81.6647 68.5131 81.3711 67.1204C82.1765 66.2297 83.3984 64.7249 84.1895 62.9887L85.5653 65.3005C85.8014 65.7011 86.1915 65.9839 86.6396 66.0867C86.7625 66.1184 86.8929 66.1305 87.0153 66.1305C87.3491 66.1305 87.6673 66.0382 87.9436 65.8529L95.2388 61.0465C95.9965 60.5467 96.2234 59.5331 95.761 58.7522L80.3398 32.874ZM31.5821 59.7599L27.998 55.9347L45.9457 36.1342L49.7326 39.7705L48.4791 41.1206L33.0315 58.0324C33.0142 58.052 32.9982 58.0693 32.9895 58.086L31.5821 59.7599ZM35.3919 73.087C34.822 72.6403 34.7083 71.8189 35.1323 71.2354L38.9662 66.7724C38.9909 66.7476 39.0082 66.7234 39.0311 66.6934C39.2759 66.3701 39.6516 66.1866 40.0503 66.1866C40.2542 66.1866 40.5564 66.2356 40.8482 66.4659C41.4198 66.911 41.5318 67.7341 41.1096 68.3176L37.2738 72.7805C37.2491 72.8054 37.2319 72.8296 37.2089 72.8596C36.9981 73.1355 36.6885 73.3122 36.3461 73.3578C36.2972 73.3612 36.2404 73.3664 36.1841 73.3664C35.9876 73.3658 35.6854 73.3202 35.3919 73.087H35.3919ZM40.9786 77.1287C40.7747 77.1287 40.4742 77.0797 40.1807 76.8511C39.6108 76.4043 39.497 75.5812 39.9193 74.9977L43.755 70.5312C43.7797 70.5063 43.797 70.4821 43.8199 70.4573C44.0647 70.134 44.4386 69.9453 44.8471 69.9453C45.0418 69.9453 45.3429 69.9944 45.6364 70.2247C46.2149 70.6772 46.3287 71.5245 45.8794 72.1105C45.8639 72.126 45.8564 72.137 45.8392 72.1543C45.7105 72.3431 45.5795 72.5283 45.4405 72.7067L42.8916 75.6781C42.1195 76.4429 41.4503 76.9832 41.0436 77.1298C41.0189 77.1286 40.9959 77.1286 40.9787 77.1286L40.9786 77.1287ZM44.9677 80.6151C44.4065 80.1684 44.2927 79.3418 44.7081 78.7617L45.3182 78.05C46.4343 76.9458 47.4277 75.7048 48.0796 74.8424L48.5524 74.2935C48.5679 74.2687 48.5926 74.2445 48.6092 74.2214C48.8609 73.8929 49.2279 73.7094 49.6347 73.7094C49.8386 73.7094 50.1391 73.7585 50.4326 73.987C51.0025 74.4338 51.1094 75.2552 50.694 75.8405L46.8583 80.3034C46.8336 80.3265 46.8094 80.3559 46.7933 80.3808C46.5825 80.6584 46.2729 80.835 45.9305 80.8806C45.8799 80.8875 45.8231 80.8875 45.7685 80.8875C45.5628 80.8875 45.2612 80.8431 44.9677 80.6151L44.9677 80.6151ZM51.6471 84.0685C51.6224 84.0916 51.6052 84.1176 51.5822 84.1407C51.3696 84.4183 51.0675 84.5984 50.7262 84.6405C50.6694 84.6475 50.6119 84.6527 50.5556 84.6527C50.3591 84.6527 50.0598 84.6036 49.7663 84.375C49.1964 83.9283 49.0827 83.1052 49.5049 82.5216L53.3406 78.0586C53.3653 78.0338 53.3826 78.0096 53.4056 77.9813C53.6503 77.6581 54.026 77.4728 54.4247 77.4728C54.6269 77.4728 54.9291 77.5184 55.2226 77.7521C55.7925 78.1972 55.9062 79.0203 55.4823 79.601L51.6471 84.0685ZM77.7599 69.1442C77.5002 69.4848 77.1251 69.7001 76.7011 69.7538C76.2772 69.8074 75.863 69.6914 75.5218 69.4305L69.9189 65.0697C69.1853 64.4919 68.1191 64.6316 67.5492 65.3715C67.5406 65.3802 67.532 65.3929 67.5245 65.4016C67.5171 65.4102 67.5073 65.4171 67.4998 65.4247C66.93 66.1687 67.069 67.2382 67.8095 67.8131L73.4037 72.1756C73.7449 72.4365 73.958 72.8134 74.0155 73.2394C74.0724 73.6637 73.9506 74.0815 73.6886 74.4209C73.1526 75.12 72.1502 75.251 71.4504 74.7055L65.9045 70.3903C65.164 69.8125 64.1047 69.947 63.5273 70.6939C63.5273 70.7026 63.5187 70.7113 63.5101 70.7188C63.5015 70.7263 63.4946 70.7343 63.4871 70.7453C62.9172 71.4859 63.0545 72.5554 63.7893 73.1314L69.3335 77.4484C70.0338 77.9921 70.1647 79.0023 69.6184 79.7024C69.3588 80.0412 68.9836 80.2548 68.5597 80.3119C68.1374 80.3645 67.7215 80.2496 67.3872 79.9835L62.0555 75.8357C61.3133 75.2631 60.2482 75.3976 59.6766 76.1416C59.668 76.1503 59.6593 76.159 59.6593 76.1717C59.6507 76.1803 59.6438 76.1838 59.6364 76.1947C59.0665 76.9353 59.1969 78.0031 59.9385 78.5809L65.272 82.7286C65.9642 83.2672 66.0946 84.2778 65.5569 84.9775C65.0192 85.6776 64.0104 85.804 63.3187 85.2638L58.3593 81.4022C59.6863 79.3617 59.256 76.5871 57.3086 75.065C56.4773 74.4116 55.4841 74.067 54.427 74.067C54.3621 74.067 54.2966 74.0722 54.2305 74.0722C54.0111 73.0119 53.4326 72.018 52.5215 71.3028C51.6816 70.6529 50.6883 70.3048 49.6383 70.3048C49.5734 70.3048 49.5079 70.3083 49.4344 70.3135C49.2166 69.2497 48.6364 68.2592 47.7253 67.544C46.8941 66.8889 45.9008 66.546 44.8512 66.546C44.7777 66.546 44.7122 66.546 44.6473 66.5495C44.4279 65.4903 43.8494 64.4953 42.9365 63.7853C42.107 63.1301 41.1051 62.7838 40.0549 62.7838C39.2323 62.7838 38.4429 62.9991 37.7507 63.3968L36.2445 59.5515L49.1913 45.3845L55.6076 47.4099L54.0128 49.4786C53.1655 50.5828 52.7909 51.9497 52.9707 53.3378C53.1414 54.7202 53.8422 55.9555 54.9411 56.8057C56.0401 57.6606 57.4005 58.0381 58.7768 57.8614C60.1527 57.6865 61.3821 56.9823 62.2368 55.8781L63.3846 54.3878L77.3988 66.8243C77.4235 66.8491 77.4574 66.8699 77.481 66.8947C77.62 67.0044 77.7406 67.1354 77.8308 67.2751C77.8797 67.3969 77.9365 67.5158 78.0101 67.6301C78.175 68.1259 78.102 68.6985 77.7596 69.1441L77.7599 69.1442ZM81.564 59.4408C81.7835 60.7759 80.6023 62.7101 79.4632 64.1248L65.1394 51.4106C65.1078 50.9408 64.886 50.4813 64.4891 50.1713C63.7469 49.597 62.6818 49.7332 62.1119 50.4732L59.5555 53.7962C59.2533 54.18 58.83 54.4253 58.3491 54.4865C57.8677 54.5489 57.3978 54.4178 57.0135 54.1194C56.6315 53.821 56.3873 53.3904 56.3213 52.9073C56.2644 52.4253 56.3948 51.9514 56.6883 51.567L62.3871 44.1696C62.7961 43.9369 64.5213 43.6004 67.6648 43.9341C70.6854 44.2486 72.5823 44.939 72.9247 45.2339C73.5509 45.8521 75.0514 47.8885 76.6306 50.2747L80.6197 56.9904C81.123 58.0092 81.4734 58.8675 81.5642 59.4407L81.564 59.4408ZM87.5638 62.0382L83.4689 55.1544C82.4016 53.0348 80.904 50.58 79.4626 48.3999L73.615 38.5648L78.2648 36.021L92.0193 59.1005L87.5638 62.0382Z" fill="black"/>
</svg>
