<svg width="86" height="86" viewBox="0 0 86 86" fill="none" xmlns="http://www.w3.org/2000/svg">
<rect width="86" height="86" rx="16" fill="#F5F5F5"/>
<path fill-rule="evenodd" clip-rule="evenodd" d="M47.3658 37.6849C46.076 38.9652 44.3299 39.6795 42.5128 39.6715L42.5129 39.6714C40.7023 39.6646 38.9686 38.9399 37.6916 37.6567C36.4142 36.3739 35.6976 34.6365 35.6991 32.8263C35.6991 31.0088 36.4219 29.2664 37.7076 27.9825C38.9937 26.6986 40.7373 25.9787 42.5547 25.9813C44.3718 25.9842 46.1136 26.7095 47.3953 27.9975C48.6774 29.2855 49.3947 31.0301 49.3893 32.8472C49.3838 34.6647 48.6556 36.405 47.3658 37.6849ZM44.4143 30.9195C43.9074 30.422 43.2232 30.1473 42.5128 30.1556C41.8089 30.1611 41.1361 30.4453 40.6411 30.9461C40.1462 31.4466 39.87 32.1231 39.8729 32.8269C39.8729 33.5369 40.1556 34.2181 40.659 34.7193C41.1623 35.2204 41.8443 35.5006 42.5547 35.4977C43.2651 35.4952 43.9449 35.2095 44.4442 34.7044C44.9435 34.1992 45.2208 33.5158 45.2153 32.8057C45.2099 32.0954 44.9216 31.4166 44.4143 30.9195Z" fill="#AA0064"/>
<path fill-rule="evenodd" clip-rule="evenodd" d="M24.2163 67C22.6682 66.9953 21.2023 66.3031 20.2146 65.1113L20.215 65.1101C19.223 63.9241 18.8085 62.3589 19.0829 60.8373L21.0812 49.7506C21.2988 48.5475 21.9321 47.4589 22.8702 46.675C23.8084 45.8915 24.9923 45.462 26.2147 45.462H32.079L30.6181 43.495C28.3912 40.5697 27.2813 36.9457 27.4876 33.2748C28.0196 25.261 34.5621 19 42.3829 19C50.2032 19 56.7459 25.2614 57.2623 33.3009C57.4686 36.9721 56.3586 40.5965 54.1318 43.5221L52.6659 45.4629H58.8119C60.0344 45.4629 61.2182 45.8923 62.1564 46.6759C63.0946 47.4598 63.7278 48.5483 63.9454 49.7515L65.9437 60.854C66.2189 62.3756 65.8051 63.9404 64.8137 65.1272C63.8227 66.314 62.3561 66.9996 60.8098 67H24.2163ZM42.3832 23.1747C36.1011 23.1747 31.9898 28.4604 31.6506 33.5524L31.6508 33.5519C31.5158 36.2311 32.3409 38.8711 33.9778 40.9967L42.3831 52.2502L50.788 40.9809C52.425 38.8552 53.2503 36.2153 53.115 33.5357C52.7758 28.4441 48.665 23.1747 42.3832 23.1747ZM25.1916 50.4983L23.2094 61.5794L23.1725 61.5796C23.1165 61.8871 23.2009 62.2038 23.4029 62.4425C23.6052 62.6809 23.9036 62.8162 24.2163 62.8112H60.7734C61.0849 62.8159 61.3823 62.6812 61.5842 62.444C61.7862 62.2067 61.8714 61.8919 61.8168 61.5851L59.8552 50.4928C59.7635 49.991 59.3221 49.6292 58.8118 49.6372H49.5459L44.0571 56.9831C43.6634 57.5108 43.0436 57.8216 42.3853 57.8216C41.727 57.8216 41.1072 57.5108 40.7131 56.9831L35.2091 49.6372H26.2354C25.7233 49.6296 25.2812 49.9942 25.1916 50.4983Z" fill="#AA0064"/>
</svg>
