<svg width="152" height="46" viewBox="0 0 152 46" fill="none" xmlns="http://www.w3.org/2000/svg">
<rect x="0.5" y="0.5" width="151" height="45" rx="11.5" fill="white"/>
<path d="M33.922 22.7515C33.8893 19.045 36.8933 17.2418 37.0307 17.1579C35.3294 14.6244 32.6925 14.2783 31.7658 14.2507C29.5511 14.0126 27.4029 15.6042 26.2747 15.6042C25.124 15.6042 23.3867 14.2737 21.5143 14.3128C19.1048 14.3507 16.8507 15.7756 15.6144 17.9882C13.0631 22.4996 14.9659 29.1294 17.4103 32.776C18.633 34.562 20.0618 36.5561 21.932 36.4859C23.7616 36.4089 24.4451 35.2945 26.653 35.2945C28.8407 35.2945 29.4825 36.4859 31.3898 36.4411C33.3534 36.4089 34.5897 34.6471 35.7696 32.845C37.1827 30.798 37.7501 28.7821 37.7727 28.6786C37.7265 28.6625 33.9592 27.1939 33.922 22.7515Z" fill="black"/>
<path d="M30.319 11.8518C31.3031 10.5948 31.9764 8.88476 31.7895 7.14941C30.3652 7.21381 28.584 8.15566 27.5583 9.38501C26.6508 10.4683 25.8401 12.2439 26.0495 13.9137C27.6495 14.0356 29.2922 13.0892 30.319 11.8518Z" fill="black"/>
<path d="M55.2268 11.5105C55.2268 12.864 54.8293 13.8829 54.0355 14.5672C53.3003 15.1985 52.2554 15.5148 50.9021 15.5148C50.231 15.5148 49.6568 15.4849 49.176 15.4251V8.02945C49.8032 7.92595 50.4787 7.87305 51.2083 7.87305C52.4975 7.87305 53.4692 8.1594 54.1245 8.7321C54.8586 9.37955 55.2268 10.3053 55.2268 11.5105ZM53.9826 11.5438C53.9826 10.6664 53.7552 9.99365 53.3003 9.52445C52.8454 9.0564 52.1811 8.8218 51.3063 8.8218C50.9347 8.8218 50.6183 8.8471 50.356 8.9V14.5223C50.5012 14.5453 50.767 14.5557 51.1532 14.5557C52.0561 14.5557 52.7531 14.2992 53.244 13.7863C53.7349 13.2734 53.9826 12.5259 53.9826 11.5438Z" fill="black"/>
<path d="M61.8236 12.6921C61.8236 13.5259 61.5906 14.209 61.1244 14.7449C60.6358 15.2957 59.9884 15.5706 59.18 15.5706C58.4008 15.5706 57.7804 15.3072 57.3177 14.7782C56.8561 14.2504 56.6252 13.5845 56.6252 12.7818C56.6252 11.9423 56.8628 11.2535 57.3402 10.7187C57.8176 10.184 58.4594 9.91602 59.2678 9.91602C60.0469 9.91602 60.6729 10.1794 61.147 10.7072C61.5973 11.2201 61.8236 11.8825 61.8236 12.6921ZM60.5998 12.7312C60.5998 12.231 60.4939 11.802 60.2834 11.4444C60.0357 11.012 59.6833 10.7958 59.225 10.7958C58.751 10.7958 58.3907 11.012 58.143 11.4444C57.9313 11.802 57.8266 12.2379 57.8266 12.7531C57.8266 13.2533 57.9324 13.6823 58.143 14.0399C58.3986 14.4723 58.7544 14.6885 59.2137 14.6885C59.6641 14.6885 60.0177 14.4689 60.2721 14.0284C60.4905 13.6639 60.5998 13.2315 60.5998 12.7312Z" fill="black"/>
<path d="M70.6688 10.0264L69.0081 15.4475H67.9272L67.2393 13.0934C67.0647 12.5058 66.9229 11.9216 66.8125 11.342H66.7911C66.6887 11.9377 66.5468 12.5207 66.3644 13.0934L65.6337 15.4475H64.5404L62.9788 10.0264H64.1914L64.7915 12.6035C64.9367 13.213 65.0561 13.7938 65.1518 14.3435H65.1732C65.261 13.8904 65.4063 13.3131 65.6112 12.615L66.3644 10.0275H67.326L68.0477 12.5598C68.2222 13.1774 68.3641 13.7719 68.4733 14.3446H68.5059C68.5859 13.7869 68.7063 13.1923 68.8662 12.5598L69.5103 10.0275H70.6688V10.0264Z" fill="black"/>
<path d="M76.7859 15.448H75.6059V12.343C75.6059 11.3862 75.2501 10.9078 74.5363 10.9078C74.1861 10.9078 73.9035 11.0389 73.6839 11.3023C73.4666 11.5656 73.3563 11.8761 73.3563 12.2315V15.4469H72.1763V11.576C72.1763 11.0999 72.1617 10.5835 72.1335 10.0246H73.1705L73.2257 10.8722H73.2583C73.3957 10.6088 73.6006 10.3915 73.8697 10.2178C74.1895 10.0154 74.5475 9.91309 74.9393 9.91309C75.4348 9.91309 75.8468 10.0764 76.1745 10.4041C76.5821 10.8055 76.7859 11.4046 76.7859 12.2004V15.448Z" fill="black"/>
<path d="M80.0399 15.4476H78.8611V7.53906H80.0399V15.4476Z" fill="black"/>
<path d="M86.987 12.6921C86.987 13.5259 86.7539 14.209 86.2878 14.7449C85.7991 15.2957 85.1506 15.5706 84.3433 15.5706C83.563 15.5706 82.9426 15.3072 82.481 14.7782C82.0194 14.2504 81.7886 13.5845 81.7886 12.7818C81.7886 11.9423 82.0261 11.2535 82.5035 10.7187C82.9809 10.184 83.6227 9.91602 84.43 9.91602C85.2103 9.91602 85.8351 10.1794 86.3103 10.7072C86.7607 11.2201 86.987 11.8825 86.987 12.6921ZM85.762 12.7312C85.762 12.231 85.6561 11.802 85.4456 11.4444C85.199 11.012 84.8455 10.7958 84.3883 10.7958C83.9132 10.7958 83.5529 11.012 83.3063 11.4444C83.0946 11.802 82.9899 12.2379 82.9899 12.7531C82.9899 13.2533 83.0958 13.6823 83.3063 14.0399C83.5619 14.4723 83.9177 14.6885 84.3771 14.6885C84.8275 14.6885 85.1799 14.4689 85.4343 14.0284C85.6539 13.6639 85.762 13.2315 85.762 12.7312Z" fill="black"/>
<path d="M92.6977 15.4475H91.6382L91.5503 14.8231H91.5177C91.1551 15.321 90.6383 15.5706 89.9673 15.5706C89.4663 15.5706 89.0609 15.4061 88.7558 15.0795C88.4788 14.7828 88.3403 14.4137 88.3403 13.9755C88.3403 13.3131 88.6106 12.8083 89.1544 12.4587C89.6971 12.1091 90.4605 11.9377 91.4434 11.9458V11.8446C91.4434 11.1304 91.0763 10.7739 90.3411 10.7739C89.8175 10.7739 89.3559 10.9085 88.9573 11.1753L88.7175 10.3841C89.2107 10.0724 89.8198 9.91602 90.5381 9.91602C91.9253 9.91602 92.6211 10.6635 92.6211 12.1585V14.1549C92.6211 14.6966 92.647 15.1278 92.6977 15.4475ZM91.4727 13.5845V12.7485C90.1711 12.7255 89.5203 13.09 89.5203 13.841C89.5203 14.1239 89.5946 14.3355 89.7466 14.4769C89.8986 14.6184 90.0923 14.6885 90.3231 14.6885C90.582 14.6885 90.8241 14.6046 91.0448 14.4378C91.2666 14.2699 91.4028 14.0572 91.4535 13.7961C91.4659 13.7375 91.4727 13.6662 91.4727 13.5845Z" fill="black"/>
<path d="M99.4024 15.4476H98.3552L98.3001 14.5771H98.2674C97.933 15.2395 97.3633 15.5707 96.5628 15.5707C95.9232 15.5707 95.3907 15.3142 94.9685 14.8013C94.5462 14.2884 94.3357 13.6226 94.3357 12.8049C94.3357 11.9275 94.5643 11.2168 95.0236 10.674C95.4684 10.168 96.0133 9.91496 96.6618 9.91496C97.3746 9.91496 97.8733 10.1599 98.1571 10.651H98.1796V7.53906H99.3607V13.9871C99.3607 14.515 99.3742 15.0014 99.4024 15.4476ZM98.1796 13.1614V12.2575C98.1796 12.1011 98.1683 11.9746 98.1469 11.878C98.0805 11.5882 97.9375 11.3444 97.7202 11.1478C97.5007 10.9511 97.2361 10.8522 96.9309 10.8522C96.4907 10.8522 96.1462 11.0305 95.8928 11.3881C95.6418 11.7458 95.5145 12.2023 95.5145 12.7601C95.5145 13.296 95.635 13.7307 95.8771 14.0653C96.1327 14.4218 96.4772 14.6001 96.9084 14.6001C97.2957 14.6001 97.6054 14.4517 97.8407 14.1539C98.0681 13.879 98.1796 13.5478 98.1796 13.1614Z" fill="black"/>
<path d="M109.494 12.6921C109.494 13.5259 109.261 14.209 108.795 14.7449C108.306 15.2957 107.66 15.5706 106.85 15.5706C106.072 15.5706 105.452 15.3072 104.988 14.7782C104.526 14.2504 104.296 13.5845 104.296 12.7818C104.296 11.9423 104.533 11.2535 105.011 10.7187C105.488 10.184 106.13 9.91602 106.939 9.91602C107.717 9.91602 108.344 10.1794 108.817 10.7072C109.268 11.2201 109.494 11.8825 109.494 12.6921ZM108.271 12.7312C108.271 12.231 108.165 11.802 107.955 11.4444C107.706 11.012 107.355 10.7958 106.895 10.7958C106.423 10.7958 106.062 11.012 105.813 11.4444C105.602 11.802 105.497 12.2379 105.497 12.7531C105.497 13.2533 105.603 13.6823 105.813 14.0399C106.069 14.4723 106.425 14.6885 106.884 14.6885C107.335 14.6885 107.689 14.4689 107.944 14.0284C108.161 13.6639 108.271 13.2315 108.271 12.7312Z" fill="black"/>
<path d="M115.839 15.448H114.66V12.343C114.66 11.3862 114.304 10.9078 113.589 10.9078C113.239 10.9078 112.956 11.0389 112.738 11.3023C112.519 11.5656 112.41 11.8761 112.41 12.2315V15.4469H111.229V11.576C111.229 11.0999 111.216 10.5835 111.188 10.0246H112.223L112.279 10.8722H112.311C112.45 10.6088 112.655 10.3915 112.923 10.2178C113.243 10.0154 113.6 9.91309 113.993 9.91309C114.488 9.91309 114.9 10.0764 115.227 10.4041C115.636 10.8055 115.839 11.4046 115.839 12.2004V15.448Z" fill="black"/>
<path d="M123.78 10.9296H122.481V13.5631C122.481 14.2324 122.711 14.5671 123.169 14.5671C123.38 14.5671 123.556 14.5487 123.694 14.5107L123.725 15.425C123.492 15.5147 123.185 15.5595 122.808 15.5595C122.342 15.5595 121.98 15.4146 121.717 15.1248C121.454 14.835 121.323 14.3474 121.323 13.6632V10.9296H120.547V10.0269H121.323V9.03326L122.479 8.67676V10.0257H123.779V10.9296H123.78Z" fill="black"/>
<path d="M130.027 15.4476H128.845V12.3656C128.845 11.3939 128.49 10.9074 127.777 10.9074C127.23 10.9074 126.856 11.1892 126.651 11.7527C126.616 11.8711 126.596 12.016 126.596 12.1862V15.4465H125.417V7.53906H126.596V10.8062H126.618C126.99 10.2117 127.522 9.91496 128.213 9.91496C128.701 9.91496 129.106 10.0783 129.426 10.406C129.826 10.8143 130.027 11.4215 130.027 12.2242V15.4476Z" fill="black"/>
<path d="M136.47 12.4801C136.47 12.6963 136.454 12.878 136.426 13.0264H132.888C132.903 13.5623 133.072 13.9705 133.4 14.2534C133.699 14.5064 134.086 14.6329 134.558 14.6329C135.082 14.6329 135.559 14.5478 135.989 14.3765L136.174 15.2137C135.671 15.4368 135.079 15.5483 134.393 15.5483C133.571 15.5483 132.924 15.3011 132.455 14.8066C131.985 14.3121 131.751 13.6485 131.751 12.8159C131.751 11.9983 131.969 11.3175 132.407 10.7747C132.864 10.1951 133.482 9.90527 134.262 9.90527C135.026 9.90527 135.606 10.1951 135.997 10.7747C136.314 11.2347 136.47 11.8039 136.47 12.4801ZM135.344 12.1685C135.353 11.8108 135.276 11.5026 135.116 11.2427C134.911 10.9081 134.599 10.7402 134.177 10.7402C133.792 10.7402 133.478 10.9035 133.238 11.2312C133.042 11.4923 132.926 11.8039 132.888 12.1685H135.344Z" fill="black"/>
<path d="M60.4003 36.23H57.8433L56.4426 31.7346H51.5741L50.2399 36.23H47.7505L52.574 20.9258H55.5532L60.4003 36.23ZM56.0204 29.8486L54.7537 25.8524C54.6198 25.4441 54.3687 24.4827 53.9982 22.9693H53.9532C53.8057 23.6202 53.5681 24.5816 53.2416 25.8524L51.9975 29.8486H56.0204Z" fill="black"/>
<path d="M72.8046 30.5763C72.8046 32.4531 72.308 33.9366 71.315 35.0257C70.4255 35.9951 69.321 36.4793 68.0025 36.4793C66.5793 36.4793 65.557 35.9572 64.9344 34.913H64.8893V40.7262H62.4888V28.8272C62.4888 27.6473 62.4585 26.4363 62.3999 25.1943H64.511L64.645 26.9435H64.69C65.4906 25.6256 66.7054 24.9678 68.3358 24.9678C69.6103 24.9678 70.6743 25.4818 71.5255 26.5111C72.379 27.5415 72.8046 28.8962 72.8046 30.5763ZM70.3591 30.666C70.3591 29.5919 70.1226 28.7064 69.6475 28.0095C69.1284 27.2827 68.4315 26.9193 67.5578 26.9193C66.9655 26.9193 66.4273 27.1217 65.9466 27.5208C65.4647 27.9233 65.1494 28.4488 65.0019 29.0997C64.9276 29.4033 64.8904 29.6517 64.8904 29.8472V31.6872C64.8904 32.4899 65.1314 33.1673 65.6133 33.7204C66.0952 34.2736 66.7212 34.5496 67.4913 34.5496C68.3955 34.5496 69.0992 34.1931 69.6024 33.4824C70.1069 32.7705 70.3591 31.8321 70.3591 30.666Z" fill="black"/>
<path d="M85.2314 30.5763C85.2314 32.4531 84.7349 33.9366 83.7407 35.0257C82.8524 35.9951 81.7478 36.4793 80.4294 36.4793C79.0062 36.4793 77.9839 35.9572 77.3623 34.913H77.3173V40.7262H74.9168V28.8272C74.9168 27.6473 74.8864 26.4363 74.8279 25.1943H76.939L77.073 26.9435H77.118C77.9174 25.6256 79.1323 24.9678 80.7638 24.9678C82.0372 24.9678 83.1012 25.4818 83.9546 26.5111C84.8047 27.5415 85.2314 28.8962 85.2314 30.5763ZM82.7859 30.666C82.7859 29.5919 82.5484 28.7064 82.0732 28.0095C81.5542 27.2827 80.8595 26.9193 79.9846 26.9193C79.3913 26.9193 78.8542 27.1217 78.3723 27.5208C77.8904 27.9233 77.5763 28.4488 77.4288 29.0997C77.3556 29.4033 77.3173 29.6517 77.3173 29.8472V31.6872C77.3173 32.4899 77.5582 33.1673 78.0379 33.7204C78.5198 34.2724 79.1458 34.5496 79.9182 34.5496C80.8223 34.5496 81.526 34.1931 82.0293 33.4824C82.5337 32.7705 82.7859 31.8321 82.7859 30.666Z" fill="black"/>
<path d="M99.1255 31.9378C99.1255 33.2396 98.683 34.2988 97.7946 35.1164C96.8185 36.01 95.4595 36.4562 93.7132 36.4562C92.1008 36.4562 90.8083 36.1388 89.8298 35.5028L90.386 33.4593C91.4399 34.1102 92.5962 34.4368 93.8561 34.4368C94.7603 34.4368 95.464 34.2275 95.9695 33.8112C96.4728 33.3949 96.7239 32.836 96.7239 32.1391C96.7239 31.5181 96.5167 30.9948 96.1012 30.5705C95.688 30.1461 94.9978 29.7517 94.034 29.3871C91.4106 28.3878 90.1001 26.9238 90.1001 24.9987C90.1001 23.7406 90.5594 22.7091 91.4793 21.9064C92.3958 21.1025 93.6186 20.7012 95.1476 20.7012C96.5111 20.7012 97.6438 20.9438 98.5479 21.428L97.9478 23.4267C97.1033 22.9575 96.1485 22.7229 95.08 22.7229C94.2356 22.7229 93.5758 22.9356 93.1029 23.3588C92.7032 23.7372 92.5028 24.1983 92.5028 24.7446C92.5028 25.3495 92.7313 25.8497 93.1907 26.243C93.5904 26.6064 94.3167 26.9997 95.3705 27.4241C96.6597 27.9542 97.6066 28.5741 98.2157 29.2848C98.8226 29.9932 99.1255 30.8798 99.1255 31.9378Z" fill="black"/>
<path d="M107.062 27.034H104.416V32.3918C104.416 33.7546 104.882 34.4354 105.817 34.4354C106.246 34.4354 106.602 34.3974 106.883 34.3215L106.949 36.1834C106.477 36.3639 105.854 36.4548 105.083 36.4548C104.135 36.4548 103.394 36.1592 102.859 35.5693C102.326 34.9782 102.058 33.9869 102.058 32.5942V27.0317H100.482V25.1917H102.058V23.1711L104.416 22.4443V25.1917H107.062V27.034Z" fill="black"/>
<path d="M119 30.621C119 32.3173 118.525 33.7099 117.577 34.799C116.583 35.9202 115.263 36.4791 113.618 36.4791C112.033 36.4791 110.771 35.942 109.83 34.8679C108.888 33.7938 108.418 32.438 108.418 30.8038C108.418 29.0938 108.902 27.6931 109.874 26.6041C110.843 25.5139 112.151 24.9688 113.796 24.9688C115.382 24.9688 116.657 25.5058 117.62 26.5811C118.541 27.6241 119 28.9708 119 30.621ZM116.51 30.7003C116.51 29.6826 116.297 28.8098 115.866 28.0818C115.362 27.2009 114.643 26.7616 113.711 26.7616C112.746 26.7616 112.013 27.2021 111.51 28.0818C111.078 28.8109 110.865 29.6976 110.865 30.7464C110.865 31.7641 111.078 32.6369 111.51 33.3637C112.029 34.2446 112.754 34.6839 113.689 34.6839C114.606 34.6839 115.325 34.2355 115.844 33.3408C116.287 32.599 116.51 31.7169 116.51 30.7003Z" fill="black"/>
<path d="M126.803 27.3506C126.565 27.3057 126.312 27.2827 126.046 27.2827C125.202 27.2827 124.549 27.6082 124.089 28.2602C123.69 28.8352 123.489 29.562 123.489 30.4395V36.2297H121.09L121.113 28.6696C121.113 27.3977 121.082 26.2397 121.022 25.1955H123.113L123.201 27.3069H123.268C123.521 26.5812 123.921 25.997 124.468 25.5589C125.003 25.1644 125.58 24.9678 126.203 24.9678C126.425 24.9678 126.625 24.9839 126.803 25.0126V27.3506Z" fill="black"/>
<path d="M137.539 30.1901C137.539 30.6294 137.511 30.9997 137.451 31.3022H130.249C130.278 32.3924 130.625 33.2261 131.294 33.8011C131.901 34.3152 132.686 34.5728 133.65 34.5728C134.716 34.5728 135.689 34.3991 136.564 34.0507L136.94 35.7527C135.917 36.2081 134.71 36.4346 133.318 36.4346C131.642 36.4346 130.327 35.9309 129.37 34.9247C128.415 33.9184 127.937 32.5672 127.937 30.8721C127.937 29.208 128.382 27.8223 129.272 26.7171C130.204 25.5372 131.464 24.9473 133.05 24.9473C134.607 24.9473 135.786 25.5372 136.586 26.7171C137.22 27.6544 137.539 28.8136 137.539 30.1901ZM135.25 29.5542C135.265 28.8274 135.109 28.1995 134.784 27.6693C134.368 26.9874 133.73 26.647 132.871 26.647C132.086 26.647 131.447 26.9793 130.96 27.6463C130.56 28.1765 130.323 28.8124 130.249 29.553H135.25V29.5542Z" fill="black"/>
<rect x="0.5" y="0.5" width="151" height="45" rx="11.5" stroke="#808080"/>
</svg>
