<svg width="16" height="10" viewBox="0 0 16 10" fill="none" xmlns="http://www.w3.org/2000/svg">
<path fill-rule="evenodd" clip-rule="evenodd" d="M11.4612 0.198869L15.8003 4.51989C16.0666 4.78505 16.0666 5.21495 15.8003 5.48011L11.4612 9.80113C11.195 10.0663 10.7633 10.0663 10.497 9.80113C10.2307 9.53597 10.2307 9.10606 10.497 8.8409L13.6721 5.67898H0.681818C0.30526 5.67898 0 5.37499 0 5C0 4.62501 0.30526 4.32102 0.681818 4.32102H13.6721L10.497 1.1591C10.2307 0.893936 10.2307 0.464029 10.497 0.198869C10.7633 -0.0662898 11.195 -0.0662898 11.4612 0.198869Z" fill="url(#paint0_linear_662_10103)"/>
<defs>
<linearGradient id="paint0_linear_662_10103" x1="0.126983" y1="-0.183982" x2="16.1995" y2="9.67477" gradientUnits="userSpaceOnUse">
<stop stop-color="#8454EB"/>
<stop offset="1" stop-color="#5A2DBC"/>
</linearGradient>
</defs>
</svg>
