<svg width="227" height="324" viewBox="0 0 227 324" fill="none" xmlns="http://www.w3.org/2000/svg">
<path d="M126.712 323.86H83.6947V254.296L53.4638 323.86H27.6007L-2.36551 254.058V323.86H-45.144V55.8047L40.4132 255.353L126.738 55.8047V323.86H126.712Z" fill="white"/>
<path d="M40.3856 19.6773C45.826 19.6773 50.2337 15.2462 50.2337 9.83867C50.2337 4.3936 45.826 0 40.3856 0C34.9452 0 30.5376 4.3936 30.5376 9.83867C30.5376 15.2462 34.9452 19.6773 40.3856 19.6773Z" fill="#FFA000"/>
<path d="M-45.1488 45.1377C-39.7085 45.1377 -35.3008 40.7065 -35.3008 35.299C-35.3008 29.854 -39.7085 25.4604 -45.1488 25.4604C-50.5892 25.4604 -54.9969 29.854 -54.9969 35.299C-54.9969 37.9277 -53.9454 40.331 -52.2368 42.096C-50.4484 43.9736 -47.9324 45.1377 -45.1488 45.1377Z" fill="#FFA000"/>
<path d="M-125.304 79.0848C-125.304 81.4131 -126.13 83.5911 -127.51 85.2809C-129.317 87.4965 -132.068 88.9235 -135.152 88.9235C-140.592 88.9235 -145 84.4923 -145 79.0848C-145 73.6398 -140.592 69.2462 -135.152 69.2462C-129.712 69.2462 -125.304 73.6398 -125.304 79.0848Z" fill="#FFA000"/>
<path d="M221.673 87.459C220.171 88.3978 218.402 88.9235 216.505 88.9235C214.318 88.9235 212.295 88.21 210.661 87.0083C208.23 85.2058 206.657 82.3143 206.657 79.0848C206.657 76.0807 208 73.3769 210.121 71.5744C211.839 70.1099 214.069 69.2462 216.505 69.2462C218.74 69.2462 220.8 69.9972 222.453 71.2364L223.903 72.5883L224.898 73.9402C225.349 74.6537 225.706 75.4423 225.95 76.2684L226.231 77.5077L226.353 79.0848C226.353 79.8734 226.255 80.662 226.072 81.4131C225.818 82.427 225.4 83.4033 224.846 84.267L223.851 85.6189L222.556 86.8581L221.673 87.459Z" fill="#FFA000"/>
<path d="M136.557 35.299C136.557 40.7065 132.149 45.1377 126.709 45.1377C121.268 45.1377 116.861 40.7065 116.861 35.299C116.861 31.4687 119.034 28.1641 122.212 26.5118L123.578 25.9485C124.563 25.6481 125.615 25.4604 126.709 25.4604C132.149 25.4604 136.557 29.854 136.557 35.299Z" fill="#FFA000"/>
<path d="M40.4936 225.688L1.10135 130.193L40.4936 29.2156L81.233 130.193L40.4936 225.688Z" fill="#FFA000"/>
<path d="M7.98749 323.925H17.2253L7.98749 302.37V323.925Z" fill="#FFA000"/>
<path d="M64.0247 324H73.4221V302.37L64.0247 324Z" fill="#FFA000"/>
<path d="M-124.06 99.6634L-56.9261 178.335V323.85H-68.7879L-124.06 99.6634Z" fill="#FFA000"/>
<path d="M150.136 323.85L205.409 99.6634L138.275 178.335V323.85H150.136Z" fill="#FFA000"/>
</svg>
