<svg width="61" height="60" viewBox="0 0 61 60" fill="none" xmlns="http://www.w3.org/2000/svg">
<rect x="0.65625" width="60" height="60" rx="12" fill="#FFB400"/>
<path d="M22.0984 16.0001C21.9544 16.0018 21.8122 16.0319 21.68 16.0888C21.5477 16.1457 21.4281 16.2282 21.3279 16.3316C21.2277 16.4349 21.149 16.5571 21.0963 16.691C21.0436 16.8249 21.018 16.9678 21.0209 17.1117V18.1971H17.7512C17.6073 18.1966 17.4646 18.2245 17.3315 18.2793C17.1984 18.334 17.0775 18.4146 16.9757 18.5163C16.8739 18.6181 16.7933 18.7389 16.7384 18.8719C16.6836 19.0049 16.6557 19.1475 16.6563 19.2913V23.875H18.8375V20.379H21.0209V21.4731C20.9882 22.9586 23.2348 22.9586 23.2021 21.4731V20.379H29.5645V21.4731C29.5645 22.928 31.748 22.928 31.748 21.4731V20.379H38.1104V21.4731C38.1104 22.928 40.2938 22.928 40.2938 21.4731V20.379H42.475V23.875H44.6562V19.2913C44.6568 19.1475 44.6289 19.0049 44.5741 18.8719C44.5192 18.7389 44.4386 18.6181 44.3368 18.5163C44.235 18.4146 44.1141 18.334 43.981 18.2793C43.8479 18.2245 43.7052 18.1966 43.5613 18.1971H40.2938V17.1117C40.2938 16.8224 40.1788 16.5449 39.974 16.3403C39.7693 16.1357 39.4916 16.0208 39.2021 16.0208C38.9126 16.0208 38.6349 16.1357 38.4301 16.3403C38.2254 16.5449 38.1104 16.8224 38.1104 17.1117V18.1971H31.748V17.1117C31.748 16.8224 31.6329 16.5449 31.4282 16.3403C31.2235 16.1357 30.9458 16.0208 30.6562 16.0208C30.3667 16.0208 30.089 16.1357 29.8843 16.3403C29.6796 16.5449 29.5645 16.8224 29.5645 17.1117V18.1971H23.2021V17.1117C23.205 16.9656 23.1786 16.8205 23.1242 16.6849C23.0699 16.5493 22.9889 16.4259 22.8859 16.3222C22.783 16.2185 22.6602 16.1366 22.5249 16.0812C22.3896 16.0259 22.2446 15.9983 22.0984 16.0001Z" fill="black"/>
<path d="M27.7048 31.4178C27.9094 31.2135 28.1868 31.0986 28.476 31.0986C28.7653 31.0986 29.0427 31.2135 29.2472 31.4178C29.4517 31.6222 29.5666 31.8994 29.5666 32.1884C29.5666 32.4775 29.4517 32.7547 29.2472 32.9591C29.0427 33.1634 28.7653 33.2783 28.476 33.2783C28.1868 33.2783 27.9094 33.1634 27.7048 32.9591C27.5003 32.7547 27.3854 32.4775 27.3854 32.1884C27.3854 31.8994 27.5003 31.6222 27.7048 31.4178Z" fill="black"/>
<path d="M32.0673 31.4178C32.2718 31.2135 32.5492 31.0986 32.8384 31.0986C33.1277 31.0986 33.4051 31.2135 33.6096 31.4178C33.8142 31.6222 33.9291 31.8994 33.9291 32.1884C33.9291 32.4775 33.8142 32.7547 33.6096 32.9591C33.4051 33.1634 33.1277 33.2783 32.8384 33.2783C32.5492 33.2783 32.2718 33.1634 32.0673 32.9591C31.8627 32.7547 31.7478 32.4775 31.7478 32.1884C31.7478 31.8994 31.8627 31.6222 32.0673 31.4178Z" fill="black"/>
<path d="M37.2009 31.0986C36.9116 31.0986 36.6342 31.2135 36.4297 31.4178C36.2252 31.6222 36.1103 31.8994 36.1103 32.1884C36.1103 32.4775 36.2252 32.7547 36.4297 32.9591C36.6342 33.1634 36.9116 33.2783 37.2009 33.2783C37.4901 33.2783 37.7675 33.1634 37.9721 32.9591C38.1766 32.7547 38.2915 32.4775 38.2915 32.1884C38.2915 31.8994 38.1766 31.6222 37.9721 31.4178C37.7675 31.2135 37.4901 31.0986 37.2009 31.0986Z" fill="black"/>
<path d="M23.3424 35.7771C23.5469 35.5727 23.8243 35.4579 24.1136 35.4579C24.4028 35.4579 24.6802 35.5727 24.8847 35.7771C25.0893 35.9815 25.2042 36.2587 25.2042 36.5477C25.2042 36.8367 25.0893 37.1139 24.8847 37.3183C24.6802 37.5227 24.4028 37.6375 24.1136 37.6375C23.8243 37.6375 23.5469 37.5227 23.3424 37.3183C23.1379 37.1139 23.0229 36.8367 23.0229 36.5477C23.0229 36.2587 23.1379 35.9815 23.3424 35.7771Z" fill="black"/>
<path d="M28.476 35.4579C28.1868 35.4579 27.9094 35.5727 27.7048 35.7771C27.5003 35.9815 27.3854 36.2587 27.3854 36.5477C27.3854 36.8367 27.5003 37.1139 27.7048 37.3183C27.9094 37.5227 28.1868 37.6375 28.476 37.6375C28.7653 37.6375 29.0427 37.5227 29.2472 37.3183C29.4517 37.1139 29.5666 36.8367 29.5666 36.5477C29.5666 36.2587 29.4517 35.9815 29.2472 35.7771C29.0427 35.5727 28.7653 35.4579 28.476 35.4579Z" fill="black"/>
<path d="M32.0673 35.7771C32.2718 35.5727 32.5492 35.4579 32.8384 35.4579C33.1277 35.4579 33.4051 35.5727 33.6096 35.7771C33.8142 35.9815 33.9291 36.2587 33.9291 36.5477C33.9291 36.8367 33.8142 37.1139 33.6096 37.3183C33.4051 37.5227 33.1277 37.6375 32.8384 37.6375C32.5492 37.6375 32.2718 37.5227 32.0673 37.3183C31.8627 37.1139 31.7478 36.8367 31.7478 36.5477C31.7478 36.2587 31.8627 35.9815 32.0673 35.7771Z" fill="black"/>
<path fill-rule="evenodd" clip-rule="evenodd" d="M16.6563 25V42.9058C16.6557 43.0497 16.6836 43.1922 16.7384 43.3252C16.7933 43.4582 16.8739 43.5791 16.9757 43.6808C17.0775 43.7825 17.1984 43.8631 17.3315 43.9179C17.4646 43.9727 17.6073 44.0006 17.7512 44H43.5613C43.7052 44.0006 43.8479 43.9727 43.981 43.9179C44.1141 43.8631 44.235 43.7825 44.3368 43.6808C44.4386 43.5791 44.5192 43.4582 44.5741 43.3252C44.6289 43.1922 44.6568 43.0497 44.6562 42.9058V25H16.6563ZM42.475 41.8204V27.2928H18.8375V41.8204H42.475Z" fill="black"/>
</svg>
