<svg width="24" height="24" viewBox="0 0 24 24" fill="none" xmlns="http://www.w3.org/2000/svg">
<path fill-rule="evenodd" clip-rule="evenodd" d="M1.23161 17.2977C3.18905 21.2668 7.27821 24 12 24C18.6225 24 24 18.6225 24 12C24 5.3775 18.6225 0 12 0C7.27795 0 3.18911 2.733 1.23161 6.70232C0.865607 7.44477 1.17155 8.34482 1.914 8.71082C2.65666 9.07682 3.5565 8.77213 3.9225 8.02966C5.39111 5.05082 8.45705 3.00021 12 3.00021C16.9664 3.00021 21 7.03377 21 12.0002C21 16.9667 16.9664 21.0002 12 21.0002C8.45695 21.0002 5.39089 18.9497 3.9225 15.9708C3.5565 15.2283 2.65666 14.9236 1.914 15.2896C1.17155 15.6556 0.865607 16.5557 1.23161 17.2981V17.2977ZM10.5 7.5V12C10.5 12.501 10.7505 12.9706 11.1676 13.2481L15.6676 16.2481C16.3575 16.707 17.2892 16.5211 17.7481 15.8325C18.207 15.1425 18.0211 14.2108 17.3325 13.752L13.5 11.1975V7.49996C13.5 6.6719 12.8281 5.99996 12 5.99996C11.172 5.99996 10.5 6.6719 10.5 7.49996L10.5 7.5ZM1.5 10.5C0.671946 10.5 0 11.1719 0 12C0 12.8281 0.671946 13.5 1.5 13.5C2.32805 13.5 3 12.8281 3 12C3 11.1719 2.32805 10.5 1.5 10.5Z" fill="#AA0064"/>
</svg>
