<svg width="36" height="175" viewBox="0 0 36 175" fill="none" xmlns="http://www.w3.org/2000/svg">
<path d="M34.6562 91L33.8302 79.4826L24.2688 85.9567L34.6562 91ZM34.0165 0.231391C33.4584 0.695945 32.9205 1.21468 32.4028 1.78237L33.8805 3.13005C34.3425 2.62348 34.8147 2.16921 35.296 1.76861L34.0165 0.231391ZM28.7143 7.21844C28.0762 8.44158 27.4796 9.75973 26.9253 11.1599L28.7848 11.8961C29.3168 10.5525 29.8851 9.29817 30.4875 8.14357L28.7143 7.21844ZM24.909 17.2626C24.5414 18.6026 24.2035 19.9904 23.8961 21.4191L25.8513 21.8398C26.1514 20.4452 26.4806 19.0937 26.8377 17.7917L24.909 17.2626ZM22.7745 27.7211C22.5759 29.106 22.4029 30.517 22.2563 31.949L24.2459 32.1527C24.3899 30.7468 24.5596 29.3626 24.7543 28.0051L22.7745 27.7211ZM21.7853 38.3182C21.7201 39.7241 21.6794 41.1427 21.6638 42.5696L23.6636 42.5916C23.6791 41.1881 23.7191 39.7931 23.7832 38.4108L21.7853 38.3182ZM21.7607 48.9522C21.8192 50.3675 21.9027 51.7849 22.0117 53.2004L24.0058 53.0469C23.8987 51.6553 23.8166 50.2615 23.7589 48.8695L21.7607 48.9522ZM22.6767 59.5517C22.865 60.9647 23.0801 62.3698 23.3225 63.7629L25.2929 63.4199C25.0551 62.0538 24.8441 60.675 24.6591 59.2875L22.6767 59.5517ZM24.6221 70.0256C24.9611 71.4205 25.3304 72.7959 25.7309 74.1472L27.6484 73.5789C27.2578 72.2608 26.897 70.9175 26.5656 69.5534L24.6221 70.0256ZM27.8109 80.2162C28.3415 81.5639 28.9088 82.8766 29.5139 84.1485L31.32 83.2894C30.7358 82.0614 30.1866 80.791 29.6719 79.4835L27.8109 80.2162Z" fill="#AA0064"/>
<path d="M34.6564 175L31.2365 163.971L23.3951 172.447L34.6564 175ZM34.5081 0.0110636C33.8289 0.112936 33.1582 0.247082 32.4962 0.412588L32.9812 2.35288C33.5815 2.2028 34.1894 2.08124 34.8047 1.98894L34.5081 0.0110636ZM26.8316 2.69348C25.674 3.34712 24.5522 4.10299 23.4669 4.95367L24.7006 6.52779C25.7121 5.73501 26.7506 5.03604 27.815 4.43503L26.8316 2.69348ZM19.1089 9.08064C18.2429 10.0529 17.4051 11.0916 16.5958 12.1921L18.207 13.377C18.982 12.3232 19.7807 11.3333 20.6024 10.4109L19.1089 9.08064ZM13.3504 17.1904C12.7036 18.3136 12.0791 19.4813 11.4771 20.6905L13.2675 21.5818C13.8525 20.4067 14.458 19.2747 15.0836 18.1884L13.3504 17.1904ZM9.04525 26.0962C8.55535 27.3012 8.08436 28.5377 7.63252 29.8035L9.51611 30.4759C9.95866 29.2361 10.4194 28.0266 10.898 26.8494L9.04525 26.0962ZM5.80689 35.4257C5.44156 36.6657 5.09273 37.9282 4.76063 39.2116L6.69684 39.7126C7.02356 38.4501 7.36649 37.209 7.72536 35.9909L5.80689 35.4257ZM3.41464 44.9553C3.14665 46.2251 2.89391 47.5117 2.65661 48.8134L4.62418 49.1721C4.85825 47.8881 5.10744 46.6197 5.37154 45.3682L3.41464 44.9553ZM1.71234 54.6373C1.52874 55.9246 1.35956 57.224 1.20496 58.5344L3.19118 58.7688C3.34392 57.4742 3.51102 56.1908 3.6923 54.9197L1.71234 54.6373ZM0.617298 64.3917C0.509482 65.69 0.415586 66.9969 0.335768 68.3114L2.33209 68.4326C2.41102 67.1328 2.50386 65.8407 2.61044 64.5572L0.617298 64.3917ZM0.0741988 74.2C0.0373937 75.5007 0.0141857 76.8069 0.00472254 78.1177L2.00467 78.1322C2.01403 76.8354 2.03699 75.5431 2.0734 74.2566L0.0741988 74.2ZM0.054496 84.0058C0.0859702 85.3129 0.131094 86.6231 0.190014 87.9352L2.188 87.8455C2.1297 86.5472 2.08506 85.251 2.05392 83.9577L0.054496 84.0058ZM0.545606 93.8089C0.644971 95.1121 0.758078 96.4158 0.88507 97.7191L2.87564 97.5251C2.75002 96.2359 2.63812 94.9461 2.53982 93.6568L0.545606 93.8089ZM1.54985 103.571C1.71851 104.869 1.90124 106.165 2.09817 107.458L4.07538 107.157C3.88067 105.878 3.69998 104.597 3.53317 103.313L1.54985 103.571ZM3.08281 113.267C3.32372 114.555 3.57917 115.838 3.84931 117.117L5.80609 116.703C5.53921 115.44 5.2868 114.172 5.04871 112.899L3.08281 113.267ZM5.1712 122.857C5.48984 124.133 5.82378 125.402 6.17316 126.664L8.10058 126.13C7.75581 124.885 7.4262 123.633 7.11161 122.373L5.1712 122.857ZM7.85976 132.313C8.26102 133.564 8.67837 134.805 9.11197 136.035L10.9983 135.371C10.5711 134.158 10.1598 132.935 9.76415 131.702L7.85976 132.313ZM11.1988 141.56C11.6926 142.782 12.2036 143.991 12.7321 145.186L14.5613 144.377C14.0417 143.202 13.539 142.013 13.053 140.811L11.1988 141.56ZM15.2564 150.523C15.8524 151.701 16.4671 152.864 17.1005 154.009L18.8505 153.041C18.2294 151.918 17.6264 150.777 17.0413 149.62L15.2564 150.523ZM20.117 159.1C20.8247 160.215 21.5525 161.31 22.3005 162.383L23.9414 161.24C23.2102 160.191 22.4984 159.12 21.8057 158.028L20.117 159.1ZM25.8516 167.122C26.6831 168.153 27.5364 169.159 28.4116 170.139L29.9032 168.806C29.0509 167.852 28.2193 166.872 27.4084 165.866L25.8516 167.122Z" fill="#AA0064"/>
</svg>
