<svg width="61" height="60" viewBox="0 0 61 60" fill="none" xmlns="http://www.w3.org/2000/svg">
<rect x="0.65625" width="60" height="60" rx="12" fill="#FFB400"/>
<path d="M25.4179 31.6812C25.4856 31.5167 25.5848 31.3674 25.7097 31.2419C25.8337 31.1153 25.9811 31.0149 26.1436 30.9464C26.3061 30.8778 26.4804 30.8425 26.6564 30.8425C26.8324 30.8425 27.0067 30.8778 27.1692 30.9464C27.3316 31.0149 27.4791 31.1153 27.6031 31.2419L29.3231 32.9969V18.35C29.3231 17.992 29.4635 17.6486 29.7136 17.3954C29.9636 17.1422 30.3028 17 30.6564 17C31.01 17 31.3492 17.1422 31.5992 17.3954C31.8493 17.6486 31.9897 17.992 31.9897 18.35V32.9969L33.7097 31.2419C33.9608 30.9877 34.3013 30.8448 34.6564 30.8448C35.0115 30.8448 35.352 30.9877 35.6031 31.2419C35.8541 31.4961 35.9952 31.8409 35.9952 32.2004C35.9952 32.5599 35.8541 32.9047 35.6031 33.1589L31.6031 37.209C31.4791 37.3356 31.3316 37.436 31.1692 37.5045C31.0067 37.5731 30.8324 37.6084 30.6564 37.6084C30.4804 37.6084 30.3061 37.5731 30.1436 37.5045C29.9811 37.436 29.8337 37.3356 29.7097 37.209L25.7097 33.1589C25.5848 33.0334 25.4856 32.8841 25.4179 32.7196C25.3502 32.5551 25.3153 32.3786 25.3153 32.2004C25.3153 32.0222 25.3502 31.8457 25.4179 31.6812Z" fill="black"/>
<path d="M37.2396 25.4496H38.6562C39.7171 25.4496 40.7345 25.8763 41.4847 26.6358C42.2348 27.3954 42.6562 28.4255 42.6562 29.4997V38.9499C42.6562 40.0241 42.2348 41.0542 41.4847 41.8138C40.7345 42.5733 39.7171 43 38.6562 43H22.6563C21.5954 43 20.578 42.5733 19.8278 41.8138C19.0777 41.0542 18.6562 40.0241 18.6562 38.9499V29.4997C18.6562 28.4255 19.0777 27.3954 19.8278 26.6358C20.578 25.8763 21.5954 25.4496 22.6563 25.4496H24.0729C24.4265 25.4496 24.7657 25.5918 25.0157 25.845C25.2658 26.0982 25.4062 26.4416 25.4062 26.7996C25.4062 27.1577 25.2658 27.501 25.0157 27.7542C24.7657 28.0074 24.4265 28.1496 24.0729 28.1496H22.6563C22.3026 28.1496 21.9635 28.2919 21.7134 28.5451C21.4634 28.7982 21.3229 29.1416 21.3229 29.4997V38.9499C21.3229 39.308 21.4634 39.6513 21.7134 39.9045C21.9635 40.1577 22.3026 40.2999 22.6563 40.2999H38.6562C39.0099 40.2999 39.349 40.1577 39.5991 39.9045C39.8491 39.6513 39.9896 39.308 39.9896 38.9499V29.4997C39.9896 29.1416 39.8491 28.7982 39.5991 28.5451C39.349 28.2919 39.0099 28.1496 38.6562 28.1496H37.2396C36.886 28.1496 36.5468 28.0074 36.2968 27.7542C36.0467 27.501 35.9062 27.1577 35.9062 26.7996C35.9062 26.4416 36.0467 26.0982 36.2968 25.845C36.5468 25.5918 36.886 25.4496 37.2396 25.4496Z" fill="black"/>
</svg>
