<svg width="120" height="120" viewBox="0 0 120 120" fill="none" xmlns="http://www.w3.org/2000/svg">
<path d="M87.3317 37.7139V33.6612C87.3317 31.6079 85.7422 30 83.7138 30C83.478 30 83.2385 30.0218 83.0023 30.0659L61.6038 33.9984C60.8012 34.1455 59.1973 34.146 58.3947 33.9984L36.9963 30.0659C36.7605 30.0227 36.5201 30 36.2848 30C34.2554 30 32.6664 31.6079 32.6664 33.6612V37.7139C31.1086 38.355 30 39.9101 30 41.6418V86.23C30 87.2511 30.3874 88.2012 31.09 88.9053C31.8991 89.7172 33.0221 90.1171 34.2223 89.97L58.2505 87.1161C59.142 87.0107 60.8578 87.0107 61.7499 87.1161L85.778 89.97C85.9366 89.9895 86.0942 89.9978 86.2482 89.9978C88.3515 89.9983 90 88.3435 90 86.2299V41.6417C90 39.909 88.8914 38.3549 87.3336 37.7138L87.3317 37.7139ZM33.9992 85.9789V81.3319C34.6168 81.9517 35.3971 82.4073 36.2704 82.5682L46.652 84.4758L33.9992 85.9789ZM57.9988 82.5037L36.9956 78.6445C36.8631 78.6203 36.6659 78.3842 36.6659 78.2497V34.0629L57.6691 37.9232C57.771 37.9417 57.8863 37.9566 57.9984 37.9723L57.9988 82.5037ZM61.999 37.9714C62.1111 37.9556 62.2264 37.9408 62.3282 37.9222L83.3315 34.0606V78.2497C83.3315 78.3842 83.1343 78.6204 83.0027 78.6449L61.9983 82.5037L61.999 37.9714ZM85.9986 85.9787L73.3453 84.4757L83.7283 82.5681C84.6016 82.4071 85.381 81.9511 85.998 81.3318L85.9986 85.9787ZM53.6801 49.0021L41.6803 46.8965C40.5922 46.7058 39.5551 47.4305 39.3645 48.516C39.1734 49.6007 39.8998 50.6357 40.9879 50.8263L52.9877 52.9324C53.104 52.9524 53.2207 52.9626 53.3356 52.9626C54.2884 52.9626 55.1324 52.2811 55.303 51.3124C55.4946 50.2278 54.7673 49.1937 53.6801 49.0021ZM53.6801 56.9828L41.6803 54.8771C40.5922 54.6865 39.5551 55.4111 39.3645 56.4967C39.1734 57.5822 39.8998 58.6164 40.9879 58.807L52.9877 60.9126C53.104 60.933 53.2207 60.9432 53.3356 60.9432C54.2884 60.9432 55.1324 60.2617 55.303 59.293C55.4946 58.2084 54.7673 57.1743 53.6801 56.9828ZM49.3833 64.2499L41.6895 62.8601C40.5967 62.6652 39.5615 63.3833 39.3649 64.468C39.1682 65.5521 39.8894 66.5904 40.9762 66.7865L48.67 68.1764C48.7904 68.1978 48.9108 68.2089 49.0285 68.2089C49.9771 68.2089 50.8193 67.5325 50.9946 66.5681C51.1913 65.4844 50.47 64.4462 49.3833 64.2499ZM78.3185 46.2314L66.3187 48.3375C65.3631 48.5055 64.6655 49.3336 64.6655 50.3022V58.9482C64.6655 59.5383 64.9273 60.0973 65.3793 60.4763C65.742 60.7806 66.1987 60.9434 66.6656 60.9434C66.7809 60.9434 66.8967 60.9332 67.0121 60.9133L79.0119 58.8076C79.9684 58.6402 80.665 57.8112 80.665 56.8425V48.1965C80.665 47.6064 80.4032 47.0474 79.9512 46.6684C79.4978 46.2894 78.9012 46.1312 78.3185 46.2314ZM76.6653 55.1673L68.6656 56.571V51.9769L76.6653 50.5731V55.1673ZM74.31 62.8603L66.6162 64.2502C65.529 64.4464 64.8078 65.4847 65.0044 66.5687C65.1798 67.5332 66.021 68.2095 66.9696 68.2095C67.0882 68.2095 67.2077 68.1984 67.3282 68.1771L75.022 66.7872C76.1092 66.591 76.8304 65.5527 76.6337 64.4686C76.4375 63.3826 75.394 62.6678 74.31 62.8603Z" fill="#AA0064"/>
</svg>
