<svg width="120" height="120" viewBox="0 0 120 120" fill="none" xmlns="http://www.w3.org/2000/svg">
<path d="M47.7916 38.002C47.2982 38.0536 46.8416 38.2871 46.5104 38.6568C46.1793 39.0265 45.9975 39.5059 45.9998 40.0021V44.6687H40.0001V44.6682C39.9308 44.6645 39.861 44.6645 39.7917 44.6682C39.2983 44.7199 38.8417 44.9533 38.5105 45.323C38.1794 45.6927 37.9972 46.1721 37.9999 46.6684V51.3349H32.0002V51.3344C31.9309 51.3307 31.8611 51.3307 31.7918 51.3344C31.2984 51.3865 30.8413 51.6195 30.5102 51.9892C30.1791 52.3589 29.9972 52.8383 30 53.3346V80V79.9996C30 80.5302 30.2107 81.0389 30.586 81.4137C30.9608 81.789 31.4695 81.9997 32.0001 81.9997H72.0002C72.5303 81.9997 73.039 81.789 73.4143 81.4137C73.7891 81.0389 73.9998 80.5302 74.0003 79.9996V75.333H80V75.3335C80.5306 75.3335 81.0389 75.1224 81.4142 74.7476C81.7895 74.3723 82.0001 73.864 82.0001 73.3334V68.6668H87.9999V68.6673C88.5305 68.6668 89.0392 68.4562 89.4141 68.0814C89.7893 67.7061 90 67.1978 90 66.6672V40.0029C90 39.4723 89.7893 38.9636 89.4141 38.5887C89.0393 38.2135 88.5305 38.0028 87.9999 38.0028H47.9999C47.9306 37.9991 47.8608 37.9991 47.7915 38.0028L47.7916 38.002ZM50.0001 42.0018H86.0001V64.6673H81.9999V46.6685L82.0003 46.6689C82.0003 46.1383 81.7897 45.6296 81.4144 45.2548C81.0391 44.8795 80.5308 44.6688 80.0002 44.6688H50.0002L50.0001 42.0018ZM42.0002 48.668H47.6671H47.6666C47.7773 48.6843 47.8885 48.6912 48.0001 48.6889L78.0001 48.668V66.6668C77.9964 66.7361 77.9964 66.8058 78.0001 66.8751V71.3333H73.9998V53.3345H74.0003C73.9998 52.8039 73.7892 52.2952 73.4144 51.9204C73.0391 51.5456 72.5303 51.3344 72.0002 51.3344H42.0002L42.0002 48.668ZM34.0003 55.3342H39.6672H39.6668C39.777 55.3505 39.8886 55.3574 40.0002 55.3551L70.0002 55.3342V73.333C69.9965 73.4023 69.9965 73.472 70.0002 73.5413V77.9995H34.0002L34.0003 55.3342ZM58.542 57.9798V57.9802C57.9533 58.0193 57.412 58.3169 57.0627 58.7926L48.5833 70.1045L46.8747 68.0422H46.8752C46.5357 67.632 46.047 67.3739 45.5173 67.3246C44.9872 67.2753 44.4594 67.439 44.0502 67.779C43.641 68.1194 43.3838 68.6081 43.335 69.1383C43.2866 69.6679 43.4512 70.1957 43.7921 70.6044L47.1254 74.6042C47.517 75.0771 48.1043 75.3436 48.7186 75.3273C49.3325 75.3111 49.9049 75.0139 50.2709 74.521L60.2709 61.1888V61.1884C60.5839 60.7787 60.7262 60.2639 60.668 59.7515C60.6104 59.239 60.3569 58.7688 59.9607 58.4387C59.5645 58.109 59.0562 57.9449 58.5419 57.9807L58.542 57.9798Z" fill="#AA0064"/>
</svg>
