<svg width="120" height="120" viewBox="0 0 120 120" fill="none" xmlns="http://www.w3.org/2000/svg">
<path fill-rule="evenodd" clip-rule="evenodd" d="M89.1641 66.6692C88.4801 69.273 87.4348 71.7679 86.0581 74.0817L86.0848 74.0882C88.2654 75.518 89.6859 77.854 89.9528 80.4481C90.2193 83.0421 89.3038 85.6181 87.4602 87.4621C85.6161 89.3058 83.0402 90.2213 80.4461 89.9544C77.8525 89.688 75.5165 88.267 74.0862 86.0868C71.7344 87.4594 69.2012 88.4939 66.5606 89.1598C66.4044 89.2379 66.2384 89.2965 66.0673 89.3328C62.8168 90.0418 59.468 90.1841 56.1686 89.7531L55.3488 89.6392L54.969 89.5727C54.4222 89.4527 53.8759 89.3262 53.3291 89.1728C50.7308 88.4922 48.24 87.4511 45.93 86.0799C44.5002 88.2605 42.1642 89.681 39.5701 89.9479C36.9761 90.2149 34.4001 89.2993 32.556 87.4553C30.7124 85.6117 29.7969 83.0353 30.0638 80.4417C30.3301 77.8476 31.7512 75.5116 33.9313 74.0818C32.5564 71.7742 31.5111 69.2861 30.8253 66.6893C30.6719 66.1425 30.5449 65.5962 30.425 65.0494C30.4177 65.0035 30.407 64.9576 30.3963 64.9116C30.3774 64.8309 30.3585 64.7501 30.3585 64.6695C30.346 64.5842 30.3302 64.4989 30.3145 64.4135C30.2798 64.2257 30.245 64.0377 30.245 63.8498C29.8117 60.5439 29.954 57.1881 30.6654 53.9311C30.7016 53.7599 30.7602 53.594 30.8383 53.4377C31.5088 50.806 32.5452 48.2817 33.9183 45.9387C31.7376 44.5089 30.3171 42.1729 30.0502 39.5788C29.7832 36.9847 30.6988 34.4088 32.5429 32.5647C34.3864 30.7211 36.9629 29.8055 39.5565 30.0724C42.1505 30.3388 44.4866 31.7598 45.9164 33.94C48.2239 32.5651 50.7121 31.5198 53.3089 30.834C53.8556 30.6805 54.402 30.5536 54.9488 30.4336L55.3286 30.3672L56.1484 30.2537C59.4543 29.8203 62.81 29.9626 66.0671 30.674C66.2382 30.7103 66.4042 30.7689 66.5604 30.847C69.1982 31.5114 71.7295 32.5437 74.0795 33.9135C75.5093 31.7328 77.8453 30.3123 80.4393 30.0454C83.0334 29.7789 85.6094 30.6945 87.4534 32.5381C89.2971 34.3821 90.2126 36.9581 89.9457 39.5522C89.6793 42.1458 88.2583 44.4818 86.0781 45.9121C87.4507 48.2639 88.4852 50.797 89.1511 53.4376C89.2292 53.5939 89.2878 53.7599 89.324 53.931C90.0331 57.1815 90.1754 60.5302 89.7444 63.8297C89.7109 64.1026 89.6704 64.376 89.6304 64.6494C89.6232 64.6953 89.6124 64.7412 89.6017 64.7871C89.5828 64.8679 89.564 64.9487 89.564 65.0293C89.444 65.5761 89.3175 66.1224 89.1641 66.6692ZM84.186 35.8125C83.4272 35.0537 82.3982 34.6273 81.3251 34.6273C80.2524 34.6292 79.2244 35.0559 78.466 35.8143C77.7077 36.5728 77.2808 37.6008 77.279 38.6734C77.279 39.7465 77.7053 40.7755 78.4642 41.5344C79.223 42.2932 80.252 42.7196 81.3251 42.7196C82.3982 42.7196 83.4272 42.2932 84.186 41.5344C84.9449 40.7755 85.3712 39.7465 85.3712 38.6734C85.3712 37.6004 84.9449 36.5713 84.186 35.8125ZM41.5249 35.8125C40.7661 35.0537 39.7371 34.6273 38.664 34.6273C37.5912 34.6292 36.5633 35.0558 35.8049 35.8143C35.0465 36.5728 34.6197 37.6008 34.6178 38.6734C34.6178 39.7465 35.0442 40.7755 35.803 41.5344C36.5619 42.2932 37.5909 42.7196 38.664 42.7196C39.737 42.7196 40.7661 42.2932 41.5249 41.5344C42.2837 40.7755 42.7101 39.7465 42.7101 38.6734C42.7101 37.6004 42.2837 36.5713 41.5249 35.8125ZM35.803 84.195C36.5619 84.9539 37.5908 85.3802 38.664 85.3802C39.7367 85.3784 40.7647 84.9516 41.523 84.1932C42.2814 83.4348 42.7082 82.4068 42.7101 81.3341C42.7101 80.261 42.2837 79.232 41.5249 78.4731C40.7661 77.7143 39.737 77.2879 38.664 77.2879C37.5909 77.2879 36.5619 77.7143 35.803 78.4731C35.0442 79.232 34.6178 80.261 34.6178 81.3341C34.6178 82.4072 35.0442 83.4362 35.803 84.195ZM63.207 84.9469C63.2656 84.9273 63.3256 84.9139 63.3869 84.9069C66.6878 84.3554 69.8419 83.1398 72.6587 81.3339C72.6587 79.0425 73.5663 76.8447 75.183 75.2205C76.7992 73.5969 78.993 72.679 81.2844 72.6683C83.0034 70.0538 84.2095 67.1352 84.8372 64.0697V63.9497C85.2125 61.5956 85.2418 59.1996 84.9242 56.8371V56.7906C84.9042 56.732 84.8912 56.672 84.8842 56.6106C84.337 53.3112 83.1257 50.1568 81.3244 47.3386C79.026 47.3386 76.8221 46.4255 75.197 44.8004C73.572 43.1752 72.6588 40.9714 72.6588 38.673C69.8406 36.8717 66.6862 35.6605 63.3868 35.1132C63.3254 35.1062 63.2654 35.0932 63.2068 35.0732H63.1603C60.7978 34.7556 58.4018 34.7849 56.0477 35.1602H55.9277C52.8622 35.7879 49.9436 36.9941 47.3291 38.713C47.3185 41.0044 46.4006 43.1982 44.7769 44.8144C43.1528 46.4311 40.9549 47.3387 38.6635 47.3387C36.8622 50.1569 35.651 53.3113 35.1038 56.6107C35.0968 56.6721 35.0838 56.7321 35.0638 56.7906V56.8371C34.7462 59.1997 34.7755 61.5957 35.1507 63.9498V64.0698C35.7785 67.1353 36.9846 70.0539 38.7036 72.6684C40.9881 72.6791 43.1757 73.5914 44.791 75.2066C46.4063 76.822 47.3186 79.0097 47.3293 81.2941C49.9428 83.0181 52.8614 84.228 55.9279 84.8604H56.0479C58.402 85.2356 60.798 85.2649 63.1605 84.9469H63.207ZM78.4642 84.195C79.223 84.9539 80.2519 85.3802 81.3251 85.3802C82.3978 85.3784 83.4258 84.9517 84.1842 84.1932C84.9425 83.4348 85.3694 82.4068 85.3712 81.3341C85.3712 80.261 84.9449 79.232 84.186 78.4731C83.4272 77.7143 82.3982 77.2879 81.3251 77.2879C80.252 77.2879 79.223 77.7143 78.4642 78.4731C77.7053 79.232 77.279 80.261 77.279 81.3341C77.279 82.4072 77.7053 83.4362 78.4642 84.195Z" fill="#AA0064"/>
<path d="M60.3529 76C59.6308 76 58.9648 75.6107 58.6104 74.9816L52.706 64.4999C52.2432 63.6782 52 62.751 52 61.808C52 60.9425 52.7016 60.2409 53.5671 60.2409H54.3947C55.3526 60.2409 56.1907 60.1055 56.9091 59.8347C57.6541 59.5369 58.2661 59.1172 58.745 58.5756C59.2506 58.0341 59.5965 57.3842 59.7827 56.6261H53.5028C52.6728 56.6261 52 55.9532 52 55.1233C52 54.2933 52.6728 53.6204 53.5028 53.6204H59.7428C59.5831 52.9164 59.3038 52.2937 58.9047 51.7521C58.5322 51.2106 58.0266 50.7908 57.388 50.493C56.7761 50.1681 56.031 50.0056 55.153 50.0056H53.5028C52.6728 50.0056 52 49.3328 52 48.5028C52 47.6728 52.6728 47 53.5028 47H68.4972C69.3272 47 70 47.6728 70 48.5028C70 49.3328 69.3272 50.0056 68.4972 50.0056H63.7339C64.1863 50.5201 64.5588 51.0752 64.8514 51.6709C65.1707 52.2666 65.3836 52.9164 65.49 53.6204H68.4972C69.3272 53.6204 70 54.2933 70 55.1233C70 55.9532 69.3272 56.6261 68.4972 56.6261H65.5698C65.3038 58.6298 64.5455 60.2003 63.2949 61.3375C62.0443 62.4477 60.4346 63.2059 58.4656 63.612L64.351 72.9321C65.1919 74.2639 64.235 76 62.6599 76H60.3529Z" fill="#AA0064"/>
</svg>
