<svg width="120" height="120" viewBox="0 0 120 120" fill="none" xmlns="http://www.w3.org/2000/svg">
<path d="M76.7996 31.2C76.7996 31.8627 77.3369 32.4 77.9996 32.4C78.6622 32.4 79.1996 31.8627 79.1996 31.2C79.1996 30.5373 78.6622 30 77.9996 30C77.3369 30 76.7996 30.5373 76.7996 31.2Z" fill="#AA0064"/>
<path d="M31.2 43.1999C31.8627 43.1999 32.4 42.6631 32.4 41.9999C32.4 41.3372 31.8627 40.7999 31.2 40.7999C30.5373 40.7999 30 41.3372 30 41.9999C30 42.6631 30.5373 43.1999 31.2 43.1999Z" fill="#AA0064"/>
<path d="M41.9999 87.5995C42.6626 87.5995 43.1999 88.1368 43.1999 88.7995C43.1999 89.4621 42.6626 89.9995 41.9999 89.9995C41.3372 89.9995 40.7999 89.4621 40.7999 88.7995C40.7999 88.1368 41.3372 87.5995 41.9999 87.5995Z" fill="#AA0064"/>
<path d="M88.7995 76.7996C88.1368 76.7996 87.5995 77.3369 87.5995 77.9996C87.5995 78.6628 88.1368 79.1996 88.7995 79.1996C89.4621 79.1996 89.9995 78.6628 89.9995 77.9996C89.9995 77.3369 89.4621 76.7996 88.7995 76.7996Z" fill="#AA0064"/>
<path d="M43.1999 31.2C43.1999 31.8627 42.6626 32.4 41.9999 32.4C41.3372 32.4 40.7999 31.8627 40.7999 31.2C40.7999 30.5373 41.3372 30 41.9999 30C42.6626 30 43.1999 30.5373 43.1999 31.2Z" fill="#AA0064"/>
<path d="M87.5995 41.9999C87.5995 42.6626 88.1368 43.1999 88.7995 43.1999C89.4621 43.1999 89.9995 42.6626 89.9995 41.9999C89.9995 41.3372 89.4621 40.7999 88.7995 40.7999C88.1368 40.7999 87.5995 41.3372 87.5995 41.9999Z" fill="#AA0064"/>
<path d="M31.2 76.7996C31.8627 76.7996 32.4 77.3364 32.4 77.9996C32.4 78.6622 31.8627 79.1996 31.2 79.1996C30.5373 79.1996 30 78.6622 30 77.9996C30 77.3364 30.5373 76.7996 31.2 76.7996Z" fill="#AA0064"/>
<path d="M77.9996 87.5995C77.3369 87.5995 76.7996 88.1363 76.7996 88.7995C76.7996 89.4621 77.3369 89.9995 77.9996 89.9995C78.6622 89.9995 79.1996 89.4621 79.1996 88.7995C79.1996 88.1363 78.6622 87.5995 77.9996 87.5995Z" fill="#AA0064"/>
<path d="M32.4 37.1999V32.4H37.1999C37.8621 32.4 38.3999 31.8621 38.3999 31.2C38.3999 30.5379 37.8621 30 37.1999 30H31.2C30.5373 30 30 30.5379 30 31.2V37.1999C30 37.8621 30.5379 38.3999 31.2 38.3999C31.8621 38.3999 32.4 37.8621 32.4 37.1999Z" fill="#AA0064"/>
<path d="M55.1998 64.8V74.3999H45.5998V64.8H55.1998Z" fill="#AA0064"/>
<path d="M64.7997 55.1998V64.7997H55.1998V55.1998H64.7997Z" fill="#AA0064"/>
<path d="M74.3996 74.3999V64.8H64.7997V74.3999H74.3996Z" fill="#AA0064"/>
<path fill-rule="evenodd" clip-rule="evenodd" d="M83.9995 34.8005C84.6616 34.8005 85.1995 35.3383 85.1995 36.0005V84.0006C85.1995 84.6627 84.6616 85.2006 83.9995 85.2006L35.9999 85.2C35.3378 85.2 34.7999 84.6622 34.7999 84.0001V36.0005C34.7999 35.3383 35.3378 34.8005 35.9999 34.8005H83.9995ZM82.7995 55.1998V45.6001H74.3996V37.2005H64.7997V45.6001H55.1998V37.2005H45.5999V45.6001H37.1999V55.1998H45.5998V45.6004H55.1998V55.2003H45.5999V64.7997H37.1999V74.4001H45.5999V82.8001H55.1998V74.4001H64.7997V82.8001H74.3996V74.4001H82.7995V64.7997H74.3996V55.2003H64.7997V45.6004H74.3996V55.1998H82.7995Z" fill="#AA0064"/>
<path d="M87.5995 32.4H82.7995C82.1374 32.4 81.5995 31.8621 81.5995 31.2C81.5995 30.5379 82.1374 30 82.7995 30H88.7995C89.4616 30 89.9994 30.5373 89.9994 31.2V37.1999C89.9994 37.8621 89.4616 38.3999 88.7995 38.3999C88.1373 38.3999 87.5995 37.8621 87.5995 37.1999V32.4Z" fill="#AA0064"/>
<path d="M37.1999 87.6H32.4V82.8001C32.4 82.1379 31.8621 81.6001 31.2 81.6001C30.5379 81.6001 30 82.1379 30 82.8001V88.8C30 89.4627 30.5379 90 31.2 90H37.1999C37.8621 90 38.3999 89.4621 38.3999 88.8C38.3999 88.1379 37.8621 87.6 37.1999 87.6Z" fill="#AA0064"/>
<path d="M81.5995 88.8C81.5995 88.1379 82.1374 87.6 82.7995 87.6H87.5995V82.8001C87.5995 82.1379 88.1373 81.6001 88.7995 81.6001C89.4616 81.6001 89.9994 82.1379 89.9994 82.8001V88.8C89.9994 89.4621 89.4621 90 88.7995 90H82.7995C82.1374 90 81.5995 89.4621 81.5995 88.8Z" fill="#AA0064"/>
</svg>
