<svg width="86" height="86" viewBox="0 0 86 86" fill="none" xmlns="http://www.w3.org/2000/svg">
<rect width="86" height="86" rx="16" fill="#F5F5F5"/>
<path fill-rule="evenodd" clip-rule="evenodd" d="M68.9319 41.9365H68.9311C68.8561 42.3655 68.7214 42.791 68.5181 43.2003L59.5844 61.3017C58.4598 63.5817 55.7153 64.5083 53.4683 63.3661L24.9102 48.8579C22.6628 47.717 21.7495 44.9326 22.8753 42.653L31.8098 24.5515C32.0104 24.1448 32.2628 23.7833 32.5544 23.4665L32.5537 23.4658L32.5544 23.4646C32.939 23.0487 33.3909 22.7138 33.8839 22.4697L33.8866 22.4682L33.8873 22.4674L33.8968 22.4631L33.9029 22.4604L34.0385 22.3956L34.0427 22.3948C34.474 22.202 34.9339 22.0773 35.4037 22.0263L35.4071 22.0255V22.0263C36.2455 21.9356 37.118 22.0773 37.9255 22.4875L66.4847 36.9957C67.2899 37.404 67.9226 38.0243 68.3524 38.7562H68.3532L68.3547 38.7613C68.5873 39.1583 68.7598 39.5874 68.8679 40.0339L68.8706 40.0389L68.8713 40.0405L68.8721 40.0439L68.8747 40.0571L68.8763 40.0648L68.8809 40.0856C68.8869 40.1131 68.8929 40.1401 68.8984 40.1679L68.9155 40.2475L68.9181 40.2572L68.9208 40.2718V40.2788C69.0213 40.8184 69.0274 41.3772 68.9319 41.9311V41.9365ZM65.1712 42.7611L57.3777 58.5518L53.0711 45.418L65.1712 42.7611ZM43.0533 46.3272C43.2102 46.6691 43.4713 46.9313 43.7843 47.0905C44.0999 47.2504 44.4699 47.306 44.835 47.2245L49.9373 46.1048L54.6003 60.3233L27.1649 46.3866L40.9449 41.7363L43.0533 46.3272ZM64.4968 39.6024L45.406 43.7915L37.0864 25.6772L64.4968 39.6024ZM39.5905 38.7855L26.1028 43.3381L34.1719 26.9888L39.5905 38.7855Z" fill="#AA0064"/>
<path d="M28.1044 57.8558H18.594C17.7138 57.8558 17 57.1316 17 56.2386C17 55.3457 17.7138 54.6215 18.594 54.6215H28.1041C28.9843 54.6215 29.6981 55.3457 29.6981 56.2386C29.6981 57.1316 28.9846 57.8558 28.1044 57.8558Z" fill="#AA0064"/>
<path d="M18.5941 64H35.9454C36.8263 64 37.5394 63.2758 37.5401 62.3829C37.5401 61.4899 36.8264 60.7657 35.9462 60.7657H18.5941C17.714 60.7657 17.0001 61.4899 17.0001 62.3829C17.0001 63.2758 17.7139 64 18.5941 64Z" fill="#AA0064"/>
</svg>
