<svg width="120" height="120" viewBox="0 0 120 120" fill="none" xmlns="http://www.w3.org/2000/svg">
<rect width="120" height="120" rx="4" fill="#FFF2DF"/>
<path d="M34.4589 33.4866H85.5411C86.5266 33.4866 87.2842 32.7285 87.2842 31.7436C87.2842 30.7581 86.5261 30.0005 85.5411 30.0005L34.4589 30C33.4734 30 32.7158 30.7581 32.7158 31.743C32.7153 32.7285 33.4734 33.4866 34.4589 33.4866Z" fill="#AA0064"/>
<path d="M89.9369 40.914H30.1388C29.1534 40.914 28.3958 40.1564 28.3958 39.171C28.3958 38.1861 29.1534 37.4279 30.1388 37.4279H89.9369C90.9219 37.4279 91.68 38.1855 91.68 39.171C91.68 40.1559 90.9224 40.914 89.9369 40.914Z" fill="#AA0064"/>
<path d="M60.2275 79.4911C60.0757 79.4911 59.924 79.415 59.8484 79.3394L53.1031 72.5953C53.0828 72.5548 53.0626 72.5198 53.0438 72.4873C52.9921 72.3978 52.9514 72.3275 52.9514 72.2162V69.1087C52.9514 68.8053 53.1793 68.5779 53.4822 68.5779H57.4234C58.7873 68.5779 60.0757 67.7442 60.6821 66.4558H53.4822C53.1787 66.4558 52.9514 66.228 52.9514 65.925V63.8786C52.9514 63.5751 53.1793 63.3478 53.4822 63.3478H60.6821C60.1518 62.0594 58.8635 61.2257 57.4234 61.2257H53.4822C53.1787 61.2257 52.9514 60.9978 52.9514 60.6949V58.4973C52.9514 58.1938 53.1793 57.9665 53.4822 57.9665H66.5175C66.8209 57.9665 67.0483 58.1943 67.0483 58.4973L67.0478 60.4671C67.0478 60.7706 66.8199 60.9979 66.517 60.9979H63.1066C63.5612 61.6799 63.8647 62.438 64.092 63.2717H66.5175C66.821 63.2717 67.0483 63.4996 67.0483 63.8025L67.0494 65.8484C67.0494 66.1519 66.8215 66.3792 66.5186 66.3792H64.0931C63.4105 69.4105 60.6066 71.6844 57.4234 71.6844H56.9688L63.714 78.6574C63.8652 78.8092 63.8652 78.9609 63.7896 79.1882C63.714 79.3394 63.5623 79.4911 63.335 79.4911H60.2275Z" fill="#AA0064"/>
<path d="M32.7157 65.6972H37.5662C38.5517 65.6972 39.3098 66.4554 39.3093 67.4403C39.3093 68.4252 38.5517 69.1833 37.5662 69.1833H32.7157C31.7308 69.1833 30.9727 68.4257 30.9727 67.4403C30.9727 66.4554 31.7303 65.6972 32.7157 65.6972Z" fill="#AA0064"/>
<path d="M82.4338 69.2593H87.2843C88.2697 69.2593 89.0273 68.5012 89.0273 67.5163C89.0273 66.5309 88.2692 65.7733 87.2843 65.7733H82.4338C81.4483 65.7733 80.6907 66.5314 80.6907 67.5163C80.6902 68.5012 81.4483 69.2593 82.4338 69.2593Z" fill="#AA0064"/>
<path fill-rule="evenodd" clip-rule="evenodd" d="M25.743 44.8551H94.2575C95.2424 44.8551 96.0005 45.6888 96 46.5981V88.2825C96 89.2674 95.2424 90.0255 94.257 90.0255H25.743C24.7581 90.0255 24 89.2679 24 88.2825V46.5981C24 45.6132 24.7576 44.8551 25.743 44.8551ZM84.2524 48.3417C85.0101 52.5858 88.3448 55.8445 92.5134 56.6026V48.3417H84.2524ZM59.9996 86.5393C67.5029 86.5393 73.6417 77.9751 73.6417 67.4403C73.6417 56.9819 67.5029 48.4174 59.9996 48.3413C52.4963 48.3413 46.3574 56.9057 46.3574 67.4403C46.3574 77.9749 52.4963 86.5393 59.9996 86.5393ZM27.4859 56.678C31.73 55.9204 34.9888 52.5856 35.7469 48.4171H27.4859V56.678ZM35.7469 86.615C34.9892 82.3709 31.6545 79.1121 27.4859 78.354V86.615H35.7469ZM27.4859 74.7163C33.6248 75.5499 38.5509 80.4005 39.309 86.5393L50.8286 86.5396C46.0543 82.5227 42.8711 75.3986 42.8711 67.4406C42.8711 59.4824 46.0543 52.4342 50.8292 48.4173H39.309C38.4753 54.5562 33.6248 59.4823 27.4859 60.2404V74.7163ZM69.17 48.3413C73.9449 52.3581 77.1281 59.4067 77.1281 67.4403V67.4406C77.1281 75.474 73.9449 82.5227 69.1706 86.5396L80.6902 86.5391C81.5239 80.4002 86.3744 75.4741 92.5133 74.716V60.1644C86.3744 59.3307 81.4483 54.4801 80.6902 48.3413H69.17ZM92.5134 78.2784C88.2693 79.036 85.0106 82.3707 84.2524 86.5393H92.5134V78.2784Z" fill="#AA0064"/>
</svg>
