<svg width="32" height="32" viewBox="0 0 32 32" fill="none" xmlns="http://www.w3.org/2000/svg">
<path d="M11.7353 12.2416H15.6722C16.1353 12.2416 16.5214 12.4775 16.8302 12.8314H11.7353V15.0731H16.8302C16.5599 15.427 16.1356 15.6629 15.6722 15.6629H10.5L18.1809 24L19.6862 22.3483L15.5949 17.9044H15.7492C17.3703 17.8652 18.7598 16.6854 19.2228 15.0729H21.4615V12.8315H19.2228C19.1843 12.6348 19.107 12.4381 19.0298 12.2417H21.5V10H11.7349L11.7353 12.2416Z" fill="#AA0064"/>
<path fill-rule="evenodd" clip-rule="evenodd" d="M16 4C12.8001 4 9.78462 5.26159 7.50769 7.50769C5.23071 9.75379 4 12.8 4 16C4 19.2 5.26159 22.2154 7.50769 24.4923C9.75379 26.7693 12.8 28 16 28C19.2 28 22.2154 26.7384 24.4923 24.4923C26.7693 22.2462 28 19.2 28 16C28 12.8 26.7384 9.78462 24.4923 7.50769C22.2462 5.23071 19.2 4 16 4ZM22.7385 22.7385C20.9538 24.5538 18.5538 25.5385 16 25.5385C13.4462 25.5385 11.0462 24.5538 9.26154 22.7385C7.44621 20.9538 6.46148 18.5538 6.46148 16C6.46148 13.4462 7.44621 11.0462 9.26154 9.26154C11.0462 7.44621 13.4462 6.46148 16 6.46148C18.5538 6.46148 20.9538 7.44621 22.7385 9.26154C24.5538 11.0462 25.5385 13.4462 25.5385 16C25.5385 18.5538 24.5538 20.9538 22.7385 22.7385Z" fill="#AA0064"/>
</svg>
