<svg width="120" height="120" viewBox="0 0 120 120" fill="none" xmlns="http://www.w3.org/2000/svg">
<rect width="120" height="120" rx="4" fill="#FFB400"/>
<path d="M67.4518 53.2881C68.7146 53.2881 69.7367 54.3102 69.7367 55.5731C69.7367 56.8359 68.7146 57.858 67.4517 57.858H64.4283C63.1655 57.858 62.1434 56.8359 62.1434 55.5731V52.4154C62.1434 51.1526 63.1655 50.1305 64.4283 50.1305C65.6911 50.1305 66.7132 51.1526 66.7132 52.4154V53.2881H67.4518Z" fill="black"/>
<path fill-rule="evenodd" clip-rule="evenodd" d="M75.8525 55.5733C75.8525 49.2739 70.7271 44.1486 64.4278 44.1486C58.1284 44.1486 53.0031 49.2739 53.0031 55.5733C53.0031 61.8727 58.1284 66.998 64.4278 66.998C70.7271 66.998 75.8525 61.8722 75.8525 55.5733ZM64.4278 62.4281C60.648 62.4281 57.5729 59.3531 57.5729 55.5733C57.5729 51.7935 60.648 48.7185 64.4278 48.7185C68.2076 48.7185 71.2826 51.7935 71.2826 55.5733C71.2826 59.3531 68.2081 62.4281 64.4278 62.4281Z" fill="black"/>
<path fill-rule="evenodd" clip-rule="evenodd" d="M89.556 28.7181C90.4175 28.912 91.0887 29.5836 91.283 30.4451L91.2826 30.4464C91.4653 31.2599 95.6155 50.5552 81.7257 64.445C79.6636 66.5071 77.5011 68.3937 75.2968 70.117C76.7713 77.5968 75.0821 85.0095 69.9951 90.0966C69.6289 90.4623 69.254 90.8106 68.8658 91.1386C68.1983 91.7077 67.3796 92 66.5539 92C65.9562 92 65.3513 91.8485 64.7979 91.5359C63.4682 90.7886 62.7674 89.329 63.0107 87.8208C63.4875 84.8672 62.1298 81.8758 59.7781 78.7386C58.2802 79.3384 56.6374 79.5848 55.1072 78.9488C48.3878 76.3423 43.6573 71.6112 41.049 64.8905C40.6114 63.7612 40.5512 62.5474 40.8791 61.3805C40.9454 61.1448 41.0284 60.9047 41.1114 60.6646C41.1626 60.5165 41.2139 60.3683 41.2612 60.2212C38.1239 57.8689 35.132 56.5112 32.179 56.9891C30.682 57.2211 29.2116 56.5316 28.4639 55.2019C27.7229 53.8834 27.8794 52.2854 28.8633 51.1297C29.1892 50.7462 29.5375 50.3708 29.9032 50.0051C34.9915 44.9186 42.4045 43.2294 49.8841 44.7034C51.6074 42.4991 53.494 40.3365 55.5561 38.275C69.4446 24.3869 88.7394 28.5375 89.556 28.7181ZM64.1946 77.0294C66.1929 79.9024 67.5006 82.7989 67.6658 85.8764C70.5215 82.445 71.6293 77.8893 71.1417 73.1088C68.8226 74.6404 66.4907 75.9706 64.1946 77.0294ZM56.7609 74.6884C56.9639 74.7685 57.1806 74.7777 57.3836 74.7195L57.3846 74.7188C64.0998 72.8357 71.7966 67.9109 78.4949 61.2116C81.6668 58.0397 83.7446 54.4935 85.0916 50.985C78.6612 46.7358 73.2662 41.3412 69.016 34.9107C65.507 36.2573 61.9603 38.3331 58.7873 41.5049C52.088 48.2044 47.1637 55.8999 45.2801 62.6165C45.2219 62.8215 45.2332 63.0357 45.3092 63.2367C47.4651 68.7888 51.2112 72.5351 56.7609 74.6884ZM42.9706 55.8056C44.0295 53.5099 45.3586 51.1786 46.8897 48.8605H46.8896C42.1102 48.3734 37.5545 49.4807 34.1236 52.3353C37.2021 52.5006 40.0986 53.8078 42.9706 55.8056ZM73.5764 33.5335C77.0996 38.5788 81.4175 42.8967 86.4623 46.421L86.4623 46.4204C87.7818 40.5812 87.3957 35.383 87.0683 32.9327C85.9166 32.7792 84.1606 32.6094 82.0165 32.6094C79.5943 32.6094 76.6753 32.8323 73.5764 33.5335Z" fill="black"/>
<path fill-rule="evenodd" clip-rule="evenodd" d="M36.7771 72.6577C36.8929 72.5414 37.0204 72.4389 37.1586 72.3496C39.0285 71.1515 42.6411 72.2451 45.1964 74.8045C47.7577 77.3663 48.8532 80.9789 47.6373 82.8599C47.5481 82.9955 47.4456 83.123 47.3318 83.2368C46.4214 84.1425 43.373 86.1128 39.437 87.6526C37.9018 88.2549 36.4646 88.7593 35.166 89.1541C33.9613 89.5223 32.6306 89.1995 31.7253 88.2972C30.8241 87.398 30.4869 86.0812 30.8486 84.8586C31.2346 83.558 31.739 82.1121 32.348 80.5611C33.8918 76.6207 35.8667 73.5681 36.7771 72.6577ZM36.6002 82.2304C36.3482 82.8756 36.1141 83.4999 35.9019 84.0981L35.902 84.0981C36.5023 83.8839 37.1271 83.6513 37.7693 83.3999C40.4647 82.3421 42.484 81.1481 43.475 80.4743C43.3163 79.9077 42.9058 78.9794 41.9643 78.0353C41.0228 77.0938 40.0965 76.6832 39.5298 76.5226C38.854 77.5131 37.658 79.5328 36.6002 82.2304Z" fill="black"/>
</svg>
