<svg width="120" height="120" viewBox="0 0 120 120" fill="none" xmlns="http://www.w3.org/2000/svg">
<rect width="120" height="120" rx="4" fill="#FFF2DF"/>
<path d="M49.642 56.5896C51.9443 56.5896 53.8105 54.7229 53.8105 52.421C53.8105 50.1187 51.9443 48.2525 49.642 48.2525C47.3397 48.2525 45.4735 50.1187 45.4735 52.421C45.4735 54.7229 47.3397 56.5896 49.642 56.5896Z" fill="#AA0064"/>
<path d="M73.3263 54.1263L70.6737 52.421L73.3263 50.7156C74.1475 50.1473 74.3999 49.0102 73.8946 48.1895C73.3263 47.3683 72.1893 47.1159 71.3685 47.6212L66.3158 50.905C65.8105 51.2209 65.4946 51.7892 65.4946 52.4209C65.4946 53.0527 65.8105 53.6211 66.3158 53.9368L71.305 57.1578C71.6209 57.3472 71.9368 57.4737 72.3157 57.4737C72.884 57.4737 73.5158 57.1578 73.8316 56.6525C74.3999 55.7683 74.1475 54.6946 73.3263 54.1263Z" fill="#AA0064"/>
<path d="M68.2104 66.6947C68.7792 65.5581 70.1686 65.0527 71.3053 65.6211H71.3056C72.4427 66.1894 72.948 67.5788 72.3797 68.7159C70.1062 73.3897 65.2434 76.4212 60.0007 76.4212C54.7581 76.4212 49.8948 73.3894 47.6207 68.7159C47.0523 67.5788 47.5577 66.1894 48.6943 65.6211C49.8314 65.0527 51.2208 65.5581 51.7891 66.6947C53.3052 69.8526 56.4629 71.8104 59.9998 71.8104C63.5366 71.8104 66.6945 69.8526 68.2104 66.6947Z" fill="#AA0064"/>
<path fill-rule="evenodd" clip-rule="evenodd" d="M42.3158 30H77.6842C84.5054 30 90 35.4947 90 42.3158V77.6842C90 84.5054 84.4423 90 77.6842 90H42.3158C35.4946 90 30 84.4423 30 77.6842V42.3158C30 35.4946 35.4947 30 42.3158 30ZM77.6838 85.3265C81.9158 85.3265 85.3261 81.9158 85.3261 77.6842L85.3265 42.3158C85.3265 38.0838 81.9158 34.6735 77.6842 34.6735L42.3158 34.673C38.0837 34.673 34.6734 38.0838 34.6734 42.3153L34.673 77.6838C34.673 81.9158 38.0838 85.3261 42.3153 85.3261L77.6838 85.3265Z" fill="#AA0064"/>
</svg>
