<svg width="80" height="80" viewBox="0 0 80 80" fill="none" xmlns="http://www.w3.org/2000/svg">
<rect width="80" height="80" rx="8" fill="#AA0064"/>
<path d="M51.121 60.9843H45.5608V51.9667L41.6532 60.9843H38.3102L34.4369 51.9358V60.9843H28.9075V26.2363L39.9663 52.1037L51.1244 26.2363V60.9843H51.121Z" fill="#FFB400"/>
<path d="M39.9624 21.5508C40.6656 21.5508 41.2353 20.9764 41.2353 20.2754C41.2353 19.5695 40.6656 19 39.9624 19C39.2592 19 38.6895 19.5695 38.6895 20.2754C38.6895 20.9764 39.2592 21.5508 39.9624 21.5508Z" fill="white"/>
<path d="M28.9065 24.8512C29.6097 24.8512 30.1794 24.2768 30.1794 23.5758C30.1794 22.87 29.6097 22.3004 28.9065 22.3004C28.2033 22.3004 27.6335 22.87 27.6335 23.5758C27.6335 23.9166 27.7694 24.2281 27.9903 24.4569C28.2215 24.7003 28.5467 24.8512 28.9065 24.8512Z" fill="white"/>
<path d="M18.5459 29.2517C18.5459 29.5535 18.4391 29.8359 18.2607 30.0549C18.0271 30.3421 17.6716 30.5271 17.2729 30.5271C16.5697 30.5271 16 29.9527 16 29.2517C16 28.5459 16.5697 27.9764 17.2729 27.9764C17.9761 27.9764 18.5459 28.5459 18.5459 29.2517Z" fill="white"/>
<path d="M63.3951 30.3373C63.2009 30.459 62.9722 30.5271 62.7271 30.5271C62.4443 30.5271 62.1828 30.4346 61.9717 30.2789C61.6574 30.0452 61.4541 29.6704 61.4541 29.2517C61.4541 28.8623 61.6277 28.5118 61.9019 28.2782C62.124 28.0883 62.4122 27.9764 62.7271 27.9764C63.0159 27.9764 63.2822 28.0737 63.4958 28.2344L63.6833 28.4096L63.8119 28.5848C63.8702 28.6773 63.9163 28.7796 63.9478 28.8866L63.9842 29.0473L64 29.2517C64 29.354 63.9873 29.4562 63.9636 29.5535C63.9308 29.685 63.8768 29.8115 63.8052 29.9235L63.6766 30.0987L63.5092 30.2594L63.3951 30.3373Z" fill="white"/>
<path d="M52.3932 23.5758C52.3932 24.2768 51.8234 24.8512 51.1202 24.8512C50.417 24.8512 49.8473 24.2768 49.8473 23.5758C49.8473 23.0793 50.1282 22.6509 50.539 22.4367L50.7155 22.3637C50.843 22.3248 50.9789 22.3004 51.1202 22.3004C51.8234 22.3004 52.3932 22.87 52.3932 23.5758Z" fill="white"/>
<path d="M39.9763 48.2559L34.8846 35.8769L39.9763 22.7872L45.2422 35.8769L39.9763 48.2559Z" fill="white"/>
<path d="M35.7747 60.9903H36.9688L35.7747 58.1961V60.9903Z" fill="white"/>
<path d="M43.0179 61H44.2326V58.1961L43.0179 61Z" fill="white"/>
<path d="M18.7066 31.9193L27.3842 42.1175V60.9805H25.8509L18.7066 31.9193Z" fill="white"/>
<path d="M54.1484 60.9805L61.2928 31.9193L52.6152 42.1175V60.9805H54.1484Z" fill="white"/>
</svg>
