<svg width="120" height="120" viewBox="0 0 120 120" fill="none" xmlns="http://www.w3.org/2000/svg">
<rect width="120" height="120" rx="4" fill="#FFB400"/>
<path d="M58.7376 59.6227C59.1121 59.8717 59.5514 60.0043 60.0009 60.0043C60.4504 60.0043 60.8897 59.8717 61.2642 59.6227C61.8667 59.2253 76.0015 49.7312 76.0015 39.2591C76.0015 32.6345 71.8454 28.0082 65.8916 28.0082C63.763 27.9168 61.6721 28.5943 60.0011 29.9165C58.3302 28.5943 56.2393 27.9169 54.1106 28.0082C48.1569 28.0082 44.0007 32.6346 44.0007 39.2591C44.0007 49.7307 58.1346 59.2244 58.7381 59.6227H58.7376ZM54.1104 32.5792C55.413 32.4818 56.6946 32.9532 57.6237 33.8714C57.9915 34.1872 58.3798 34.4779 58.7865 34.7417C59.1497 34.9718 59.5712 35.0937 60.0008 35.0937C60.4309 35.0937 60.8518 34.9718 61.2151 34.7417C61.6217 34.478 62.01 34.1872 62.3779 33.8714C63.307 32.9532 64.5887 32.4817 65.8912 32.5792C69.9785 32.5792 71.4296 36.1767 71.4296 39.2594C71.4296 45.2244 64.0677 51.9118 59.9986 54.9242C55.9291 51.9175 48.5718 45.2423 48.5718 39.2594C48.5718 36.1767 50.0228 32.5792 54.1102 32.5792H54.1104ZM89.8272 61.2983C88.5736 60.1025 86.942 59.3827 85.2134 59.2633C83.4853 59.144 81.77 59.6327 80.3637 60.6448C80.2525 60.7243 80.1484 60.8136 80.0535 60.9126L71.6752 69.5798C70.3287 67.8617 68.2664 66.8582 66.0833 66.8603H37.4432C36.8544 66.8597 36.2875 67.0878 35.863 67.4964L28.7046 74.3526C28.1148 74.9168 27.8714 75.753 28.0658 76.5457C28.2602 77.3384 28.8627 77.9669 29.6465 78.195C30.4302 78.423 31.2757 78.2159 31.8649 77.6511L38.3609 71.4311H66.0828C66.7226 71.3765 67.3558 71.5928 67.8287 72.0274C68.3017 72.4615 68.5706 73.0742 68.5706 73.7165C68.5706 74.3588 68.3017 74.9715 67.8287 75.4056C67.3558 75.8403 66.7226 76.0566 66.0828 76.002H47.6712C46.8543 76.002 46.0998 76.4376 45.6916 77.1447C45.2834 77.8517 45.2834 78.723 45.6916 79.4301C46.0998 80.1371 46.8544 80.5728 47.6712 80.5728H66.0828C67.7441 80.5871 69.3563 80.0096 70.6303 78.9424C71.9043 77.8757 72.7558 76.3902 73.0334 74.7522L83.1775 64.2602C83.7158 63.9266 84.349 63.7792 84.9796 63.8404C85.6097 63.9021 86.2026 64.1684 86.6664 64.5995C87.194 65.0867 87.4725 65.7871 87.4236 66.5033C87.3685 67.2384 86.9838 67.9087 86.3766 68.3265C86.2695 68.403 86.1689 68.4887 86.0776 68.5831L69.893 85.1438H37.4428C37.2071 85.1428 36.9729 85.18 36.7489 85.2535L29.5905 87.5389H29.59C28.8931 87.7623 28.3456 88.3066 28.1176 89.0019C27.889 89.6972 28.0079 90.4599 28.4365 91.0532C28.8656 91.6465 29.5523 91.9985 30.2844 92C30.5202 92.001 30.7544 91.9638 30.9788 91.8903L37.8005 89.7146H70.8554C71.4702 89.7151 72.0596 89.4672 72.4892 89.0269L89.2198 71.906L89.2203 71.9065C90.8586 70.6771 91.8719 68.788 91.9887 66.7435C92.1055 64.6989 91.3147 62.7063 89.8274 61.2983L89.8272 61.2983Z" fill="black"/>
</svg>
