<svg width="152" height="46" viewBox="0 0 152 46" fill="none" xmlns="http://www.w3.org/2000/svg">
<rect x="0.625" y="-0.625" width="120.6" height="35.8" rx="11.5" transform="matrix(1.25 0 0 -1.25 -0.15625 44.5938)" fill="black"/>
<path d="M11.749 8.66981C11.4182 9.02344 11.2268 9.574 11.2268 10.287V35.7192C11.2268 36.4322 11.4182 36.9828 11.749 37.3364L11.8306 37.4141L25.7836 23.1684V22.8321L11.8306 8.58644L11.749 8.66981Z" fill="url(#paint0_linear_2558_3724)"/>
<path d="M30.4295 27.9189L25.7837 23.168V22.8316L30.4352 18.0807L30.5393 18.1425L36.0479 21.3438C37.62 22.2523 37.62 23.7473 36.0479 24.6616L30.5393 27.8571L30.4295 27.9189Z" fill="url(#paint1_linear_2558_3724)"/>
<path d="M30.5393 27.8573L25.7837 23L11.749 37.3362C12.2712 37.8968 13.1227 37.9644 14.0909 37.4038L30.5393 27.8573Z" fill="url(#paint2_linear_2558_3724)"/>
<path d="M30.5393 18.1427L14.0909 8.59625C13.1227 8.04138 12.2712 8.10894 11.749 8.66957L25.7837 23L30.5393 18.1427Z" fill="url(#paint3_linear_2558_3724)"/>
<path d="M53.3886 11.7801C53.3886 12.7403 53.1071 13.5094 52.5526 14.083C51.915 14.7629 51.0846 15.105 50.0671 15.105C49.0946 15.105 48.2642 14.7572 47.583 14.0715C46.9004 13.3757 46.5598 12.5218 46.5598 11.4998C46.5598 10.4777 46.9004 9.62384 47.583 8.93384C48.2642 8.24241 49.0946 7.89453 50.0671 7.89453C50.5512 7.89453 51.0128 7.99659 51.4534 8.18634C51.8925 8.37753 52.25 8.63628 52.5089 8.95541L51.9206 9.56203C51.4688 9.01722 50.8538 8.74841 50.0671 8.74841C49.3577 8.74841 48.7427 9.00141 48.2206 9.51172C47.704 10.0235 47.4451 10.6862 47.4451 11.4998C47.4451 12.3134 47.704 12.9818 48.2206 13.4936C48.7427 13.9982 49.3577 14.2569 50.0671 14.2569C50.82 14.2569 51.4534 13.9982 51.953 13.4878C52.2823 13.15 52.4695 12.6843 52.5188 12.0892H50.0671V11.2583H53.3379C53.3773 11.438 53.3886 11.6119 53.3886 11.7801Z" fill="white" stroke="white" stroke-width="0.16" stroke-miterlimit="10"/>
<path d="M58.5776 8.89942H55.5053V11.0844H58.2751V11.9153H55.5053V14.1003H58.5776V14.947H54.6355V8.05273H58.5776V8.89942Z" fill="white" stroke="white" stroke-width="0.16" stroke-miterlimit="10"/>
<path d="M62.2396 14.947H61.3699V8.89942H59.4854V8.05273H64.1256V8.89942H62.2396V14.947Z" fill="white" stroke="white" stroke-width="0.16" stroke-miterlimit="10"/>
<path d="M67.4836 14.947V8.05273H68.352V14.947H67.4836Z" fill="white" stroke="white" stroke-width="0.16" stroke-miterlimit="10"/>
<path d="M72.2013 14.947H71.3386V8.89942H69.447V8.05273H74.0929V8.89942H72.2013V14.947Z" fill="white" stroke="white" stroke-width="0.16" stroke-miterlimit="10"/>
<path d="M82.8781 14.06C82.2124 14.7572 81.3876 15.105 80.4038 15.105C79.4144 15.105 78.5897 14.7572 77.924 14.06C77.2597 13.3642 76.929 12.5103 76.929 11.4998C76.929 10.4892 77.2597 9.63534 77.924 8.93959C78.5897 8.24241 79.4144 7.89453 80.4038 7.89453C81.382 7.89453 82.2067 8.24241 82.8724 8.94534C83.5424 9.64684 83.8731 10.495 83.8731 11.4998C83.8731 12.5103 83.5424 13.3642 82.8781 14.06ZM78.5672 13.4821C79.0682 13.9982 79.6776 14.2569 80.4038 14.2569C81.1244 14.2569 81.7395 13.9982 82.2349 13.4821C82.7345 12.966 82.9878 12.3033 82.9878 11.4998C82.9878 10.6962 82.7345 10.0335 82.2349 9.51747C81.7395 9.00141 81.1244 8.74266 80.4038 8.74266C79.6776 8.74266 79.0682 9.00141 78.5672 9.51747C78.0676 10.0335 77.8142 10.6962 77.8142 11.4998C77.8142 12.3033 78.0676 12.966 78.5672 13.4821Z" fill="white" stroke="white" stroke-width="0.16" stroke-miterlimit="10"/>
<path d="M85.0933 14.947V8.05273H86.1488L89.4309 13.4146H89.4689L89.4309 12.0892V8.05273H90.2993V14.947H89.3929L85.956 9.32061H85.918L85.956 10.6517V14.947H85.0933Z" fill="white" stroke="white" stroke-width="0.16" stroke-miterlimit="10"/>
<path d="M76.715 25.0157C74.0704 25.0157 71.9101 27.0713 71.9101 29.9075C71.9101 32.7207 74.0704 34.7979 76.715 34.7979C79.3651 34.7979 81.5255 32.7207 81.5255 29.9075C81.5255 27.0713 79.3651 25.0157 76.715 25.0157ZM76.715 32.8716C75.2639 32.8716 74.0156 31.6483 74.0156 29.9075C74.0156 28.1437 75.2639 26.942 76.715 26.942C78.166 26.942 79.42 28.1437 79.42 29.9075C79.42 31.6483 78.166 32.8716 76.715 32.8716ZM66.2312 25.0157C63.581 25.0157 61.4263 27.0713 61.4263 29.9075C61.4263 32.7207 63.581 34.7979 66.2312 34.7979C68.8799 34.7979 71.0361 32.7207 71.0361 29.9075C71.0361 27.0713 68.8799 25.0157 66.2312 25.0157ZM66.2312 32.8716C64.7787 32.8716 63.5262 31.6483 63.5262 29.9075C63.5262 28.1437 64.7787 26.942 66.2312 26.942C67.6822 26.942 68.9306 28.1437 68.9306 29.9075C68.9306 31.6483 67.6822 32.8716 66.2312 32.8716ZM53.7559 26.515V28.5936H58.6157C58.4736 29.7551 58.0936 30.609 57.5109 31.2041C56.8016 31.9229 55.6967 32.7207 53.7559 32.7207C50.7652 32.7207 48.4233 30.2554 48.4233 27.2007C48.4233 24.146 50.7652 21.6807 53.7559 21.6807C55.373 21.6807 56.5496 22.3261 57.418 23.1628L58.8522 21.698C57.6376 20.5135 56.0219 19.6035 53.7559 19.6035C49.6547 19.6035 46.208 23.0118 46.208 27.2007C46.208 31.3896 49.6547 34.7979 53.7559 34.7979C55.9726 34.7979 57.6376 34.0561 58.9464 32.6646C60.2877 31.2947 60.7057 29.3685 60.7057 27.8131C60.7057 27.3301 60.6663 26.8859 60.5959 26.515H53.7559ZM104.769 28.1265C104.373 27.0325 103.153 25.0157 100.668 25.0157C98.2047 25.0157 96.1541 26.998 96.1541 29.9075C96.1541 32.6474 98.1835 34.7979 100.904 34.7979C103.104 34.7979 104.373 33.428 104.895 32.6301L103.263 31.519C102.718 32.3326 101.977 32.8716 100.904 32.8716C99.8387 32.8716 99.0744 32.3728 98.5847 31.3896L104.99 28.6828L104.769 28.1265ZM98.2384 29.7551C98.1835 27.8691 99.6726 26.9031 100.739 26.9031C101.575 26.9031 102.285 27.3301 102.521 27.941L98.2384 29.7551ZM93.0324 34.5003H95.1379V20.1253H93.0324V34.5003ZM89.5843 26.1053H89.5139C89.041 25.5332 88.1389 25.0157 86.9961 25.0157C84.5979 25.0157 82.4051 27.1662 82.4051 29.9233C82.4051 32.6646 84.5979 34.7979 86.9961 34.7979C88.1389 34.7979 89.041 34.2761 89.5139 33.6867H89.5843V34.3882C89.5843 36.2584 88.6061 37.2632 87.0284 37.2632C85.7421 37.2632 84.9441 36.3145 84.6147 35.5166L82.7837 36.2972C83.3115 37.5938 84.709 39.1895 87.0284 39.1895C89.497 39.1895 91.58 37.706 91.58 34.0964V25.3133H89.5843V26.1053ZM87.1762 32.8716C85.7252 32.8716 84.5106 31.6311 84.5106 29.9233C84.5106 28.1998 85.7252 26.942 87.1762 26.942C88.6061 26.942 89.7335 28.1998 89.7335 29.9233C89.7335 31.6311 88.6061 32.8716 87.1762 32.8716ZM114.626 20.1253H109.591V34.5003H111.69V29.0536H114.626C116.958 29.0536 119.245 27.3301 119.245 24.5888C119.245 21.8489 116.953 20.1253 114.626 20.1253ZM114.681 27.0541H111.69V22.1249H114.681C116.249 22.1249 117.144 23.4546 117.144 24.5888C117.144 25.7014 116.249 27.0541 114.681 27.0541ZM127.662 24.9884C126.144 24.9884 124.567 25.6726 123.918 27.1892L125.781 27.987C126.183 27.1892 126.92 26.9305 127.7 26.9305C128.789 26.9305 129.894 27.5989 129.911 28.7791V28.93C129.531 28.7058 128.717 28.3737 127.717 28.3737C125.71 28.3737 123.665 29.5021 123.665 31.6081C123.665 33.5343 125.308 34.7749 127.156 34.7749C128.569 34.7749 129.349 34.1237 129.839 33.3661H129.911V34.4773H131.939V28.9631C131.939 26.4144 130.075 24.9884 127.662 24.9884ZM127.408 32.8659C126.722 32.8659 125.765 32.518 125.765 31.6483C125.765 30.5357 126.958 30.1088 127.991 30.1088C128.916 30.1088 129.349 30.3172 129.911 30.5918C129.746 31.9229 128.624 32.8659 127.408 32.8659ZM139.328 25.3032L136.914 31.5348H136.842L134.347 25.3032H132.082L135.832 34.0116L133.692 38.8574H135.887L141.664 25.3032H139.328ZM120.399 34.5003H122.505V20.1253H120.399V34.5003Z" fill="white"/>
<rect x="0.625" y="-0.625" width="120.6" height="35.8" rx="11.5" transform="matrix(1.25 0 0 -1.25 -0.15625 44.5938)" stroke="#808080"/>
<defs>
<linearGradient id="paint0_linear_2558_3724" x1="24.5448" y1="35.9841" x2="5.24931" y2="17.0926" gradientUnits="userSpaceOnUse">
<stop stop-color="#00A0FF"/>
<stop offset="0.0066" stop-color="#00A1FF"/>
<stop offset="0.2601" stop-color="#00BEFF"/>
<stop offset="0.5122" stop-color="#00D2FF"/>
<stop offset="0.7604" stop-color="#00DFFF"/>
<stop offset="1" stop-color="#00E3FF"/>
</linearGradient>
<linearGradient id="paint1_linear_2558_3724" x1="38.095" y1="22.9982" x2="10.8511" y2="22.9982" gradientUnits="userSpaceOnUse">
<stop stop-color="#FFE000"/>
<stop offset="0.4087" stop-color="#FFBD00"/>
<stop offset="0.7754" stop-color="#FFA500"/>
<stop offset="1" stop-color="#FF9C00"/>
</linearGradient>
<linearGradient id="paint2_linear_2558_3724" x1="27.9533" y1="20.3595" x2="1.78716" y2="-5.2589" gradientUnits="userSpaceOnUse">
<stop stop-color="#FF3A44"/>
<stop offset="1" stop-color="#C31162"/>
</linearGradient>
<linearGradient id="paint3_linear_2558_3724" x1="8.21621" y1="45.7974" x2="19.9006" y2="34.3577" gradientUnits="userSpaceOnUse">
<stop stop-color="#32A071"/>
<stop offset="0.0685" stop-color="#2DA771"/>
<stop offset="0.4762" stop-color="#15CF74"/>
<stop offset="0.8009" stop-color="#06E775"/>
<stop offset="1" stop-color="#00F076"/>
</linearGradient>
</defs>
</svg>
