<svg width="100" height="100" viewBox="0 0 100 100" fill="none" xmlns="http://www.w3.org/2000/svg">
<rect width="100" height="100" rx="12" fill="#EAE4FF"/>
<path fill-rule="evenodd" clip-rule="evenodd" d="M64.7043 60.6901C70.3197 55.6902 73.0681 48.5214 72.259 41.0137C71.064 29.9477 61.7629 21.1895 50.6246 20.6184C44.2463 20.2966 38.2167 22.5301 33.6118 26.905C29.0074 31.2798 26.4706 37.1895 26.4706 43.5485C26.4706 50.0832 29.2734 56.3327 34.1631 60.6794C35.1831 61.5892 36.4793 62.0854 37.8212 62.0854H61.0459C62.3877 62.095 63.693 61.5988 64.704 60.6891L64.7043 60.6901ZM36.5806 57.9788C32.4628 54.3117 30.1011 49.0548 30.1011 43.549C30.1011 38.1997 32.2334 33.2184 36.112 29.5334C39.7425 26.0779 44.4385 24.2117 49.4296 24.2117C49.7694 24.2117 50.1098 24.2206 50.4406 24.2392C59.8154 24.7168 67.6454 32.0881 68.6564 41.398C69.3366 47.7308 67.0203 53.7686 62.296 57.9775C61.9466 58.2897 61.5056 58.4648 61.0555 58.4648H54.6497V50.6895H56.2858C59.0521 50.6895 61.3133 48.438 61.3133 45.662C61.3133 42.8867 59.0617 40.6442 56.2858 40.6442H56.0467C53.2804 40.6442 51.0192 42.8958 51.0192 45.662V47.059H48.4733V45.662C48.4733 42.8958 46.2218 40.6442 43.4458 40.6442H42.6002C39.834 40.6442 37.5727 42.8958 37.5727 45.662C37.5727 48.4283 39.8243 50.6895 42.6002 50.6895H44.8428V58.4648H37.8209C37.3708 58.4744 36.9297 58.2994 36.5803 57.9782L36.5806 57.9788ZM44.8431 47.0692H42.6005C41.8287 47.0692 41.2036 46.4442 41.2036 45.6723C41.2036 44.9004 41.8287 44.2753 42.6005 44.2753H43.4461C44.218 44.2753 44.8431 44.9004 44.8431 45.6723V47.0692ZM51.0194 58.475H48.4736V50.6998H51.0194V58.475ZM54.6403 47.0692V45.6723C54.6403 44.9004 55.2653 44.2753 56.0372 44.2753H56.2763C57.0482 44.2753 57.6733 44.9004 57.6733 45.6723C57.6733 46.4442 57.0482 47.0692 56.2763 47.0692H54.6403Z" fill="black"/>
<path d="M60.9722 65.7811C60.9722 64.7791 60.1631 63.9707 59.1618 63.9707H39.7135C38.7114 63.9707 37.9031 64.7798 37.9031 65.7811C37.9031 66.7831 38.7121 67.5915 39.7135 67.5915H59.1519C60.1623 67.5915 60.9714 66.7831 60.9714 65.7811H60.9722Z" fill="black"/>
<path fill-rule="evenodd" clip-rule="evenodd" d="M41.3137 71.2778C41.3137 70.2764 42.122 69.4673 43.1241 69.4673H55.7706C56.7719 69.4673 57.581 70.2757 57.581 71.2778C57.581 75.763 53.9324 79.4114 49.4473 79.4114C44.9621 79.4114 41.3137 75.7628 41.3137 71.2778ZM45.3115 73.0979C46.0103 74.6781 47.6002 75.7904 49.4381 75.7904C51.2761 75.7904 52.8661 74.6782 53.5553 73.0979H45.3115Z" fill="black"/>
</svg>
