<svg width="61" height="60" viewBox="0 0 61 60" fill="none" xmlns="http://www.w3.org/2000/svg">
<rect x="0.65625" width="60" height="60" rx="12" fill="#FFB400"/>
<path d="M40.8785 14C44.0562 14 46.6562 16.6 46.6562 19.7778V21.3667C46.6562 22.2333 46.0785 22.8111 45.2118 22.8111C44.3451 22.8111 43.7674 22.2333 43.7674 21.3667V19.7778C43.7674 18.1889 42.4674 16.8889 40.8785 16.8889H39.434C38.5674 16.8889 37.9896 16.3111 37.9896 15.4444C37.9896 14.5778 38.5674 14 39.434 14H40.8785Z" fill="black"/>
<path d="M45.2118 37.3333C46.0785 37.3333 46.6562 37.9111 46.6562 38.7778V40.2222C46.6562 43.4 44.0562 46 40.8785 46H39.434C38.5674 46 37.9896 45.4222 37.9896 44.5556C37.9896 43.6889 38.5674 43.1111 39.434 43.1111H40.8785C42.4674 43.1111 43.7674 41.8111 43.7674 40.2222V38.7778C43.7674 37.9111 44.3451 37.3333 45.2118 37.3333Z" fill="black"/>
<path d="M20.434 46C17.2562 46 14.6562 43.4 14.6562 40.2222V38.7778C14.6562 37.9111 15.234 37.3333 16.1007 37.3333C16.9674 37.3333 17.5451 37.9111 17.5451 38.7778V40.2222C17.5451 41.8111 18.8451 43.1111 20.434 43.1111H21.8785C22.7451 43.1111 23.3229 43.6889 23.3229 44.5556C23.3229 45.4222 22.7451 46 21.8785 46H20.434Z" fill="black"/>
<path d="M20.434 14H21.8785C22.7451 14 23.3229 14.5778 23.3229 15.4444C23.3229 16.3111 22.7451 16.8889 21.8785 16.8889H20.434C18.8451 16.8889 17.5451 18.1889 17.5451 19.7778V21.2222C17.5451 22.0889 16.9674 22.6667 16.1007 22.6667C15.234 22.6667 14.6562 22.0889 14.6562 21.2222V19.7778C14.6562 16.6 17.2562 14 20.434 14Z" fill="black"/>
<path fill-rule="evenodd" clip-rule="evenodd" d="M35.1579 25.8333C35.1579 23.3778 33.2801 21.5 30.8245 21.5C28.369 21.5 26.4912 23.3778 26.4912 25.8333C26.4912 28.2889 28.369 30.1667 30.8245 30.1667C33.2801 30.1667 35.1579 28.2889 35.1579 25.8333ZM30.8245 27.2778C29.9579 27.2778 29.3801 26.7 29.3801 25.8333C29.3801 24.9667 29.9579 24.3889 30.8245 24.3889C31.6912 24.3889 32.269 24.9667 32.269 25.8333C32.269 26.7 31.6912 27.2778 30.8245 27.2778Z" fill="black"/>
<path d="M24.3245 35.1346L23.7467 37.0124C23.4579 37.7346 23.8912 38.6013 24.6134 38.8902C25.3356 39.1791 26.2023 38.7457 26.4912 38.0235L27.069 36.0013C27.3579 35.1346 28.2245 34.5569 29.0912 34.5569H32.5578C33.4245 34.5569 34.2912 35.1346 34.5801 36.0013L35.1579 37.8791C35.3023 38.4569 35.8801 38.8902 36.4579 38.8902C36.6023 38.8902 36.7467 38.8902 36.8912 38.7457C37.6134 38.4569 38.0467 37.7346 37.7579 36.868L37.1801 34.9902C36.6023 33.1124 34.7245 31.668 32.5578 31.668H29.0912C26.9245 31.668 25.0467 33.1124 24.3245 35.1346Z" fill="black"/>
</svg>
