<svg width="20" height="20" viewBox="0 0 20 20" fill="none" xmlns="http://www.w3.org/2000/svg">
<path d="M11.1877 0.492261C10.5313 -0.164086 9.46715 -0.164088 8.81079 0.49226L5.24542 4.05756L8.81079 7.62285C9.46715 8.2792 10.5313 8.2792 11.1877 7.62285L14.753 4.05756L11.1877 0.492261Z" fill="#5A2DBC"/>
<path d="M4.0576 5.24629L0.492285 8.81154C-0.164094 9.4679 -0.164096 10.5321 0.492284 11.1885L4.0576 14.7537L7.62292 11.1885C8.2793 10.5321 8.2793 9.4679 7.62292 8.81154L4.0576 5.24629Z" fill="#5A2DBC"/>
<path d="M5.24542 15.9424L8.81079 12.3772C9.46715 11.7208 10.5313 11.7208 11.1877 12.3771L14.753 15.9424L11.1877 19.5077C10.5313 20.1641 9.46715 20.1641 8.81079 19.5077L5.24542 15.9424Z" fill="#5A2DBC"/>
<path d="M15.9417 5.24629L12.3764 8.81154C11.72 9.4679 11.72 10.5321 12.3764 11.1885L15.9417 14.7537L19.507 11.1885C20.1634 10.5321 20.1634 9.4679 19.507 8.81154L15.9417 5.24629Z" fill="#5A2DBC"/>
</svg>
