<svg width="219" height="48" viewBox="0 0 219 48" fill="none" xmlns="http://www.w3.org/2000/svg">
<path d="M44.4366 34.7818C44.4366 41.1301 41.5296 45.2096 34.6818 45.2096C27.7644 45.2096 24.8574 41.2034 24.8574 34.7818V20.1719H30.7447V34.4629C30.7447 37.2632 31.2763 39.499 34.6122 39.499C38.1937 39.499 38.5493 37.4062 38.5493 34.4629V20.1719H44.4366V34.7818V34.7818Z" fill="white"/>
<path d="M9.30019 39.2283C6.44451 38.4916 5.95696 35.3687 5.95696 32.5465C5.95696 29.321 6.59481 25.7033 10.6749 25.7033C14.8246 25.7033 15.3928 29.321 15.3928 32.5465C15.3928 33.4994 15.3378 34.4891 15.1508 35.4054L20.4076 38.4256C21.0528 36.6333 21.3497 34.621 21.3497 32.5428C21.3497 25.9122 18.2998 19.8828 10.6749 19.8828C3.0133 19.8828 0 25.9122 0 32.5428C0 38.8545 2.7347 44.6163 9.60079 45.1588L9.30019 39.2283Z" fill="white"/>
<path d="M11.133 34.8594C11.232 34.8594 11.331 34.885 11.419 34.9363L20.195 39.9798C20.3159 40.0495 20.4076 40.1631 20.4516 40.295C20.4956 40.427 20.4882 40.5736 20.4332 40.7019C20.3782 40.8302 20.2793 40.9328 20.151 40.9951L17.4199 42.278L19.6194 45.8663C19.7001 45.9946 19.7221 46.1522 19.6891 46.2988C19.6524 46.4454 19.5608 46.5737 19.4325 46.6507L17.3649 47.9152C17.2733 47.9702 17.1707 47.9995 17.068 47.9995C17.024 47.9995 16.98 47.9958 16.936 47.9848C16.7894 47.9482 16.6611 47.8566 16.5841 47.7283L14.3846 44.1399L11.9982 45.9909C11.8992 46.0679 11.7746 46.1119 11.6463 46.1119C11.6353 46.1119 11.6206 46.1119 11.6096 46.1119C11.4703 46.1009 11.3383 46.0422 11.2394 45.9433C11.1404 45.8443 11.0817 45.7124 11.0744 45.5731L10.5648 35.4641C10.5612 35.3615 10.5832 35.2589 10.6308 35.1673C10.6785 35.0756 10.7518 34.9987 10.8361 34.9473C10.9241 34.8924 11.0231 34.863 11.1257 34.863C11.1294 34.8594 11.133 34.8594 11.133 34.8594Z" fill="white"/>
<path d="M54.756 44.9274H48.832V20.1719H54.756V44.9274Z" fill="white"/>
<path d="M73.9026 39.1105H66.8165L72.0403 31.5307L69.2433 20.1719H59.188V25.9521H68.6604L58.4805 40.7049V44.9237H75.3359L73.9026 39.1105Z" fill="white"/>
<path d="M104.102 44.9236H98.1453V35.2765L93.9589 44.9236H90.3774L86.2277 35.2435V44.9236H80.3037V7.75L92.1516 35.4231L104.106 7.75V44.9236H104.102Z" fill="white"/>
<path d="M141.471 45.2761C136.046 45.2761 132.534 42.6151 131.148 37.4396L136.717 36.34C137.391 38.5759 138.88 39.6718 141.468 39.6718C143.029 39.6718 145.192 38.8911 145.192 37.1537C145.192 33.5361 131.926 36.2667 131.926 27.2244C131.926 22.3312 136.394 19.8828 140.793 19.8828C145.511 19.8828 148.385 21.6898 150.442 25.806L145.335 28.0748C144.305 26.2678 143.242 25.3441 140.797 25.3441C139.66 25.3441 137.817 25.8756 137.817 27.2244C137.817 30.2043 151.083 28.1481 151.083 37.1537C151.083 42.3695 146.296 45.2761 141.471 45.2761Z" fill="white"/>
<path d="M120.085 20.1719H115.155L115.096 20.3185L109.04 44.9237H111.819C111.819 44.8871 113.945 39.0372 113.945 39.0006H121.357L123.483 44.9237H129.902L120.085 20.1719ZM115.899 33.8618L117.636 28.8953C117.673 29.0016 119.374 33.7555 119.411 33.8618H115.899Z" fill="white"/>
<path d="M172.008 25.9887H165.127V44.9274H159.24V25.9887H152.396V20.1719H172.011V25.9887H172.008Z" fill="white"/>
<path d="M193.251 44.9274H175.659V20.1719H193.251V25.9887H181.546V29.4634H191.726V35.031H181.546V39.1105H193.251V44.9274Z" fill="white"/>
<path d="M211.482 34.6425C211.625 34.8551 211.944 35.3866 212.189 35.6725L218.326 44.9274H211.445L206.445 36.7721C205.664 35.4965 205.488 35.3169 203.963 35.3169H203.395V44.9274H197.508V20.1719H206.907C211.837 20.1719 215.811 22.5836 215.811 27.902C215.808 30.8123 214 33.5429 211.482 34.6425ZM206.907 25.8458H203.395V30.1379H206.907C208.608 30.1379 209.887 29.819 209.887 27.9387C209.884 26.128 208.502 25.8458 206.907 25.8458Z" fill="white"/>
<path d="M67.8412 12.3367C68.5944 12.3367 69.2049 11.7262 69.2049 10.9731C69.2049 10.2199 68.5944 9.60938 67.8412 9.60938C67.0881 9.60938 66.4775 10.2199 66.4775 10.9731C66.4775 11.7262 67.0881 12.3367 67.8412 12.3367Z" fill="#FFA000"/>
<path d="M116.538 12.3367C117.291 12.3367 117.901 11.7262 117.901 10.9731C117.901 10.2199 117.291 9.60938 116.538 9.60938C115.784 9.60938 115.174 10.2199 115.174 10.9731C115.174 11.7262 115.784 12.3367 116.538 12.3367Z" fill="#FFA000"/>
<path d="M80.3051 6.25081C81.0582 6.25081 81.6688 5.64027 81.6688 4.88712C81.6688 4.13398 81.0582 3.52344 80.3051 3.52344C79.5519 3.52344 78.9414 4.13398 78.9414 4.88712C78.9414 5.64027 79.5519 6.25081 80.3051 6.25081Z" fill="#FFA000"/>
<path d="M104.103 6.25081C104.856 6.25081 105.467 5.64027 105.467 4.88712C105.467 4.13398 104.856 3.52344 104.103 3.52344C103.35 3.52344 102.739 4.13398 102.739 4.88712C102.739 5.64027 103.35 6.25081 104.103 6.25081Z" fill="#FFA000"/>
<path d="M92.1488 2.72737C92.902 2.72737 93.5125 2.11683 93.5125 1.36369C93.5125 0.610543 92.902 0 92.1488 0C91.3957 0 90.7852 0.610543 90.7852 1.36369C90.7852 2.11683 91.3957 2.72737 92.1488 2.72737Z" fill="#FFA000"/>
<path d="M86.709 18.064L92.1637 31.3141L97.8054 18.064L92.1637 4.0625L86.709 18.064Z" fill="#FFA000"/>
<path d="M87.6611 44.933H88.9405L87.6611 41.9453V44.933Z" fill="#FFA000"/>
<path d="M96.7232 44.944H95.4219L96.7232 41.9453V44.944Z" fill="#FFA000"/>
<path d="M69.377 13.8281L78.6735 24.7361V44.9209H77.0312L69.377 13.8281Z" fill="#FFA000"/>
<path d="M115.003 13.8281L107.348 44.9209H105.706V24.7361L115.003 13.8281Z" fill="#FFA000"/>
</svg>
