<svg width="206" height="64" viewBox="0 0 206 64" fill="none" xmlns="http://www.w3.org/2000/svg">
<rect width="206" height="64" rx="4" fill="#AA0064"/>
<path d="M49.0432 40.9659C49.0432 46.257 46.6199 49.6571 40.9115 49.6571C35.145 49.6571 32.7217 46.3181 32.7217 40.9659V28.7891H37.6294V40.7001C37.6294 43.034 38.0725 44.8975 40.8534 44.8975C43.839 44.8975 44.1354 43.1532 44.1354 40.7001V28.7891H49.0432V40.9659Z" fill="white"/>
<path d="M19.7528 44.6941C17.3723 44.08 16.9658 41.4773 16.9658 39.125C16.9658 36.4367 17.4975 33.4215 20.8988 33.4215C24.358 33.4215 24.8317 36.4367 24.8317 39.125C24.8317 39.9193 24.7858 40.7441 24.63 41.5078L29.0121 44.025C29.55 42.5312 29.7975 40.8541 29.7975 39.1219C29.7975 33.5956 27.255 28.5703 20.8988 28.5703C14.5119 28.5703 12 33.5956 12 39.1219C12 44.3825 14.2797 49.1848 20.0034 49.6369L19.7528 44.6941Z" fill="white"/>
<path d="M21.2806 41.0469C21.3631 41.0469 21.4456 41.0683 21.519 41.111L28.8348 45.3146C28.9356 45.3726 29.012 45.4673 29.0487 45.5773C29.0854 45.6873 29.0793 45.8095 29.0334 45.9164C28.9876 46.0233 28.9051 46.1088 28.7981 46.1608L26.5215 47.23L28.355 50.2207C28.4222 50.3277 28.4406 50.459 28.4131 50.5812C28.3825 50.7034 28.3061 50.8103 28.1992 50.8745L26.4756 51.9284C26.3992 51.9742 26.3137 51.9987 26.2281 51.9987C26.1914 51.9987 26.1548 51.9956 26.1181 51.9865C25.9959 51.9559 25.8889 51.8795 25.8247 51.7726L23.9912 48.7819L22.0018 50.3246C21.9193 50.3888 21.8154 50.4254 21.7085 50.4254C21.6993 50.4254 21.6871 50.4254 21.6779 50.4254C21.5618 50.4162 21.4518 50.3674 21.3693 50.2849C21.2867 50.2024 21.2378 50.0924 21.2317 49.9763L20.807 41.5509C20.8039 41.4654 20.8222 41.3799 20.862 41.3035C20.9017 41.2271 20.9628 41.163 21.0331 41.1202C21.1064 41.0744 21.189 41.0499 21.2745 41.0499C21.2776 41.0469 21.2806 41.0469 21.2806 41.0469Z" fill="white"/>
<path d="M57.6453 49.4218H52.707V28.7891H57.6453V49.4218Z" fill="white"/>
<path d="M73.6071 44.5737H67.7001L72.0547 38.2562L69.7231 28.7891H61.3408V33.6066H69.2372L60.751 45.9026V49.4188H74.802L73.6071 44.5737Z" fill="white"/>
<path d="M98.7802 49.4203H93.8144V41.3798L90.3246 49.4203H87.339L83.8797 41.3523V49.4203H78.9414V18.4375L88.818 41.502L98.7833 18.4375V49.4203H98.7802Z" fill="white"/>
<path d="M129.933 49.7268C125.41 49.7268 122.482 47.509 121.327 43.1955L125.969 42.279C126.531 44.1425 127.772 45.0559 129.929 45.0559C131.231 45.0559 133.034 44.4052 133.034 42.9572C133.034 39.942 121.975 42.2179 121.975 34.6815C121.975 30.6032 125.7 28.5625 129.367 28.5625C133.3 28.5625 135.696 30.0686 137.41 33.4992L133.153 35.3902C132.295 33.8841 131.409 33.1143 129.37 33.1143C128.423 33.1143 126.886 33.5573 126.886 34.6815C126.886 37.1651 137.945 35.4513 137.945 42.9572C137.945 47.3043 133.954 49.7268 129.933 49.7268Z" fill="white"/>
<path d="M112.105 28.7891H107.995L107.946 28.9113L102.897 49.4188H105.214C105.214 49.3882 106.986 44.5126 106.986 44.4821H113.165L114.938 49.4188H120.289L112.105 28.7891ZM108.615 40.1991L110.064 36.0597C110.094 36.1483 111.512 40.1105 111.543 40.1991H108.615Z" fill="white"/>
<path d="M155.388 33.6372H149.652V49.4218H144.744V33.6372H139.039V28.7891H155.391V33.6372H155.388Z" fill="white"/>
<path d="M173.097 49.4218H158.432V28.7891H173.097V33.6372H163.339V36.5332H171.826V41.1736H163.339V44.5737H173.097V49.4218Z" fill="white"/>
<path d="M188.295 40.8498C188.414 41.027 188.68 41.4699 188.884 41.7082L194 49.4218H188.264L184.096 42.6247C183.445 41.5616 183.298 41.4119 182.027 41.4119H181.553V49.4218H176.646V28.7891H184.481C188.591 28.7891 191.904 30.7992 191.904 35.2318C191.901 37.6574 190.394 39.9333 188.295 40.8498ZM184.481 33.518H181.553V37.0953H184.481C185.899 37.0953 186.965 36.8296 186.965 35.2624C186.962 33.7533 185.81 33.518 184.481 33.518Z" fill="white"/>
<path d="M68.552 22.2732C69.1799 22.2732 69.6889 21.7643 69.6889 21.1366C69.6889 20.5089 69.1799 20 68.552 20C67.9241 20 67.415 20.5089 67.415 21.1366C67.415 21.7643 67.9241 22.2732 68.552 22.2732Z" fill="#FFA000"/>
<path d="M109.147 22.2732C109.775 22.2732 110.284 21.7643 110.284 21.1366C110.284 20.5089 109.775 20 109.147 20C108.519 20 108.01 20.5089 108.01 21.1366C108.01 21.7643 108.519 22.2732 109.147 22.2732Z" fill="#FFA000"/>
<path d="M78.9416 17.2185C79.5696 17.2185 80.0786 16.7096 80.0786 16.0819C80.0786 15.4542 79.5696 14.9453 78.9416 14.9453C78.3137 14.9453 77.8047 15.4542 77.8047 16.0819C77.8047 16.7096 78.3137 17.2185 78.9416 17.2185Z" fill="#FFA000"/>
<path d="M98.7805 17.2185C99.4084 17.2185 99.9175 16.7096 99.9175 16.0819C99.9175 15.4542 99.4084 14.9453 98.7805 14.9453C98.1526 14.9453 97.6436 15.4542 97.6436 16.0819C97.6436 16.7096 98.1526 17.2185 98.7805 17.2185Z" fill="#FFA000"/>
<path d="M88.8157 14.2732C89.4436 14.2732 89.9526 13.7643 89.9526 13.1366C89.9526 12.5089 89.4436 12 88.8157 12C88.1877 12 87.6787 12.5089 87.6787 13.1366C87.6787 13.7643 88.1877 14.2732 88.8157 14.2732Z" fill="#FFA000"/>
<path d="M84.2812 27.0525L88.8284 38.096L93.5314 27.0525L88.8284 15.3828L84.2812 27.0525Z" fill="#FFA000"/>
<path d="M85.0752 49.451H86.1418L85.0752 46.9609V49.451Z" fill="#FFA000"/>
<path d="M92.6309 49.4602H91.5459L92.6309 46.9609V49.4602Z" fill="#FFA000"/>
<path d="M69.833 23.5312L77.5827 32.6226V49.4459H76.2137L69.833 23.5312Z" fill="#FFA000"/>
<path d="M107.866 23.5312L101.485 49.4459H100.116V32.6226L107.866 23.5312Z" fill="#FFA000"/>
</svg>
