<svg width="32" height="32" viewBox="0 0 32 32" fill="none" xmlns="http://www.w3.org/2000/svg">
<path d="M28 9.8551C28 8.83056 27.1694 8 26.1449 8L11.7906 8C10.7661 8 9.9355 8.83056 9.9355 9.8551C9.9355 10.8796 10.7661 11.7102 11.7906 11.7102H26.1449C27.1694 11.7102 28 10.8796 28 9.8551Z" fill="#AA0064"/>
<path d="M23.1039 16.116C23.1039 15.0914 22.2733 14.2609 21.2488 14.2609H11.7906C10.7661 14.2609 9.9355 15.0914 9.9355 16.116C9.9355 17.1405 10.7661 17.9711 11.7906 17.9711H21.2488C22.2733 17.9711 23.1039 17.1405 23.1039 16.116Z" fill="#AA0064"/>
<path d="M9.9355 22.1449C9.9355 21.1204 10.7661 20.2898 11.7906 20.2898H14.9537C15.9783 20.2898 16.8088 21.1204 16.8088 22.1449C16.8088 23.1694 15.9782 24 14.9537 24H11.7906C10.7661 24 9.9355 23.1694 9.9355 22.1449Z" fill="#AA0064"/>
<path d="M5.84101 11.6816C6.85763 11.6816 7.68185 10.8618 7.68185 9.85055C7.68185 8.83946 6.85763 8.01971 5.84101 8.01971C4.82423 8.01971 4 8.83946 4 9.85055C4 10.8618 4.82423 11.6816 5.84101 11.6816Z" fill="#AA0064"/>
<path d="M7.68185 16.1375C7.68185 17.1485 6.85763 17.9683 5.84101 17.9683C4.82423 17.9683 4 17.1485 4 16.1375C4 15.1262 4.82423 14.3065 5.84101 14.3065C6.85763 14.3065 7.68185 15.1262 7.68185 16.1375Z" fill="#AA0064"/>
<path d="M5.84101 23.8935C6.85763 23.8935 7.68185 23.0737 7.68185 22.0625C7.68185 21.0512 6.85763 20.2315 5.84101 20.2315C4.82423 20.2315 4 21.0512 4 22.0625C4 23.0737 4.82423 23.8935 5.84101 23.8935Z" fill="#AA0064"/>
</svg>
