<svg width="120" height="120" viewBox="0 0 120 120" fill="none" xmlns="http://www.w3.org/2000/svg">
<rect width="120" height="120" rx="4" fill="#FFF2DF"/>
<path fill-rule="evenodd" clip-rule="evenodd" d="M85.1243 27C89.7572 27.0006 93.4945 30.7592 93.4908 35.4105C93.4865 40.0123 89.7211 43.7498 85.0908 43.7472C80.4846 43.7447 76.7428 39.9831 76.7441 35.3572C76.746 30.7461 80.5033 26.9994 85.1243 27ZM80.7717 35.3629C80.7693 37.7673 82.7093 39.7174 85.1075 39.7204C87.5118 39.7228 89.4619 37.7828 89.4649 35.3853C89.4674 32.9809 87.5274 31.0308 85.1299 31.0278C82.7248 31.0241 80.7743 32.9647 80.7717 35.3629Z" fill="#AA0064"/>
<path d="M71.3597 54.8443C73.7523 49.4285 77.8829 46.2638 83.791 45.6854C91.3676 44.9432 98.1735 50.0584 99.6984 57.4812C100.044 59.1613 100.013 60.8627 99.9821 62.6132V62.6133L99.9811 62.6677H95.3687C95.3687 62.5604 95.3679 62.4541 95.367 62.3484V62.348C95.3653 62.1308 95.3635 61.9162 95.3694 61.7023C95.4165 60.0506 95.3098 58.428 94.7196 56.8544C93.1274 52.6128 88.7748 49.8389 84.2896 50.2375C79.6531 50.6498 75.8437 54.0834 75.0532 58.5855C75.0532 58.5855 74.8871 60.3079 74.8325 61.29C74.6354 64.8717 73.3377 68.0097 70.8898 70.6374C68.3024 73.4151 65.1062 75.0098 61.3149 75.3297C56.6858 75.7209 52.6891 74.2589 49.4154 70.982C46.7376 68.301 45.3419 65.0416 45.1397 61.3128L45.0945 59.6908C44.6821 54.1088 39.771 49.8034 34.0929 50.2318C28.7899 50.6317 24.6283 55.1132 24.6247 60.4286C24.6243 60.9112 24.6244 61.3938 24.6245 61.8871V61.8902C24.6246 62.1399 24.6247 62.3923 24.6247 62.6488H20.0185C20.0185 62.3442 20.0139 62.0379 20.0093 61.7305C19.9992 61.0593 19.9891 60.3833 20.0265 59.7105C20.2237 56.1287 21.5214 52.9907 23.9693 50.363C26.5566 47.5853 29.7529 45.9906 33.5442 45.6708C38.1732 45.2796 42.1699 46.7416 45.4436 50.0184C48.1215 52.6995 49.5171 55.9589 49.7193 59.6876L49.7646 61.3096C50.1769 66.8917 55.0881 71.1971 60.7661 70.7687C66.0691 70.3688 70.2593 65.8873 70.2344 60.5719C70.2344 60.5719 70.2344 60.5717 70.2344 60.5715L70.2344 60.5705C70.2343 60.5691 70.2342 60.5667 70.234 60.5631L70.234 60.5627C70.2258 60.3948 70.106 57.9364 71.3591 54.8441L71.3597 54.8443Z" fill="#AA0064"/>
<path fill-rule="evenodd" clip-rule="evenodd" d="M85.1243 52.1317C89.7572 52.1323 93.4945 55.8909 93.4908 60.5422C93.4865 65.1439 89.7211 68.8814 85.0908 68.8789C80.4846 68.8764 76.7428 65.1147 76.7441 60.4889C76.746 55.8771 80.5033 52.1304 85.1243 52.1317ZM80.7717 60.4939C80.7693 62.8983 82.7093 64.8484 85.1075 64.8514C87.5118 64.8539 89.4619 62.9139 89.4649 60.5163C89.4674 58.112 87.5274 56.1619 85.1299 56.1589C82.7248 56.1558 80.7743 58.0958 80.7717 60.4939Z" fill="#AA0064"/>
<path fill-rule="evenodd" clip-rule="evenodd" d="M43.2576 60.5422C43.2613 55.8909 39.5239 52.1323 34.8911 52.1317C30.2701 52.1304 26.514 55.8771 26.5109 60.4889C26.5096 65.1147 30.2514 68.8764 34.8576 68.8789C39.4879 68.8814 43.2533 65.1439 43.2576 60.5422ZM34.8742 64.8514C32.4761 64.8484 30.536 62.8983 30.5385 60.4939C30.541 58.0958 32.4923 56.1558 34.8966 56.1589C37.2942 56.1619 39.2342 58.112 39.2317 60.5163C39.2287 62.9139 37.2786 64.8539 34.8742 64.8514Z" fill="#AA0064"/>
<path fill-rule="evenodd" clip-rule="evenodd" d="M43.2576 35.4105C43.2613 30.7592 39.5239 27.0006 34.8911 27C30.2701 26.9994 26.514 30.7461 26.5109 35.3572C26.5096 39.9831 30.2514 43.7447 34.8576 43.7472C39.4879 43.7498 43.2533 40.0123 43.2576 35.4105ZM34.8742 39.7204C32.4761 39.7174 30.536 37.7673 30.5385 35.3629C30.541 32.9647 32.4923 31.0241 34.8966 31.0278C37.2942 31.0308 39.2342 32.9809 39.2317 35.3853C39.2287 37.7828 37.2786 39.7228 34.8742 39.7204Z" fill="#AA0064"/>
<path fill-rule="evenodd" clip-rule="evenodd" d="M51.6286 60.4711C51.6323 55.8674 55.3964 52.1282 60.0248 52.1299C64.6502 52.1324 68.382 55.8978 68.3758 60.5566C68.3696 65.1528 64.5974 68.8816 59.9602 68.8773C55.3591 68.873 51.6253 65.1044 51.6284 60.4711H51.6286ZM59.9715 64.8503C62.3809 64.8571 64.3413 62.9258 64.3482 60.5338C64.355 58.1243 62.4236 56.1639 60.0317 56.1571C57.6209 56.1503 55.6618 58.0816 55.655 60.4736C55.6482 62.8837 57.5808 64.8435 59.9715 64.8503Z" fill="#AA0064"/>
<path fill-rule="evenodd" clip-rule="evenodd" d="M60.0248 77.2513C55.3964 77.2495 51.6323 80.9888 51.6286 85.5924H51.6284C51.6253 90.2258 55.3591 93.9937 59.9602 93.9987C64.5974 94.0029 68.3696 90.2742 68.3758 85.678C68.382 81.0191 64.6502 77.2538 60.0248 77.2513ZM64.3482 85.6551C64.3413 88.0471 62.3809 89.9785 59.9715 89.9716C57.5808 89.9648 55.6482 88.005 55.655 85.595C55.6618 83.203 57.6209 81.2716 60.0317 81.2785C62.4236 81.2853 64.355 83.2457 64.3482 85.6551Z" fill="#AA0064"/>
</svg>
