<svg width="86" height="86" viewBox="0 0 86 86" fill="none" xmlns="http://www.w3.org/2000/svg">
<rect width="86" height="86" rx="16" fill="#F5F5F5"/>
<path d="M63.1164 54.0176C63.1499 52.6354 62.2014 51.5134 60.9756 51.3404C58.6944 51.0387 56.4552 50.4799 54.2962 49.6723C53.4109 49.3388 52.4155 49.5518 51.7337 50.2271L48.9166 53.0504C48.2911 53.6768 47.2943 53.8067 46.5159 53.3631C40.6608 50.0269 35.8179 45.1737 32.4947 39.3179C32.0943 38.6118 32.2158 37.7396 32.796 37.1583L35.6059 34.3428C36.3207 33.6182 36.5544 32.5194 36.1881 31.5427C35.3902 29.3998 34.8367 27.1739 34.5404 24.9232C34.3573 23.6241 33.2772 22.6929 32.0276 22.7053H25.3751C24.6954 22.706 24.0395 22.996 23.5654 23.5166C23.0729 24.0573 22.8254 24.7936 22.8897 25.5121C23.5885 32.1051 25.8265 38.4387 29.4295 44.0119C32.6886 49.1517 37.034 53.5065 42.1709 56.7773C47.6724 60.3522 53.9301 62.5831 60.4049 63.2886C61.0816 63.3499 61.7579 63.1205 62.2733 62.6468C62.8093 62.1539 63.1194 61.4438 63.1163 60.6867L63.1164 54.0176ZM66.9984 60.6792C67.0054 62.433 66.2718 64.1148 64.9667 65.3145C63.6411 66.5333 61.8495 67.1403 60.0016 66.9725C52.8615 66.1951 46.0053 63.7512 40.001 59.8489C34.4031 56.2844 29.6604 51.532 26.117 45.9435C22.2136 39.905 19.7855 33.034 19.0251 25.8571C18.8684 24.1177 19.4497 22.3884 20.6359 21.0856C21.841 19.763 23.5603 19.0019 25.3734 19.0003H32.0079C35.2322 18.9685 37.9483 21.309 38.3902 24.4452C38.6537 26.4464 39.1422 28.4114 39.8447 30.2978C40.6988 32.5743 40.1531 35.1384 38.4248 36.8898L36.6007 38.7176C39.287 43.0384 42.9121 46.6893 47.2001 49.3984L48.9302 47.6647C50.7041 45.9069 53.3642 45.3383 55.7171 46.2246C57.5874 46.924 59.5303 47.4088 61.5265 47.673C64.7358 48.1267 67.0648 50.8729 66.9985 54.0376L66.9984 60.6792Z" fill="#AA0064"/>
</svg>
