<svg width="120" height="120" viewBox="0 0 120 120" fill="none" xmlns="http://www.w3.org/2000/svg">
<rect width="120" height="120" rx="4" fill="#FFB400"/>
<path d="M84.4265 44.9956L91.0225 31.4267C91.4699 30.4943 91.2823 29.3755 90.5462 28.644C89.8101 27.9125 88.6843 27.7261 87.7461 28.1851L73.774 34.9408L62.4149 24.6423C61.65 23.9395 60.5097 23.7961 59.5859 24.2981C58.6622 24.8001 58.1715 25.8328 58.3447 26.8512L61.0581 42.1984L48.068 50.1302C47.1876 50.6752 46.7402 51.6936 46.9567 52.712C47.1731 53.7304 47.9959 54.4905 49.0207 54.634L55.7177 55.5663L24.6965 86.0888C23.7583 87.0498 23.7727 88.5702 24.7109 89.5169L30.5275 95.2972C30.9894 95.7562 31.61 96 32.2595 96H32.2739C32.9234 96 33.5585 95.7418 34.0203 95.2685L65.5615 64.2438L67.2359 71.8887C67.4524 72.9071 68.3184 73.6817 69.3575 73.7964C69.4441 73.8108 69.5452 73.8108 69.6318 73.8108C70.5844 73.8108 71.4503 73.2657 71.8545 72.3908L78.3785 58.4062L93.3165 59.8406C94.3557 59.941 95.3371 59.3816 95.7702 58.4493C96.2033 57.5171 96.0156 56.4126 95.2795 55.6811L84.4265 44.9956ZM32.261 90.119L29.9083 87.7811L40.6034 76.9089L42.9561 79.2468L32.261 90.119ZM46.3769 75.762L44.0243 73.424L61.7531 56.4127L63.918 56.714L64.3222 58.5356L46.3769 75.762ZM77.1237 53.3871C76.0845 53.2867 75.1031 53.8461 74.6556 54.7928L70.4699 63.7573L68.3483 54.0182C68.1318 53.0141 67.3091 52.2539 66.2842 52.1248L56.4407 50.7621L65.0285 45.5125C65.8801 44.9818 66.3275 43.9921 66.1543 43.0168L64.3934 33.0769L71.6534 39.6605C72.3895 40.3346 73.472 40.4924 74.3813 40.0477L83.5176 35.6299L79.2309 44.4367C78.769 45.369 78.9711 46.5021 79.7072 47.2336L86.9239 54.3336L77.1237 53.3871Z" fill="black"/>
</svg>
