<svg width="32" height="32" viewBox="0 0 32 32" fill="none" xmlns="http://www.w3.org/2000/svg">
<path d="M16 28C19.1825 28 22.2348 26.7358 24.4852 24.4852C26.7357 22.2349 28 19.1826 28 16C28 12.8174 26.7358 9.7652 24.4852 7.51476C22.2349 5.26427 19.1826 4 16 4C12.8174 4 9.7652 5.26422 7.51476 7.51476C5.26427 9.76511 4 12.8174 4 16C4.00403 19.1813 5.26965 22.2312 7.51911 24.4808C9.76874 26.7302 12.8186 27.9959 15.9999 27.9999L16 28ZM16 6.34299C18.5604 6.34299 21.0161 7.36011 22.8267 9.17047C24.6374 10.9808 25.6546 13.4363 25.6548 15.9967C25.655 18.5571 24.6382 21.0128 22.8279 22.8233C21.0177 24.6341 18.5623 25.6515 16.0021 25.652C13.4416 25.6524 10.9856 24.6358 9.17499 22.8256C7.3641 21.0156 6.34649 18.5602 6.34577 15.9999C6.3484 13.44 7.36657 10.986 9.17656 9.17589C10.9866 7.36576 13.4406 6.34775 16.0005 6.3451L16 6.34299ZM17.0922 21.8809C17.0922 22.2098 16.9616 22.5254 16.729 22.758C16.4964 22.9906 16.1807 23.1213 15.8518 23.1213C15.5229 23.1213 15.2075 22.9906 14.9747 22.758C14.7421 22.5254 14.6114 22.2098 14.6114 21.8809C14.6114 21.552 14.7421 21.2363 14.9747 21.0038C15.2075 20.7712 15.5229 20.6405 15.8518 20.6405C16.1813 20.6405 16.4971 20.7715 16.7299 21.0046C16.9626 21.2378 17.0929 21.5541 17.0922 21.8834L17.0922 21.8809ZM11.9824 12.2137C11.874 11.9054 11.8929 11.5665 12.0351 11.2721C12.3746 10.5596 12.9079 9.95707 13.5742 9.53388C14.2404 9.11054 15.0123 8.88372 15.8016 8.87915H15.8268C16.9281 8.88353 17.9852 9.31352 18.7769 10.0791C19.5687 10.8445 20.0339 11.8865 20.0753 12.9871C20.1035 13.8902 19.84 14.7784 19.324 15.52C18.808 16.2617 18.0668 16.8175 17.2103 17.1051C17.2103 17.1051 17.0873 17.1478 17.0873 17.2205V18.2049H17.0872C17.0872 18.6457 16.8521 19.0531 16.4701 19.2736C16.0883 19.4941 15.6178 19.4941 15.236 19.2736C14.8542 19.0531 14.6189 18.6457 14.6189 18.2049V17.2205C14.6245 16.6751 14.8009 16.1449 15.1234 15.7049C15.446 15.2648 15.8982 14.9369 16.4169 14.7674C16.7738 14.6463 17.0825 14.4139 17.2972 14.1042C17.5119 13.7946 17.6214 13.4239 17.6095 13.0474C17.5853 12.5913 17.3888 12.1615 17.0597 11.845C16.7306 11.5285 16.2934 11.3488 15.8368 11.3425C15.5073 11.346 15.1856 11.442 14.9081 11.6196C14.6307 11.7972 14.4086 12.0492 14.2674 12.3468C14.127 12.6458 13.8725 12.8758 13.5609 12.9854C13.2493 13.0951 12.9069 13.0751 12.6102 12.9301C12.3135 12.785 12.0873 12.527 11.9824 12.2137V12.2137Z" fill="#AA0064"/>
</svg>
