<svg width="509" height="356" viewBox="0 0 509 356" fill="none" xmlns="http://www.w3.org/2000/svg">
<g opacity="0.4">
<rect y="276" width="413" height="80" rx="8" fill="#FFB400"/>
<path d="M34.8789 307.664C34.8789 308.549 34.6543 309.337 34.2051 310.027C33.7559 310.711 33.1081 311.245 32.2617 311.629C31.4154 312.007 30.4225 312.195 29.2832 312.195C28.3327 312.195 27.5352 312.13 26.8906 312C26.2461 311.863 25.5755 311.629 24.8789 311.297V307.859C25.6146 308.237 26.3796 308.533 27.1738 308.748C27.9681 308.956 28.6973 309.061 29.3613 309.061C29.9342 309.061 30.3542 308.963 30.6211 308.768C30.888 308.566 31.0215 308.309 31.0215 307.996C31.0215 307.801 30.9661 307.632 30.8555 307.488C30.7513 307.339 30.5788 307.189 30.3379 307.039C30.1035 306.889 29.472 306.583 28.4434 306.121C27.5124 305.698 26.8125 305.288 26.3438 304.891C25.8815 304.493 25.5365 304.038 25.3086 303.523C25.0872 303.009 24.9766 302.4 24.9766 301.697C24.9766 300.382 25.4551 299.357 26.4121 298.621C27.3691 297.885 28.6842 297.518 30.3574 297.518C31.8353 297.518 33.3424 297.859 34.8789 298.543L33.6973 301.521C32.3626 300.91 31.2103 300.604 30.2402 300.604C29.7389 300.604 29.3743 300.691 29.1465 300.867C28.9186 301.043 28.8047 301.261 28.8047 301.521C28.8047 301.801 28.9479 302.052 29.2344 302.273C29.5273 302.495 30.3151 302.898 31.5977 303.484C32.8281 304.038 33.681 304.633 34.1562 305.271C34.638 305.903 34.8789 306.701 34.8789 307.664ZM44.7422 312L44.2637 310.623H44.0391C43.7201 311.131 43.2741 311.521 42.7012 311.795C42.1348 312.062 41.4674 312.195 40.6992 312.195C39.4818 312.195 38.5345 311.844 37.8574 311.141C37.1803 310.431 36.8418 309.432 36.8418 308.143V300.936H40.6602V306.98C40.6602 307.703 40.7611 308.25 40.9629 308.621C41.1712 308.992 41.5098 309.178 41.9785 309.178C42.6361 309.178 43.1048 308.921 43.3848 308.406C43.6647 307.885 43.8047 307.01 43.8047 305.779V300.936H47.623V312H44.7422ZM57.2422 312V305.965C57.2422 305.229 57.1348 304.676 56.9199 304.305C56.7116 303.927 56.373 303.738 55.9043 303.738C55.2598 303.738 54.7943 303.995 54.5078 304.51C54.2214 305.024 54.0781 305.906 54.0781 307.156V312H50.2598V300.936H53.1406L53.6191 302.303H53.8438C54.1693 301.782 54.6185 301.391 55.1914 301.131C55.7708 300.87 56.4349 300.74 57.1836 300.74C58.4076 300.74 59.3581 301.095 60.0352 301.805C60.7188 302.514 61.0605 303.514 61.0605 304.803V312H57.2422ZM67.0957 312.195C66.3079 312.195 65.6178 311.971 65.0254 311.521C64.4395 311.072 63.9837 310.411 63.6582 309.539C63.3392 308.667 63.1797 307.648 63.1797 306.482C63.1797 304.686 63.541 303.279 64.2637 302.264C64.9863 301.248 65.9792 300.74 67.2422 300.74C67.8607 300.74 68.401 300.864 68.8633 301.111C69.332 301.359 69.7585 301.775 70.1426 302.361H70.2207C70.097 301.495 70.0352 300.63 70.0352 299.764V296.805H73.8828V312H71.002L70.1816 310.604H70.0352C69.3776 311.665 68.3978 312.195 67.0957 312.195ZM68.6582 309.178C69.2702 309.178 69.6999 308.986 69.9473 308.602C70.2012 308.217 70.3379 307.625 70.3574 306.824V306.521C70.3574 305.545 70.2174 304.852 69.9375 304.441C69.6576 304.025 69.2181 303.816 68.6191 303.816C68.1178 303.816 67.7272 304.054 67.4473 304.529C67.1738 304.998 67.0371 305.669 67.0371 306.541C67.0371 307.4 67.1771 308.055 67.457 308.504C67.737 308.953 68.1374 309.178 68.6582 309.178ZM83.7461 312L83.0137 310.535H82.9355C82.4212 311.173 81.8971 311.609 81.3633 311.844C80.8294 312.078 80.1393 312.195 79.293 312.195C78.2513 312.195 77.431 311.883 76.832 311.258C76.2331 310.633 75.9336 309.754 75.9336 308.621C75.9336 307.443 76.3438 306.567 77.1641 305.994C77.9844 305.415 79.1725 305.089 80.7285 305.018L82.5742 304.959V304.803C82.5742 303.891 82.125 303.436 81.2266 303.436C80.4193 303.436 79.3939 303.709 78.1504 304.256L77.0469 301.736C78.3359 301.072 79.9635 300.74 81.9297 300.74C83.349 300.74 84.446 301.092 85.2207 301.795C86.002 302.498 86.3926 303.481 86.3926 304.744V312H83.7461ZM80.9141 309.5C81.3763 309.5 81.7702 309.354 82.0957 309.061C82.4277 308.768 82.5938 308.387 82.5938 307.918V307.059L81.7148 307.098C80.4583 307.143 79.8301 307.605 79.8301 308.484C79.8301 309.161 80.1914 309.5 80.9141 309.5ZM87.6523 300.936H91.6758L93.5508 307.283C93.6419 307.615 93.7038 308.016 93.7363 308.484H93.8145C93.8665 308.035 93.9447 307.641 94.0488 307.303L95.9727 300.936H99.8691L95.4941 312.703C94.9342 314.201 94.2441 315.258 93.4238 315.877C92.61 316.495 91.5456 316.805 90.2305 316.805C89.7227 316.805 89.2018 316.749 88.668 316.639V313.641C89.013 313.719 89.4069 313.758 89.8496 313.758C90.1882 313.758 90.4844 313.693 90.7383 313.562C90.9922 313.432 91.2135 313.247 91.4023 313.006C91.5911 312.771 91.793 312.384 92.0078 311.844L87.6523 300.936ZM112.35 303.641H118.512V311.336C116.839 311.909 114.999 312.195 112.994 312.195C110.794 312.195 109.091 311.557 107.887 310.281C106.689 309.005 106.09 307.186 106.09 304.822C106.09 302.518 106.747 300.724 108.062 299.441C109.378 298.159 111.22 297.518 113.59 297.518C114.488 297.518 115.335 297.602 116.129 297.771C116.93 297.941 117.626 298.156 118.219 298.416L116.998 301.443C115.969 300.936 114.84 300.682 113.609 300.682C112.483 300.682 111.611 301.049 110.992 301.785C110.38 302.514 110.074 303.559 110.074 304.92C110.074 306.255 110.351 307.273 110.904 307.977C111.464 308.673 112.268 309.021 113.316 309.021C113.889 309.021 114.417 308.966 114.898 308.855V306.619H112.35V303.641ZM127.877 300.74C128.209 300.74 128.525 300.766 128.824 300.818L129.039 300.857L128.697 304.461C128.385 304.383 127.952 304.344 127.398 304.344C126.565 304.344 125.96 304.536 125.582 304.92C125.204 305.298 125.016 305.844 125.016 306.561V312H121.197V300.936H124.039L124.635 302.703H124.82C125.139 302.117 125.582 301.645 126.148 301.287C126.721 300.923 127.298 300.74 127.877 300.74ZM137.809 312L137.076 310.535H136.998C136.484 311.173 135.96 311.609 135.426 311.844C134.892 312.078 134.202 312.195 133.355 312.195C132.314 312.195 131.493 311.883 130.895 311.258C130.296 310.633 129.996 309.754 129.996 308.621C129.996 307.443 130.406 306.567 131.227 305.994C132.047 305.415 133.235 305.089 134.791 305.018L136.637 304.959V304.803C136.637 303.891 136.188 303.436 135.289 303.436C134.482 303.436 133.456 303.709 132.213 304.256L131.109 301.736C132.398 301.072 134.026 300.74 135.992 300.74C137.411 300.74 138.508 301.092 139.283 301.795C140.064 302.498 140.455 303.481 140.455 304.744V312H137.809ZM134.977 309.5C135.439 309.5 135.833 309.354 136.158 309.061C136.49 308.768 136.656 308.387 136.656 307.918V307.059L135.777 307.098C134.521 307.143 133.893 307.605 133.893 308.484C133.893 309.161 134.254 309.5 134.977 309.5ZM150.035 312V305.965C150.035 305.229 149.928 304.676 149.713 304.305C149.505 303.927 149.166 303.738 148.697 303.738C148.053 303.738 147.587 303.995 147.301 304.51C147.014 305.024 146.871 305.906 146.871 307.156V312H143.053V300.936H145.934L146.412 302.303H146.637C146.962 301.782 147.411 301.391 147.984 301.131C148.564 300.87 149.228 300.74 149.977 300.74C151.201 300.74 152.151 301.095 152.828 301.805C153.512 302.514 153.854 303.514 153.854 304.803V312H150.035ZM159.889 312.195C159.101 312.195 158.411 311.971 157.818 311.521C157.232 311.072 156.777 310.411 156.451 309.539C156.132 308.667 155.973 307.648 155.973 306.482C155.973 304.686 156.334 303.279 157.057 302.264C157.779 301.248 158.772 300.74 160.035 300.74C160.654 300.74 161.194 300.864 161.656 301.111C162.125 301.359 162.551 301.775 162.936 302.361H163.014C162.89 301.495 162.828 300.63 162.828 299.764V296.805H166.676V312H163.795L162.975 310.604H162.828C162.171 311.665 161.191 312.195 159.889 312.195ZM161.451 309.178C162.063 309.178 162.493 308.986 162.74 308.602C162.994 308.217 163.131 307.625 163.15 306.824V306.521C163.15 305.545 163.01 304.852 162.73 304.441C162.451 304.025 162.011 303.816 161.412 303.816C160.911 303.816 160.52 304.054 160.24 304.529C159.967 304.998 159.83 305.669 159.83 306.541C159.83 307.4 159.97 308.055 160.25 308.504C160.53 308.953 160.93 309.178 161.451 309.178ZM188.102 304.842C188.102 308.077 187.073 310.258 185.016 311.385L188.502 315.398H183.697L181.178 312.225L181.168 312.215V312.205L181.158 312.195C178.919 312.195 177.2 311.567 176.002 310.311C174.811 309.054 174.215 307.225 174.215 304.822C174.215 302.446 174.807 300.633 175.992 299.383C177.184 298.126 178.912 297.498 181.178 297.498C183.45 297.498 185.172 298.12 186.344 299.363C187.516 300.607 188.102 302.433 188.102 304.842ZM178.277 304.842C178.277 307.602 179.238 308.982 181.158 308.982C182.135 308.982 182.857 308.647 183.326 307.977C183.801 307.306 184.039 306.261 184.039 304.842C184.039 303.416 183.798 302.365 183.316 301.688C182.841 301.004 182.128 300.662 181.178 300.662C179.244 300.662 178.277 302.055 178.277 304.842ZM198.336 312L197.857 310.623H197.633C197.314 311.131 196.868 311.521 196.295 311.795C195.729 312.062 195.061 312.195 194.293 312.195C193.076 312.195 192.128 311.844 191.451 311.141C190.774 310.431 190.436 309.432 190.436 308.143V300.936H194.254V306.98C194.254 307.703 194.355 308.25 194.557 308.621C194.765 308.992 195.104 309.178 195.572 309.178C196.23 309.178 196.699 308.921 196.979 308.406C197.258 307.885 197.398 307.01 197.398 305.779V300.936H201.217V312H198.336ZM207.691 312H203.873V300.936H207.691V312ZM203.775 298.182C203.775 297.609 203.935 297.182 204.254 296.902C204.573 296.622 205.087 296.482 205.797 296.482C206.507 296.482 207.024 296.626 207.35 296.912C207.675 297.199 207.838 297.622 207.838 298.182C207.838 299.301 207.158 299.861 205.797 299.861C204.449 299.861 203.775 299.301 203.775 298.182ZM218.678 312H209.518V309.822L214.098 303.855H209.781V300.936H218.463V303.299L214.078 309.08H218.678V312Z" fill="black"/>
<path d="M29.5029 328.626C28.7054 328.626 28.0879 328.927 27.6504 329.528C27.2129 330.125 26.9941 330.959 26.9941 332.03C26.9941 334.259 27.8304 335.373 29.5029 335.373C30.2048 335.373 31.0547 335.198 32.0527 334.847V336.624C31.2324 336.966 30.3164 337.137 29.3047 337.137C27.8509 337.137 26.7389 336.697 25.9688 335.817C25.1986 334.933 24.8135 333.666 24.8135 332.017C24.8135 330.978 25.0026 330.068 25.3809 329.289C25.7591 328.505 26.3014 327.906 27.0078 327.491C27.7188 327.072 28.5505 326.862 29.5029 326.862C30.4736 326.862 31.4489 327.097 32.4287 327.566L31.7451 329.289C31.3714 329.111 30.9954 328.956 30.6172 328.824C30.2389 328.692 29.8675 328.626 29.5029 328.626ZM35.6826 333.165C35.6826 333.922 35.8057 334.493 36.0518 334.881C36.3024 335.268 36.708 335.462 37.2686 335.462C37.8245 335.462 38.2233 335.271 38.4648 334.888C38.7109 334.5 38.834 333.926 38.834 333.165C38.834 332.409 38.7109 331.841 38.4648 331.463C38.2188 331.085 37.8154 330.896 37.2549 330.896C36.6989 330.896 36.2979 331.085 36.0518 331.463C35.8057 331.837 35.6826 332.404 35.6826 333.165ZM40.9668 333.165C40.9668 334.409 40.6387 335.382 39.9824 336.084C39.3262 336.786 38.4124 337.137 37.2412 337.137C36.5075 337.137 35.8604 336.977 35.2998 336.658C34.7393 336.335 34.3086 335.872 34.0078 335.271C33.707 334.669 33.5566 333.967 33.5566 333.165C33.5566 331.916 33.8825 330.946 34.5342 330.253C35.1859 329.56 36.1019 329.214 37.2822 329.214C38.016 329.214 38.6631 329.373 39.2236 329.692C39.7842 330.011 40.2148 330.469 40.5156 331.066C40.8164 331.663 40.9668 332.363 40.9668 333.165ZM49.5322 337H47.4473V332.536C47.4473 331.985 47.3538 331.572 47.167 331.299C46.9847 331.021 46.6953 330.882 46.2988 330.882C45.7656 330.882 45.3783 331.078 45.1367 331.47C44.8952 331.862 44.7744 332.507 44.7744 333.404V337H42.6895V329.357H44.2822L44.5625 330.335H44.6787C44.8838 329.984 45.18 329.711 45.5674 329.515C45.9548 329.314 46.3991 329.214 46.9004 329.214C48.0443 329.214 48.819 329.588 49.2246 330.335H49.4092C49.6143 329.979 49.915 329.704 50.3115 329.508C50.7126 329.312 51.1637 329.214 51.665 329.214C52.5309 329.214 53.1849 329.437 53.627 329.884C54.0736 330.326 54.2969 331.037 54.2969 332.017V337H52.2051V332.536C52.2051 331.985 52.1117 331.572 51.9248 331.299C51.7425 331.021 51.4531 330.882 51.0566 330.882C50.5462 330.882 50.1634 331.064 49.9082 331.429C49.6576 331.793 49.5322 332.372 49.5322 333.165V337ZM56.3545 327.382C56.3545 326.703 56.7327 326.363 57.4893 326.363C58.2458 326.363 58.624 326.703 58.624 327.382C58.624 327.705 58.5283 327.958 58.3369 328.141C58.1501 328.318 57.8675 328.407 57.4893 328.407C56.7327 328.407 56.3545 328.065 56.3545 327.382ZM58.5283 337H56.4434V329.357H58.5283V337ZM67.7773 337H65.6924V332.536C65.6924 331.985 65.5944 331.572 65.3984 331.299C65.2025 331.021 64.8903 330.882 64.4619 330.882C63.8786 330.882 63.457 331.078 63.1973 331.47C62.9375 331.857 62.8076 332.502 62.8076 333.404V337H60.7227V329.357H62.3154L62.5957 330.335H62.7119C62.9443 329.966 63.2633 329.688 63.6689 329.501C64.0791 329.31 64.5439 329.214 65.0635 329.214C65.9521 329.214 66.6266 329.455 67.0869 329.938C67.5472 330.417 67.7773 331.11 67.7773 332.017V337ZM76.5752 329.357V330.417L75.3789 330.725C75.5977 331.066 75.707 331.449 75.707 331.873C75.707 332.693 75.4199 333.334 74.8457 333.794C74.276 334.25 73.4831 334.478 72.4668 334.478L72.0908 334.457L71.7832 334.423C71.569 334.587 71.4619 334.769 71.4619 334.97C71.4619 335.271 71.8447 335.421 72.6104 335.421H73.9092C74.7477 335.421 75.3857 335.601 75.8232 335.961C76.2653 336.321 76.4863 336.85 76.4863 337.547C76.4863 338.44 76.1126 339.133 75.3652 339.625C74.6224 340.117 73.5537 340.363 72.1592 340.363C71.0928 340.363 70.277 340.176 69.7119 339.803C69.1514 339.434 68.8711 338.914 68.8711 338.244C68.8711 337.784 69.0146 337.399 69.3018 337.089C69.5889 336.779 70.0104 336.558 70.5664 336.426C70.3522 336.335 70.1654 336.187 70.0059 335.981C69.8464 335.772 69.7666 335.551 69.7666 335.318C69.7666 335.027 69.8509 334.785 70.0195 334.594C70.1882 334.398 70.432 334.206 70.751 334.02C70.3499 333.846 70.0309 333.568 69.7939 333.186C69.5615 332.803 69.4453 332.352 69.4453 331.832C69.4453 330.998 69.7165 330.353 70.2588 329.897C70.8011 329.442 71.5758 329.214 72.583 329.214C72.7972 329.214 73.0501 329.234 73.3418 329.275C73.638 329.312 73.8271 329.339 73.9092 329.357H76.5752ZM70.6758 338.08C70.6758 338.367 70.8125 338.593 71.0859 338.757C71.3639 338.921 71.7513 339.003 72.248 339.003C72.9954 339.003 73.5811 338.9 74.0049 338.695C74.4287 338.49 74.6406 338.21 74.6406 337.854C74.6406 337.567 74.5153 337.369 74.2646 337.26C74.014 337.15 73.6266 337.096 73.1025 337.096H72.0225C71.6396 337.096 71.3184 337.185 71.0586 337.362C70.8034 337.545 70.6758 337.784 70.6758 338.08ZM71.4346 331.859C71.4346 332.274 71.528 332.602 71.7148 332.844C71.9062 333.085 72.1956 333.206 72.583 333.206C72.9749 333.206 73.262 333.085 73.4443 332.844C73.6266 332.602 73.7178 332.274 73.7178 331.859C73.7178 330.939 73.3395 330.479 72.583 330.479C71.8174 330.479 71.4346 330.939 71.4346 331.859ZM87.54 334.225C87.54 335.127 87.2142 335.838 86.5625 336.357C85.9154 336.877 85.013 337.137 83.8555 337.137C82.7891 337.137 81.8457 336.936 81.0254 336.535V334.566C81.6999 334.867 82.2695 335.079 82.7344 335.202C83.2038 335.325 83.6322 335.387 84.0195 335.387C84.4844 335.387 84.8398 335.298 85.0859 335.12C85.3366 334.942 85.4619 334.678 85.4619 334.327C85.4619 334.131 85.4072 333.958 85.2979 333.808C85.1885 333.653 85.0267 333.505 84.8125 333.363C84.6029 333.222 84.1722 332.996 83.5205 332.687C82.9098 332.399 82.4518 332.124 82.1465 331.859C81.8411 331.595 81.5973 331.287 81.415 330.937C81.2327 330.586 81.1416 330.175 81.1416 329.706C81.1416 328.822 81.4401 328.127 82.0371 327.621C82.6387 327.115 83.4681 326.862 84.5254 326.862C85.0449 326.862 85.5394 326.924 86.0088 327.047C86.4827 327.17 86.9772 327.343 87.4922 327.566L86.8086 329.214C86.2754 328.995 85.8333 328.842 85.4824 328.756C85.1361 328.669 84.7943 328.626 84.457 328.626C84.056 328.626 83.7484 328.719 83.5342 328.906C83.32 329.093 83.2129 329.337 83.2129 329.638C83.2129 329.825 83.2562 329.989 83.3428 330.13C83.4294 330.267 83.5661 330.401 83.7529 330.533C83.9443 330.661 84.3932 330.893 85.0996 331.23C86.0339 331.677 86.6742 332.126 87.0205 332.577C87.3669 333.024 87.54 333.573 87.54 334.225ZM90.8486 333.165C90.8486 333.922 90.9717 334.493 91.2178 334.881C91.4684 335.268 91.874 335.462 92.4346 335.462C92.9906 335.462 93.3893 335.271 93.6309 334.888C93.877 334.5 94 333.926 94 333.165C94 332.409 93.877 331.841 93.6309 331.463C93.3848 331.085 92.9814 330.896 92.4209 330.896C91.8649 330.896 91.4639 331.085 91.2178 331.463C90.9717 331.837 90.8486 332.404 90.8486 333.165ZM96.1328 333.165C96.1328 334.409 95.8047 335.382 95.1484 336.084C94.4922 336.786 93.5785 337.137 92.4072 337.137C91.6735 337.137 91.0264 336.977 90.4658 336.658C89.9053 336.335 89.4746 335.872 89.1738 335.271C88.873 334.669 88.7227 333.967 88.7227 333.165C88.7227 331.916 89.0485 330.946 89.7002 330.253C90.3519 329.56 91.2679 329.214 92.4482 329.214C93.182 329.214 93.8291 329.373 94.3896 329.692C94.9502 330.011 95.3809 330.469 95.6816 331.066C95.9824 331.663 96.1328 332.363 96.1328 333.165ZM99.5166 333.165C99.5166 333.922 99.6396 334.493 99.8857 334.881C100.136 335.268 100.542 335.462 101.103 335.462C101.659 335.462 102.057 335.271 102.299 334.888C102.545 334.5 102.668 333.926 102.668 333.165C102.668 332.409 102.545 331.841 102.299 331.463C102.053 331.085 101.649 330.896 101.089 330.896C100.533 330.896 100.132 331.085 99.8857 331.463C99.6396 331.837 99.5166 332.404 99.5166 333.165ZM104.801 333.165C104.801 334.409 104.473 335.382 103.816 336.084C103.16 336.786 102.246 337.137 101.075 337.137C100.341 337.137 99.6943 336.977 99.1338 336.658C98.5732 336.335 98.1426 335.872 97.8418 335.271C97.541 334.669 97.3906 333.967 97.3906 333.165C97.3906 331.916 97.7165 330.946 98.3682 330.253C99.0199 329.56 99.9359 329.214 101.116 329.214C101.85 329.214 102.497 329.373 103.058 329.692C103.618 330.011 104.049 330.469 104.35 331.066C104.65 331.663 104.801 332.363 104.801 333.165ZM113.578 337H111.493V332.536C111.493 331.985 111.395 331.572 111.199 331.299C111.003 331.021 110.691 330.882 110.263 330.882C109.679 330.882 109.258 331.078 108.998 331.47C108.738 331.857 108.608 332.502 108.608 333.404V337H106.523V329.357H108.116L108.396 330.335H108.513C108.745 329.966 109.064 329.688 109.47 329.501C109.88 329.31 110.345 329.214 110.864 329.214C111.753 329.214 112.427 329.455 112.888 329.938C113.348 330.417 113.578 331.11 113.578 332.017V337ZM115.431 336.022C115.431 335.64 115.533 335.35 115.738 335.154C115.943 334.958 116.242 334.86 116.634 334.86C117.012 334.86 117.304 334.961 117.509 335.161C117.718 335.362 117.823 335.649 117.823 336.022C117.823 336.382 117.718 336.667 117.509 336.877C117.299 337.082 117.007 337.185 116.634 337.185C116.251 337.185 115.955 337.084 115.745 336.884C115.535 336.679 115.431 336.392 115.431 336.022ZM119.423 336.022C119.423 335.64 119.525 335.35 119.73 335.154C119.936 334.958 120.234 334.86 120.626 334.86C121.004 334.86 121.296 334.961 121.501 335.161C121.711 335.362 121.815 335.649 121.815 336.022C121.815 336.382 121.711 336.667 121.501 336.877C121.291 337.082 121 337.185 120.626 337.185C120.243 337.185 119.947 337.084 119.737 336.884C119.528 336.679 119.423 336.392 119.423 336.022ZM123.415 336.022C123.415 335.64 123.518 335.35 123.723 335.154C123.928 334.958 124.226 334.86 124.618 334.86C124.996 334.86 125.288 334.961 125.493 335.161C125.703 335.362 125.808 335.649 125.808 336.022C125.808 336.382 125.703 336.667 125.493 336.877C125.284 337.082 124.992 337.185 124.618 337.185C124.235 337.185 123.939 337.084 123.729 336.884C123.52 336.679 123.415 336.392 123.415 336.022Z" fill="black"/>
</g>
<rect x="64" y="92" width="413" height="80" rx="8" fill="#5A2DBC"/>
<path d="M101.662 120.559C101.662 122.941 101.005 124.777 99.6895 126.066C98.3809 127.355 96.5384 128 94.1621 128H89.543V113.723H94.4844C96.776 113.723 98.5436 114.309 99.7871 115.48C101.037 116.652 101.662 118.345 101.662 120.559ZM97.6582 120.695C97.6582 119.387 97.3978 118.417 96.877 117.785C96.3626 117.154 95.5781 116.838 94.5234 116.838H93.4004V124.836H94.2598C95.4316 124.836 96.291 124.497 96.8379 123.82C97.3848 123.137 97.6582 122.095 97.6582 120.695ZM111.223 128L110.49 126.535H110.412C109.898 127.173 109.374 127.609 108.84 127.844C108.306 128.078 107.616 128.195 106.77 128.195C105.728 128.195 104.908 127.883 104.309 127.258C103.71 126.633 103.41 125.754 103.41 124.621C103.41 123.443 103.82 122.567 104.641 121.994C105.461 121.415 106.649 121.089 108.205 121.018L110.051 120.959V120.803C110.051 119.891 109.602 119.436 108.703 119.436C107.896 119.436 106.87 119.709 105.627 120.256L104.523 117.736C105.812 117.072 107.44 116.74 109.406 116.74C110.826 116.74 111.923 117.092 112.697 117.795C113.479 118.498 113.869 119.481 113.869 120.744V128H111.223ZM108.391 125.5C108.853 125.5 109.247 125.354 109.572 125.061C109.904 124.768 110.07 124.387 110.07 123.918V123.059L109.191 123.098C107.935 123.143 107.307 123.605 107.307 124.484C107.307 125.161 107.668 125.5 108.391 125.5ZM120.305 128H116.486V116.936H120.305V128ZM116.389 114.182C116.389 113.609 116.548 113.182 116.867 112.902C117.186 112.622 117.701 112.482 118.41 112.482C119.12 112.482 119.637 112.626 119.963 112.912C120.288 113.199 120.451 113.622 120.451 114.182C120.451 115.301 119.771 115.861 118.41 115.861C117.062 115.861 116.389 115.301 116.389 114.182ZM126.789 128H122.971V112.805H126.789V128ZM128.098 116.936H132.121L133.996 123.283C134.087 123.615 134.149 124.016 134.182 124.484H134.26C134.312 124.035 134.39 123.641 134.494 123.303L136.418 116.936H140.314L135.939 128.703C135.38 130.201 134.689 131.258 133.869 131.877C133.055 132.495 131.991 132.805 130.676 132.805C130.168 132.805 129.647 132.749 129.113 132.639V129.641C129.458 129.719 129.852 129.758 130.295 129.758C130.633 129.758 130.93 129.693 131.184 129.562C131.438 129.432 131.659 129.247 131.848 129.006C132.036 128.771 132.238 128.384 132.453 127.844L128.098 116.936ZM155.539 128H147.062V113.723H155.539V116.818H150.92V119.064H155.197V122.16H150.92V124.855H155.539V128ZM160.715 128L156.496 116.936H160.48L162.355 123.479C162.362 123.511 162.375 123.566 162.395 123.645C162.414 123.723 162.434 123.817 162.453 123.928C162.473 124.032 162.489 124.146 162.502 124.27C162.521 124.387 162.531 124.497 162.531 124.602H162.6C162.6 124.263 162.658 123.895 162.775 123.498L164.738 116.936H168.713L164.494 128H160.715ZM175.383 128.195C173.54 128.195 172.108 127.707 171.086 126.73C170.07 125.747 169.562 124.351 169.562 122.541C169.562 120.673 170.035 119.24 170.979 118.244C171.923 117.242 173.27 116.74 175.021 116.74C176.688 116.74 177.974 117.176 178.879 118.049C179.79 118.915 180.246 120.165 180.246 121.799V123.498H173.42C173.446 124.117 173.671 124.602 174.094 124.953C174.523 125.305 175.106 125.48 175.842 125.48C176.512 125.48 177.128 125.419 177.688 125.295C178.254 125.165 178.866 124.947 179.523 124.641V127.385C178.924 127.691 178.306 127.902 177.668 128.02C177.03 128.137 176.268 128.195 175.383 128.195ZM175.158 119.338C174.709 119.338 174.331 119.481 174.025 119.768C173.726 120.048 173.55 120.49 173.498 121.096H176.779C176.766 120.562 176.613 120.135 176.32 119.816C176.034 119.497 175.646 119.338 175.158 119.338ZM189.387 128V121.965C189.387 121.229 189.279 120.676 189.064 120.305C188.856 119.927 188.518 119.738 188.049 119.738C187.404 119.738 186.939 119.995 186.652 120.51C186.366 121.024 186.223 121.906 186.223 123.156V128H182.404V116.936H185.285L185.764 118.303H185.988C186.314 117.782 186.763 117.391 187.336 117.131C187.915 116.87 188.579 116.74 189.328 116.74C190.552 116.74 191.503 117.095 192.18 117.805C192.863 118.514 193.205 119.514 193.205 120.803V128H189.387ZM199.641 128H195.822V116.936H199.641V128ZM195.725 114.182C195.725 113.609 195.884 113.182 196.203 112.902C196.522 112.622 197.036 112.482 197.746 112.482C198.456 112.482 198.973 112.626 199.299 112.912C199.624 113.199 199.787 113.622 199.787 114.182C199.787 115.301 199.107 115.861 197.746 115.861C196.398 115.861 195.725 115.301 195.725 114.182ZM209.289 128V121.965C209.289 121.229 209.182 120.676 208.967 120.305C208.758 119.927 208.42 119.738 207.951 119.738C207.307 119.738 206.841 119.995 206.555 120.51C206.268 121.024 206.125 121.906 206.125 123.156V128H202.307V116.936H205.188L205.666 118.303H205.891C206.216 117.782 206.665 117.391 207.238 117.131C207.818 116.87 208.482 116.74 209.23 116.74C210.454 116.74 211.405 117.095 212.082 117.805C212.766 118.514 213.107 119.514 213.107 120.803V128H209.289ZM226.145 116.936V118.781L224.631 119.338C224.839 119.715 224.943 120.155 224.943 120.656C224.943 121.848 224.523 122.772 223.684 123.43C222.85 124.087 221.604 124.416 219.943 124.416C219.533 124.416 219.208 124.39 218.967 124.338C218.876 124.507 218.83 124.667 218.83 124.816C218.83 125.005 218.983 125.152 219.289 125.256C219.595 125.354 219.995 125.402 220.49 125.402H222.326C224.807 125.402 226.047 126.447 226.047 128.537C226.047 129.885 225.471 130.933 224.318 131.682C223.173 132.43 221.561 132.805 219.484 132.805C217.915 132.805 216.704 132.541 215.852 132.014C215.005 131.493 214.582 130.741 214.582 129.758C214.582 128.436 215.402 127.583 217.043 127.199C216.704 127.056 216.408 126.825 216.154 126.506C215.907 126.187 215.783 125.871 215.783 125.559C215.783 125.214 215.878 124.911 216.066 124.65C216.255 124.383 216.649 124.068 217.248 123.703C216.675 123.449 216.223 123.052 215.891 122.512C215.565 121.971 215.402 121.314 215.402 120.539C215.402 119.335 215.812 118.4 216.633 117.736C217.453 117.072 218.625 116.74 220.148 116.74C220.35 116.74 220.699 116.763 221.193 116.809C221.688 116.854 222.053 116.896 222.287 116.936H226.145ZM217.805 129.377C217.805 129.689 217.974 129.94 218.312 130.129C218.651 130.324 219.104 130.422 219.67 130.422C220.594 130.422 221.333 130.305 221.887 130.07C222.447 129.842 222.727 129.546 222.727 129.182C222.727 128.889 222.557 128.68 222.219 128.557C221.88 128.439 221.395 128.381 220.764 128.381H219.27C218.859 128.381 218.511 128.475 218.225 128.664C217.945 128.859 217.805 129.097 217.805 129.377ZM219.006 120.559C219.006 121.691 219.4 122.258 220.188 122.258C220.552 122.258 220.832 122.118 221.027 121.838C221.229 121.558 221.33 121.138 221.33 120.578C221.33 119.432 220.949 118.859 220.188 118.859C219.4 118.859 219.006 119.426 219.006 120.559ZM246.613 120.842C246.613 124.077 245.585 126.258 243.527 127.385L247.014 131.398H242.209L239.689 128.225L239.68 128.215V128.205L239.67 128.195C237.43 128.195 235.712 127.567 234.514 126.311C233.322 125.054 232.727 123.225 232.727 120.822C232.727 118.446 233.319 116.633 234.504 115.383C235.695 114.126 237.424 113.498 239.689 113.498C241.962 113.498 243.684 114.12 244.855 115.363C246.027 116.607 246.613 118.433 246.613 120.842ZM236.789 120.842C236.789 123.602 237.749 124.982 239.67 124.982C240.646 124.982 241.369 124.647 241.838 123.977C242.313 123.306 242.551 122.261 242.551 120.842C242.551 119.416 242.31 118.365 241.828 117.688C241.353 117.004 240.64 116.662 239.689 116.662C237.756 116.662 236.789 118.055 236.789 120.842ZM256.848 128L256.369 126.623H256.145C255.826 127.131 255.38 127.521 254.807 127.795C254.24 128.062 253.573 128.195 252.805 128.195C251.587 128.195 250.64 127.844 249.963 127.141C249.286 126.431 248.947 125.432 248.947 124.143V116.936H252.766V122.98C252.766 123.703 252.867 124.25 253.068 124.621C253.277 124.992 253.615 125.178 254.084 125.178C254.742 125.178 255.21 124.921 255.49 124.406C255.77 123.885 255.91 123.01 255.91 121.779V116.936H259.729V128H256.848ZM266.203 128H262.385V116.936H266.203V128ZM262.287 114.182C262.287 113.609 262.447 113.182 262.766 112.902C263.085 112.622 263.599 112.482 264.309 112.482C265.018 112.482 265.536 112.626 265.861 112.912C266.187 113.199 266.35 113.622 266.35 114.182C266.35 115.301 265.669 115.861 264.309 115.861C262.961 115.861 262.287 115.301 262.287 114.182ZM277.189 128H268.029V125.822L272.609 119.855H268.293V116.936H276.975V119.299L272.59 125.08H277.189V128ZM283.684 122.521C283.684 120.796 283.934 119.182 284.436 117.678C284.943 116.174 285.673 114.855 286.623 113.723H288.205C287.268 114.979 286.561 116.359 286.086 117.863C285.617 119.367 285.383 120.913 285.383 122.502C285.383 124.064 285.624 125.591 286.105 127.082C286.587 128.573 287.281 129.934 288.186 131.164H286.623C285.666 130.057 284.937 128.765 284.436 127.287C283.934 125.809 283.684 124.221 283.684 122.521ZM290.764 128V113.723H292.424V126.496H298.723V128H290.764ZM305.432 128.195C303.85 128.195 302.6 127.714 301.682 126.75C300.77 125.786 300.314 124.449 300.314 122.736C300.314 121.011 300.738 119.641 301.584 118.625C302.437 117.609 303.579 117.102 305.012 117.102C306.353 117.102 307.414 117.544 308.195 118.43C308.977 119.309 309.367 120.471 309.367 121.916V122.941H301.994C302.027 124.198 302.342 125.152 302.941 125.803C303.547 126.454 304.396 126.779 305.49 126.779C306.643 126.779 307.782 126.538 308.908 126.057V127.502C308.335 127.749 307.792 127.925 307.277 128.029C306.77 128.14 306.154 128.195 305.432 128.195ZM304.992 118.459C304.133 118.459 303.446 118.739 302.932 119.299C302.424 119.859 302.124 120.633 302.033 121.623H307.629C307.629 120.601 307.401 119.82 306.945 119.279C306.49 118.732 305.839 118.459 304.992 118.459ZM314.484 128L310.422 117.297H312.16L314.465 123.645C314.986 125.129 315.292 126.092 315.383 126.535H315.461C315.533 126.19 315.757 125.477 316.135 124.396C316.519 123.309 317.375 120.943 318.703 117.297H320.441L316.379 128H314.484ZM326.682 128.195C325.1 128.195 323.85 127.714 322.932 126.75C322.02 125.786 321.564 124.449 321.564 122.736C321.564 121.011 321.988 119.641 322.834 118.625C323.687 117.609 324.829 117.102 326.262 117.102C327.603 117.102 328.664 117.544 329.445 118.43C330.227 119.309 330.617 120.471 330.617 121.916V122.941H323.244C323.277 124.198 323.592 125.152 324.191 125.803C324.797 126.454 325.646 126.779 326.74 126.779C327.893 126.779 329.032 126.538 330.158 126.057V127.502C329.585 127.749 329.042 127.925 328.527 128.029C328.02 128.14 327.404 128.195 326.682 128.195ZM326.242 118.459C325.383 118.459 324.696 118.739 324.182 119.299C323.674 119.859 323.374 120.633 323.283 121.623H328.879C328.879 120.601 328.651 119.82 328.195 119.279C327.74 118.732 327.089 118.459 326.242 118.459ZM335.012 128H333.391V112.805H335.012V128ZM348.908 128H347.326V117.824C347.326 116.978 347.352 116.177 347.404 115.422C347.268 115.559 347.115 115.702 346.945 115.852C346.776 116.001 346.001 116.636 344.621 117.756L343.762 116.643L347.541 113.723H348.908V128ZM363.742 126.857C364.029 126.857 364.305 126.838 364.572 126.799C364.839 126.753 365.051 126.708 365.207 126.662V127.902C365.031 127.987 364.771 128.055 364.426 128.107C364.087 128.166 363.781 128.195 363.508 128.195C361.438 128.195 360.402 127.105 360.402 124.924V118.557H358.869V117.775L360.402 117.102L361.086 114.816H362.023V117.297H365.129V118.557H362.023V124.855C362.023 125.5 362.176 125.995 362.482 126.34C362.788 126.685 363.208 126.857 363.742 126.857ZM376.594 122.639C376.594 124.383 376.154 125.747 375.275 126.73C374.396 127.707 373.182 128.195 371.633 128.195C370.676 128.195 369.826 127.971 369.084 127.521C368.342 127.072 367.769 126.428 367.365 125.588C366.962 124.748 366.76 123.765 366.76 122.639C366.76 120.894 367.196 119.536 368.068 118.566C368.941 117.59 370.152 117.102 371.701 117.102C373.199 117.102 374.387 117.6 375.266 118.596C376.151 119.592 376.594 120.939 376.594 122.639ZM368.439 122.639C368.439 124.006 368.713 125.048 369.26 125.764C369.807 126.48 370.611 126.838 371.672 126.838C372.733 126.838 373.537 126.483 374.084 125.773C374.637 125.057 374.914 124.012 374.914 122.639C374.914 121.278 374.637 120.246 374.084 119.543C373.537 118.833 372.727 118.479 371.652 118.479C370.591 118.479 369.79 118.827 369.25 119.523C368.71 120.22 368.439 121.258 368.439 122.639ZM384.064 121.896C384.064 119.09 384.608 116.994 385.695 115.607C386.789 114.214 388.404 113.518 390.539 113.518C391.275 113.518 391.854 113.579 392.277 113.703V115.1C391.776 114.937 391.203 114.855 390.559 114.855C389.029 114.855 387.86 115.334 387.053 116.291C386.245 117.242 385.803 118.739 385.725 120.783H385.842C386.558 119.663 387.691 119.104 389.24 119.104C390.523 119.104 391.532 119.491 392.268 120.266C393.01 121.04 393.381 122.092 393.381 123.42C393.381 124.904 392.974 126.073 392.16 126.926C391.353 127.772 390.259 128.195 388.879 128.195C387.401 128.195 386.229 127.642 385.363 126.535C384.497 125.422 384.064 123.876 384.064 121.896ZM388.859 126.818C389.784 126.818 390.5 126.529 391.008 125.949C391.522 125.363 391.779 124.52 391.779 123.42C391.779 122.476 391.542 121.734 391.066 121.193C390.591 120.653 389.882 120.383 388.938 120.383C388.352 120.383 387.814 120.503 387.326 120.744C386.838 120.985 386.447 121.317 386.154 121.74C385.868 122.163 385.725 122.603 385.725 123.059C385.725 123.729 385.855 124.354 386.115 124.934C386.376 125.513 386.743 125.972 387.219 126.311C387.701 126.649 388.247 126.818 388.859 126.818ZM399.484 122.521C399.484 124.234 399.23 125.829 398.723 127.307C398.221 128.785 397.495 130.07 396.545 131.164H394.982C395.887 129.94 396.581 128.583 397.062 127.092C397.544 125.594 397.785 124.064 397.785 122.502C397.785 120.913 397.548 119.367 397.072 117.863C396.604 116.359 395.9 114.979 394.963 113.723H396.545C397.502 114.862 398.231 116.187 398.732 117.697C399.234 119.201 399.484 120.809 399.484 122.521Z" fill="white"/>
<path d="M93.1885 153L96.9414 144.797H92.0127V143.02H99.1836V144.346L95.4033 153H93.1885ZM100.435 152.022C100.435 151.64 100.537 151.35 100.742 151.154C100.947 150.958 101.246 150.86 101.638 150.86C102.016 150.86 102.308 150.961 102.513 151.161C102.722 151.362 102.827 151.649 102.827 152.022C102.827 152.382 102.722 152.667 102.513 152.877C102.303 153.082 102.011 153.185 101.638 153.185C101.255 153.185 100.959 153.084 100.749 152.884C100.539 152.679 100.435 152.392 100.435 152.022ZM100.435 146.376C100.435 145.993 100.537 145.704 100.742 145.508C100.947 145.312 101.246 145.214 101.638 145.214C102.016 145.214 102.308 145.314 102.513 145.515C102.722 145.715 102.827 146.002 102.827 146.376C102.827 146.745 102.72 147.032 102.506 147.237C102.296 147.438 102.007 147.538 101.638 147.538C101.255 147.538 100.959 147.438 100.749 147.237C100.539 147.037 100.435 146.75 100.435 146.376ZM111.399 150.929H110.196V153H108.132V150.929H103.866V149.459L108.248 143.006H110.196V149.288H111.399V150.929ZM108.132 149.288V147.593C108.132 147.31 108.143 146.9 108.166 146.362C108.189 145.825 108.207 145.512 108.221 145.426H108.166C107.997 145.799 107.795 146.164 107.558 146.52L105.726 149.288H108.132ZM115.822 146.615C116.788 146.615 117.556 146.886 118.126 147.429C118.7 147.971 118.987 148.714 118.987 149.657C118.987 150.774 118.643 151.633 117.955 152.234C117.267 152.836 116.283 153.137 115.002 153.137C113.89 153.137 112.992 152.957 112.309 152.597V150.771C112.669 150.963 113.088 151.12 113.566 151.243C114.045 151.362 114.498 151.421 114.927 151.421C116.216 151.421 116.861 150.892 116.861 149.835C116.861 148.828 116.194 148.324 114.858 148.324C114.617 148.324 114.35 148.349 114.059 148.399C113.767 148.445 113.53 148.495 113.348 148.55L112.507 148.099L112.883 143.006H118.304V144.797H114.735L114.551 146.759L114.79 146.711C115.068 146.647 115.412 146.615 115.822 146.615ZM126.637 147.709H127.334C127.986 147.709 128.473 147.581 128.797 147.326C129.12 147.066 129.282 146.69 129.282 146.198C129.282 145.701 129.146 145.335 128.872 145.098C128.603 144.861 128.179 144.742 127.601 144.742H126.637V147.709ZM131.422 146.123C131.422 147.199 131.085 148.021 130.41 148.591C129.74 149.16 128.785 149.445 127.546 149.445H126.637V153H124.518V143.006H127.71C128.922 143.006 129.843 143.268 130.472 143.792C131.105 144.312 131.422 145.089 131.422 146.123ZM137.54 153L135.134 145.159H135.072C135.159 146.754 135.202 147.818 135.202 148.352V153H133.309V143.006H136.193L138.559 150.648H138.6L141.108 143.006H143.993V153H142.018V148.27C142.018 148.046 142.02 147.789 142.024 147.497C142.034 147.205 142.065 146.431 142.12 145.173H142.059L139.481 153H137.54Z" fill="white"/>
<rect x="32" y="184" width="413" height="80" rx="8" fill="#AA0064"/>
<path d="M69.6621 212.559C69.6621 214.941 69.0046 216.777 67.6895 218.066C66.3809 219.355 64.5384 220 62.1621 220H57.543V205.723H62.4844C64.776 205.723 66.5436 206.309 67.7871 207.48C69.0371 208.652 69.6621 210.345 69.6621 212.559ZM65.6582 212.695C65.6582 211.387 65.3978 210.417 64.877 209.785C64.3626 209.154 63.5781 208.838 62.5234 208.838H61.4004V216.836H62.2598C63.4316 216.836 64.291 216.497 64.8379 215.82C65.3848 215.137 65.6582 214.095 65.6582 212.695ZM79.2227 220L78.4902 218.535H78.4121C77.8978 219.173 77.3737 219.609 76.8398 219.844C76.306 220.078 75.6159 220.195 74.7695 220.195C73.7279 220.195 72.9076 219.883 72.3086 219.258C71.7096 218.633 71.4102 217.754 71.4102 216.621C71.4102 215.443 71.8203 214.567 72.6406 213.994C73.4609 213.415 74.6491 213.089 76.2051 213.018L78.0508 212.959V212.803C78.0508 211.891 77.6016 211.436 76.7031 211.436C75.8958 211.436 74.8704 211.709 73.627 212.256L72.5234 209.736C73.8125 209.072 75.4401 208.74 77.4062 208.74C78.8255 208.74 79.9225 209.092 80.6973 209.795C81.4785 210.498 81.8691 211.481 81.8691 212.744V220H79.2227ZM76.3906 217.5C76.8529 217.5 77.2467 217.354 77.5723 217.061C77.9043 216.768 78.0703 216.387 78.0703 215.918V215.059L77.1914 215.098C75.9349 215.143 75.3066 215.605 75.3066 216.484C75.3066 217.161 75.668 217.5 76.3906 217.5ZM88.3047 220H84.4863V208.936H88.3047V220ZM84.3887 206.182C84.3887 205.609 84.5482 205.182 84.8672 204.902C85.1862 204.622 85.7005 204.482 86.4102 204.482C87.1198 204.482 87.6374 204.626 87.9629 204.912C88.2884 205.199 88.4512 205.622 88.4512 206.182C88.4512 207.301 87.7708 207.861 86.4102 207.861C85.0625 207.861 84.3887 207.301 84.3887 206.182ZM94.7891 220H90.9707V204.805H94.7891V220ZM96.0977 208.936H100.121L101.996 215.283C102.087 215.615 102.149 216.016 102.182 216.484H102.26C102.312 216.035 102.39 215.641 102.494 215.303L104.418 208.936H108.314L103.939 220.703C103.38 222.201 102.689 223.258 101.869 223.877C101.055 224.495 99.9909 224.805 98.6758 224.805C98.168 224.805 97.6471 224.749 97.1133 224.639V221.641C97.4583 221.719 97.8522 221.758 98.2949 221.758C98.6335 221.758 98.9297 221.693 99.1836 221.562C99.4375 221.432 99.6589 221.247 99.8477 221.006C100.036 220.771 100.238 220.384 100.453 219.844L96.0977 208.936ZM128.656 220H123.598L118.383 209.941H118.295C118.419 211.523 118.48 212.731 118.48 213.564V220H115.062V205.723H120.102L125.297 215.645H125.355C125.264 214.206 125.219 213.05 125.219 212.178V205.723H128.656V220ZM135.355 220H131.537V208.936H135.355V220ZM131.439 206.182C131.439 205.609 131.599 205.182 131.918 204.902C132.237 204.622 132.751 204.482 133.461 204.482C134.171 204.482 134.688 204.626 135.014 204.912C135.339 205.199 135.502 205.622 135.502 206.182C135.502 207.301 134.822 207.861 133.461 207.861C132.113 207.861 131.439 207.301 131.439 206.182ZM148.461 208.936V210.781L146.947 211.338C147.156 211.715 147.26 212.155 147.26 212.656C147.26 213.848 146.84 214.772 146 215.43C145.167 216.087 143.92 216.416 142.26 216.416C141.85 216.416 141.524 216.39 141.283 216.338C141.192 216.507 141.146 216.667 141.146 216.816C141.146 217.005 141.299 217.152 141.605 217.256C141.911 217.354 142.312 217.402 142.807 217.402H144.643C147.123 217.402 148.363 218.447 148.363 220.537C148.363 221.885 147.787 222.933 146.635 223.682C145.489 224.43 143.878 224.805 141.801 224.805C140.232 224.805 139.021 224.541 138.168 224.014C137.322 223.493 136.898 222.741 136.898 221.758C136.898 220.436 137.719 219.583 139.359 219.199C139.021 219.056 138.725 218.825 138.471 218.506C138.223 218.187 138.1 217.871 138.1 217.559C138.1 217.214 138.194 216.911 138.383 216.65C138.572 216.383 138.965 216.068 139.564 215.703C138.992 215.449 138.539 215.052 138.207 214.512C137.882 213.971 137.719 213.314 137.719 212.539C137.719 211.335 138.129 210.4 138.949 209.736C139.77 209.072 140.941 208.74 142.465 208.74C142.667 208.74 143.015 208.763 143.51 208.809C144.005 208.854 144.369 208.896 144.604 208.936H148.461ZM140.121 221.377C140.121 221.689 140.29 221.94 140.629 222.129C140.967 222.324 141.42 222.422 141.986 222.422C142.911 222.422 143.65 222.305 144.203 222.07C144.763 221.842 145.043 221.546 145.043 221.182C145.043 220.889 144.874 220.68 144.535 220.557C144.197 220.439 143.712 220.381 143.08 220.381H141.586C141.176 220.381 140.827 220.475 140.541 220.664C140.261 220.859 140.121 221.097 140.121 221.377ZM141.322 212.559C141.322 213.691 141.716 214.258 142.504 214.258C142.868 214.258 143.148 214.118 143.344 213.838C143.546 213.558 143.646 213.138 143.646 212.578C143.646 211.432 143.266 210.859 142.504 210.859C141.716 210.859 141.322 211.426 141.322 212.559ZM157.113 220V213.965C157.113 212.48 156.674 211.738 155.795 211.738C155.17 211.738 154.708 212.002 154.408 212.529C154.115 213.05 153.969 213.919 153.969 215.137V220H150.15V204.805H153.969V206.963C153.969 207.939 153.917 209.053 153.812 210.303H153.988C154.353 209.73 154.786 209.326 155.287 209.092C155.788 208.857 156.371 208.74 157.035 208.74C158.272 208.74 159.232 209.098 159.916 209.814C160.606 210.524 160.951 211.52 160.951 212.803V220H157.113ZM168.969 217.178C169.483 217.178 170.098 217.051 170.814 216.797V219.58C170.3 219.801 169.809 219.958 169.34 220.049C168.878 220.146 168.334 220.195 167.709 220.195C166.426 220.195 165.502 219.883 164.936 219.258C164.369 218.626 164.086 217.66 164.086 216.357V211.797H162.748V210.244L164.447 209.043L165.434 206.719H167.934V208.936H170.648V211.797H167.934V216.104C167.934 216.82 168.279 217.178 168.969 217.178ZM191.527 212.842C191.527 216.077 190.499 218.258 188.441 219.385L191.928 223.398H187.123L184.604 220.225L184.594 220.215V220.205L184.584 220.195C182.344 220.195 180.626 219.567 179.428 218.311C178.236 217.054 177.641 215.225 177.641 212.822C177.641 210.446 178.233 208.633 179.418 207.383C180.609 206.126 182.338 205.498 184.604 205.498C186.876 205.498 188.598 206.12 189.77 207.363C190.941 208.607 191.527 210.433 191.527 212.842ZM181.703 212.842C181.703 215.602 182.663 216.982 184.584 216.982C185.561 216.982 186.283 216.647 186.752 215.977C187.227 215.306 187.465 214.261 187.465 212.842C187.465 211.416 187.224 210.365 186.742 209.688C186.267 209.004 185.554 208.662 184.604 208.662C182.67 208.662 181.703 210.055 181.703 212.842ZM201.762 220L201.283 218.623H201.059C200.74 219.131 200.294 219.521 199.721 219.795C199.154 220.062 198.487 220.195 197.719 220.195C196.501 220.195 195.554 219.844 194.877 219.141C194.2 218.431 193.861 217.432 193.861 216.143V208.936H197.68V214.98C197.68 215.703 197.781 216.25 197.982 216.621C198.191 216.992 198.529 217.178 198.998 217.178C199.656 217.178 200.124 216.921 200.404 216.406C200.684 215.885 200.824 215.01 200.824 213.779V208.936H204.643V220H201.762ZM211.117 220H207.299V208.936H211.117V220ZM207.201 206.182C207.201 205.609 207.361 205.182 207.68 204.902C207.999 204.622 208.513 204.482 209.223 204.482C209.932 204.482 210.45 204.626 210.775 204.912C211.101 205.199 211.264 205.622 211.264 206.182C211.264 207.301 210.583 207.861 209.223 207.861C207.875 207.861 207.201 207.301 207.201 206.182ZM222.104 220H212.943V217.822L217.523 211.855H213.207V208.936H221.889V211.299L217.504 217.08H222.104V220ZM228.598 214.521C228.598 212.796 228.848 211.182 229.35 209.678C229.857 208.174 230.587 206.855 231.537 205.723H233.119C232.182 206.979 231.475 208.359 231 209.863C230.531 211.367 230.297 212.913 230.297 214.502C230.297 216.064 230.538 217.591 231.02 219.082C231.501 220.573 232.195 221.934 233.1 223.164H231.537C230.58 222.057 229.851 220.765 229.35 219.287C228.848 217.809 228.598 216.221 228.598 214.521ZM235.678 220V205.723H237.338V218.496H243.637V220H235.678ZM250.346 220.195C248.764 220.195 247.514 219.714 246.596 218.75C245.684 217.786 245.229 216.449 245.229 214.736C245.229 213.011 245.652 211.641 246.498 210.625C247.351 209.609 248.493 209.102 249.926 209.102C251.267 209.102 252.328 209.544 253.109 210.43C253.891 211.309 254.281 212.471 254.281 213.916V214.941H246.908C246.941 216.198 247.257 217.152 247.855 217.803C248.461 218.454 249.311 218.779 250.404 218.779C251.557 218.779 252.696 218.538 253.822 218.057V219.502C253.249 219.749 252.706 219.925 252.191 220.029C251.684 220.14 251.068 220.195 250.346 220.195ZM249.906 210.459C249.047 210.459 248.36 210.739 247.846 211.299C247.338 211.859 247.038 212.633 246.947 213.623H252.543C252.543 212.601 252.315 211.82 251.859 211.279C251.404 210.732 250.753 210.459 249.906 210.459ZM259.398 220L255.336 209.297H257.074L259.379 215.645C259.9 217.129 260.206 218.092 260.297 218.535H260.375C260.447 218.19 260.671 217.477 261.049 216.396C261.433 215.309 262.289 212.943 263.617 209.297H265.355L261.293 220H259.398ZM271.596 220.195C270.014 220.195 268.764 219.714 267.846 218.75C266.934 217.786 266.479 216.449 266.479 214.736C266.479 213.011 266.902 211.641 267.748 210.625C268.601 209.609 269.743 209.102 271.176 209.102C272.517 209.102 273.578 209.544 274.359 210.43C275.141 211.309 275.531 212.471 275.531 213.916V214.941H268.158C268.191 216.198 268.507 217.152 269.105 217.803C269.711 218.454 270.561 218.779 271.654 218.779C272.807 218.779 273.946 218.538 275.072 218.057V219.502C274.499 219.749 273.956 219.925 273.441 220.029C272.934 220.14 272.318 220.195 271.596 220.195ZM271.156 210.459C270.297 210.459 269.61 210.739 269.096 211.299C268.588 211.859 268.288 212.633 268.197 213.623H273.793C273.793 212.601 273.565 211.82 273.109 211.279C272.654 210.732 272.003 210.459 271.156 210.459ZM279.926 220H278.305V204.805H279.926V220ZM293.822 220H292.24V209.824C292.24 208.978 292.266 208.177 292.318 207.422C292.182 207.559 292.029 207.702 291.859 207.852C291.69 208.001 290.915 208.636 289.535 209.756L288.676 208.643L292.455 205.723H293.822V220ZM308.656 218.857C308.943 218.857 309.219 218.838 309.486 218.799C309.753 218.753 309.965 218.708 310.121 218.662V219.902C309.945 219.987 309.685 220.055 309.34 220.107C309.001 220.166 308.695 220.195 308.422 220.195C306.352 220.195 305.316 219.105 305.316 216.924V210.557H303.783V209.775L305.316 209.102L306 206.816H306.938V209.297H310.043V210.557H306.938V216.855C306.938 217.5 307.09 217.995 307.396 218.34C307.702 218.685 308.122 218.857 308.656 218.857ZM321.508 214.639C321.508 216.383 321.068 217.747 320.189 218.73C319.311 219.707 318.096 220.195 316.547 220.195C315.59 220.195 314.74 219.971 313.998 219.521C313.256 219.072 312.683 218.428 312.279 217.588C311.876 216.748 311.674 215.765 311.674 214.639C311.674 212.894 312.11 211.536 312.982 210.566C313.855 209.59 315.066 209.102 316.615 209.102C318.113 209.102 319.301 209.6 320.18 210.596C321.065 211.592 321.508 212.939 321.508 214.639ZM313.354 214.639C313.354 216.006 313.627 217.048 314.174 217.764C314.721 218.48 315.525 218.838 316.586 218.838C317.647 218.838 318.451 218.483 318.998 217.773C319.551 217.057 319.828 216.012 319.828 214.639C319.828 213.278 319.551 212.246 318.998 211.543C318.451 210.833 317.641 210.479 316.566 210.479C315.505 210.479 314.704 210.827 314.164 211.523C313.624 212.22 313.354 213.258 313.354 214.639ZM328.979 213.896C328.979 211.09 329.522 208.994 330.609 207.607C331.703 206.214 333.318 205.518 335.453 205.518C336.189 205.518 336.768 205.579 337.191 205.703V207.1C336.69 206.937 336.117 206.855 335.473 206.855C333.943 206.855 332.774 207.334 331.967 208.291C331.16 209.242 330.717 210.739 330.639 212.783H330.756C331.472 211.663 332.605 211.104 334.154 211.104C335.437 211.104 336.446 211.491 337.182 212.266C337.924 213.04 338.295 214.092 338.295 215.42C338.295 216.904 337.888 218.073 337.074 218.926C336.267 219.772 335.173 220.195 333.793 220.195C332.315 220.195 331.143 219.642 330.277 218.535C329.411 217.422 328.979 215.876 328.979 213.896ZM333.773 218.818C334.698 218.818 335.414 218.529 335.922 217.949C336.436 217.363 336.693 216.52 336.693 215.42C336.693 214.476 336.456 213.734 335.98 213.193C335.505 212.653 334.796 212.383 333.852 212.383C333.266 212.383 332.729 212.503 332.24 212.744C331.752 212.985 331.361 213.317 331.068 213.74C330.782 214.163 330.639 214.603 330.639 215.059C330.639 215.729 330.769 216.354 331.029 216.934C331.29 217.513 331.658 217.972 332.133 218.311C332.615 218.649 333.161 218.818 333.773 218.818ZM344.398 214.521C344.398 216.234 344.145 217.829 343.637 219.307C343.135 220.785 342.41 222.07 341.459 223.164H339.896C340.801 221.94 341.495 220.583 341.977 219.092C342.458 217.594 342.699 216.064 342.699 214.502C342.699 212.913 342.462 211.367 341.986 209.863C341.518 208.359 340.814 206.979 339.877 205.723H341.459C342.416 206.862 343.145 208.187 343.646 209.697C344.148 211.201 344.398 212.809 344.398 214.521Z" fill="white"/>
<path d="M63.5059 239.271C63.5059 241.24 63.0911 242.71 62.2617 243.681C61.4323 244.651 60.1768 245.137 58.4951 245.137C57.9027 245.137 57.4538 245.105 57.1484 245.041V243.346C57.5312 243.441 57.9323 243.489 58.3516 243.489C59.0579 243.489 59.639 243.387 60.0947 243.182C60.5505 242.972 60.8991 242.646 61.1406 242.204C61.3822 241.757 61.5212 241.145 61.5576 240.365H61.4756C61.2113 240.794 60.9059 241.094 60.5596 241.268C60.2132 241.441 59.7803 241.527 59.2607 241.527C58.3903 241.527 57.7044 241.249 57.2031 240.693C56.7018 240.133 56.4512 239.356 56.4512 238.362C56.4512 237.291 56.7542 236.446 57.3604 235.826C57.971 235.202 58.8005 234.89 59.8486 234.89C60.5869 234.89 61.2318 235.063 61.7832 235.409C62.3392 235.756 62.7653 236.259 63.0615 236.92C63.3577 237.576 63.5059 238.36 63.5059 239.271ZM59.8896 236.585C59.4521 236.585 59.1104 236.735 58.8643 237.036C58.6182 237.337 58.4951 237.77 58.4951 238.335C58.4951 238.818 58.6068 239.201 58.8301 239.483C59.0534 239.766 59.3929 239.907 59.8486 239.907C60.277 239.907 60.6439 239.768 60.9492 239.49C61.2546 239.208 61.4072 238.884 61.4072 238.52C61.4072 237.977 61.2637 237.519 60.9766 237.146C60.694 236.772 60.3317 236.585 59.8896 236.585ZM64.7979 244.022C64.7979 243.64 64.9004 243.35 65.1055 243.154C65.3105 242.958 65.609 242.86 66.001 242.86C66.3792 242.86 66.6709 242.961 66.876 243.161C67.0856 243.362 67.1904 243.649 67.1904 244.022C67.1904 244.382 67.0856 244.667 66.876 244.877C66.6663 245.082 66.3747 245.185 66.001 245.185C65.6182 245.185 65.3219 245.084 65.1123 244.884C64.9027 244.679 64.7979 244.392 64.7979 244.022ZM64.7979 238.376C64.7979 237.993 64.9004 237.704 65.1055 237.508C65.3105 237.312 65.609 237.214 66.001 237.214C66.3792 237.214 66.6709 237.314 66.876 237.515C67.0856 237.715 67.1904 238.002 67.1904 238.376C67.1904 238.745 67.0833 239.032 66.8691 239.237C66.6595 239.438 66.3701 239.538 66.001 239.538C65.6182 239.538 65.3219 239.438 65.1123 239.237C64.9027 239.037 64.7979 238.75 64.7979 238.376ZM75.1475 237.241C75.1475 237.866 74.9583 238.396 74.5801 238.834C74.2018 239.271 73.6709 239.572 72.9873 239.736V239.777C73.7939 239.878 74.4046 240.124 74.8193 240.516C75.234 240.903 75.4414 241.427 75.4414 242.088C75.4414 243.049 75.0928 243.799 74.3955 244.337C73.6982 244.87 72.7025 245.137 71.4082 245.137C70.3236 245.137 69.362 244.957 68.5234 244.597V242.799C68.9108 242.995 69.3369 243.154 69.8018 243.277C70.2666 243.4 70.7269 243.462 71.1826 243.462C71.8799 243.462 72.3949 243.343 72.7275 243.106C73.0602 242.869 73.2266 242.489 73.2266 241.965C73.2266 241.495 73.0352 241.163 72.6523 240.967C72.2695 240.771 71.6589 240.673 70.8203 240.673H70.0615V239.053H70.834C71.6087 239.053 72.1738 238.952 72.5293 238.752C72.8893 238.547 73.0693 238.198 73.0693 237.706C73.0693 236.95 72.5954 236.571 71.6475 236.571C71.3193 236.571 70.9844 236.626 70.6426 236.735C70.3053 236.845 69.9294 237.034 69.5146 237.303L68.5371 235.847C69.4486 235.19 70.5355 234.862 71.7979 234.862C72.8324 234.862 73.6481 235.072 74.2451 235.491C74.8467 235.91 75.1475 236.494 75.1475 237.241ZM83.4805 240.003C83.4805 241.748 83.1934 243.04 82.6191 243.879C82.0495 244.717 81.1699 245.137 79.9805 245.137C78.8275 245.137 77.957 244.704 77.3691 243.838C76.7858 242.972 76.4941 241.694 76.4941 240.003C76.4941 238.239 76.779 236.94 77.3486 236.106C77.9183 235.268 78.7956 234.849 79.9805 234.849C81.1335 234.849 82.0039 235.286 82.5918 236.161C83.1842 237.036 83.4805 238.317 83.4805 240.003ZM78.5928 240.003C78.5928 241.229 78.6976 242.108 78.9072 242.642C79.1214 243.17 79.4792 243.435 79.9805 243.435C80.4727 243.435 80.8281 243.166 81.0469 242.628C81.2656 242.09 81.375 241.215 81.375 240.003C81.375 238.777 81.2633 237.897 81.04 237.364C80.8213 236.826 80.4681 236.558 79.9805 236.558C79.4837 236.558 79.1283 236.826 78.9141 237.364C78.6999 237.897 78.5928 238.777 78.5928 240.003ZM91 239.709H91.6973C92.349 239.709 92.8366 239.581 93.1602 239.326C93.4837 239.066 93.6455 238.69 93.6455 238.198C93.6455 237.701 93.5088 237.335 93.2354 237.098C92.9665 236.861 92.5426 236.742 91.9639 236.742H91V239.709ZM95.7852 238.123C95.7852 239.199 95.4479 240.021 94.7734 240.591C94.1035 241.16 93.1488 241.445 91.9092 241.445H91V245H88.8809V235.006H92.0732C93.2855 235.006 94.2061 235.268 94.835 235.792C95.4684 236.312 95.7852 237.089 95.7852 238.123ZM101.903 245L99.4971 237.159H99.4355C99.5221 238.754 99.5654 239.818 99.5654 240.352V245H97.6719V235.006H100.557L102.922 242.648H102.963L105.472 235.006H108.356V245H106.381V240.27C106.381 240.046 106.383 239.789 106.388 239.497C106.397 239.205 106.429 238.431 106.483 237.173H106.422L103.845 245H101.903Z" fill="white"/>
<rect x="96" width="413" height="80" rx="8" fill="#36C4BD"/>
<path d="M133.662 28.5586C133.662 30.9414 133.005 32.7773 131.689 34.0664C130.381 35.3555 128.538 36 126.162 36H121.543V21.7227H126.484C128.776 21.7227 130.544 22.3086 131.787 23.4805C133.037 24.6523 133.662 26.3451 133.662 28.5586ZM129.658 28.6953C129.658 27.3867 129.398 26.4167 128.877 25.7852C128.363 25.1536 127.578 24.8379 126.523 24.8379H125.4V32.8359H126.26C127.432 32.8359 128.291 32.4974 128.838 31.8203C129.385 31.1367 129.658 30.0951 129.658 28.6953ZM143.223 36L142.49 34.5352H142.412C141.898 35.1732 141.374 35.6094 140.84 35.8438C140.306 36.0781 139.616 36.1953 138.77 36.1953C137.728 36.1953 136.908 35.8828 136.309 35.2578C135.71 34.6328 135.41 33.7539 135.41 32.6211C135.41 31.4427 135.82 30.5671 136.641 29.9941C137.461 29.4147 138.649 29.0892 140.205 29.0176L142.051 28.959V28.8027C142.051 27.8913 141.602 27.4355 140.703 27.4355C139.896 27.4355 138.87 27.709 137.627 28.2559L136.523 25.7363C137.812 25.0723 139.44 24.7402 141.406 24.7402C142.826 24.7402 143.923 25.0918 144.697 25.7949C145.479 26.498 145.869 27.4811 145.869 28.7441V36H143.223ZM140.391 33.5C140.853 33.5 141.247 33.3535 141.572 33.0605C141.904 32.7676 142.07 32.3867 142.07 31.918V31.0586L141.191 31.0977C139.935 31.1432 139.307 31.6055 139.307 32.4844C139.307 33.1615 139.668 33.5 140.391 33.5ZM152.305 36H148.486V24.9355H152.305V36ZM148.389 22.1816C148.389 21.6087 148.548 21.1823 148.867 20.9023C149.186 20.6224 149.701 20.4824 150.41 20.4824C151.12 20.4824 151.637 20.6257 151.963 20.9121C152.288 21.1986 152.451 21.6217 152.451 22.1816C152.451 23.3014 151.771 23.8613 150.41 23.8613C149.062 23.8613 148.389 23.3014 148.389 22.1816ZM158.789 36H154.971V20.8047H158.789V36ZM160.098 24.9355H164.121L165.996 31.2832C166.087 31.6152 166.149 32.0156 166.182 32.4844H166.26C166.312 32.0352 166.39 31.6413 166.494 31.3027L168.418 24.9355H172.314L167.939 36.7031C167.38 38.2005 166.689 39.2585 165.869 39.877C165.055 40.4954 163.991 40.8047 162.676 40.8047C162.168 40.8047 161.647 40.7493 161.113 40.6387V37.6406C161.458 37.7188 161.852 37.7578 162.295 37.7578C162.633 37.7578 162.93 37.6927 163.184 37.5625C163.438 37.4323 163.659 37.2467 163.848 37.0059C164.036 36.7715 164.238 36.3841 164.453 35.8438L160.098 24.9355ZM189.424 26.2637C189.424 27.8587 188.952 29.0924 188.008 29.9648C187.07 30.8307 185.736 31.2637 184.004 31.2637H182.92V36H179.062V21.7227H184.004C185.807 21.7227 187.161 22.1165 188.066 22.9043C188.971 23.6921 189.424 24.8118 189.424 26.2637ZM182.92 28.1191H183.623C184.202 28.1191 184.661 27.9564 185 27.6309C185.345 27.3053 185.518 26.8561 185.518 26.2832C185.518 25.3197 184.984 24.8379 183.916 24.8379H182.92V28.1191ZM198.154 24.7402C198.486 24.7402 198.802 24.7663 199.102 24.8184L199.316 24.8574L198.975 28.4609C198.662 28.3828 198.229 28.3438 197.676 28.3438C196.842 28.3438 196.237 28.5358 195.859 28.9199C195.482 29.2975 195.293 29.8444 195.293 30.5605V36H191.475V24.9355H194.316L194.912 26.7031H195.098C195.417 26.1172 195.859 25.6452 196.426 25.2871C196.999 24.9225 197.575 24.7402 198.154 24.7402ZM208.086 36L207.354 34.5352H207.275C206.761 35.1732 206.237 35.6094 205.703 35.8438C205.169 36.0781 204.479 36.1953 203.633 36.1953C202.591 36.1953 201.771 35.8828 201.172 35.2578C200.573 34.6328 200.273 33.7539 200.273 32.6211C200.273 31.4427 200.684 30.5671 201.504 29.9941C202.324 29.4147 203.512 29.0892 205.068 29.0176L206.914 28.959V28.8027C206.914 27.8913 206.465 27.4355 205.566 27.4355C204.759 27.4355 203.734 27.709 202.49 28.2559L201.387 25.7363C202.676 25.0723 204.303 24.7402 206.27 24.7402C207.689 24.7402 208.786 25.0918 209.561 25.7949C210.342 26.498 210.732 27.4811 210.732 28.7441V36H208.086ZM205.254 33.5C205.716 33.5 206.11 33.3535 206.436 33.0605C206.768 32.7676 206.934 32.3867 206.934 31.918V31.0586L206.055 31.0977C204.798 31.1432 204.17 31.6055 204.17 32.4844C204.17 33.1615 204.531 33.5 205.254 33.5ZM218.369 36.1953C216.559 36.1953 215.186 35.707 214.248 34.7305C213.317 33.7539 212.852 32.3509 212.852 30.5215C212.852 28.6855 213.356 27.263 214.365 26.2539C215.374 25.2448 216.81 24.7402 218.672 24.7402C219.954 24.7402 221.162 25.0202 222.295 25.5801L221.172 28.4023C220.71 28.2005 220.283 28.041 219.893 27.9238C219.502 27.8001 219.095 27.7383 218.672 27.7383C218.053 27.7383 217.575 27.9792 217.236 28.4609C216.898 28.9427 216.729 29.623 216.729 30.502C216.729 32.2728 217.383 33.1582 218.691 33.1582C219.811 33.1582 220.885 32.8327 221.914 32.1816V35.2188C220.931 35.8698 219.749 36.1953 218.369 36.1953ZM229.531 33.1777C230.046 33.1777 230.661 33.0508 231.377 32.7969V35.5801C230.863 35.8014 230.371 35.9577 229.902 36.0488C229.44 36.1465 228.896 36.1953 228.271 36.1953C226.989 36.1953 226.064 35.8828 225.498 35.2578C224.932 34.6263 224.648 33.6595 224.648 32.3574V27.7969H223.311V26.2441L225.01 25.043L225.996 22.7188H228.496V24.9355H231.211V27.7969H228.496V32.1035C228.496 32.8197 228.841 33.1777 229.531 33.1777ZM237.148 36H233.33V24.9355H237.148V36ZM233.232 22.1816C233.232 21.6087 233.392 21.1823 233.711 20.9023C234.03 20.6224 234.544 20.4824 235.254 20.4824C235.964 20.4824 236.481 20.6257 236.807 20.9121C237.132 21.1986 237.295 21.6217 237.295 22.1816C237.295 23.3014 236.615 23.8613 235.254 23.8613C233.906 23.8613 233.232 23.3014 233.232 22.1816ZM248.359 32.6016C248.359 33.7865 247.956 34.6816 247.148 35.2871C246.341 35.8926 245.182 36.1953 243.672 36.1953C242.852 36.1953 242.139 36.1497 241.533 36.0586C240.928 35.974 240.309 35.8145 239.678 35.5801V32.5234C240.27 32.7839 240.918 32.9987 241.621 33.168C242.331 33.3372 242.962 33.4219 243.516 33.4219C244.342 33.4219 244.756 33.2331 244.756 32.8555C244.756 32.6602 244.639 32.4876 244.404 32.3379C244.176 32.1816 243.506 31.8822 242.393 31.4395C241.377 31.0228 240.667 30.5508 240.264 30.0234C239.86 29.4896 239.658 28.8158 239.658 28.002C239.658 26.9733 240.055 26.1725 240.85 25.5996C241.644 25.0267 242.767 24.7402 244.219 24.7402C244.948 24.7402 245.632 24.8216 246.27 24.9844C246.914 25.1406 247.581 25.3717 248.271 25.6777L247.236 28.1387C246.729 27.9108 246.191 27.7188 245.625 27.5625C245.059 27.3997 244.596 27.3184 244.238 27.3184C243.613 27.3184 243.301 27.4714 243.301 27.7773C243.301 27.9661 243.408 28.1289 243.623 28.2656C243.844 28.3958 244.476 28.666 245.518 29.0762C246.292 29.3952 246.868 29.7077 247.246 30.0137C247.63 30.3197 247.91 30.681 248.086 31.0977C248.268 31.5078 248.359 32.0091 248.359 32.6016ZM255.82 36.1953C253.978 36.1953 252.546 35.707 251.523 34.7305C250.508 33.7474 250 32.3509 250 30.541C250 28.6725 250.472 27.2402 251.416 26.2441C252.36 25.2415 253.708 24.7402 255.459 24.7402C257.126 24.7402 258.411 25.1764 259.316 26.0488C260.228 26.9147 260.684 28.1647 260.684 29.7988V31.498H253.857C253.883 32.1165 254.108 32.6016 254.531 32.9531C254.961 33.3047 255.544 33.4805 256.279 33.4805C256.95 33.4805 257.565 33.4186 258.125 33.2949C258.691 33.1647 259.303 32.9466 259.961 32.6406V35.3848C259.362 35.6908 258.743 35.9023 258.105 36.0195C257.467 36.1367 256.706 36.1953 255.82 36.1953ZM255.596 27.3379C255.146 27.3379 254.769 27.4811 254.463 27.7676C254.163 28.0475 253.988 28.4902 253.936 29.0957H257.217C257.204 28.5618 257.051 28.1354 256.758 27.8164C256.471 27.4974 256.084 27.3379 255.596 27.3379ZM281.621 28.8418C281.621 32.0775 280.592 34.2585 278.535 35.3848L282.021 39.3984H277.217L274.697 36.2246L274.688 36.2148V36.2051L274.678 36.1953C272.438 36.1953 270.719 35.5671 269.521 34.3105C268.33 33.054 267.734 31.2246 267.734 28.8223C267.734 26.446 268.327 24.6328 269.512 23.3828C270.703 22.1263 272.432 21.498 274.697 21.498C276.969 21.498 278.691 22.1198 279.863 23.3633C281.035 24.6068 281.621 26.4329 281.621 28.8418ZM271.797 28.8418C271.797 31.6022 272.757 32.9824 274.678 32.9824C275.654 32.9824 276.377 32.6471 276.846 31.9766C277.321 31.306 277.559 30.2611 277.559 28.8418C277.559 27.416 277.318 26.3646 276.836 25.6875C276.361 25.0039 275.648 24.6621 274.697 24.6621C272.764 24.6621 271.797 26.0553 271.797 28.8418ZM291.855 36L291.377 34.623H291.152C290.833 35.1309 290.387 35.5215 289.814 35.7949C289.248 36.0618 288.581 36.1953 287.812 36.1953C286.595 36.1953 285.648 35.8438 284.971 35.1406C284.294 34.431 283.955 33.4316 283.955 32.1426V24.9355H287.773V30.9805C287.773 31.7031 287.874 32.25 288.076 32.6211C288.285 32.9922 288.623 33.1777 289.092 33.1777C289.749 33.1777 290.218 32.9206 290.498 32.4062C290.778 31.8854 290.918 31.0098 290.918 29.7793V24.9355H294.736V36H291.855ZM301.211 36H297.393V24.9355H301.211V36ZM297.295 22.1816C297.295 21.6087 297.454 21.1823 297.773 20.9023C298.092 20.6224 298.607 20.4824 299.316 20.4824C300.026 20.4824 300.544 20.6257 300.869 20.9121C301.195 21.1986 301.357 21.6217 301.357 22.1816C301.357 23.3014 300.677 23.8613 299.316 23.8613C297.969 23.8613 297.295 23.3014 297.295 22.1816ZM312.197 36H303.037V33.8223L307.617 27.8555H303.301V24.9355H311.982V27.2988L307.598 33.0801H312.197V36Z" fill="white"/>
<path d="M121.552 61L125.305 52.7969H120.376V51.0195H127.547V52.3457L123.767 61H121.552ZM128.798 60.0225C128.798 59.6396 128.9 59.3503 129.105 59.1543C129.311 58.9583 129.609 58.8604 130.001 58.8604C130.379 58.8604 130.671 58.9606 130.876 59.1611C131.086 59.3617 131.19 59.6488 131.19 60.0225C131.19 60.3825 131.086 60.6673 130.876 60.877C130.666 61.082 130.375 61.1846 130.001 61.1846C129.618 61.1846 129.322 61.0843 129.112 60.8838C128.903 60.6787 128.798 60.3916 128.798 60.0225ZM128.798 54.376C128.798 53.9932 128.9 53.7038 129.105 53.5078C129.311 53.3118 129.609 53.2139 130.001 53.2139C130.379 53.2139 130.671 53.3141 130.876 53.5146C131.086 53.7152 131.19 54.0023 131.19 54.376C131.19 54.7451 131.083 55.0322 130.869 55.2373C130.66 55.4378 130.37 55.5381 130.001 55.5381C129.618 55.5381 129.322 55.4378 129.112 55.2373C128.903 55.0368 128.798 54.7497 128.798 54.376ZM139.147 53.2412C139.147 53.8656 138.958 54.3965 138.58 54.834C138.202 55.2715 137.671 55.5723 136.987 55.7363V55.7773C137.794 55.8776 138.405 56.1237 138.819 56.5156C139.234 56.903 139.441 57.4271 139.441 58.0879C139.441 59.0495 139.093 59.7992 138.396 60.3369C137.698 60.8701 136.702 61.1367 135.408 61.1367C134.324 61.1367 133.362 60.9567 132.523 60.5967V58.7988C132.911 58.9948 133.337 59.1543 133.802 59.2773C134.267 59.4004 134.727 59.4619 135.183 59.4619C135.88 59.4619 136.395 59.3434 136.728 59.1064C137.06 58.8695 137.227 58.4889 137.227 57.9648C137.227 57.4954 137.035 57.1628 136.652 56.9668C136.27 56.7708 135.659 56.6729 134.82 56.6729H134.062V55.0527H134.834C135.609 55.0527 136.174 54.9525 136.529 54.752C136.889 54.5469 137.069 54.1982 137.069 53.7061C137.069 52.9495 136.595 52.5713 135.647 52.5713C135.319 52.5713 134.984 52.626 134.643 52.7354C134.305 52.8447 133.929 53.0339 133.515 53.3027L132.537 51.8467C133.449 51.1904 134.535 50.8623 135.798 50.8623C136.832 50.8623 137.648 51.0719 138.245 51.4912C138.847 51.9105 139.147 52.4938 139.147 53.2412ZM147.48 56.0029C147.48 57.7484 147.193 59.0404 146.619 59.8789C146.049 60.7174 145.17 61.1367 143.98 61.1367C142.827 61.1367 141.957 60.7038 141.369 59.8379C140.786 58.972 140.494 57.6937 140.494 56.0029C140.494 54.2393 140.779 52.9404 141.349 52.1064C141.918 51.2679 142.796 50.8486 143.98 50.8486C145.133 50.8486 146.004 51.2861 146.592 52.1611C147.184 53.0361 147.48 54.3167 147.48 56.0029ZM142.593 56.0029C142.593 57.2288 142.698 58.1084 142.907 58.6416C143.121 59.1702 143.479 59.4346 143.98 59.4346C144.473 59.4346 144.828 59.1657 145.047 58.6279C145.266 58.0902 145.375 57.2152 145.375 56.0029C145.375 54.777 145.263 53.8975 145.04 53.3643C144.821 52.8265 144.468 52.5576 143.98 52.5576C143.484 52.5576 143.128 52.8265 142.914 53.3643C142.7 53.8975 142.593 54.777 142.593 56.0029ZM155 55.709H155.697C156.349 55.709 156.837 55.5814 157.16 55.3262C157.484 55.0664 157.646 54.6904 157.646 54.1982C157.646 53.7015 157.509 53.3346 157.235 53.0977C156.966 52.8607 156.543 52.7422 155.964 52.7422H155V55.709ZM159.785 54.123C159.785 55.1986 159.448 56.0212 158.773 56.5908C158.104 57.1605 157.149 57.4453 155.909 57.4453H155V61H152.881V51.0059H156.073C157.285 51.0059 158.206 51.2679 158.835 51.792C159.468 52.3115 159.785 53.0885 159.785 54.123ZM165.903 61L163.497 53.1592H163.436C163.522 54.7542 163.565 55.8184 163.565 56.3516V61H161.672V51.0059H164.557L166.922 58.6484H166.963L169.472 51.0059H172.356V61H170.381V56.2695C170.381 56.0462 170.383 55.7887 170.388 55.4971C170.397 55.2054 170.429 54.4307 170.483 53.1729H170.422L167.845 61H165.903Z" fill="white"/>
</svg>
