<svg width="509" height="356" viewBox="0 0 509 356" fill="none" xmlns="http://www.w3.org/2000/svg">
<rect x="96" width="413" height="80" rx="8" fill="#FFB400"/>
<path d="M130.879 31.6641C130.879 32.4388 130.684 33.1745 130.293 33.8711C129.902 34.5612 129.294 35.1211 128.467 35.5508C127.646 35.9805 126.585 36.1953 125.283 36.1953C124.632 36.1953 124.059 36.166 123.564 36.1074C123.076 36.0488 122.62 35.9544 122.197 35.8242C121.774 35.6875 121.335 35.5117 120.879 35.2969V31.8594C121.654 32.25 122.435 32.5495 123.223 32.7578C124.01 32.9596 124.723 33.0605 125.361 33.0605C125.745 33.0605 126.058 33.015 126.299 32.9238C126.546 32.8327 126.729 32.709 126.846 32.5527C126.963 32.39 127.021 32.2044 127.021 31.9961C127.021 31.7487 126.934 31.5404 126.758 31.3711C126.589 31.1953 126.315 31.013 125.938 30.8242C125.56 30.6354 125.062 30.401 124.443 30.1211C123.916 29.8737 123.438 29.6198 123.008 29.3594C122.585 29.099 122.22 28.8027 121.914 28.4707C121.615 28.1322 121.383 27.7383 121.221 27.2891C121.058 26.8398 120.977 26.3092 120.977 25.6973C120.977 24.7793 121.201 24.0111 121.65 23.3926C122.106 22.7676 122.738 22.2988 123.545 21.9863C124.359 21.6738 125.296 21.5176 126.357 21.5176C127.288 21.5176 128.125 21.6217 128.867 21.8301C129.616 22.0384 130.286 22.276 130.879 22.543L129.697 25.5215C129.085 25.2415 128.483 25.0202 127.891 24.8574C127.298 24.6882 126.748 24.6035 126.24 24.6035C125.908 24.6035 125.635 24.6458 125.42 24.7305C125.212 24.8086 125.055 24.916 124.951 25.0527C124.854 25.1895 124.805 25.3457 124.805 25.5215C124.805 25.7428 124.889 25.9414 125.059 26.1172C125.234 26.293 125.524 26.485 125.928 26.6934C126.338 26.8952 126.895 27.1589 127.598 27.4844C128.294 27.7969 128.887 28.1354 129.375 28.5C129.863 28.8581 130.234 29.291 130.488 29.7988C130.749 30.3001 130.879 30.9219 130.879 31.6641ZM143.623 24.9355V36H140.742L140.264 34.623H140.039C139.811 34.9941 139.521 35.2969 139.17 35.5312C138.825 35.7591 138.441 35.9251 138.018 36.0293C137.594 36.14 137.155 36.1953 136.699 36.1953C135.977 36.1953 135.322 36.0553 134.736 35.7754C134.157 35.4954 133.695 35.056 133.35 34.457C133.011 33.8581 132.842 33.0866 132.842 32.1426V24.9355H136.66V30.9805C136.66 31.6966 136.761 32.2435 136.963 32.6211C137.171 32.9922 137.51 33.1777 137.979 33.1777C138.46 33.1777 138.831 33.0475 139.092 32.7871C139.359 32.5267 139.544 32.1426 139.648 31.6348C139.753 31.127 139.805 30.5085 139.805 29.7793V24.9355H143.623ZM153.184 24.7402C154.323 24.7402 155.254 25.0625 155.977 25.707C156.699 26.3516 157.061 27.3835 157.061 28.8027V36H153.242V29.9648C153.242 29.2292 153.135 28.6758 152.92 28.3047C152.712 27.9271 152.373 27.7383 151.904 27.7383C151.182 27.7383 150.697 28.0345 150.449 28.627C150.202 29.2129 150.078 30.056 150.078 31.1562V36H146.26V24.9355H149.141L149.658 26.4004H149.805C150.039 26.0488 150.319 25.7493 150.645 25.502C150.97 25.2546 151.344 25.0658 151.768 24.9355C152.191 24.8053 152.663 24.7402 153.184 24.7402ZM163.096 36.1953C161.956 36.1953 161.019 35.7103 160.283 34.7402C159.548 33.7702 159.18 32.3509 159.18 30.4824C159.18 28.5944 159.557 27.1654 160.312 26.1953C161.068 25.2253 162.044 24.7402 163.242 24.7402C163.737 24.7402 164.163 24.8118 164.521 24.9551C164.88 25.0983 165.189 25.2936 165.449 25.541C165.716 25.7819 165.947 26.0553 166.143 26.3613H166.221C166.175 26.0814 166.133 25.6973 166.094 25.209C166.055 24.7142 166.035 24.2324 166.035 23.7637V20.8047H169.883V36H167.002L166.182 34.6035H166.035C165.859 34.8965 165.638 35.1634 165.371 35.4043C165.111 35.6452 164.792 35.8372 164.414 35.9805C164.043 36.1237 163.604 36.1953 163.096 36.1953ZM164.658 33.1777C165.27 33.1777 165.7 32.9857 165.947 32.6016C166.201 32.2109 166.338 31.6185 166.357 30.8242V30.5215C166.357 29.6491 166.234 28.9818 165.986 28.5195C165.745 28.0508 165.29 27.8164 164.619 27.8164C164.163 27.8164 163.786 28.0378 163.486 28.4805C163.187 28.9232 163.037 29.61 163.037 30.541C163.037 31.459 163.187 32.1296 163.486 32.5527C163.792 32.9694 164.183 33.1777 164.658 33.1777ZM177.93 24.7402C179.329 24.7402 180.423 25.0885 181.211 25.7852C181.999 26.4753 182.393 27.4616 182.393 28.7441V36H179.746L179.014 34.5352H178.936C178.623 34.9258 178.301 35.2448 177.969 35.4922C177.643 35.7331 177.269 35.9089 176.846 36.0195C176.423 36.1367 175.905 36.1953 175.293 36.1953C174.655 36.1953 174.082 36.0651 173.574 35.8047C173.066 35.5443 172.666 35.1504 172.373 34.623C172.08 34.0957 171.934 33.4284 171.934 32.6211C171.934 31.4362 172.344 30.5573 173.164 29.9844C173.984 29.4115 175.173 29.0892 176.729 29.0176L178.574 28.959V28.8027C178.574 28.3079 178.451 27.9564 178.203 27.748C177.962 27.5397 177.637 27.4355 177.227 27.4355C176.79 27.4355 176.302 27.5137 175.762 27.6699C175.228 27.8197 174.691 28.015 174.15 28.2559L173.047 25.7363C173.685 25.4108 174.408 25.1634 175.215 24.9941C176.022 24.8249 176.927 24.7402 177.93 24.7402ZM178.594 31.0586L177.715 31.0977C177.012 31.1237 176.517 31.2474 176.23 31.4688C175.951 31.6836 175.811 31.9928 175.811 32.3965C175.811 32.7741 175.911 33.054 176.113 33.2363C176.315 33.4121 176.582 33.5 176.914 33.5C177.376 33.5 177.77 33.3535 178.096 33.0605C178.428 32.7676 178.594 32.3867 178.594 31.918V31.0586ZM183.652 24.9355H187.676L189.551 31.2832C189.577 31.3743 189.603 31.4883 189.629 31.625C189.655 31.7552 189.678 31.8952 189.697 32.0449C189.717 32.1947 189.73 32.3411 189.736 32.4844H189.814C189.847 32.2174 189.883 31.9863 189.922 31.791C189.967 31.5892 190.01 31.4264 190.049 31.3027L191.973 24.9355H195.869L191.494 36.7031C191.156 37.6016 190.762 38.3535 190.312 38.959C189.87 39.571 189.32 40.0299 188.662 40.3359C188.011 40.6484 187.201 40.8047 186.23 40.8047C185.879 40.8047 185.576 40.7852 185.322 40.7461C185.075 40.7135 184.857 40.6777 184.668 40.6387V37.6406C184.811 37.6667 184.987 37.6927 185.195 37.7188C185.404 37.7448 185.622 37.7578 185.85 37.7578C186.273 37.7578 186.615 37.6732 186.875 37.5039C187.142 37.3346 187.36 37.11 187.529 36.8301C187.699 36.5566 187.845 36.2604 187.969 35.9414L188.008 35.8438L183.652 24.9355ZM208.35 27.6406H214.512V35.3359C213.776 35.5898 212.933 35.7982 211.982 35.9609C211.032 36.1172 210.036 36.1953 208.994 36.1953C207.62 36.1953 206.416 35.9284 205.381 35.3945C204.346 34.8607 203.538 34.0501 202.959 32.9629C202.38 31.8691 202.09 30.4889 202.09 28.8223C202.09 27.3249 202.376 26.0326 202.949 24.9453C203.522 23.8516 204.365 23.0085 205.479 22.416C206.598 21.8171 207.969 21.5176 209.59 21.5176C210.482 21.5176 211.328 21.6022 212.129 21.7715C212.93 21.9408 213.626 22.1556 214.219 22.416L212.998 25.4434C212.484 25.1895 211.95 25.0007 211.396 24.877C210.843 24.7467 210.247 24.6816 209.609 24.6816C208.757 24.6816 208.07 24.8737 207.549 25.2578C207.035 25.6419 206.66 26.1562 206.426 26.8008C206.191 27.4388 206.074 28.1452 206.074 28.9199C206.074 29.8053 206.198 30.554 206.445 31.166C206.699 31.7715 207.067 32.2337 207.549 32.5527C208.037 32.8652 208.626 33.0215 209.316 33.0215C209.544 33.0215 209.821 33.0052 210.146 32.9727C210.479 32.9401 210.729 32.901 210.898 32.8555V30.6191H208.35V27.6406ZM223.877 24.7402C224.085 24.7402 224.303 24.7565 224.531 24.7891C224.759 24.8151 224.928 24.8379 225.039 24.8574L224.697 28.4609C224.574 28.4284 224.414 28.4023 224.219 28.3828C224.023 28.3568 223.75 28.3438 223.398 28.3438C223.158 28.3438 222.9 28.3665 222.627 28.4121C222.354 28.4577 222.093 28.5553 221.846 28.7051C221.605 28.8483 221.406 29.0697 221.25 29.3691C221.094 29.6621 221.016 30.0592 221.016 30.5605V36H217.197V24.9355H220.039L220.635 26.7031H220.82C221.022 26.3385 221.279 26.0098 221.592 25.7168C221.911 25.4173 222.266 25.1797 222.656 25.0039C223.053 24.8281 223.46 24.7402 223.877 24.7402ZM231.992 24.7402C233.392 24.7402 234.486 25.0885 235.273 25.7852C236.061 26.4753 236.455 27.4616 236.455 28.7441V36H233.809L233.076 34.5352H232.998C232.686 34.9258 232.363 35.2448 232.031 35.4922C231.706 35.7331 231.331 35.9089 230.908 36.0195C230.485 36.1367 229.967 36.1953 229.355 36.1953C228.717 36.1953 228.145 36.0651 227.637 35.8047C227.129 35.5443 226.729 35.1504 226.436 34.623C226.143 34.0957 225.996 33.4284 225.996 32.6211C225.996 31.4362 226.406 30.5573 227.227 29.9844C228.047 29.4115 229.235 29.0892 230.791 29.0176L232.637 28.959V28.8027C232.637 28.3079 232.513 27.9564 232.266 27.748C232.025 27.5397 231.699 27.4355 231.289 27.4355C230.853 27.4355 230.365 27.5137 229.824 27.6699C229.29 27.8197 228.753 28.015 228.213 28.2559L227.109 25.7363C227.747 25.4108 228.47 25.1634 229.277 24.9941C230.085 24.8249 230.99 24.7402 231.992 24.7402ZM232.656 31.0586L231.777 31.0977C231.074 31.1237 230.579 31.2474 230.293 31.4688C230.013 31.6836 229.873 31.9928 229.873 32.3965C229.873 32.7741 229.974 33.054 230.176 33.2363C230.378 33.4121 230.645 33.5 230.977 33.5C231.439 33.5 231.833 33.3535 232.158 33.0605C232.49 32.7676 232.656 32.3867 232.656 31.918V31.0586ZM245.977 24.7402C247.116 24.7402 248.047 25.0625 248.77 25.707C249.492 26.3516 249.854 27.3835 249.854 28.8027V36H246.035V29.9648C246.035 29.2292 245.928 28.6758 245.713 28.3047C245.505 27.9271 245.166 27.7383 244.697 27.7383C243.975 27.7383 243.49 28.0345 243.242 28.627C242.995 29.2129 242.871 30.056 242.871 31.1562V36H239.053V24.9355H241.934L242.451 26.4004H242.598C242.832 26.0488 243.112 25.7493 243.438 25.502C243.763 25.2546 244.137 25.0658 244.561 24.9355C244.984 24.8053 245.456 24.7402 245.977 24.7402ZM255.889 36.1953C254.749 36.1953 253.812 35.7103 253.076 34.7402C252.34 33.7702 251.973 32.3509 251.973 30.4824C251.973 28.5944 252.35 27.1654 253.105 26.1953C253.861 25.2253 254.837 24.7402 256.035 24.7402C256.53 24.7402 256.956 24.8118 257.314 24.9551C257.673 25.0983 257.982 25.2936 258.242 25.541C258.509 25.7819 258.74 26.0553 258.936 26.3613H259.014C258.968 26.0814 258.926 25.6973 258.887 25.209C258.848 24.7142 258.828 24.2324 258.828 23.7637V20.8047H262.676V36H259.795L258.975 34.6035H258.828C258.652 34.8965 258.431 35.1634 258.164 35.4043C257.904 35.6452 257.585 35.8372 257.207 35.9805C256.836 36.1237 256.396 36.1953 255.889 36.1953ZM257.451 33.1777C258.063 33.1777 258.493 32.9857 258.74 32.6016C258.994 32.2109 259.131 31.6185 259.15 30.8242V30.5215C259.15 29.6491 259.027 28.9818 258.779 28.5195C258.538 28.0508 258.083 27.8164 257.412 27.8164C256.956 27.8164 256.579 28.0378 256.279 28.4805C255.98 28.9232 255.83 29.61 255.83 30.541C255.83 31.459 255.98 32.1296 256.279 32.5527C256.585 32.9694 256.976 33.1777 257.451 33.1777ZM284.102 28.8418C284.102 29.8314 283.994 30.7493 283.779 31.5957C283.571 32.4355 283.239 33.1777 282.783 33.8223C282.334 34.4603 281.745 34.9811 281.016 35.3848L284.502 39.3984H279.697L277.295 36.1953C277.288 36.1953 277.266 36.1953 277.227 36.1953C277.194 36.1953 277.171 36.1953 277.158 36.1953C275.96 36.1953 274.922 36.0228 274.043 35.6777C273.171 35.3262 272.451 34.8281 271.885 34.1836C271.318 33.5326 270.898 32.7546 270.625 31.8496C270.352 30.9447 270.215 29.9355 270.215 28.8223C270.215 27.3379 270.459 26.0488 270.947 24.9551C271.442 23.8548 272.204 23.0052 273.232 22.4062C274.261 21.8008 275.576 21.498 277.178 21.498C278.805 21.498 280.127 21.8008 281.143 22.4062C282.165 23.0117 282.913 23.8646 283.389 24.9648C283.864 26.0651 284.102 27.3574 284.102 28.8418ZM274.277 28.8418C274.277 29.7012 274.375 30.4401 274.57 31.0586C274.766 31.6771 275.075 32.1523 275.498 32.4844C275.921 32.8164 276.475 32.9824 277.158 32.9824C277.868 32.9824 278.431 32.8164 278.848 32.4844C279.271 32.1523 279.574 31.6771 279.756 31.0586C279.945 30.4401 280.039 29.7012 280.039 28.8418C280.039 27.5527 279.824 26.5339 279.395 25.7852C278.965 25.0365 278.226 24.6621 277.178 24.6621C276.481 24.6621 275.918 24.8314 275.488 25.1699C275.065 25.5085 274.756 25.9902 274.561 26.6152C274.372 27.2402 274.277 27.9824 274.277 28.8418ZM297.217 24.9355V36H294.336L293.857 34.623H293.633C293.405 34.9941 293.115 35.2969 292.764 35.5312C292.419 35.7591 292.035 35.9251 291.611 36.0293C291.188 36.14 290.749 36.1953 290.293 36.1953C289.57 36.1953 288.916 36.0553 288.33 35.7754C287.751 35.4954 287.288 35.056 286.943 34.457C286.605 33.8581 286.436 33.0866 286.436 32.1426V24.9355H290.254V30.9805C290.254 31.6966 290.355 32.2435 290.557 32.6211C290.765 32.9922 291.104 33.1777 291.572 33.1777C292.054 33.1777 292.425 33.0475 292.686 32.7871C292.952 32.5267 293.138 32.1426 293.242 31.6348C293.346 31.127 293.398 30.5085 293.398 29.7793V24.9355H297.217ZM303.691 24.9355V36H299.873V24.9355H303.691ZM301.797 20.4824C302.344 20.4824 302.819 20.5964 303.223 20.8242C303.633 21.0521 303.838 21.5046 303.838 22.1816C303.838 22.8392 303.633 23.2852 303.223 23.5195C302.819 23.7474 302.344 23.8613 301.797 23.8613C301.237 23.8613 300.758 23.7474 300.361 23.5195C299.971 23.2852 299.775 22.8392 299.775 22.1816C299.775 21.5046 299.971 21.0521 300.361 20.8242C300.758 20.5964 301.237 20.4824 301.797 20.4824ZM314.678 36H305.518V33.8223L310.098 27.8555H305.781V24.9355H314.463V27.2988L310.078 33.0801H314.678V36Z" fill="black"/>
<path d="M127.014 58.3408C127.014 59.2204 126.695 59.9062 126.057 60.3984C125.419 60.8906 124.553 61.1367 123.459 61.1367C122.274 61.1367 121.363 60.984 120.725 60.6787V59.5576C121.135 59.7308 121.581 59.8675 122.064 59.9678C122.548 60.068 123.026 60.1182 123.5 60.1182C124.275 60.1182 124.858 59.9723 125.25 59.6807C125.642 59.3844 125.838 58.9743 125.838 58.4502C125.838 58.1038 125.767 57.8213 125.626 57.6025C125.489 57.3792 125.257 57.1742 124.929 56.9873C124.605 56.8005 124.111 56.5885 123.445 56.3516C122.516 56.0189 121.85 55.6247 121.449 55.1689C121.053 54.7132 120.854 54.1185 120.854 53.3848C120.854 52.6146 121.144 52.0016 121.723 51.5459C122.301 51.0902 123.067 50.8623 124.02 50.8623C125.013 50.8623 125.927 51.0446 126.761 51.4092L126.398 52.4209C125.574 52.0745 124.771 51.9014 123.992 51.9014C123.377 51.9014 122.896 52.0335 122.55 52.2979C122.203 52.5622 122.03 52.929 122.03 53.3984C122.03 53.7448 122.094 54.0296 122.222 54.2529C122.349 54.4717 122.563 54.6745 122.864 54.8613C123.17 55.0436 123.634 55.2464 124.259 55.4697C125.307 55.8434 126.027 56.2445 126.419 56.6729C126.815 57.1012 127.014 57.6572 127.014 58.3408ZM129.953 53.5078V58.3682C129.953 58.9788 130.092 59.4346 130.37 59.7354C130.648 60.0361 131.083 60.1865 131.676 60.1865C132.46 60.1865 133.032 59.9723 133.392 59.5439C133.756 59.1156 133.938 58.416 133.938 57.4453V53.5078H135.073V61H134.137L133.973 59.9951H133.911C133.679 60.3643 133.355 60.6468 132.94 60.8428C132.53 61.0387 132.061 61.1367 131.532 61.1367C130.621 61.1367 129.937 60.9202 129.481 60.4873C129.03 60.0544 128.805 59.3617 128.805 58.4092V53.5078H129.953ZM142.613 61V56.1533C142.613 55.5426 142.474 55.0869 142.196 54.7861C141.918 54.4854 141.483 54.335 140.891 54.335C140.107 54.335 139.533 54.5469 139.168 54.9707C138.803 55.3945 138.621 56.0941 138.621 57.0693V61H137.486V53.5078H138.409L138.594 54.5332H138.648C138.881 54.1641 139.207 53.8792 139.626 53.6787C140.045 53.4736 140.512 53.3711 141.027 53.3711C141.93 53.3711 142.609 53.5898 143.064 54.0273C143.52 54.4603 143.748 55.1553 143.748 56.1123V61H142.613ZM151.186 59.9951H151.124C150.6 60.7562 149.816 61.1367 148.772 61.1367C147.793 61.1367 147.029 60.8018 146.482 60.1318C145.94 59.4619 145.669 58.5094 145.669 57.2744C145.669 56.0394 145.942 55.0801 146.489 54.3965C147.036 53.7129 147.797 53.3711 148.772 53.3711C149.789 53.3711 150.568 53.7402 151.11 54.4785H151.199L151.151 53.9385L151.124 53.4121V50.3633H152.259V61H151.336L151.186 59.9951ZM148.916 60.1865C149.691 60.1865 150.251 59.9769 150.598 59.5576C150.949 59.1338 151.124 58.4525 151.124 57.5137V57.2744C151.124 56.2126 150.946 55.4561 150.591 55.0049C150.24 54.5492 149.677 54.3213 148.902 54.3213C148.237 54.3213 147.727 54.5811 147.371 55.1006C147.02 55.6156 146.845 56.3447 146.845 57.2881C146.845 58.2451 147.02 58.9674 147.371 59.4551C147.722 59.9427 148.237 60.1865 148.916 60.1865ZM159.279 61L159.054 59.9336H158.999C158.625 60.403 158.252 60.722 157.878 60.8906C157.509 61.0547 157.046 61.1367 156.49 61.1367C155.747 61.1367 155.164 60.9453 154.74 60.5625C154.321 60.1797 154.111 59.6351 154.111 58.9287C154.111 57.4157 155.321 56.6227 157.741 56.5498L159.013 56.5088V56.0439C159.013 55.4561 158.885 55.0231 158.63 54.7451C158.379 54.4626 157.976 54.3213 157.42 54.3213C156.796 54.3213 156.089 54.5127 155.301 54.8955L154.952 54.0273C155.321 53.8268 155.725 53.6696 156.162 53.5557C156.604 53.4417 157.046 53.3848 157.488 53.3848C158.382 53.3848 159.042 53.583 159.471 53.9795C159.904 54.376 160.12 55.0117 160.12 55.8867V61H159.279ZM156.716 60.2002C157.422 60.2002 157.976 60.0065 158.377 59.6191C158.783 59.2318 158.985 58.6895 158.985 57.9922V57.3154L157.851 57.3633C156.948 57.3952 156.297 57.5365 155.896 57.7871C155.499 58.0332 155.301 58.4183 155.301 58.9424C155.301 59.3525 155.424 59.6647 155.67 59.8789C155.921 60.0931 156.269 60.2002 156.716 60.2002ZM161.275 53.5078H162.492L164.133 57.7803C164.493 58.7555 164.716 59.4596 164.803 59.8926H164.857C164.917 59.6602 165.04 59.2637 165.227 58.7031C165.418 58.138 166.038 56.4062 167.086 53.5078H168.303L165.083 62.0391C164.764 62.8822 164.39 63.4792 163.962 63.8301C163.538 64.1855 163.016 64.3633 162.396 64.3633C162.05 64.3633 161.708 64.3245 161.371 64.2471V63.3379C161.622 63.3926 161.902 63.4199 162.212 63.4199C162.991 63.4199 163.547 62.9824 163.88 62.1074L164.297 61.041L161.275 53.5078ZM175.33 50.3633H176.294V64.3906H175.33V50.3633ZM188.188 61H187.081V53.877C187.081 53.2845 187.099 52.724 187.136 52.1953C187.04 52.291 186.933 52.3913 186.814 52.4961C186.696 52.6009 186.154 53.0452 185.188 53.8291L184.586 53.0498L187.231 51.0059H188.188V61ZM198.62 55.9893C198.62 57.7165 198.347 59.0062 197.8 59.8584C197.257 60.7106 196.426 61.1367 195.305 61.1367C194.229 61.1367 193.411 60.7015 192.851 59.8311C192.29 58.9561 192.01 57.6755 192.01 55.9893C192.01 54.2484 192.281 52.9564 192.823 52.1133C193.366 51.2702 194.193 50.8486 195.305 50.8486C196.389 50.8486 197.212 51.2884 197.772 52.168C198.338 53.0475 198.62 54.3213 198.62 55.9893ZM193.158 55.9893C193.158 57.443 193.329 58.5026 193.671 59.168C194.013 59.8288 194.557 60.1592 195.305 60.1592C196.061 60.1592 196.608 59.8242 196.945 59.1543C197.287 58.4798 197.458 57.4248 197.458 55.9893C197.458 54.5537 197.287 53.5033 196.945 52.8379C196.608 52.168 196.061 51.833 195.305 51.833C194.557 51.833 194.013 52.1634 193.671 52.8242C193.329 53.4805 193.158 54.5355 193.158 55.9893ZM200.363 60.2754C200.363 59.9701 200.432 59.7399 200.568 59.585C200.71 59.4255 200.91 59.3457 201.17 59.3457C201.434 59.3457 201.639 59.4255 201.785 59.585C201.936 59.7399 202.011 59.9701 202.011 60.2754C202.011 60.5716 201.936 60.7995 201.785 60.959C201.635 61.1185 201.43 61.1982 201.17 61.1982C200.938 61.1982 200.744 61.1276 200.589 60.9863C200.438 60.8405 200.363 60.6035 200.363 60.2754ZM200.363 54.2393C200.363 53.624 200.632 53.3164 201.17 53.3164C201.73 53.3164 202.011 53.624 202.011 54.2393C202.011 54.5355 201.936 54.7633 201.785 54.9229C201.635 55.0824 201.43 55.1621 201.17 55.1621C200.938 55.1621 200.744 55.0915 200.589 54.9502C200.438 54.8044 200.363 54.5674 200.363 54.2393ZM209.934 53.3574C209.934 53.9954 209.754 54.5173 209.394 54.9229C209.038 55.3285 208.532 55.5996 207.876 55.7363V55.791C208.678 55.8913 209.273 56.1465 209.66 56.5566C210.048 56.9668 210.241 57.5046 210.241 58.1699C210.241 59.1224 209.911 59.8561 209.25 60.3711C208.589 60.8815 207.65 61.1367 206.434 61.1367C205.905 61.1367 205.42 61.0957 204.978 61.0137C204.54 60.9362 204.114 60.7972 203.699 60.5967V59.5166C204.132 59.7308 204.592 59.8949 205.08 60.0088C205.572 60.1182 206.037 60.1729 206.475 60.1729C208.202 60.1729 209.065 59.4961 209.065 58.1426C209.065 56.9303 208.113 56.3242 206.208 56.3242H205.224V55.3467H206.222C207.001 55.3467 207.618 55.1758 208.074 54.834C208.53 54.4876 208.758 54.0091 208.758 53.3984C208.758 52.9108 208.589 52.528 208.252 52.25C207.919 51.972 207.466 51.833 206.892 51.833C206.454 51.833 206.042 51.8923 205.654 52.0107C205.267 52.1292 204.825 52.348 204.328 52.667L203.754 51.9014C204.164 51.5778 204.636 51.3249 205.169 51.1426C205.707 50.9557 206.272 50.8623 206.864 50.8623C207.835 50.8623 208.589 51.0856 209.127 51.5322C209.665 51.9743 209.934 52.5827 209.934 53.3574ZM218.376 55.9893C218.376 57.7165 218.103 59.0062 217.556 59.8584C217.013 60.7106 216.182 61.1367 215.061 61.1367C213.985 61.1367 213.167 60.7015 212.606 59.8311C212.046 58.9561 211.766 57.6755 211.766 55.9893C211.766 54.2484 212.037 52.9564 212.579 52.1133C213.121 51.2702 213.949 50.8486 215.061 50.8486C216.145 50.8486 216.968 51.2884 217.528 52.168C218.093 53.0475 218.376 54.3213 218.376 55.9893ZM212.914 55.9893C212.914 57.443 213.085 58.5026 213.427 59.168C213.769 59.8288 214.313 60.1592 215.061 60.1592C215.817 60.1592 216.364 59.8242 216.701 59.1543C217.043 58.4798 217.214 57.4248 217.214 55.9893C217.214 54.5537 217.043 53.5033 216.701 52.8379C216.364 52.168 215.817 51.833 215.061 51.833C214.313 51.833 213.769 52.1634 213.427 52.8242C213.085 53.4805 212.914 54.5355 212.914 55.9893ZM230.428 53.918C230.428 54.9297 230.081 55.709 229.389 56.2559C228.701 56.7982 227.714 57.0693 226.429 57.0693H225.253V61H224.091V51.0059H226.682C229.179 51.0059 230.428 51.9766 230.428 53.918ZM225.253 56.0713H226.299C227.329 56.0713 228.074 55.9049 228.534 55.5723C228.994 55.2396 229.225 54.7064 229.225 53.9727C229.225 53.3118 229.008 52.8197 228.575 52.4961C228.142 52.1725 227.468 52.0107 226.552 52.0107H225.253V56.0713ZM236.949 61L233.559 52.1406H233.504C233.568 52.8424 233.6 53.6764 233.6 54.6426V61H232.526V51.0059H234.276L237.441 59.25H237.496L240.688 51.0059H242.425V61H241.263V54.5605C241.263 53.8223 241.295 53.0202 241.358 52.1543H241.304L237.886 61H236.949ZM248.01 57.7666V56.7275H251.366V57.7666H248.01ZM260.472 61H259.364V53.877C259.364 53.2845 259.382 52.724 259.419 52.1953C259.323 52.291 259.216 52.3913 259.098 52.4961C258.979 52.6009 258.437 53.0452 257.471 53.8291L256.869 53.0498L259.515 51.0059H260.472V61ZM268.483 61H267.376V53.877C267.376 53.2845 267.394 52.724 267.431 52.1953C267.335 52.291 267.228 52.3913 267.109 52.4961C266.991 52.6009 266.449 53.0452 265.482 53.8291L264.881 53.0498L267.526 51.0059H268.483V61ZM272.646 60.2754C272.646 59.9701 272.715 59.7399 272.852 59.585C272.993 59.4255 273.193 59.3457 273.453 59.3457C273.717 59.3457 273.923 59.4255 274.068 59.585C274.219 59.7399 274.294 59.9701 274.294 60.2754C274.294 60.5716 274.219 60.7995 274.068 60.959C273.918 61.1185 273.713 61.1982 273.453 61.1982C273.221 61.1982 273.027 61.1276 272.872 60.9863C272.722 60.8405 272.646 60.6035 272.646 60.2754ZM272.646 54.2393C272.646 53.624 272.915 53.3164 273.453 53.3164C274.014 53.3164 274.294 53.624 274.294 54.2393C274.294 54.5355 274.219 54.7633 274.068 54.9229C273.918 55.0824 273.713 55.1621 273.453 55.1621C273.221 55.1621 273.027 55.0915 272.872 54.9502C272.722 54.8044 272.646 54.5674 272.646 54.2393ZM282.647 55.9893C282.647 57.7165 282.374 59.0062 281.827 59.8584C281.285 60.7106 280.453 61.1367 279.332 61.1367C278.257 61.1367 277.438 60.7015 276.878 59.8311C276.317 58.9561 276.037 57.6755 276.037 55.9893C276.037 54.2484 276.308 52.9564 276.851 52.1133C277.393 51.2702 278.22 50.8486 279.332 50.8486C280.417 50.8486 281.239 51.2884 281.8 52.168C282.365 53.0475 282.647 54.3213 282.647 55.9893ZM277.186 55.9893C277.186 57.443 277.356 58.5026 277.698 59.168C278.04 59.8288 278.585 60.1592 279.332 60.1592C280.089 60.1592 280.635 59.8242 280.973 59.1543C281.314 58.4798 281.485 57.4248 281.485 55.9893C281.485 54.5537 281.314 53.5033 280.973 52.8379C280.635 52.168 280.089 51.833 279.332 51.833C278.585 51.833 278.04 52.1634 277.698 52.8242C277.356 53.4805 277.186 54.5355 277.186 55.9893ZM290.659 55.9893C290.659 57.7165 290.386 59.0062 289.839 59.8584C289.297 60.7106 288.465 61.1367 287.344 61.1367C286.268 61.1367 285.45 60.7015 284.89 59.8311C284.329 58.9561 284.049 57.6755 284.049 55.9893C284.049 54.2484 284.32 52.9564 284.862 52.1133C285.405 51.2702 286.232 50.8486 287.344 50.8486C288.428 50.8486 289.251 51.2884 289.812 52.168C290.377 53.0475 290.659 54.3213 290.659 55.9893ZM285.197 55.9893C285.197 57.443 285.368 58.5026 285.71 59.168C286.052 59.8288 286.596 60.1592 287.344 60.1592C288.1 60.1592 288.647 59.8242 288.984 59.1543C289.326 58.4798 289.497 57.4248 289.497 55.9893C289.497 54.5537 289.326 53.5033 288.984 52.8379C288.647 52.168 288.1 51.833 287.344 51.833C286.596 51.833 286.052 52.1634 285.71 52.8242C285.368 53.4805 285.197 54.5355 285.197 55.9893ZM302.711 53.918C302.711 54.9297 302.365 55.709 301.672 56.2559C300.984 56.7982 299.997 57.0693 298.712 57.0693H297.536V61H296.374V51.0059H298.965C301.462 51.0059 302.711 51.9766 302.711 53.918ZM297.536 56.0713H298.582C299.612 56.0713 300.357 55.9049 300.817 55.5723C301.278 55.2396 301.508 54.7064 301.508 53.9727C301.508 53.3118 301.291 52.8197 300.858 52.4961C300.425 52.1725 299.751 52.0107 298.835 52.0107H297.536V56.0713ZM309.232 61L305.842 52.1406H305.787C305.851 52.8424 305.883 53.6764 305.883 54.6426V61H304.81V51.0059H306.56L309.725 59.25H309.779L312.972 51.0059H314.708V61H313.546V54.5605C313.546 53.8223 313.578 53.0202 313.642 52.1543H313.587L310.169 61H309.232Z" fill="black"/>
<rect x="64" y="92" width="413" height="80" rx="8" fill="#AA0064"/>
<path d="M101.662 120.559C101.662 122.219 101.353 123.599 100.734 124.699C100.116 125.799 99.2435 126.626 98.1172 127.18C96.9974 127.727 95.679 128 94.1621 128H89.543V113.723H94.4844C96.0208 113.723 97.3229 113.986 98.3906 114.514C99.4583 115.041 100.269 115.812 100.822 116.828C101.382 117.844 101.662 119.087 101.662 120.559ZM97.6582 120.695C97.6582 119.829 97.541 119.113 97.3066 118.547C97.0788 117.974 96.7337 117.548 96.2715 117.268C95.8092 116.981 95.2266 116.838 94.5234 116.838H93.4004V124.836H94.2598C95.4316 124.836 96.291 124.497 96.8379 123.82C97.3848 123.137 97.6582 122.095 97.6582 120.695ZM109.406 116.74C110.806 116.74 111.9 117.089 112.688 117.785C113.475 118.475 113.869 119.462 113.869 120.744V128H111.223L110.49 126.535H110.412C110.1 126.926 109.777 127.245 109.445 127.492C109.12 127.733 108.745 127.909 108.322 128.02C107.899 128.137 107.382 128.195 106.77 128.195C106.132 128.195 105.559 128.065 105.051 127.805C104.543 127.544 104.143 127.15 103.85 126.623C103.557 126.096 103.41 125.428 103.41 124.621C103.41 123.436 103.82 122.557 104.641 121.984C105.461 121.411 106.649 121.089 108.205 121.018L110.051 120.959V120.803C110.051 120.308 109.927 119.956 109.68 119.748C109.439 119.54 109.113 119.436 108.703 119.436C108.267 119.436 107.779 119.514 107.238 119.67C106.704 119.82 106.167 120.015 105.627 120.256L104.523 117.736C105.161 117.411 105.884 117.163 106.691 116.994C107.499 116.825 108.404 116.74 109.406 116.74ZM110.07 123.059L109.191 123.098C108.488 123.124 107.993 123.247 107.707 123.469C107.427 123.684 107.287 123.993 107.287 124.396C107.287 124.774 107.388 125.054 107.59 125.236C107.792 125.412 108.059 125.5 108.391 125.5C108.853 125.5 109.247 125.354 109.572 125.061C109.904 124.768 110.07 124.387 110.07 123.918V123.059ZM120.305 116.936V128H116.486V116.936H120.305ZM118.41 112.482C118.957 112.482 119.432 112.596 119.836 112.824C120.246 113.052 120.451 113.505 120.451 114.182C120.451 114.839 120.246 115.285 119.836 115.52C119.432 115.747 118.957 115.861 118.41 115.861C117.85 115.861 117.372 115.747 116.975 115.52C116.584 115.285 116.389 114.839 116.389 114.182C116.389 113.505 116.584 113.052 116.975 112.824C117.372 112.596 117.85 112.482 118.41 112.482ZM126.789 128H122.971V112.805H126.789V128ZM128.098 116.936H132.121L133.996 123.283C134.022 123.374 134.048 123.488 134.074 123.625C134.1 123.755 134.123 123.895 134.143 124.045C134.162 124.195 134.175 124.341 134.182 124.484H134.26C134.292 124.217 134.328 123.986 134.367 123.791C134.413 123.589 134.455 123.426 134.494 123.303L136.418 116.936H140.314L135.939 128.703C135.601 129.602 135.207 130.354 134.758 130.959C134.315 131.571 133.765 132.03 133.107 132.336C132.456 132.648 131.646 132.805 130.676 132.805C130.324 132.805 130.021 132.785 129.768 132.746C129.52 132.714 129.302 132.678 129.113 132.639V129.641C129.257 129.667 129.432 129.693 129.641 129.719C129.849 129.745 130.067 129.758 130.295 129.758C130.718 129.758 131.06 129.673 131.32 129.504C131.587 129.335 131.805 129.11 131.975 128.83C132.144 128.557 132.29 128.26 132.414 127.941L132.453 127.844L128.098 116.936ZM153.283 128L150.363 117.717H150.275C150.301 117.984 150.327 118.345 150.354 118.801C150.386 119.257 150.415 119.748 150.441 120.275C150.467 120.803 150.48 121.311 150.48 121.799V128H147.062V113.723H152.199L155.178 123.859H155.256L158.176 113.723H163.322V128H159.777V121.74C159.777 121.291 159.784 120.809 159.797 120.295C159.816 119.774 159.836 119.286 159.855 118.83C159.882 118.368 159.904 118.003 159.924 117.736H159.836L156.955 128H153.283ZM171.154 116.74C172.229 116.74 173.156 116.929 173.938 117.307C174.719 117.678 175.321 118.238 175.744 118.986C176.167 119.735 176.379 120.673 176.379 121.799V123.498H169.553C169.585 124.077 169.8 124.553 170.197 124.924C170.601 125.295 171.193 125.48 171.975 125.48C172.665 125.48 173.296 125.412 173.869 125.275C174.449 125.139 175.044 124.927 175.656 124.641V127.385C175.122 127.665 174.54 127.87 173.908 128C173.277 128.13 172.479 128.195 171.516 128.195C170.402 128.195 169.406 127.997 168.527 127.6C167.648 127.202 166.955 126.587 166.447 125.754C165.946 124.921 165.695 123.85 165.695 122.541C165.695 121.213 165.923 120.122 166.379 119.27C166.835 118.41 167.473 117.775 168.293 117.365C169.113 116.949 170.067 116.74 171.154 116.74ZM171.291 119.338C170.842 119.338 170.464 119.481 170.158 119.768C169.859 120.048 169.683 120.49 169.631 121.096H172.912C172.906 120.77 172.84 120.474 172.717 120.207C172.593 119.94 172.411 119.729 172.17 119.572C171.936 119.416 171.643 119.338 171.291 119.338ZM182.316 132.805C180.747 132.805 179.536 132.541 178.684 132.014C177.837 131.493 177.414 130.741 177.414 129.758C177.414 129.1 177.619 128.557 178.029 128.127C178.439 127.697 179.055 127.388 179.875 127.199C179.536 127.056 179.24 126.825 178.986 126.506C178.739 126.187 178.615 125.871 178.615 125.559C178.615 125.214 178.71 124.911 178.898 124.65C179.087 124.383 179.481 124.068 180.08 123.703C179.507 123.449 179.055 123.052 178.723 122.512C178.397 121.971 178.234 121.314 178.234 120.539C178.234 119.738 178.417 119.055 178.781 118.488C179.152 117.922 179.689 117.489 180.393 117.189C181.102 116.89 181.965 116.74 182.98 116.74C183.117 116.74 183.326 116.753 183.605 116.779C183.885 116.799 184.169 116.825 184.455 116.857C184.742 116.883 184.963 116.91 185.119 116.936H188.977V118.781L187.463 119.338C187.567 119.527 187.645 119.732 187.697 119.953C187.749 120.174 187.775 120.409 187.775 120.656C187.775 121.848 187.355 122.772 186.516 123.43C185.682 124.087 184.436 124.416 182.775 124.416C182.365 124.416 182.04 124.39 181.799 124.338C181.753 124.423 181.717 124.507 181.691 124.592C181.672 124.67 181.662 124.745 181.662 124.816C181.662 124.966 181.75 125.087 181.926 125.178C182.108 125.262 182.326 125.321 182.58 125.354C182.84 125.386 183.088 125.402 183.322 125.402H185.158C186.402 125.402 187.333 125.663 187.951 126.184C188.57 126.704 188.879 127.489 188.879 128.537C188.879 129.885 188.303 130.933 187.15 131.682C186.005 132.43 184.393 132.805 182.316 132.805ZM182.502 130.422C182.964 130.422 183.43 130.38 183.898 130.295C184.367 130.217 184.761 130.087 185.08 129.904C185.399 129.722 185.559 129.481 185.559 129.182C185.559 128.954 185.464 128.781 185.275 128.664C185.087 128.553 184.842 128.479 184.543 128.439C184.243 128.4 183.928 128.381 183.596 128.381H182.111C181.838 128.381 181.587 128.423 181.359 128.508C181.138 128.599 180.962 128.719 180.832 128.869C180.702 129.019 180.637 129.188 180.637 129.377C180.637 129.689 180.806 129.94 181.145 130.129C181.483 130.324 181.936 130.422 182.502 130.422ZM183.02 122.258C183.384 122.258 183.664 122.118 183.859 121.838C184.061 121.558 184.162 121.138 184.162 120.578C184.162 120.005 184.068 119.576 183.879 119.289C183.69 119.003 183.404 118.859 183.02 118.859C182.622 118.859 182.326 119.003 182.131 119.289C181.936 119.569 181.838 119.992 181.838 120.559C181.838 121.125 181.936 121.551 182.131 121.838C182.326 122.118 182.622 122.258 183.02 122.258ZM196.066 116.74C197.466 116.74 198.56 117.089 199.348 117.785C200.135 118.475 200.529 119.462 200.529 120.744V128H197.883L197.15 126.535H197.072C196.76 126.926 196.438 127.245 196.105 127.492C195.78 127.733 195.406 127.909 194.982 128.02C194.559 128.137 194.042 128.195 193.43 128.195C192.792 128.195 192.219 128.065 191.711 127.805C191.203 127.544 190.803 127.15 190.51 126.623C190.217 126.096 190.07 125.428 190.07 124.621C190.07 123.436 190.48 122.557 191.301 121.984C192.121 121.411 193.309 121.089 194.865 121.018L196.711 120.959V120.803C196.711 120.308 196.587 119.956 196.34 119.748C196.099 119.54 195.773 119.436 195.363 119.436C194.927 119.436 194.439 119.514 193.898 119.67C193.365 119.82 192.827 120.015 192.287 120.256L191.184 117.736C191.822 117.411 192.544 117.163 193.352 116.994C194.159 116.825 195.064 116.74 196.066 116.74ZM196.73 123.059L195.852 123.098C195.148 123.124 194.654 123.247 194.367 123.469C194.087 123.684 193.947 123.993 193.947 124.396C193.947 124.774 194.048 125.054 194.25 125.236C194.452 125.412 194.719 125.5 195.051 125.5C195.513 125.5 195.907 125.354 196.232 125.061C196.564 124.768 196.73 124.387 196.73 123.918V123.059ZM221.906 120.842C221.906 121.831 221.799 122.749 221.584 123.596C221.376 124.436 221.044 125.178 220.588 125.822C220.139 126.46 219.549 126.981 218.82 127.385L222.307 131.398H217.502L215.1 128.195C215.093 128.195 215.07 128.195 215.031 128.195C214.999 128.195 214.976 128.195 214.963 128.195C213.765 128.195 212.727 128.023 211.848 127.678C210.975 127.326 210.256 126.828 209.689 126.184C209.123 125.533 208.703 124.755 208.43 123.85C208.156 122.945 208.02 121.936 208.02 120.822C208.02 119.338 208.264 118.049 208.752 116.955C209.247 115.855 210.008 115.005 211.037 114.406C212.066 113.801 213.381 113.498 214.982 113.498C216.61 113.498 217.932 113.801 218.947 114.406C219.969 115.012 220.718 115.865 221.193 116.965C221.669 118.065 221.906 119.357 221.906 120.842ZM212.082 120.842C212.082 121.701 212.18 122.44 212.375 123.059C212.57 123.677 212.88 124.152 213.303 124.484C213.726 124.816 214.279 124.982 214.963 124.982C215.673 124.982 216.236 124.816 216.652 124.484C217.076 124.152 217.378 123.677 217.561 123.059C217.749 122.44 217.844 121.701 217.844 120.842C217.844 119.553 217.629 118.534 217.199 117.785C216.77 117.036 216.031 116.662 214.982 116.662C214.286 116.662 213.723 116.831 213.293 117.17C212.87 117.508 212.561 117.99 212.365 118.615C212.176 119.24 212.082 119.982 212.082 120.842ZM235.021 116.936V128H232.141L231.662 126.623H231.438C231.21 126.994 230.92 127.297 230.568 127.531C230.223 127.759 229.839 127.925 229.416 128.029C228.993 128.14 228.553 128.195 228.098 128.195C227.375 128.195 226.721 128.055 226.135 127.775C225.555 127.495 225.093 127.056 224.748 126.457C224.41 125.858 224.24 125.087 224.24 124.143V116.936H228.059V122.98C228.059 123.697 228.16 124.243 228.361 124.621C228.57 124.992 228.908 125.178 229.377 125.178C229.859 125.178 230.23 125.048 230.49 124.787C230.757 124.527 230.943 124.143 231.047 123.635C231.151 123.127 231.203 122.508 231.203 121.779V116.936H235.021ZM241.496 116.936V128H237.678V116.936H241.496ZM239.602 112.482C240.148 112.482 240.624 112.596 241.027 112.824C241.438 113.052 241.643 113.505 241.643 114.182C241.643 114.839 241.438 115.285 241.027 115.52C240.624 115.747 240.148 115.861 239.602 115.861C239.042 115.861 238.563 115.747 238.166 115.52C237.775 115.285 237.58 114.839 237.58 114.182C237.58 113.505 237.775 113.052 238.166 112.824C238.563 112.596 239.042 112.482 239.602 112.482ZM252.482 128H243.322V125.822L247.902 119.855H243.586V116.936H252.268V119.299L247.883 125.08H252.482V128Z" fill="white"/>
<path d="M94.9453 153H89.374V143.006H94.9453V144.038H90.5361V147.258H94.6787V148.283H90.5361V151.961H94.9453V153ZM98.6367 153L95.793 145.508H97.0098L98.623 149.951C98.9876 150.99 99.2018 151.665 99.2656 151.975H99.3203C99.3704 151.733 99.5277 151.234 99.792 150.478C100.061 149.716 100.66 148.06 101.59 145.508H102.807L99.9629 153H98.6367ZM107.175 153.137C106.067 153.137 105.192 152.799 104.55 152.125C103.912 151.451 103.593 150.514 103.593 149.315C103.593 148.108 103.889 147.148 104.481 146.438C105.078 145.727 105.878 145.371 106.881 145.371C107.82 145.371 108.562 145.681 109.109 146.301C109.656 146.916 109.93 147.729 109.93 148.741V149.459H104.769C104.791 150.339 105.012 151.006 105.432 151.462C105.855 151.918 106.45 152.146 107.216 152.146C108.022 152.146 108.82 151.977 109.608 151.64V152.651C109.207 152.825 108.827 152.948 108.467 153.021C108.111 153.098 107.681 153.137 107.175 153.137ZM106.867 146.321C106.266 146.321 105.785 146.517 105.425 146.909C105.069 147.301 104.86 147.843 104.796 148.536H108.713C108.713 147.821 108.553 147.274 108.234 146.896C107.915 146.513 107.46 146.321 106.867 146.321ZM115.289 145.371C115.622 145.371 115.92 145.398 116.185 145.453L116.027 146.506C115.717 146.438 115.444 146.403 115.207 146.403C114.601 146.403 114.081 146.649 113.648 147.142C113.22 147.634 113.006 148.247 113.006 148.98V153H111.871V145.508H112.808L112.938 146.896H112.992C113.27 146.408 113.605 146.032 113.997 145.768C114.389 145.503 114.82 145.371 115.289 145.371ZM116.396 145.508H117.613L119.254 149.78C119.614 150.756 119.837 151.46 119.924 151.893H119.979C120.038 151.66 120.161 151.264 120.348 150.703C120.539 150.138 121.159 148.406 122.207 145.508H123.424L120.204 154.039C119.885 154.882 119.511 155.479 119.083 155.83C118.659 156.186 118.137 156.363 117.518 156.363C117.171 156.363 116.829 156.325 116.492 156.247V155.338C116.743 155.393 117.023 155.42 117.333 155.42C118.112 155.42 118.668 154.982 119.001 154.107L119.418 153.041L116.396 145.508ZM129.74 151.995H129.679C129.155 152.756 128.371 153.137 127.327 153.137C126.347 153.137 125.584 152.802 125.037 152.132C124.495 151.462 124.224 150.509 124.224 149.274C124.224 148.039 124.497 147.08 125.044 146.396C125.591 145.713 126.352 145.371 127.327 145.371C128.343 145.371 129.123 145.74 129.665 146.479H129.754L129.706 145.938L129.679 145.412V142.363H130.813V153H129.891L129.74 151.995ZM127.471 152.187C128.245 152.187 128.806 151.977 129.152 151.558C129.503 151.134 129.679 150.452 129.679 149.514V149.274C129.679 148.213 129.501 147.456 129.146 147.005C128.795 146.549 128.232 146.321 127.457 146.321C126.792 146.321 126.281 146.581 125.926 147.101C125.575 147.616 125.399 148.345 125.399 149.288C125.399 150.245 125.575 150.967 125.926 151.455C126.277 151.943 126.792 152.187 127.471 152.187ZM137.834 153L137.608 151.934H137.554C137.18 152.403 136.806 152.722 136.433 152.891C136.063 153.055 135.601 153.137 135.045 153.137C134.302 153.137 133.719 152.945 133.295 152.562C132.876 152.18 132.666 151.635 132.666 150.929C132.666 149.416 133.876 148.623 136.296 148.55L137.567 148.509V148.044C137.567 147.456 137.44 147.023 137.185 146.745C136.934 146.463 136.531 146.321 135.975 146.321C135.35 146.321 134.644 146.513 133.855 146.896L133.507 146.027C133.876 145.827 134.279 145.67 134.717 145.556C135.159 145.442 135.601 145.385 136.043 145.385C136.936 145.385 137.597 145.583 138.025 145.979C138.458 146.376 138.675 147.012 138.675 147.887V153H137.834ZM135.271 152.2C135.977 152.2 136.531 152.007 136.932 151.619C137.337 151.232 137.54 150.689 137.54 149.992V149.315L136.405 149.363C135.503 149.395 134.851 149.536 134.45 149.787C134.054 150.033 133.855 150.418 133.855 150.942C133.855 151.353 133.979 151.665 134.225 151.879C134.475 152.093 134.824 152.2 135.271 152.2ZM139.83 145.508H141.047L142.688 149.78C143.048 150.756 143.271 151.46 143.357 151.893H143.412C143.471 151.66 143.594 151.264 143.781 150.703C143.973 150.138 144.592 148.406 145.641 145.508H146.857L143.638 154.039C143.319 154.882 142.945 155.479 142.517 155.83C142.093 156.186 141.571 156.363 140.951 156.363C140.605 156.363 140.263 156.325 139.926 156.247V155.338C140.176 155.393 140.457 155.42 140.767 155.42C141.546 155.42 142.102 154.982 142.435 154.107L142.852 153.041L139.83 145.508ZM153.885 142.363H154.849V156.391H153.885V142.363ZM166.743 153H165.636V145.877C165.636 145.285 165.654 144.724 165.69 144.195C165.595 144.291 165.488 144.391 165.369 144.496C165.251 144.601 164.708 145.045 163.742 145.829L163.141 145.05L165.786 143.006H166.743V153ZM177.175 147.989C177.175 149.716 176.901 151.006 176.354 151.858C175.812 152.711 174.98 153.137 173.859 153.137C172.784 153.137 171.966 152.701 171.405 151.831C170.845 150.956 170.564 149.675 170.564 147.989C170.564 146.248 170.836 144.956 171.378 144.113C171.92 143.27 172.747 142.849 173.859 142.849C174.944 142.849 175.767 143.288 176.327 144.168C176.892 145.048 177.175 146.321 177.175 147.989ZM171.713 147.989C171.713 149.443 171.884 150.503 172.226 151.168C172.567 151.829 173.112 152.159 173.859 152.159C174.616 152.159 175.163 151.824 175.5 151.154C175.842 150.48 176.013 149.425 176.013 147.989C176.013 146.554 175.842 145.503 175.5 144.838C175.163 144.168 174.616 143.833 173.859 143.833C173.112 143.833 172.567 144.163 172.226 144.824C171.884 145.48 171.713 146.535 171.713 147.989ZM178.918 152.275C178.918 151.97 178.986 151.74 179.123 151.585C179.264 151.425 179.465 151.346 179.725 151.346C179.989 151.346 180.194 151.425 180.34 151.585C180.49 151.74 180.565 151.97 180.565 152.275C180.565 152.572 180.49 152.799 180.34 152.959C180.189 153.118 179.984 153.198 179.725 153.198C179.492 153.198 179.299 153.128 179.144 152.986C178.993 152.84 178.918 152.604 178.918 152.275ZM178.918 146.239C178.918 145.624 179.187 145.316 179.725 145.316C180.285 145.316 180.565 145.624 180.565 146.239C180.565 146.535 180.49 146.763 180.34 146.923C180.189 147.082 179.984 147.162 179.725 147.162C179.492 147.162 179.299 147.091 179.144 146.95C178.993 146.804 178.918 146.567 178.918 146.239ZM188.919 147.989C188.919 149.716 188.646 151.006 188.099 151.858C187.556 152.711 186.725 153.137 185.604 153.137C184.528 153.137 183.71 152.701 183.149 151.831C182.589 150.956 182.309 149.675 182.309 147.989C182.309 146.248 182.58 144.956 183.122 144.113C183.664 143.27 184.492 142.849 185.604 142.849C186.688 142.849 187.511 143.288 188.071 144.168C188.636 145.048 188.919 146.321 188.919 147.989ZM183.457 147.989C183.457 149.443 183.628 150.503 183.97 151.168C184.312 151.829 184.856 152.159 185.604 152.159C186.36 152.159 186.907 151.824 187.244 151.154C187.586 150.48 187.757 149.425 187.757 147.989C187.757 146.554 187.586 145.503 187.244 144.838C186.907 144.168 186.36 143.833 185.604 143.833C184.856 143.833 184.312 144.163 183.97 144.824C183.628 145.48 183.457 146.535 183.457 147.989ZM196.931 147.989C196.931 149.716 196.657 151.006 196.11 151.858C195.568 152.711 194.736 153.137 193.615 153.137C192.54 153.137 191.722 152.701 191.161 151.831C190.601 150.956 190.32 149.675 190.32 147.989C190.32 146.248 190.591 144.956 191.134 144.113C191.676 143.27 192.503 142.849 193.615 142.849C194.7 142.849 195.522 143.288 196.083 144.168C196.648 145.048 196.931 146.321 196.931 147.989ZM191.469 147.989C191.469 149.443 191.64 150.503 191.981 151.168C192.323 151.829 192.868 152.159 193.615 152.159C194.372 152.159 194.919 151.824 195.256 151.154C195.598 150.48 195.769 149.425 195.769 147.989C195.769 146.554 195.598 145.503 195.256 144.838C194.919 144.168 194.372 143.833 193.615 143.833C192.868 143.833 192.323 144.163 191.981 144.824C191.64 145.48 191.469 146.535 191.469 147.989ZM208.982 145.918C208.982 146.93 208.636 147.709 207.943 148.256C207.255 148.798 206.269 149.069 204.983 149.069H203.808V153H202.646V143.006H205.236C207.734 143.006 208.982 143.977 208.982 145.918ZM203.808 148.071H204.854C205.883 148.071 206.629 147.905 207.089 147.572C207.549 147.24 207.779 146.706 207.779 145.973C207.779 145.312 207.563 144.82 207.13 144.496C206.697 144.173 206.022 144.011 205.106 144.011H203.808V148.071ZM215.504 153L212.113 144.141H212.059C212.122 144.842 212.154 145.676 212.154 146.643V153H211.081V143.006H212.831L215.996 151.25H216.051L219.243 143.006H220.979V153H219.817V146.561C219.817 145.822 219.849 145.02 219.913 144.154H219.858L216.44 153H215.504ZM226.564 149.767V148.728H229.921V149.767H226.564ZM239.026 153H237.919V145.877C237.919 145.285 237.937 144.724 237.974 144.195C237.878 144.291 237.771 144.391 237.652 144.496C237.534 144.601 236.992 145.045 236.025 145.829L235.424 145.05L238.069 143.006H239.026V153ZM249.458 147.989C249.458 149.716 249.185 151.006 248.638 151.858C248.095 152.711 247.264 153.137 246.143 153.137C245.067 153.137 244.249 152.701 243.688 151.831C243.128 150.956 242.848 149.675 242.848 147.989C242.848 146.248 243.119 144.956 243.661 144.113C244.203 143.27 245.031 142.849 246.143 142.849C247.227 142.849 248.05 143.288 248.61 144.168C249.175 145.048 249.458 146.321 249.458 147.989ZM243.996 147.989C243.996 149.443 244.167 150.503 244.509 151.168C244.851 151.829 245.395 152.159 246.143 152.159C246.899 152.159 247.446 151.824 247.783 151.154C248.125 150.48 248.296 149.425 248.296 147.989C248.296 146.554 248.125 145.503 247.783 144.838C247.446 144.168 246.899 143.833 246.143 143.833C245.395 143.833 244.851 144.163 244.509 144.824C244.167 145.48 243.996 146.535 243.996 147.989ZM251.201 152.275C251.201 151.97 251.27 151.74 251.406 151.585C251.548 151.425 251.748 151.346 252.008 151.346C252.272 151.346 252.477 151.425 252.623 151.585C252.773 151.74 252.849 151.97 252.849 152.275C252.849 152.572 252.773 152.799 252.623 152.959C252.473 153.118 252.268 153.198 252.008 153.198C251.775 153.198 251.582 153.128 251.427 152.986C251.276 152.84 251.201 152.604 251.201 152.275ZM251.201 146.239C251.201 145.624 251.47 145.316 252.008 145.316C252.568 145.316 252.849 145.624 252.849 146.239C252.849 146.535 252.773 146.763 252.623 146.923C252.473 147.082 252.268 147.162 252.008 147.162C251.775 147.162 251.582 147.091 251.427 146.95C251.276 146.804 251.201 146.567 251.201 146.239ZM260.771 145.357C260.771 145.995 260.591 146.517 260.231 146.923C259.876 147.328 259.37 147.6 258.714 147.736V147.791C259.516 147.891 260.111 148.146 260.498 148.557C260.885 148.967 261.079 149.505 261.079 150.17C261.079 151.122 260.749 151.856 260.088 152.371C259.427 152.882 258.488 153.137 257.271 153.137C256.743 153.137 256.257 153.096 255.815 153.014C255.378 152.936 254.952 152.797 254.537 152.597V151.517C254.97 151.731 255.43 151.895 255.918 152.009C256.41 152.118 256.875 152.173 257.312 152.173C259.04 152.173 259.903 151.496 259.903 150.143C259.903 148.93 258.951 148.324 257.046 148.324H256.062V147.347H257.06C257.839 147.347 258.456 147.176 258.912 146.834C259.368 146.488 259.596 146.009 259.596 145.398C259.596 144.911 259.427 144.528 259.09 144.25C258.757 143.972 258.304 143.833 257.729 143.833C257.292 143.833 256.88 143.892 256.492 144.011C256.105 144.129 255.663 144.348 255.166 144.667L254.592 143.901C255.002 143.578 255.474 143.325 256.007 143.143C256.545 142.956 257.11 142.862 257.702 142.862C258.673 142.862 259.427 143.086 259.965 143.532C260.503 143.974 260.771 144.583 260.771 145.357ZM269.214 147.989C269.214 149.716 268.94 151.006 268.394 151.858C267.851 152.711 267.02 153.137 265.898 153.137C264.823 153.137 264.005 152.701 263.444 151.831C262.884 150.956 262.604 149.675 262.604 147.989C262.604 146.248 262.875 144.956 263.417 144.113C263.959 143.27 264.786 142.849 265.898 142.849C266.983 142.849 267.806 143.288 268.366 144.168C268.931 145.048 269.214 146.321 269.214 147.989ZM263.752 147.989C263.752 149.443 263.923 150.503 264.265 151.168C264.606 151.829 265.151 152.159 265.898 152.159C266.655 152.159 267.202 151.824 267.539 151.154C267.881 150.48 268.052 149.425 268.052 147.989C268.052 146.554 267.881 145.503 267.539 144.838C267.202 144.168 266.655 143.833 265.898 143.833C265.151 143.833 264.606 144.163 264.265 144.824C263.923 145.48 263.752 146.535 263.752 147.989ZM281.266 145.918C281.266 146.93 280.919 147.709 280.227 148.256C279.538 148.798 278.552 149.069 277.267 149.069H276.091V153H274.929V143.006H277.52C280.017 143.006 281.266 143.977 281.266 145.918ZM276.091 148.071H277.137C278.167 148.071 278.912 147.905 279.372 147.572C279.832 147.24 280.062 146.706 280.062 145.973C280.062 145.312 279.846 144.82 279.413 144.496C278.98 144.173 278.306 144.011 277.39 144.011H276.091V148.071ZM287.787 153L284.396 144.141H284.342C284.406 144.842 284.438 145.676 284.438 146.643V153H283.364V143.006H285.114L288.279 151.25H288.334L291.526 143.006H293.263V153H292.101V146.561C292.101 145.822 292.132 145.02 292.196 144.154H292.142L288.724 153H287.787Z" fill="white"/>
<rect x="32" y="184" width="413" height="80" rx="8" fill="#5A2DBC"/>
<path d="M76.4785 205.723L72.9629 220H68.4023L67.0352 213.779C67.0091 213.662 66.9668 213.464 66.9082 213.184C66.8561 212.904 66.7943 212.585 66.7227 212.227C66.6576 211.868 66.5957 211.517 66.5371 211.172C66.485 210.82 66.446 210.524 66.4199 210.283C66.3939 210.524 66.3516 210.82 66.293 211.172C66.2344 211.517 66.1693 211.868 66.0977 212.227C66.0326 212.585 65.9674 212.904 65.9023 213.184C65.8438 213.464 65.8014 213.662 65.7754 213.779L64.3984 220H59.8379L56.3027 205.723H60.0234L61.5762 212.881C61.6152 213.057 61.6673 213.307 61.7324 213.633C61.804 213.952 61.8757 214.303 61.9473 214.688C62.0254 215.065 62.097 215.43 62.1621 215.781C62.2272 216.133 62.2728 216.426 62.2988 216.66C62.3509 216.257 62.4193 215.798 62.5039 215.283C62.5951 214.769 62.6927 214.248 62.7969 213.721C62.9076 213.187 63.0117 212.692 63.1094 212.236C63.207 211.781 63.2917 211.41 63.3633 211.123L64.623 205.723H68.1973L69.418 211.123C69.4831 211.403 69.5645 211.774 69.6621 212.236C69.7663 212.692 69.8704 213.187 69.9746 213.721C70.0853 214.255 70.1862 214.782 70.2773 215.303C70.3685 215.817 70.4368 216.27 70.4824 216.66C70.5215 216.335 70.5866 215.924 70.6777 215.43C70.7689 214.928 70.86 214.443 70.9512 213.975C71.0488 213.499 71.1237 213.141 71.1758 212.9L72.7578 205.723H76.4785ZM83.5 208.74C84.8997 208.74 85.9935 209.089 86.7812 209.785C87.569 210.475 87.9629 211.462 87.9629 212.744V220H85.3164L84.584 218.535H84.5059C84.1934 218.926 83.8711 219.245 83.5391 219.492C83.2135 219.733 82.8392 219.909 82.416 220.02C81.9928 220.137 81.4753 220.195 80.8633 220.195C80.2253 220.195 79.6523 220.065 79.1445 219.805C78.6367 219.544 78.2363 219.15 77.9434 218.623C77.6504 218.096 77.5039 217.428 77.5039 216.621C77.5039 215.436 77.9141 214.557 78.7344 213.984C79.5547 213.411 80.7428 213.089 82.2988 213.018L84.1445 212.959V212.803C84.1445 212.308 84.0208 211.956 83.7734 211.748C83.5326 211.54 83.207 211.436 82.7969 211.436C82.3607 211.436 81.8724 211.514 81.332 211.67C80.7982 211.82 80.2611 212.015 79.7207 212.256L78.6172 209.736C79.2552 209.411 79.9779 209.163 80.7852 208.994C81.5924 208.825 82.4974 208.74 83.5 208.74ZM84.1641 215.059L83.2852 215.098C82.582 215.124 82.0872 215.247 81.8008 215.469C81.5208 215.684 81.3809 215.993 81.3809 216.396C81.3809 216.774 81.4818 217.054 81.6836 217.236C81.8854 217.412 82.1523 217.5 82.4844 217.5C82.9466 217.5 83.3405 217.354 83.666 217.061C83.998 216.768 84.1641 216.387 84.1641 215.918V215.059ZM97.2402 208.74C97.4486 208.74 97.6667 208.757 97.8945 208.789C98.1224 208.815 98.2917 208.838 98.4023 208.857L98.0605 212.461C97.9368 212.428 97.7773 212.402 97.582 212.383C97.3867 212.357 97.1133 212.344 96.7617 212.344C96.5208 212.344 96.2637 212.367 95.9902 212.412C95.7168 212.458 95.4564 212.555 95.209 212.705C94.9681 212.848 94.7695 213.07 94.6133 213.369C94.457 213.662 94.3789 214.059 94.3789 214.561V220H90.5605V208.936H93.4023L93.998 210.703H94.1836C94.3854 210.339 94.6426 210.01 94.9551 209.717C95.2741 209.417 95.6289 209.18 96.0195 209.004C96.4167 208.828 96.8236 208.74 97.2402 208.74ZM113.461 208.74C114.724 208.74 115.688 209.062 116.352 209.707C117.022 210.352 117.357 211.383 117.357 212.803V220H113.539V213.984C113.539 213.145 113.425 212.562 113.197 212.236C112.976 211.904 112.644 211.738 112.201 211.738C111.583 211.738 111.153 212.008 110.912 212.549C110.678 213.089 110.561 213.854 110.561 214.844V220H106.732V213.984C106.732 213.451 106.684 213.021 106.586 212.695C106.495 212.363 106.355 212.122 106.166 211.973C105.977 211.816 105.74 211.738 105.453 211.738C105.017 211.738 104.675 211.872 104.428 212.139C104.187 212.399 104.018 212.783 103.92 213.291C103.822 213.799 103.773 214.421 103.773 215.156V220H99.9551V208.936H102.836L103.393 210.303H103.5C103.695 210.003 103.946 209.736 104.252 209.502C104.564 209.268 104.932 209.082 105.355 208.945C105.785 208.809 106.273 208.74 106.82 208.74C107.634 208.74 108.305 208.877 108.832 209.15C109.359 209.424 109.789 209.801 110.121 210.283H110.238C110.59 209.788 111.042 209.408 111.596 209.141C112.149 208.874 112.771 208.74 113.461 208.74ZM130.717 208.936V220H127.836L127.357 218.623H127.133C126.905 218.994 126.615 219.297 126.264 219.531C125.919 219.759 125.535 219.925 125.111 220.029C124.688 220.14 124.249 220.195 123.793 220.195C123.07 220.195 122.416 220.055 121.83 219.775C121.251 219.495 120.788 219.056 120.443 218.457C120.105 217.858 119.936 217.087 119.936 216.143V208.936H123.754V214.98C123.754 215.697 123.855 216.243 124.057 216.621C124.265 216.992 124.604 217.178 125.072 217.178C125.554 217.178 125.925 217.048 126.186 216.787C126.452 216.527 126.638 216.143 126.742 215.635C126.846 215.127 126.898 214.508 126.898 213.779V208.936H130.717ZM140.111 208.74C141.335 208.74 142.296 209.232 142.992 210.215C143.689 211.191 144.037 212.601 144.037 214.443C144.037 215.7 143.861 216.758 143.51 217.617C143.158 218.47 142.676 219.115 142.064 219.551C141.459 219.98 140.769 220.195 139.994 220.195C139.473 220.195 139.031 220.13 138.666 220C138.308 219.87 138.008 219.707 137.768 219.512C137.533 219.316 137.335 219.118 137.172 218.916H137.055C137.087 219.17 137.113 219.443 137.133 219.736C137.159 220.029 137.172 220.371 137.172 220.762V224.805H133.354V208.936H136.459L136.996 210.342H137.172C137.354 210.055 137.576 209.792 137.836 209.551C138.096 209.303 138.412 209.108 138.783 208.965C139.161 208.815 139.604 208.74 140.111 208.74ZM138.676 211.738C138.305 211.738 138.012 211.826 137.797 212.002C137.582 212.178 137.426 212.445 137.328 212.803C137.237 213.154 137.185 213.594 137.172 214.121V214.424C137.172 215.01 137.217 215.505 137.309 215.908C137.4 216.305 137.556 216.608 137.777 216.816C137.999 217.018 138.305 217.119 138.695 217.119C139.014 217.119 139.281 217.028 139.496 216.846C139.711 216.663 139.874 216.374 139.984 215.977C140.095 215.579 140.15 215.055 140.15 214.404C140.15 213.434 140.023 212.747 139.77 212.344C139.522 211.94 139.158 211.738 138.676 211.738ZM165.004 212.842C165.004 213.831 164.896 214.749 164.682 215.596C164.473 216.436 164.141 217.178 163.686 217.822C163.236 218.46 162.647 218.981 161.918 219.385L165.404 223.398H160.6L158.197 220.195C158.191 220.195 158.168 220.195 158.129 220.195C158.096 220.195 158.074 220.195 158.061 220.195C156.863 220.195 155.824 220.023 154.945 219.678C154.073 219.326 153.354 218.828 152.787 218.184C152.221 217.533 151.801 216.755 151.527 215.85C151.254 214.945 151.117 213.936 151.117 212.822C151.117 211.338 151.361 210.049 151.85 208.955C152.344 207.855 153.106 207.005 154.135 206.406C155.163 205.801 156.479 205.498 158.08 205.498C159.708 205.498 161.029 205.801 162.045 206.406C163.067 207.012 163.816 207.865 164.291 208.965C164.766 210.065 165.004 211.357 165.004 212.842ZM155.18 212.842C155.18 213.701 155.277 214.44 155.473 215.059C155.668 215.677 155.977 216.152 156.4 216.484C156.824 216.816 157.377 216.982 158.061 216.982C158.77 216.982 159.333 216.816 159.75 216.484C160.173 216.152 160.476 215.677 160.658 215.059C160.847 214.44 160.941 213.701 160.941 212.842C160.941 211.553 160.727 210.534 160.297 209.785C159.867 209.036 159.128 208.662 158.08 208.662C157.383 208.662 156.82 208.831 156.391 209.17C155.967 209.508 155.658 209.99 155.463 210.615C155.274 211.24 155.18 211.982 155.18 212.842ZM178.119 208.936V220H175.238L174.76 218.623H174.535C174.307 218.994 174.018 219.297 173.666 219.531C173.321 219.759 172.937 219.925 172.514 220.029C172.09 220.14 171.651 220.195 171.195 220.195C170.473 220.195 169.818 220.055 169.232 219.775C168.653 219.495 168.191 219.056 167.846 218.457C167.507 217.858 167.338 217.087 167.338 216.143V208.936H171.156V214.98C171.156 215.697 171.257 216.243 171.459 216.621C171.667 216.992 172.006 217.178 172.475 217.178C172.956 217.178 173.327 217.048 173.588 216.787C173.855 216.527 174.04 216.143 174.145 215.635C174.249 215.127 174.301 214.508 174.301 213.779V208.936H178.119ZM184.594 208.936V220H180.775V208.936H184.594ZM182.699 204.482C183.246 204.482 183.721 204.596 184.125 204.824C184.535 205.052 184.74 205.505 184.74 206.182C184.74 206.839 184.535 207.285 184.125 207.52C183.721 207.747 183.246 207.861 182.699 207.861C182.139 207.861 181.661 207.747 181.264 207.52C180.873 207.285 180.678 206.839 180.678 206.182C180.678 205.505 180.873 205.052 181.264 204.824C181.661 204.596 182.139 204.482 182.699 204.482ZM195.58 220H186.42V217.822L191 211.855H186.684V208.936H195.365V211.299L190.98 217.08H195.58V220Z" fill="white"/>
<path d="M62.9316 245H57.3672V235.006H62.9316V236.031H58.5293V239.265H62.6787V240.276H58.5293V243.975H62.9316V245ZM66.623 245L63.7793 237.508H64.9961L66.6436 242.04C66.7575 242.35 66.8737 242.692 66.9922 243.065C67.1107 243.439 67.1927 243.74 67.2383 243.968H67.2861C67.3408 243.74 67.432 243.439 67.5596 243.065C67.6872 242.687 67.8034 242.345 67.9082 242.04L69.5557 237.508H70.7725L67.9219 245H66.623ZM74.8604 237.371C75.4984 237.371 76.0452 237.512 76.501 237.795C76.9567 238.077 77.3053 238.474 77.5469 238.984C77.7884 239.49 77.9092 240.083 77.9092 240.762V241.466H72.7344C72.748 242.345 72.9668 243.015 73.3906 243.476C73.8145 243.936 74.4115 244.166 75.1816 244.166C75.6556 244.166 76.0749 244.123 76.4395 244.036C76.804 243.95 77.1823 243.822 77.5742 243.653V244.651C77.196 244.82 76.82 244.943 76.4463 245.021C76.0771 245.098 75.6396 245.137 75.1338 245.137C74.4137 245.137 73.7848 244.991 73.2471 244.699C72.7139 244.403 72.2992 243.97 72.0029 243.4C71.7067 242.831 71.5586 242.133 71.5586 241.309C71.5586 240.502 71.693 239.805 71.9619 239.217C72.2354 238.624 72.6182 238.169 73.1104 237.85C73.6071 237.531 74.1904 237.371 74.8604 237.371ZM74.8467 238.301C74.2406 238.301 73.7575 238.499 73.3975 238.896C73.0374 239.292 72.8232 239.846 72.7549 240.557H76.7197C76.7152 240.11 76.6445 239.718 76.5078 239.381C76.3757 239.039 76.1729 238.775 75.8994 238.588C75.626 238.396 75.2751 238.301 74.8467 238.301ZM83.2412 237.371C83.3916 237.371 83.5488 237.38 83.7129 237.398C83.877 237.412 84.0228 237.433 84.1504 237.46L84.0068 238.513C83.8838 238.481 83.7471 238.456 83.5967 238.438C83.4463 238.419 83.305 238.41 83.1729 238.41C82.8721 238.41 82.5872 238.472 82.3184 238.595C82.054 238.713 81.8216 238.886 81.6211 239.114C81.4206 239.338 81.2633 239.609 81.1494 239.928C81.0355 240.242 80.9785 240.593 80.9785 240.98V245H79.8369V237.508H80.7803L80.9033 238.889H80.9512C81.1061 238.611 81.293 238.358 81.5117 238.13C81.7305 237.897 81.9834 237.713 82.2705 237.576C82.5622 237.439 82.8857 237.371 83.2412 237.371ZM84.3828 237.508H85.5996L87.2539 241.855C87.3496 242.111 87.4385 242.357 87.5205 242.594C87.6025 242.826 87.6755 243.049 87.7393 243.264C87.8031 243.478 87.8532 243.685 87.8896 243.886H87.9375C88.0013 243.658 88.0924 243.359 88.2109 242.99C88.3294 242.617 88.457 242.236 88.5938 241.849L90.1592 237.508H91.3828L88.1221 246.101C87.9489 246.561 87.7461 246.962 87.5137 247.304C87.2858 247.646 87.0078 247.908 86.6797 248.09C86.3516 248.277 85.9551 248.37 85.4902 248.37C85.276 248.37 85.0869 248.356 84.9229 248.329C84.7588 248.306 84.6175 248.279 84.499 248.247V247.338C84.5993 247.361 84.7201 247.381 84.8613 247.399C85.0072 247.418 85.1576 247.427 85.3125 247.427C85.5951 247.427 85.8389 247.372 86.0439 247.263C86.2536 247.158 86.4336 247.003 86.584 246.798C86.7344 246.593 86.8643 246.349 86.9736 246.066L87.3838 245.014L84.3828 237.508ZM95.2451 245.137C94.2972 245.137 93.5452 244.813 92.9893 244.166C92.4378 243.519 92.1621 242.557 92.1621 241.281C92.1621 239.992 92.4447 239.019 93.0098 238.362C93.5749 237.701 94.3268 237.371 95.2656 237.371C95.6621 237.371 96.0085 237.424 96.3047 237.528C96.6009 237.633 96.8561 237.774 97.0703 237.952C97.2845 238.125 97.4645 238.324 97.6104 238.547H97.6924C97.6742 238.406 97.6559 238.212 97.6377 237.966C97.6195 237.72 97.6104 237.519 97.6104 237.364V234.363H98.7451V245H97.8291L97.6582 243.934H97.6104C97.4691 244.157 97.2891 244.36 97.0703 244.542C96.8561 244.724 96.5986 244.87 96.2979 244.979C96.0016 245.084 95.6507 245.137 95.2451 245.137ZM95.4229 244.193C96.2249 244.193 96.7923 243.965 97.125 243.51C97.4577 243.054 97.624 242.377 97.624 241.479V241.274C97.624 240.322 97.4645 239.59 97.1455 239.08C96.8311 238.57 96.2568 238.314 95.4229 238.314C94.7256 238.314 94.2038 238.583 93.8574 239.121C93.5111 239.654 93.3379 240.383 93.3379 241.309C93.3379 242.229 93.5088 242.94 93.8506 243.441C94.1969 243.943 94.721 244.193 95.4229 244.193ZM103.954 237.385C104.847 237.385 105.51 237.585 105.943 237.986C106.376 238.387 106.593 239.028 106.593 239.907V245H105.766L105.547 243.893H105.492C105.283 244.166 105.064 244.396 104.836 244.583C104.608 244.765 104.344 244.904 104.043 245C103.747 245.091 103.382 245.137 102.949 245.137C102.493 245.137 102.088 245.057 101.732 244.897C101.382 244.738 101.104 244.496 100.898 244.173C100.698 243.849 100.598 243.439 100.598 242.942C100.598 242.195 100.894 241.621 101.486 241.22C102.079 240.819 102.981 240.6 104.193 240.563L105.485 240.509V240.051C105.485 239.404 105.346 238.95 105.068 238.69C104.79 238.431 104.398 238.301 103.893 238.301C103.501 238.301 103.127 238.358 102.771 238.472C102.416 238.586 102.079 238.72 101.76 238.875L101.411 238.014C101.748 237.84 102.136 237.692 102.573 237.569C103.011 237.446 103.471 237.385 103.954 237.385ZM105.472 241.309L104.33 241.356C103.396 241.393 102.737 241.546 102.354 241.814C101.972 242.083 101.78 242.464 101.78 242.956C101.78 243.384 101.91 243.701 102.17 243.906C102.43 244.111 102.774 244.214 103.202 244.214C103.868 244.214 104.412 244.029 104.836 243.66C105.26 243.291 105.472 242.737 105.472 241.999V241.309ZM107.748 237.508H108.965L110.619 241.855C110.715 242.111 110.804 242.357 110.886 242.594C110.968 242.826 111.041 243.049 111.104 243.264C111.168 243.478 111.218 243.685 111.255 243.886H111.303C111.367 243.658 111.458 243.359 111.576 242.99C111.695 242.617 111.822 242.236 111.959 241.849L113.524 237.508H114.748L111.487 246.101C111.314 246.561 111.111 246.962 110.879 247.304C110.651 247.646 110.373 247.908 110.045 248.09C109.717 248.277 109.32 248.37 108.855 248.37C108.641 248.37 108.452 248.356 108.288 248.329C108.124 248.306 107.983 248.279 107.864 248.247V247.338C107.965 247.361 108.085 247.381 108.227 247.399C108.372 247.418 108.523 247.427 108.678 247.427C108.96 247.427 109.204 247.372 109.409 247.263C109.619 247.158 109.799 247.003 109.949 246.798C110.1 246.593 110.229 246.349 110.339 246.066L110.749 245.014L107.748 237.508ZM121.748 234.356H122.698V248.391H121.748V234.356ZM136.972 239.265C136.972 239.871 136.928 240.461 136.842 241.035C136.76 241.609 136.616 242.145 136.411 242.642C136.211 243.138 135.937 243.574 135.591 243.947C135.244 244.321 134.809 244.615 134.285 244.829C133.766 245.039 133.144 245.144 132.419 245.144C132.223 245.144 132 245.13 131.749 245.103C131.498 245.08 131.293 245.046 131.134 245V244.016C131.302 244.075 131.501 244.123 131.729 244.159C131.956 244.191 132.18 244.207 132.398 244.207C133.251 244.207 133.921 244.025 134.408 243.66C134.896 243.291 135.247 242.792 135.461 242.163C135.675 241.53 135.796 240.819 135.823 240.03H135.741C135.604 240.249 135.424 240.452 135.201 240.639C134.982 240.821 134.716 240.969 134.401 241.083C134.087 241.192 133.72 241.247 133.301 241.247C132.722 241.247 132.216 241.129 131.783 240.892C131.355 240.655 131.02 240.311 130.778 239.859C130.541 239.408 130.423 238.864 130.423 238.226C130.423 237.537 130.553 236.943 130.812 236.441C131.077 235.936 131.446 235.546 131.92 235.272C132.394 234.999 132.952 234.862 133.595 234.862C134.087 234.862 134.538 234.956 134.948 235.143C135.358 235.329 135.714 235.61 136.015 235.983C136.32 236.353 136.555 236.811 136.719 237.357C136.887 237.904 136.972 238.54 136.972 239.265ZM133.595 235.826C132.989 235.826 132.496 236.024 132.118 236.421C131.744 236.817 131.558 237.414 131.558 238.212C131.558 238.873 131.719 239.395 132.043 239.777C132.367 240.16 132.866 240.352 133.54 240.352C134.005 240.352 134.406 240.258 134.743 240.071C135.085 239.884 135.347 239.647 135.529 239.36C135.716 239.073 135.81 238.779 135.81 238.479C135.81 238.178 135.764 237.872 135.673 237.562C135.586 237.253 135.452 236.968 135.27 236.708C135.087 236.444 134.857 236.232 134.579 236.072C134.301 235.908 133.973 235.826 133.595 235.826ZM138.756 244.289C138.756 243.97 138.833 243.744 138.988 243.612C139.143 243.476 139.332 243.407 139.556 243.407C139.788 243.407 139.984 243.476 140.144 243.612C140.303 243.744 140.383 243.97 140.383 244.289C140.383 244.604 140.303 244.834 140.144 244.979C139.984 245.121 139.788 245.191 139.556 245.191C139.332 245.191 139.143 245.121 138.988 244.979C138.833 244.834 138.756 244.604 138.756 244.289ZM138.756 238.226C138.756 237.897 138.833 237.667 138.988 237.535C139.143 237.398 139.332 237.33 139.556 237.33C139.788 237.33 139.984 237.398 140.144 237.535C140.303 237.667 140.383 237.897 140.383 238.226C140.383 238.535 140.303 238.761 140.144 238.902C139.984 239.044 139.788 239.114 139.556 239.114C139.332 239.114 139.143 239.044 138.988 238.902C138.833 238.761 138.756 238.535 138.756 238.226ZM149.146 242.683H147.649V245H146.542V242.683H141.709V241.726L146.467 234.951H147.649V241.657H149.146V242.683ZM146.542 241.657V238.39C146.542 238.139 146.544 237.913 146.549 237.713C146.553 237.508 146.56 237.319 146.569 237.146C146.578 236.968 146.585 236.799 146.59 236.64C146.599 236.48 146.606 236.323 146.61 236.168H146.556C146.469 236.35 146.369 236.544 146.255 236.749C146.146 236.95 146.034 237.13 145.92 237.289L142.837 241.657H146.542ZM156.714 239.989C156.714 240.8 156.652 241.525 156.529 242.163C156.406 242.801 156.213 243.341 155.948 243.783C155.684 244.225 155.342 244.562 154.923 244.795C154.504 245.023 154 245.137 153.412 245.137C152.669 245.137 152.054 244.934 151.566 244.528C151.083 244.123 150.721 243.537 150.479 242.771C150.243 242.001 150.124 241.074 150.124 239.989C150.124 238.923 150.231 238.007 150.445 237.241C150.664 236.471 151.015 235.881 151.498 235.471C151.981 235.056 152.619 234.849 153.412 234.849C154.164 234.849 154.784 235.054 155.271 235.464C155.759 235.869 156.121 236.457 156.358 237.228C156.595 237.993 156.714 238.914 156.714 239.989ZM151.266 239.989C151.266 240.919 151.336 241.694 151.478 242.313C151.619 242.933 151.847 243.398 152.161 243.708C152.48 244.013 152.897 244.166 153.412 244.166C153.927 244.166 154.342 244.013 154.656 243.708C154.975 243.403 155.205 242.94 155.347 242.32C155.493 241.701 155.565 240.924 155.565 239.989C155.565 239.073 155.495 238.308 155.354 237.692C155.212 237.073 154.984 236.608 154.67 236.298C154.355 235.983 153.936 235.826 153.412 235.826C152.888 235.826 152.469 235.983 152.154 236.298C151.84 236.608 151.612 237.073 151.471 237.692C151.334 238.308 151.266 239.073 151.266 239.989ZM165.047 235.006C166.337 235.006 167.278 235.259 167.87 235.765C168.467 236.266 168.766 236.986 168.766 237.925C168.766 238.349 168.695 238.752 168.554 239.135C168.417 239.513 168.194 239.848 167.884 240.14C167.574 240.427 167.166 240.655 166.66 240.823C166.159 240.987 165.544 241.069 164.814 241.069H163.598V245H162.436V235.006H165.047ZM164.938 235.997H163.598V240.071H164.685C165.323 240.071 165.854 240.003 166.277 239.866C166.706 239.729 167.027 239.508 167.241 239.203C167.455 238.893 167.562 238.483 167.562 237.973C167.562 237.307 167.351 236.813 166.927 236.489C166.503 236.161 165.84 235.997 164.938 235.997ZM175.253 245L171.896 236.154H171.842C171.86 236.341 171.876 236.569 171.89 236.838C171.903 237.107 171.915 237.401 171.924 237.72C171.933 238.034 171.938 238.355 171.938 238.684V245H170.857V235.006H172.58L175.745 243.318H175.793L179.006 235.006H180.715V245H179.566V238.602C179.566 238.305 179.571 238.009 179.58 237.713C179.589 237.412 179.601 237.13 179.614 236.865C179.628 236.596 179.642 236.364 179.655 236.168H179.601L176.203 245H175.253Z" fill="white"/>
<rect y="276" width="413" height="80" rx="8" fill="#5A2DBC"/>
<path d="M30.4844 297.723C32.2943 297.723 33.6484 298.117 34.5469 298.904C35.4518 299.692 35.9043 300.812 35.9043 302.264C35.9043 302.915 35.8099 303.54 35.6211 304.139C35.4388 304.738 35.1361 305.271 34.7129 305.74C34.2962 306.209 33.7396 306.58 33.043 306.854C32.3529 307.127 31.5 307.264 30.4844 307.264H29.4004V312H25.543V297.723H30.4844ZM30.3965 300.838H29.4004V304.119H30.1621C30.4941 304.119 30.8034 304.064 31.0898 303.953C31.3763 303.836 31.6042 303.65 31.7734 303.396C31.9492 303.136 32.0371 302.791 32.0371 302.361C32.0371 301.912 31.9036 301.548 31.6367 301.268C31.3698 300.981 30.9564 300.838 30.3965 300.838ZM44.6348 300.74C44.8431 300.74 45.0612 300.757 45.2891 300.789C45.5169 300.815 45.6862 300.838 45.7969 300.857L45.4551 304.461C45.3314 304.428 45.1719 304.402 44.9766 304.383C44.7812 304.357 44.5078 304.344 44.1562 304.344C43.9154 304.344 43.6582 304.367 43.3848 304.412C43.1113 304.458 42.8509 304.555 42.6035 304.705C42.3626 304.848 42.1641 305.07 42.0078 305.369C41.8516 305.662 41.7734 306.059 41.7734 306.561V312H37.9551V300.936H40.7969L41.3926 302.703H41.5781C41.7799 302.339 42.0371 302.01 42.3496 301.717C42.6686 301.417 43.0234 301.18 43.4141 301.004C43.8112 300.828 44.2181 300.74 44.6348 300.74ZM52.75 300.74C54.1497 300.74 55.2435 301.089 56.0312 301.785C56.819 302.475 57.2129 303.462 57.2129 304.744V312H54.5664L53.834 310.535H53.7559C53.4434 310.926 53.1211 311.245 52.7891 311.492C52.4635 311.733 52.0892 311.909 51.666 312.02C51.2428 312.137 50.7253 312.195 50.1133 312.195C49.4753 312.195 48.9023 312.065 48.3945 311.805C47.8867 311.544 47.4863 311.15 47.1934 310.623C46.9004 310.096 46.7539 309.428 46.7539 308.621C46.7539 307.436 47.1641 306.557 47.9844 305.984C48.8047 305.411 49.9928 305.089 51.5488 305.018L53.3945 304.959V304.803C53.3945 304.308 53.2708 303.956 53.0234 303.748C52.7826 303.54 52.457 303.436 52.0469 303.436C51.6107 303.436 51.1224 303.514 50.582 303.67C50.0482 303.82 49.5111 304.015 48.9707 304.256L47.8672 301.736C48.5052 301.411 49.2279 301.163 50.0352 300.994C50.8424 300.825 51.7474 300.74 52.75 300.74ZM53.4141 307.059L52.5352 307.098C51.832 307.124 51.3372 307.247 51.0508 307.469C50.7708 307.684 50.6309 307.993 50.6309 308.396C50.6309 308.774 50.7318 309.054 50.9336 309.236C51.1354 309.412 51.4023 309.5 51.7344 309.5C52.1966 309.5 52.5905 309.354 52.916 309.061C53.248 308.768 53.4141 308.387 53.4141 307.918V307.059ZM64.8496 312.195C63.7298 312.195 62.7565 311.997 61.9297 311.6C61.1029 311.196 60.4616 310.577 60.0059 309.744C59.5566 308.904 59.332 307.83 59.332 306.521C59.332 305.18 59.5827 304.083 60.084 303.23C60.5918 302.378 61.2852 301.749 62.1641 301.346C63.043 300.942 64.0391 300.74 65.1523 300.74C65.8294 300.74 66.4707 300.815 67.0762 300.965C67.6882 301.115 68.2546 301.32 68.7754 301.58L67.6523 304.402C67.1966 304.201 66.7702 304.041 66.373 303.924C65.9824 303.8 65.5755 303.738 65.1523 303.738C64.7682 303.738 64.4297 303.839 64.1367 304.041C63.8438 304.243 63.6159 304.549 63.4531 304.959C63.2904 305.363 63.209 305.877 63.209 306.502C63.209 307.14 63.2904 307.654 63.4531 308.045C63.6224 308.436 63.8535 308.719 64.1465 308.895C64.446 309.07 64.7878 309.158 65.1719 309.158C65.7253 309.158 66.2754 309.074 66.8223 308.904C67.3757 308.729 67.8997 308.488 68.3945 308.182V311.219C67.9388 311.518 67.4245 311.756 66.8516 311.932C66.2786 312.107 65.6113 312.195 64.8496 312.195ZM76.0117 309.178C76.3568 309.178 76.6725 309.142 76.959 309.07C77.2454 308.999 77.5449 308.908 77.8574 308.797V311.58C77.4408 311.762 76.998 311.909 76.5293 312.02C76.0671 312.137 75.4746 312.195 74.752 312.195C74.0358 312.195 73.4043 312.085 72.8574 311.863C72.3105 311.635 71.8841 311.245 71.5781 310.691C71.2786 310.132 71.1289 309.354 71.1289 308.357V303.797H69.791V302.244L71.4902 301.043L72.4766 298.719H74.9766V300.936H77.6914V303.797H74.9766V308.104C74.9766 308.462 75.0677 308.732 75.25 308.914C75.4323 309.09 75.6862 309.178 76.0117 309.178ZM83.6289 300.936V312H79.8105V300.936H83.6289ZM81.7344 296.482C82.2812 296.482 82.7565 296.596 83.1602 296.824C83.5703 297.052 83.7754 297.505 83.7754 298.182C83.7754 298.839 83.5703 299.285 83.1602 299.52C82.7565 299.747 82.2812 299.861 81.7344 299.861C81.1745 299.861 80.696 299.747 80.2988 299.52C79.9082 299.285 79.7129 298.839 79.7129 298.182C79.7129 297.505 79.9082 297.052 80.2988 296.824C80.696 296.596 81.1745 296.482 81.7344 296.482ZM91.334 312.195C90.2142 312.195 89.2409 311.997 88.4141 311.6C87.5872 311.196 86.946 310.577 86.4902 309.744C86.041 308.904 85.8164 307.83 85.8164 306.521C85.8164 305.18 86.0671 304.083 86.5684 303.23C87.0762 302.378 87.7695 301.749 88.6484 301.346C89.5273 300.942 90.5234 300.74 91.6367 300.74C92.3138 300.74 92.9551 300.815 93.5605 300.965C94.1725 301.115 94.7389 301.32 95.2598 301.58L94.1367 304.402C93.681 304.201 93.2546 304.041 92.8574 303.924C92.4668 303.8 92.0599 303.738 91.6367 303.738C91.2526 303.738 90.9141 303.839 90.6211 304.041C90.3281 304.243 90.1003 304.549 89.9375 304.959C89.7747 305.363 89.6934 305.877 89.6934 306.502C89.6934 307.14 89.7747 307.654 89.9375 308.045C90.1068 308.436 90.3379 308.719 90.6309 308.895C90.9303 309.07 91.2721 309.158 91.6562 309.158C92.2096 309.158 92.7598 309.074 93.3066 308.904C93.86 308.729 94.3841 308.488 94.8789 308.182V311.219C94.4232 311.518 93.9089 311.756 93.3359 311.932C92.763 312.107 92.0957 312.195 91.334 312.195ZM102.057 300.74C103.131 300.74 104.059 300.929 104.84 301.307C105.621 301.678 106.223 302.238 106.646 302.986C107.07 303.735 107.281 304.673 107.281 305.799V307.498H100.455C100.488 308.077 100.702 308.553 101.1 308.924C101.503 309.295 102.096 309.48 102.877 309.48C103.567 309.48 104.199 309.412 104.771 309.275C105.351 309.139 105.947 308.927 106.559 308.641V311.385C106.025 311.665 105.442 311.87 104.811 312C104.179 312.13 103.382 312.195 102.418 312.195C101.305 312.195 100.309 311.997 99.4297 311.6C98.5508 311.202 97.8574 310.587 97.3496 309.754C96.8483 308.921 96.5977 307.85 96.5977 306.541C96.5977 305.213 96.8255 304.122 97.2812 303.27C97.737 302.41 98.375 301.775 99.1953 301.365C100.016 300.949 100.969 300.74 102.057 300.74ZM102.193 303.338C101.744 303.338 101.367 303.481 101.061 303.768C100.761 304.048 100.585 304.49 100.533 305.096H103.814C103.808 304.77 103.743 304.474 103.619 304.207C103.495 303.94 103.313 303.729 103.072 303.572C102.838 303.416 102.545 303.338 102.193 303.338ZM128.219 304.842C128.219 305.831 128.111 306.749 127.896 307.596C127.688 308.436 127.356 309.178 126.9 309.822C126.451 310.46 125.862 310.981 125.133 311.385L128.619 315.398H123.814L121.412 312.195C121.406 312.195 121.383 312.195 121.344 312.195C121.311 312.195 121.288 312.195 121.275 312.195C120.077 312.195 119.039 312.023 118.16 311.678C117.288 311.326 116.568 310.828 116.002 310.184C115.436 309.533 115.016 308.755 114.742 307.85C114.469 306.945 114.332 305.936 114.332 304.822C114.332 303.338 114.576 302.049 115.064 300.955C115.559 299.855 116.321 299.005 117.35 298.406C118.378 297.801 119.693 297.498 121.295 297.498C122.923 297.498 124.244 297.801 125.26 298.406C126.282 299.012 127.031 299.865 127.506 300.965C127.981 302.065 128.219 303.357 128.219 304.842ZM118.395 304.842C118.395 305.701 118.492 306.44 118.688 307.059C118.883 307.677 119.192 308.152 119.615 308.484C120.038 308.816 120.592 308.982 121.275 308.982C121.985 308.982 122.548 308.816 122.965 308.484C123.388 308.152 123.691 307.677 123.873 307.059C124.062 306.44 124.156 305.701 124.156 304.842C124.156 303.553 123.941 302.534 123.512 301.785C123.082 301.036 122.343 300.662 121.295 300.662C120.598 300.662 120.035 300.831 119.605 301.17C119.182 301.508 118.873 301.99 118.678 302.615C118.489 303.24 118.395 303.982 118.395 304.842ZM141.334 300.936V312H138.453L137.975 310.623H137.75C137.522 310.994 137.232 311.297 136.881 311.531C136.536 311.759 136.152 311.925 135.729 312.029C135.305 312.14 134.866 312.195 134.41 312.195C133.688 312.195 133.033 312.055 132.447 311.775C131.868 311.495 131.406 311.056 131.061 310.457C130.722 309.858 130.553 309.087 130.553 308.143V300.936H134.371V306.98C134.371 307.697 134.472 308.243 134.674 308.621C134.882 308.992 135.221 309.178 135.689 309.178C136.171 309.178 136.542 309.048 136.803 308.787C137.07 308.527 137.255 308.143 137.359 307.635C137.464 307.127 137.516 306.508 137.516 305.779V300.936H141.334ZM147.809 300.936V312H143.99V300.936H147.809ZM145.914 296.482C146.461 296.482 146.936 296.596 147.34 296.824C147.75 297.052 147.955 297.505 147.955 298.182C147.955 298.839 147.75 299.285 147.34 299.52C146.936 299.747 146.461 299.861 145.914 299.861C145.354 299.861 144.876 299.747 144.479 299.52C144.088 299.285 143.893 298.839 143.893 298.182C143.893 297.505 144.088 297.052 144.479 296.824C144.876 296.596 145.354 296.482 145.914 296.482ZM158.795 312H149.635V309.822L154.215 303.855H149.898V300.936H158.58V303.299L154.195 309.08H158.795V312Z" fill="white"/>
<path d="M30.9316 337H25.3672V327.006H30.9316V328.031H26.5293V331.265H30.6787V332.276H26.5293V335.975H30.9316V337ZM34.623 337L31.7793 329.508H32.9961L34.6436 334.04C34.7575 334.35 34.8737 334.692 34.9922 335.065C35.1107 335.439 35.1927 335.74 35.2383 335.968H35.2861C35.3408 335.74 35.432 335.439 35.5596 335.065C35.6872 334.687 35.8034 334.345 35.9082 334.04L37.5557 329.508H38.7725L35.9219 337H34.623ZM42.8604 329.371C43.4984 329.371 44.0452 329.512 44.501 329.795C44.9567 330.077 45.3053 330.474 45.5469 330.984C45.7884 331.49 45.9092 332.083 45.9092 332.762V333.466H40.7344C40.748 334.345 40.9668 335.015 41.3906 335.476C41.8145 335.936 42.4115 336.166 43.1816 336.166C43.6556 336.166 44.0749 336.123 44.4395 336.036C44.804 335.95 45.1823 335.822 45.5742 335.653V336.651C45.196 336.82 44.82 336.943 44.4463 337.021C44.0771 337.098 43.6396 337.137 43.1338 337.137C42.4137 337.137 41.7848 336.991 41.2471 336.699C40.7139 336.403 40.2992 335.97 40.0029 335.4C39.7067 334.831 39.5586 334.133 39.5586 333.309C39.5586 332.502 39.693 331.805 39.9619 331.217C40.2354 330.624 40.6182 330.169 41.1104 329.85C41.6071 329.531 42.1904 329.371 42.8604 329.371ZM42.8467 330.301C42.2406 330.301 41.7575 330.499 41.3975 330.896C41.0374 331.292 40.8232 331.846 40.7549 332.557H44.7197C44.7152 332.11 44.6445 331.718 44.5078 331.381C44.3757 331.039 44.1729 330.775 43.8994 330.588C43.626 330.396 43.2751 330.301 42.8467 330.301ZM51.2412 329.371C51.3916 329.371 51.5488 329.38 51.7129 329.398C51.877 329.412 52.0228 329.433 52.1504 329.46L52.0068 330.513C51.8838 330.481 51.7471 330.456 51.5967 330.438C51.4463 330.419 51.305 330.41 51.1729 330.41C50.8721 330.41 50.5872 330.472 50.3184 330.595C50.054 330.713 49.8216 330.886 49.6211 331.114C49.4206 331.338 49.2633 331.609 49.1494 331.928C49.0355 332.242 48.9785 332.593 48.9785 332.98V337H47.8369V329.508H48.7803L48.9033 330.889H48.9512C49.1061 330.611 49.293 330.358 49.5117 330.13C49.7305 329.897 49.9834 329.713 50.2705 329.576C50.5622 329.439 50.8857 329.371 51.2412 329.371ZM52.3828 329.508H53.5996L55.2539 333.855C55.3496 334.111 55.4385 334.357 55.5205 334.594C55.6025 334.826 55.6755 335.049 55.7393 335.264C55.8031 335.478 55.8532 335.685 55.8896 335.886H55.9375C56.0013 335.658 56.0924 335.359 56.2109 334.99C56.3294 334.617 56.457 334.236 56.5938 333.849L58.1592 329.508H59.3828L56.1221 338.101C55.9489 338.561 55.7461 338.962 55.5137 339.304C55.2858 339.646 55.0078 339.908 54.6797 340.09C54.3516 340.277 53.9551 340.37 53.4902 340.37C53.276 340.37 53.0869 340.356 52.9229 340.329C52.7588 340.306 52.6175 340.279 52.499 340.247V339.338C52.5993 339.361 52.7201 339.381 52.8613 339.399C53.0072 339.418 53.1576 339.427 53.3125 339.427C53.5951 339.427 53.8389 339.372 54.0439 339.263C54.2536 339.158 54.4336 339.003 54.584 338.798C54.7344 338.593 54.8643 338.349 54.9736 338.066L55.3838 337.014L52.3828 329.508ZM63.2451 337.137C62.2972 337.137 61.5452 336.813 60.9893 336.166C60.4378 335.519 60.1621 334.557 60.1621 333.281C60.1621 331.992 60.4447 331.019 61.0098 330.362C61.5749 329.701 62.3268 329.371 63.2656 329.371C63.6621 329.371 64.0085 329.424 64.3047 329.528C64.6009 329.633 64.8561 329.774 65.0703 329.952C65.2845 330.125 65.4645 330.324 65.6104 330.547H65.6924C65.6742 330.406 65.6559 330.212 65.6377 329.966C65.6195 329.72 65.6104 329.519 65.6104 329.364V326.363H66.7451V337H65.8291L65.6582 335.934H65.6104C65.4691 336.157 65.2891 336.36 65.0703 336.542C64.8561 336.724 64.5986 336.87 64.2979 336.979C64.0016 337.084 63.6507 337.137 63.2451 337.137ZM63.4229 336.193C64.2249 336.193 64.7923 335.965 65.125 335.51C65.4577 335.054 65.624 334.377 65.624 333.479V333.274C65.624 332.322 65.4645 331.59 65.1455 331.08C64.8311 330.57 64.2568 330.314 63.4229 330.314C62.7256 330.314 62.2038 330.583 61.8574 331.121C61.5111 331.654 61.3379 332.383 61.3379 333.309C61.3379 334.229 61.5088 334.94 61.8506 335.441C62.1969 335.943 62.721 336.193 63.4229 336.193ZM71.9541 329.385C72.8473 329.385 73.5104 329.585 73.9434 329.986C74.3763 330.387 74.5928 331.028 74.5928 331.907V337H73.7656L73.5469 335.893H73.4922C73.2826 336.166 73.0638 336.396 72.8359 336.583C72.6081 336.765 72.3438 336.904 72.043 337C71.7467 337.091 71.3822 337.137 70.9492 337.137C70.4935 337.137 70.0879 337.057 69.7324 336.897C69.3815 336.738 69.1035 336.496 68.8984 336.173C68.6979 335.849 68.5977 335.439 68.5977 334.942C68.5977 334.195 68.8939 333.621 69.4863 333.22C70.0788 332.819 70.9811 332.6 72.1934 332.563L73.4854 332.509V332.051C73.4854 331.404 73.3464 330.95 73.0684 330.69C72.7904 330.431 72.3984 330.301 71.8926 330.301C71.5007 330.301 71.127 330.358 70.7715 330.472C70.416 330.586 70.0788 330.72 69.7598 330.875L69.4111 330.014C69.7484 329.84 70.1357 329.692 70.5732 329.569C71.0107 329.446 71.471 329.385 71.9541 329.385ZM73.4717 333.309L72.3301 333.356C71.3958 333.393 70.7373 333.546 70.3545 333.814C69.9717 334.083 69.7803 334.464 69.7803 334.956C69.7803 335.384 69.9102 335.701 70.1699 335.906C70.4297 336.111 70.7738 336.214 71.2021 336.214C71.8675 336.214 72.4121 336.029 72.8359 335.66C73.2598 335.291 73.4717 334.737 73.4717 333.999V333.309ZM75.748 329.508H76.9648L78.6191 333.855C78.7148 334.111 78.8037 334.357 78.8857 334.594C78.9678 334.826 79.0407 335.049 79.1045 335.264C79.1683 335.478 79.2184 335.685 79.2549 335.886H79.3027C79.3665 335.658 79.4577 335.359 79.5762 334.99C79.6947 334.617 79.8223 334.236 79.959 333.849L81.5244 329.508H82.748L79.4873 338.101C79.3141 338.561 79.1113 338.962 78.8789 339.304C78.651 339.646 78.373 339.908 78.0449 340.09C77.7168 340.277 77.3203 340.37 76.8555 340.37C76.6413 340.37 76.4521 340.356 76.2881 340.329C76.124 340.306 75.9827 340.279 75.8643 340.247V339.338C75.9645 339.361 76.0853 339.381 76.2266 339.399C76.3724 339.418 76.5228 339.427 76.6777 339.427C76.9603 339.427 77.2041 339.372 77.4092 339.263C77.6188 339.158 77.7988 339.003 77.9492 338.798C78.0996 338.593 78.2295 338.349 78.3389 338.066L78.749 337.014L75.748 329.508ZM89.748 326.356H90.6982V340.391H89.748V326.356ZM104.972 331.265C104.972 331.871 104.928 332.461 104.842 333.035C104.76 333.609 104.616 334.145 104.411 334.642C104.211 335.138 103.937 335.574 103.591 335.947C103.244 336.321 102.809 336.615 102.285 336.829C101.766 337.039 101.144 337.144 100.419 337.144C100.223 337.144 99.9997 337.13 99.749 337.103C99.4984 337.08 99.2933 337.046 99.1338 337V336.016C99.3024 336.075 99.5007 336.123 99.7285 336.159C99.9564 336.191 100.18 336.207 100.398 336.207C101.251 336.207 101.921 336.025 102.408 335.66C102.896 335.291 103.247 334.792 103.461 334.163C103.675 333.53 103.796 332.819 103.823 332.03H103.741C103.604 332.249 103.424 332.452 103.201 332.639C102.982 332.821 102.716 332.969 102.401 333.083C102.087 333.192 101.72 333.247 101.301 333.247C100.722 333.247 100.216 333.129 99.7832 332.892C99.3548 332.655 99.0199 332.311 98.7783 331.859C98.5413 331.408 98.4229 330.864 98.4229 330.226C98.4229 329.537 98.5527 328.943 98.8125 328.441C99.0768 327.936 99.446 327.546 99.9199 327.272C100.394 326.999 100.952 326.862 101.595 326.862C102.087 326.862 102.538 326.956 102.948 327.143C103.358 327.329 103.714 327.61 104.015 327.983C104.32 328.353 104.555 328.811 104.719 329.357C104.887 329.904 104.972 330.54 104.972 331.265ZM101.595 327.826C100.989 327.826 100.496 328.024 100.118 328.421C99.7445 328.817 99.5576 329.414 99.5576 330.212C99.5576 330.873 99.7194 331.395 100.043 331.777C100.367 332.16 100.866 332.352 101.54 332.352C102.005 332.352 102.406 332.258 102.743 332.071C103.085 331.884 103.347 331.647 103.529 331.36C103.716 331.073 103.81 330.779 103.81 330.479C103.81 330.178 103.764 329.872 103.673 329.562C103.586 329.253 103.452 328.968 103.27 328.708C103.087 328.444 102.857 328.232 102.579 328.072C102.301 327.908 101.973 327.826 101.595 327.826ZM106.756 336.289C106.756 335.97 106.833 335.744 106.988 335.612C107.143 335.476 107.332 335.407 107.556 335.407C107.788 335.407 107.984 335.476 108.144 335.612C108.303 335.744 108.383 335.97 108.383 336.289C108.383 336.604 108.303 336.834 108.144 336.979C107.984 337.121 107.788 337.191 107.556 337.191C107.332 337.191 107.143 337.121 106.988 336.979C106.833 336.834 106.756 336.604 106.756 336.289ZM106.756 330.226C106.756 329.897 106.833 329.667 106.988 329.535C107.143 329.398 107.332 329.33 107.556 329.33C107.788 329.33 107.984 329.398 108.144 329.535C108.303 329.667 108.383 329.897 108.383 330.226C108.383 330.535 108.303 330.761 108.144 330.902C107.984 331.044 107.788 331.114 107.556 331.114C107.332 331.114 107.143 331.044 106.988 330.902C106.833 330.761 106.756 330.535 106.756 330.226ZM116.278 329.337C116.278 329.784 116.192 330.171 116.019 330.499C115.845 330.827 115.604 331.096 115.294 331.306C114.984 331.511 114.619 331.654 114.2 331.736V331.791C114.993 331.891 115.588 332.146 115.984 332.557C116.385 332.967 116.586 333.505 116.586 334.17C116.586 334.749 116.449 335.261 116.176 335.708C115.907 336.155 115.492 336.506 114.932 336.761C114.376 337.011 113.662 337.137 112.792 337.137C112.263 337.137 111.773 337.093 111.322 337.007C110.876 336.925 110.447 336.786 110.037 336.59V335.523C110.452 335.729 110.903 335.89 111.391 336.009C111.878 336.123 112.35 336.18 112.806 336.18C113.717 336.18 114.376 336 114.781 335.64C115.187 335.275 115.39 334.778 115.39 334.149C115.39 333.716 115.276 333.368 115.048 333.104C114.825 332.835 114.501 332.639 114.077 332.516C113.658 332.388 113.152 332.324 112.56 332.324H111.562V331.354H112.566C113.109 331.354 113.569 331.274 113.947 331.114C114.326 330.955 114.613 330.731 114.809 330.444C115.009 330.153 115.109 329.809 115.109 329.412C115.109 328.906 114.941 328.517 114.604 328.243C114.266 327.965 113.808 327.826 113.229 327.826C112.874 327.826 112.55 327.863 112.259 327.936C111.967 328.008 111.694 328.109 111.438 328.236C111.183 328.364 110.928 328.512 110.673 328.681L110.099 327.901C110.463 327.619 110.908 327.375 111.432 327.17C111.956 326.965 112.55 326.862 113.216 326.862C114.237 326.862 115.002 327.095 115.513 327.56C116.023 328.024 116.278 328.617 116.278 329.337ZM124.714 331.989C124.714 332.8 124.652 333.525 124.529 334.163C124.406 334.801 124.213 335.341 123.948 335.783C123.684 336.225 123.342 336.562 122.923 336.795C122.504 337.023 122 337.137 121.412 337.137C120.669 337.137 120.054 336.934 119.566 336.528C119.083 336.123 118.721 335.537 118.479 334.771C118.243 334.001 118.124 333.074 118.124 331.989C118.124 330.923 118.231 330.007 118.445 329.241C118.664 328.471 119.015 327.881 119.498 327.471C119.981 327.056 120.619 326.849 121.412 326.849C122.164 326.849 122.784 327.054 123.271 327.464C123.759 327.869 124.121 328.457 124.358 329.228C124.595 329.993 124.714 330.914 124.714 331.989ZM119.266 331.989C119.266 332.919 119.336 333.694 119.478 334.313C119.619 334.933 119.847 335.398 120.161 335.708C120.48 336.013 120.897 336.166 121.412 336.166C121.927 336.166 122.342 336.013 122.656 335.708C122.975 335.403 123.205 334.94 123.347 334.32C123.493 333.701 123.565 332.924 123.565 331.989C123.565 331.073 123.495 330.308 123.354 329.692C123.212 329.073 122.984 328.608 122.67 328.298C122.355 327.983 121.936 327.826 121.412 327.826C120.888 327.826 120.469 327.983 120.154 328.298C119.84 328.608 119.612 329.073 119.471 329.692C119.334 330.308 119.266 331.073 119.266 331.989ZM133.047 327.006C134.337 327.006 135.278 327.259 135.87 327.765C136.467 328.266 136.766 328.986 136.766 329.925C136.766 330.349 136.695 330.752 136.554 331.135C136.417 331.513 136.194 331.848 135.884 332.14C135.574 332.427 135.166 332.655 134.66 332.823C134.159 332.987 133.544 333.069 132.814 333.069H131.598V337H130.436V327.006H133.047ZM132.938 327.997H131.598V332.071H132.685C133.323 332.071 133.854 332.003 134.277 331.866C134.706 331.729 135.027 331.508 135.241 331.203C135.455 330.893 135.562 330.483 135.562 329.973C135.562 329.307 135.351 328.813 134.927 328.489C134.503 328.161 133.84 327.997 132.938 327.997ZM143.253 337L139.896 328.154H139.842C139.86 328.341 139.876 328.569 139.89 328.838C139.903 329.107 139.915 329.401 139.924 329.72C139.933 330.034 139.938 330.355 139.938 330.684V337H138.857V327.006H140.58L143.745 335.318H143.793L147.006 327.006H148.715V337H147.566V330.602C147.566 330.305 147.571 330.009 147.58 329.713C147.589 329.412 147.601 329.13 147.614 328.865C147.628 328.596 147.642 328.364 147.655 328.168H147.601L144.203 337H143.253Z" fill="white"/>
</svg>
