<svg width="120" height="120" viewBox="0 0 120 120" fill="none" xmlns="http://www.w3.org/2000/svg">
<rect width="120" height="120" rx="4" fill="#FFF2DF"/>
<path d="M82.5998 28.9711C82.086 28.1034 80.9728 27.7981 80.0862 28.2804L71.6076 32.9122C71.155 33.1572 70.8295 33.576 70.6935 34.0698C70.5569 34.5662 70.6303 35.0966 70.8927 35.5379L72.3767 38.0481C69.6907 37.4478 66.5229 37.2214 64.3507 37.3708C61.9992 37.5337 60.5325 38.093 59.7372 39.1256L57.5734 41.9335L50.7971 39.7984L52.606 37.8437C53.3113 37.0881 53.2762 35.9061 52.5339 35.1878L45.5955 28.5249C45.2228 28.1754 44.7358 27.9849 44.2289 28.0009C43.7228 28.0202 43.2421 28.244 42.8994 28.6166L20.4884 53.3427C19.8296 54.0706 19.8386 55.1891 20.5075 55.9114L27.1311 62.9764C27.4828 63.3573 27.9807 63.5709 28.4977 63.5709H28.552C29.085 63.5555 29.5931 63.3124 29.9352 62.9032L30.8237 61.845L32.3709 65.8073L29.4762 69.1768C29.4571 69.2025 29.4296 69.2313 29.4111 69.257C27.6571 71.5492 28.0726 74.8598 30.3443 76.6344C31.2584 77.3489 32.3888 77.7433 33.5397 77.7433C33.6214 77.7433 33.6922 77.7395 33.7644 77.7337C34.0082 78.9157 34.651 80.0162 35.6633 80.8108C36.5869 81.5407 37.7001 81.9255 38.8669 81.9255C38.939 81.9255 39.0118 81.9197 39.0852 81.9159C39.3386 83.0979 39.9801 84.1983 40.9937 84.993C41.9173 85.7209 43.0209 86.1019 44.1891 86.1019C44.26 86.1019 44.3417 86.0961 44.4138 86.0961C44.6576 87.2743 45.3004 88.3786 46.3147 89.1695C47.2364 89.8974 48.3401 90.2841 49.5081 90.2841C49.7347 90.2841 49.953 90.2687 50.1688 90.2431C51.5354 90.0648 52.7468 89.3734 53.5983 88.2844L55.741 85.7876L61.3805 90.1738C62.3839 90.9556 63.5774 91.3333 64.7634 91.3333C66.4179 91.3333 68.0564 90.5932 69.1517 89.1784C70.0115 88.0561 70.3823 86.6958 70.291 85.379C71.6411 85.1321 72.8245 84.4061 73.6663 83.3139C74.5357 82.1877 74.9066 80.8274 74.8076 79.5108C76.1085 79.2735 77.3233 78.5732 78.1906 77.4514C79.0325 76.3547 79.4404 75.0195 79.3389 73.6502C80.6774 73.4014 81.8723 72.6773 82.7142 71.5832C83.7457 70.2421 84.0719 68.5701 83.7457 67.0226C84.6406 66.0331 85.9982 64.3611 86.8772 62.4319L88.4059 65.0005C88.6683 65.4456 89.1017 65.7599 89.5995 65.8741C89.7361 65.9093 89.881 65.9228 90.017 65.9228C90.3878 65.9228 90.7415 65.8202 91.0485 65.6143L99.1542 60.2739C99.9961 59.7185 100.248 58.5923 99.7344 57.7246L82.5998 28.9711ZM28.4245 58.8444L24.4422 54.5942L44.3841 32.5935L48.5918 36.6339L47.199 38.134L30.035 56.9249C30.0158 56.9467 29.9979 56.9659 29.9884 56.9845L28.4245 58.8444ZM32.6577 73.6523C32.0245 73.1559 31.8981 72.2432 32.3692 71.5949L36.6291 66.636C36.6566 66.6085 36.6757 66.5815 36.7013 66.5482C36.9732 66.189 37.3906 65.9851 37.8336 65.9851C38.0602 65.9851 38.396 66.0396 38.7202 66.2955C39.3553 66.79 39.4798 67.7045 39.0106 68.3529L34.7487 73.3117C34.7213 73.3393 34.7021 73.3662 34.6766 73.3996C34.4423 73.7061 34.0983 73.9024 33.7179 73.9531C33.6636 73.9569 33.6004 73.9627 33.5378 73.9627C33.3196 73.962 32.9838 73.9114 32.6576 73.6523H32.6577ZM38.8651 78.143C38.6385 78.143 38.3047 78.0885 37.9785 77.8345C37.3453 77.3382 37.2189 76.4236 37.6881 75.7752L41.95 70.8124C41.9775 70.7848 41.9966 70.7579 42.0222 70.7303C42.2941 70.3712 42.7096 70.1614 43.1634 70.1614C43.3798 70.1614 43.7143 70.216 44.0405 70.4719C44.6832 70.9747 44.8096 71.9162 44.3105 72.5672C44.2932 72.5845 44.2849 72.5967 44.2658 72.6159C44.1228 72.8256 43.9773 73.0315 43.8228 73.2297L40.9907 76.5313C40.1328 77.381 39.3892 77.9813 38.9373 78.1442C38.9099 78.1429 38.8843 78.1429 38.8652 78.1429L38.8651 78.143ZM43.2975 82.0168C42.6739 81.5204 42.5475 80.602 43.009 79.9574L43.6868 79.1667C44.927 77.9398 46.0307 76.5609 46.7551 75.6027L47.2804 74.9928C47.2976 74.9652 47.3251 74.9383 47.3436 74.9126C47.6232 74.5477 48.031 74.3438 48.483 74.3438C48.7096 74.3438 49.0434 74.3983 49.3696 74.6523C50.0028 75.1487 50.1215 76.0613 49.66 76.7116L45.3981 81.6705C45.3706 81.6961 45.3438 81.7288 45.3259 81.7564C45.0917 82.0649 44.7476 82.2611 44.3672 82.3118C44.311 82.3195 44.2478 82.3195 44.1872 82.3195C43.9587 82.3195 43.6236 82.2701 43.2974 82.0168L43.2975 82.0168ZM50.719 85.8539C50.6916 85.8796 50.6724 85.9084 50.6469 85.9341C50.4107 86.2426 50.075 86.4427 49.6958 86.4895C49.6326 86.4972 49.5688 86.503 49.5062 86.503C49.2879 86.503 48.9554 86.4484 48.6292 86.1945C47.996 85.6981 47.8696 84.7835 48.3388 84.1351L52.6007 79.1763C52.6282 79.1487 52.6473 79.1218 52.6728 79.0903C52.9448 78.7312 53.3622 78.5253 53.8052 78.5253C54.0299 78.5253 54.3656 78.576 54.6918 78.8357C55.325 79.3302 55.4514 80.2447 54.9803 80.89L50.719 85.8539ZM79.7332 69.2714C79.4447 69.6498 79.0279 69.889 78.5568 69.9486C78.0858 70.0083 77.6255 69.8794 77.2464 69.5895L71.021 64.7441C70.2059 64.1021 69.0212 64.2573 68.388 65.0795C68.3785 65.0891 68.3689 65.1032 68.3606 65.1128C68.3523 65.1225 68.3414 65.1302 68.3331 65.1385C67.7 65.9652 67.8544 67.1535 68.6772 67.7924L74.893 72.6396C75.2721 72.9295 75.5089 73.3483 75.5728 73.8216C75.636 74.2929 75.5006 74.7573 75.2096 75.1344C74.614 75.9111 73.5002 76.0566 72.7227 75.4506L66.5605 70.6559C65.7378 70.0139 64.5608 70.1634 63.9193 70.9933C63.9193 71.0029 63.9097 71.0125 63.9001 71.0208C63.8905 71.0292 63.8829 71.0382 63.8746 71.0503C63.2414 71.8732 63.3939 73.0616 64.2103 73.7016L70.3705 78.4982C71.1486 79.1024 71.2941 80.2248 70.6871 81.0027C70.3986 81.3792 69.9818 81.6164 69.5107 81.6799C69.0416 81.7383 68.5795 81.6107 68.208 81.315L62.2839 76.7064C61.4592 76.0701 60.2758 76.2196 59.6406 77.0463C59.6311 77.0559 59.6215 77.0655 59.6215 77.0796C59.6119 77.0892 59.6042 77.0931 59.596 77.1053C58.9628 77.9281 59.1076 79.1146 59.9317 79.7565L65.8577 84.3652C66.6269 84.9635 66.7718 86.0865 66.1743 86.8639C65.5769 87.6418 64.456 87.7823 63.6875 87.182L58.177 82.8914C59.6514 80.6241 59.1734 77.5413 57.0095 75.85C56.0859 75.124 54.9823 74.7411 53.8078 74.7411C53.7356 74.7411 53.6629 74.7469 53.5895 74.7469C53.3456 73.5687 52.7029 72.4644 51.6905 71.6698C50.7574 70.9476 49.6537 70.5609 48.487 70.5609C48.4149 70.5609 48.3421 70.5647 48.2604 70.5705C48.0185 69.3885 47.3738 68.288 46.3615 67.4934C45.4378 66.7654 44.3343 66.3845 43.168 66.3845C43.0863 66.3845 43.0136 66.3845 42.9414 66.3883C42.6976 65.2115 42.0548 64.1059 41.0406 63.317C40.1189 62.589 39.0057 62.2042 37.8388 62.2042C36.9247 62.2042 36.0477 62.4434 35.2786 62.8853L33.605 58.6128L47.9903 42.8717L55.1195 45.1221L53.3476 47.4207C52.4061 48.6476 51.9899 50.1663 52.1897 51.7087C52.3793 53.2447 53.158 54.6172 54.379 55.5619C55.6001 56.5117 57.1116 56.9312 58.6409 56.7349C60.1697 56.5406 61.5356 55.7582 62.4854 54.5312L63.7607 52.8753L79.332 66.6937C79.3595 66.7212 79.3972 66.7443 79.4233 66.7719C79.5778 66.8938 79.7118 67.0393 79.812 67.1945C79.8663 67.3299 79.9295 67.462 80.0112 67.589C80.1944 68.1399 80.1133 68.7761 79.7329 69.2712L79.7332 69.2714ZM83.96 58.4897C84.2038 59.9732 82.8915 62.1223 81.6258 63.6942L65.7104 49.5673C65.6753 49.0453 65.4289 48.5348 64.9879 48.1904C64.1632 47.5522 62.9798 47.7036 62.3466 48.5258L59.5061 52.218C59.1704 52.6445 58.7 52.917 58.1657 52.985C57.6308 53.0543 57.1087 52.9087 56.6817 52.5771C56.2572 52.2456 55.9859 51.7671 55.9125 51.2303C55.8493 50.6948 55.9942 50.1682 56.3204 49.7411L62.6523 41.5217C63.1068 41.2633 65.0237 40.8894 68.5164 41.2601C71.8726 41.6096 73.9804 42.3766 74.3608 42.7044C75.0565 43.3912 76.7238 45.6539 78.4784 48.3052L82.9108 55.7672C83.47 56.8991 83.8593 57.8528 83.9602 58.4897L83.96 58.4897ZM90.6264 61.3758L86.0766 53.7271C84.8906 51.372 83.2266 48.6445 81.6251 46.2221L75.1278 35.2942L80.2942 32.4678L95.577 58.1116L90.6264 61.3758Z" fill="#AA0064"/>
</svg>
