<svg width="52" height="52" viewBox="0 0 52 52" fill="none" xmlns="http://www.w3.org/2000/svg">
<circle cx="26" cy="26" r="26" fill="#FFB400"/>
<path fill-rule="evenodd" clip-rule="evenodd" d="M26 38C25.25 38 24.642 37.3934 24.642 36.6452L24.642 18.6257L18.3182 24.935C17.7879 25.4641 16.9281 25.4641 16.3977 24.935C15.8674 24.4059 15.8674 23.5481 16.3977 23.019L25.0398 14.3968C25.5701 13.8677 26.4299 13.8677 26.9602 14.3968L35.6023 23.019C36.1326 23.5481 36.1326 24.4059 35.6023 24.935C35.0719 25.4641 34.2121 25.4641 33.6818 24.935L27.358 18.6257L27.358 36.6452C27.358 37.3934 26.75 38 26 38Z" fill="black"/>
</svg>
