<svg width="15" height="91" viewBox="0 0 15 91" fill="none" xmlns="http://www.w3.org/2000/svg">
<path d="M13.6562 91L12.8302 79.4826L3.26885 85.9567L13.6562 91ZM13.0165 0.231391C12.4584 0.695945 11.9205 1.21468 11.4028 1.78237L12.8805 3.13005C13.3425 2.62348 13.8147 2.16921 14.296 1.76861L13.0165 0.231391ZM7.71434 7.21844C7.07617 8.44158 6.47957 9.75973 5.92527 11.1599L7.78484 11.8961C8.31677 10.5525 8.88511 9.29817 9.48751 8.14357L7.71434 7.21844ZM3.90901 17.2626C3.54138 18.6026 3.20349 19.9904 2.89607 21.4191L4.85132 21.8398C5.1514 20.4452 5.48056 19.0937 5.83774 17.7917L3.90901 17.2626ZM1.77455 27.7211C1.57589 29.106 1.40294 30.517 1.25631 31.949L3.2459 32.1527C3.38987 30.7468 3.55956 29.3626 3.75429 28.0051L1.77455 27.7211ZM0.785318 38.3182C0.720145 39.7241 0.679441 41.1427 0.663762 42.5696L2.66364 42.5916C2.67906 41.1881 2.7191 39.7931 2.78317 38.4108L0.785318 38.3182ZM0.76066 48.9522C0.819241 50.3675 0.902728 51.7849 1.01167 53.2004L3.00577 53.0469C2.89867 51.6553 2.81657 50.2615 2.75895 48.8695L0.76066 48.9522ZM1.67668 59.5517C1.86499 60.9647 2.08008 62.3698 2.32253 63.7629L4.29291 63.4199C4.05514 62.0538 3.84405 60.675 3.65915 59.2875L1.67668 59.5517ZM3.62215 70.0256C3.96107 71.4205 4.33041 72.7959 4.73087 74.1472L6.64843 73.5789C6.25782 72.2608 5.89705 70.9175 5.5656 69.5534L3.62215 70.0256ZM6.81091 80.2162C7.34149 81.5639 7.90884 82.8766 8.51389 84.1485L10.32 83.2894C9.73583 82.0614 9.18665 80.791 8.67188 79.4835L6.81091 80.2162Z" fill="#AA0064"/>
</svg>
