<svg width="61" height="60" viewBox="0 0 61 60" fill="none" xmlns="http://www.w3.org/2000/svg">
<rect x="0.65625" width="60" height="60" rx="12" fill="#AA0064"/>
<path d="M31.171 6.51623C31.171 6.79995 30.9336 7.03245 30.6406 7.03245C30.3476 7.03245 30.1102 6.79995 30.1102 6.51623C30.1102 6.23053 30.3476 6 30.6406 6C30.9336 6 31.171 6.23053 31.171 6.51623Z" fill="#FFB400"/>
<path d="M26.5643 7.85211C26.5643 8.13584 26.3269 8.36834 26.0339 8.36834C25.884 8.36834 25.7485 8.30726 25.6522 8.20874C25.5602 8.11613 25.5036 7.99003 25.5036 7.85211C25.5036 7.56641 25.7409 7.33588 26.0339 7.33588C26.3269 7.33588 26.5643 7.56641 26.5643 7.85211Z" fill="#FFB400"/>
<path d="M21.717 10.1495C21.717 10.2717 21.6725 10.386 21.5982 10.4746C21.5009 10.5909 21.3527 10.6657 21.1866 10.6657C20.8936 10.6657 20.6562 10.4332 20.6562 10.1495C20.6562 9.86382 20.8936 9.63329 21.1866 9.63329C21.4796 9.63329 21.717 9.86382 21.717 10.1495Z" fill="#FFB400"/>
<path d="M40.1259 10.6657C40.228 10.6657 40.3233 10.6382 40.4042 10.5889L40.4517 10.5574L40.5215 10.4924L40.5751 10.4214C40.6049 10.3761 40.6274 10.3249 40.6411 10.2717C40.6509 10.2323 40.6562 10.1909 40.6562 10.1495L40.6497 10.0668L40.6345 10.0017C40.6214 9.95839 40.6021 9.91701 40.5779 9.87958L40.5243 9.80865L40.4462 9.73771C40.3572 9.67269 40.2462 9.63329 40.1259 9.63329C39.9947 9.63329 39.8746 9.6786 39.782 9.75545C39.6678 9.85002 39.5955 9.99189 39.5955 10.1495C39.5955 10.319 39.6802 10.4707 39.8111 10.5653C39.8991 10.6283 40.0081 10.6657 40.1259 10.6657Z" fill="#FFB400"/>
<path d="M35.8201 7.85211C35.8201 8.13584 35.5827 8.36834 35.2897 8.36834C34.9967 8.36834 34.7593 8.13584 34.7593 7.85211C34.7593 7.65114 34.8763 7.47775 35.0475 7.39105L35.1211 7.3615C35.1741 7.34573 35.2308 7.33588 35.2897 7.33588C35.5827 7.33588 35.8201 7.56641 35.8201 7.85211Z" fill="#FFB400"/>
<path d="M28.5248 12.8311L30.6464 17.8417L32.8405 12.8311L30.6464 7.53292L28.5248 12.8311Z" fill="#FFB400"/>
<path d="M28.8957 22.9961H29.3932L28.8957 20.8651V22.9961Z" fill="#FFB400"/>
<path d="M32.4198 23H31.9137L32.4198 20.8651V23Z" fill="#FFB400"/>
<path d="M21.784 11.2293L25.3997 15.3571V22.9921H24.7608L21.784 11.2293Z" fill="#FFB400"/>
<path d="M39.5282 11.2293L36.5514 22.9921H35.9126V15.3571L39.5282 11.2293Z" fill="#FFB400"/>
<path d="M32.973 22.9929H35.2911V8.92829L30.6419 19.3984L26.0341 8.92829V22.9929H28.338V19.3305L29.9519 22.9929H31.3448L32.973 19.3429V22.9929Z" fill="#FFB400"/>
<path d="M22.0984 20.0001C21.9544 20.0018 21.8122 20.0319 21.68 20.0888C21.5477 20.1457 21.4281 20.2282 21.3279 20.3316C21.2277 20.4349 21.149 20.5571 21.0963 20.691C21.0436 20.8249 21.018 20.9678 21.0209 21.1117V22.1971H17.7512C17.6073 22.1966 17.4646 22.2245 17.3315 22.2793C17.1984 22.334 17.0775 22.4146 16.9757 22.5163C16.8739 22.6181 16.7933 22.7389 16.7384 22.8719C16.6836 23.0049 16.6557 23.1475 16.6563 23.2913V27.875H18.8375V24.379H21.0209V25.4731C20.9882 26.9586 23.2348 26.9586 23.2021 25.4731V24.379H29.5645V25.4731C29.5645 26.928 31.748 26.928 31.748 25.4731V24.379H38.1104V25.4731C38.1104 26.928 40.2938 26.928 40.2938 25.4731V24.379H42.475V27.875H44.6562V23.2913C44.6568 23.1475 44.6289 23.0049 44.5741 22.8719C44.5192 22.7389 44.4386 22.6181 44.3368 22.5163C44.235 22.4146 44.1141 22.334 43.981 22.2793C43.8479 22.2245 43.7052 22.1966 43.5613 22.1971H40.2938V21.1117C40.2938 20.8224 40.1788 20.5449 39.974 20.3403C39.7693 20.1357 39.4916 20.0208 39.2021 20.0208C38.9126 20.0208 38.6349 20.1357 38.4301 20.3403C38.2254 20.5449 38.1104 20.8224 38.1104 21.1117V22.1971H31.748V21.1117C31.748 20.8224 31.6329 20.5449 31.4282 20.3403C31.2235 20.1357 30.9458 20.0208 30.6562 20.0208C30.3667 20.0208 30.089 20.1357 29.8843 20.3403C29.6796 20.5449 29.5645 20.8224 29.5645 21.1117V22.1971H23.2021V21.1117C23.205 20.9656 23.1786 20.8205 23.1242 20.6849C23.0699 20.5493 22.9889 20.4259 22.8859 20.3222C22.783 20.2185 22.6602 20.1366 22.5249 20.0812C22.3896 20.0259 22.2446 19.9983 22.0984 20.0001Z" fill="#FFB400"/>
<path d="M27.7048 35.4178C27.9094 35.2135 28.1868 35.0986 28.476 35.0986C28.7653 35.0986 29.0427 35.2135 29.2472 35.4178C29.4517 35.6222 29.5666 35.8994 29.5666 36.1884C29.5666 36.4775 29.4517 36.7547 29.2472 36.9591C29.0427 37.1634 28.7653 37.2783 28.476 37.2783C28.1868 37.2783 27.9094 37.1634 27.7048 36.9591C27.5003 36.7547 27.3854 36.4775 27.3854 36.1884C27.3854 35.8994 27.5003 35.6222 27.7048 35.4178Z" fill="#FFB400"/>
<path d="M32.0673 35.4178C32.2718 35.2135 32.5492 35.0986 32.8384 35.0986C33.1277 35.0986 33.4051 35.2135 33.6096 35.4178C33.8142 35.6222 33.9291 35.8994 33.9291 36.1884C33.9291 36.4775 33.8142 36.7547 33.6096 36.9591C33.4051 37.1634 33.1277 37.2783 32.8384 37.2783C32.5492 37.2783 32.2718 37.1634 32.0673 36.9591C31.8627 36.7547 31.7478 36.4775 31.7478 36.1884C31.7478 35.8994 31.8627 35.6222 32.0673 35.4178Z" fill="#FFB400"/>
<path d="M37.2009 35.0986C36.9116 35.0986 36.6342 35.2135 36.4297 35.4178C36.2252 35.6222 36.1103 35.8994 36.1103 36.1884C36.1103 36.4775 36.2252 36.7547 36.4297 36.9591C36.6342 37.1634 36.9116 37.2783 37.2009 37.2783C37.4901 37.2783 37.7675 37.1634 37.9721 36.9591C38.1766 36.7547 38.2915 36.4775 38.2915 36.1884C38.2915 35.8994 38.1766 35.6222 37.9721 35.4178C37.7675 35.2135 37.4901 35.0986 37.2009 35.0986Z" fill="#FFB400"/>
<path d="M23.3424 39.7771C23.5469 39.5727 23.8243 39.4579 24.1136 39.4579C24.4028 39.4579 24.6802 39.5727 24.8847 39.7771C25.0893 39.9815 25.2042 40.2587 25.2042 40.5477C25.2042 40.8367 25.0893 41.1139 24.8847 41.3183C24.6802 41.5227 24.4028 41.6375 24.1136 41.6375C23.8243 41.6375 23.5469 41.5227 23.3424 41.3183C23.1379 41.1139 23.0229 40.8367 23.0229 40.5477C23.0229 40.2587 23.1379 39.9815 23.3424 39.7771Z" fill="#FFB400"/>
<path d="M28.476 39.4579C28.1868 39.4579 27.9094 39.5727 27.7048 39.7771C27.5003 39.9815 27.3854 40.2587 27.3854 40.5477C27.3854 40.8367 27.5003 41.1139 27.7048 41.3183C27.9094 41.5227 28.1868 41.6375 28.476 41.6375C28.7653 41.6375 29.0427 41.5227 29.2472 41.3183C29.4517 41.1139 29.5666 40.8367 29.5666 40.5477C29.5666 40.2587 29.4517 39.9815 29.2472 39.7771C29.0427 39.5727 28.7653 39.4579 28.476 39.4579Z" fill="#FFB400"/>
<path d="M32.0673 39.7771C32.2718 39.5727 32.5492 39.4579 32.8384 39.4579C33.1277 39.4579 33.4051 39.5727 33.6096 39.7771C33.8142 39.9815 33.9291 40.2587 33.9291 40.5477C33.9291 40.8367 33.8142 41.1139 33.6096 41.3183C33.4051 41.5227 33.1277 41.6375 32.8384 41.6375C32.5492 41.6375 32.2718 41.5227 32.0673 41.3183C31.8627 41.1139 31.7478 40.8367 31.7478 40.5477C31.7478 40.2587 31.8627 39.9815 32.0673 39.7771Z" fill="#FFB400"/>
<path fill-rule="evenodd" clip-rule="evenodd" d="M16.6563 29V46.9058C16.6557 47.0497 16.6836 47.1922 16.7384 47.3252C16.7933 47.4582 16.8739 47.5791 16.9757 47.6808C17.0775 47.7825 17.1984 47.8631 17.3315 47.9179C17.4646 47.9727 17.6073 48.0006 17.7512 48H43.5613C43.7052 48.0006 43.8479 47.9727 43.981 47.9179C44.1141 47.8631 44.235 47.7825 44.3368 47.6808C44.4386 47.5791 44.5192 47.4582 44.5741 47.3252C44.6289 47.1922 44.6568 47.0497 44.6562 46.9058V29H16.6563ZM42.475 45.8204V31.2928H18.8375V45.8204H42.475Z" fill="#FFB400"/>
</svg>
