<svg width="260" height="168" viewBox="0 0 260 168" fill="none" xmlns="http://www.w3.org/2000/svg">
<path opacity="0.12" d="M191.905 168C180.37 168 170.053 164.508 160.952 157.524C151.958 150.54 145.926 141.492 142.857 130.381C140.741 122.656 139.683 114.508 139.683 105.937C139.683 92.9206 142.222 79.746 147.302 66.4127C152.381 52.9735 159.365 40.328 168.254 28.4762C177.143 16.6243 187.407 5.56614 199.048 -4.69841C210.794 -15.0688 223.386 -24.1693 236.825 -32L259.841 -8.98413C235.926 10.1693 219.577 24.9841 210.794 35.4603C202.116 45.9365 197.619 56.3598 197.302 66.7302C210.212 68.2116 221.005 73.7672 229.683 83.3968C238.36 93.0265 242.698 104.296 242.698 117.206C242.698 131.28 237.725 143.291 227.778 153.238C217.937 163.079 205.979 168 191.905 168ZM52.2222 168C40.6878 168 30.3704 164.508 21.2698 157.524C12.2751 150.54 6.24339 141.492 3.1746 130.381C1.0582 122.656 0 114.508 0 105.937C0 92.9206 2.53968 79.746 7.61905 66.4127C12.6984 52.9735 19.6825 40.328 28.5714 28.4762C37.4603 16.6243 47.7249 5.56614 59.3651 -4.69841C71.1111 -15.0688 83.7037 -24.1693 97.1429 -32L120.159 -8.98413C96.2434 10.1693 79.8942 24.9841 71.1111 35.4603C62.4339 45.9365 57.9365 56.3598 57.619 66.7302C70.5291 68.2116 81.3228 73.7672 90 83.3968C98.6773 93.0265 103.016 104.296 103.016 117.206C103.016 131.28 98.0423 143.291 88.0952 153.238C78.254 163.079 66.2963 168 52.2222 168Z" fill="white"/>
</svg>
