<svg width="41" height="40" viewBox="0 0 41 40" fill="none" xmlns="http://www.w3.org/2000/svg">
<path d="M31.2847 10.4686H30.2847C29.2925 10.4686 28.5191 9.60921 28.5191 8.57494V1.87026C28.5191 0.838987 29.2925 0 30.2847 0H31.2847C32.2769 0 33.0503 0.838987 33.0503 1.87026V8.57494C33.0503 9.60928 32.2769 10.4686 31.2847 10.4686Z" fill="#AA0064"/>
<path d="M10.885 10.469H11.885C12.8772 10.469 13.6757 9.60963 13.6757 8.57529V1.87146C13.6757 0.839406 12.8772 0.00041852 11.885 0.00041852H10.885C9.89284 0.00041852 9.06642 0.839406 9.06642 1.87146V8.57615C9.06642 9.60963 9.89284 10.469 10.885 10.469Z" fill="#AA0064"/>
<path d="M7.03508 18.5158H14.0663V24.4532H7.03508V18.5158Z" fill="#AA0064"/>
<path d="M14.0663 27.1871H7.03508V33.1245H14.0663V27.1871Z" fill="#AA0064"/>
<path d="M17.2692 18.5158H24.3004V24.4532H17.2692V18.5158Z" fill="#AA0064"/>
<path d="M24.3004 27.1871H17.2692V33.1245H24.3004V27.1871Z" fill="#AA0064"/>
<path d="M27.7376 18.5158H34.7688V24.4532H27.7376V18.5158Z" fill="#AA0064"/>
<path d="M34.7688 27.1871H27.7376V33.1245H34.7688V27.1871Z" fill="#AA0064"/>
<path fill-rule="evenodd" clip-rule="evenodd" d="M34.4567 2.96898V8.57519C34.4567 10.4089 33.0504 11.8751 31.2848 11.8751H30.2849C28.5192 11.8751 27.113 10.4094 27.113 8.57519V2.96898H15.0818V8.57519C15.0818 10.4089 13.649 11.8751 11.8848 11.8751H10.8849C9.12096 11.8751 7.66005 10.4094 7.66005 8.57519V2.96898H3.18526C1.865 2.96898 0.785156 4.12132 0.785156 5.49323V37.5056C0.785156 38.8772 1.86493 40 3.18526 40H38.3847C39.705 40 40.7848 38.8772 40.7848 37.5056V5.49323C40.7848 4.12132 39.7051 2.96898 38.3847 2.96898H34.4567ZM37.4253 34.8042C37.4239 35.2699 37.2381 35.7163 36.9089 36.0456C36.5796 36.3748 36.1332 36.5606 35.6675 36.562H5.90226C5.43659 36.5606 4.99013 36.3748 4.66092 36.0456C4.33171 35.7163 4.14586 35.2699 4.14446 34.8042V16.8359C4.14586 16.3702 4.33168 15.9238 4.66092 15.5946C4.99016 15.2654 5.43655 15.0795 5.90226 15.0781H35.6675C36.1332 15.0795 36.5797 15.2653 36.9089 15.5946C37.2381 15.9238 37.4239 16.3702 37.4253 16.8359V34.8042Z" fill="#AA0064"/>
</svg>
