<svg width="32" height="32" viewBox="0 0 32 32" fill="none" xmlns="http://www.w3.org/2000/svg">
<path fill-rule="evenodd" clip-rule="evenodd" d="M5.23161 21.2977C7.18905 25.2668 11.2782 28 16 28C22.6225 28 28 22.6225 28 16C28 9.3775 22.6225 4 16 4C11.2779 4 7.18911 6.733 5.23161 10.7023C4.86561 11.4448 5.17155 12.3448 5.914 12.7108C6.65666 13.0768 7.5565 12.7721 7.9225 12.0297C9.39111 9.05082 12.4571 7.00021 16 7.00021C20.9664 7.00021 25 11.0338 25 16.0002C25 20.9667 20.9664 25.0002 16 25.0002C12.4569 25.0002 9.39089 22.9497 7.9225 19.9708C7.5565 19.2283 6.65666 18.9236 5.914 19.2896C5.17155 19.6556 4.86561 20.5557 5.23161 21.2981V21.2977ZM14.5 11.5V16C14.5 16.501 14.7505 16.9706 15.1676 17.2481L19.6676 20.2481C20.3575 20.707 21.2892 20.5211 21.7481 19.8325C22.207 19.1425 22.0211 18.2108 21.3325 17.752L17.5 15.1975V11.5C17.5 10.6719 16.8281 9.99996 16 9.99996C15.172 9.99996 14.5 10.6719 14.5 11.5L14.5 11.5ZM5.5 14.5C4.67195 14.5 4 15.1719 4 16C4 16.8281 4.67195 17.5 5.5 17.5C6.32805 17.5 7 16.8281 7 16C7 15.1719 6.32805 14.5 5.5 14.5Z" fill="#AA0064"/>
</svg>
