<svg width="40" height="40" viewBox="0 0 40 40" fill="none" xmlns="http://www.w3.org/2000/svg">
<path d="M30.4995 10.4686H29.4996C28.5074 10.4686 27.7339 9.60921 27.7339 8.57494V1.87026C27.7339 0.838987 28.5074 0 29.4996 0H30.4995C31.4917 0 32.2652 0.838987 32.2652 1.87026V8.57494C32.2652 9.60928 31.4917 10.4686 30.4995 10.4686Z" fill="#5A2DBC"/>
<path d="M10.0999 10.469H11.0999C12.0921 10.469 12.8906 9.60963 12.8906 8.57529V1.87146C12.8906 0.839406 12.092 0.00041852 11.0999 0.00041852H10.0999C9.10768 0.00041852 8.28127 0.839406 8.28127 1.87146V8.57615C8.28127 9.60963 9.10768 10.469 10.0999 10.469Z" fill="#5A2DBC"/>
<path d="M6.24992 18.5158H13.2811V24.4532H6.24992V18.5158Z" fill="#5A2DBC"/>
<path d="M13.2811 27.1871H6.24992V33.1245H13.2811V27.1871Z" fill="#5A2DBC"/>
<path d="M16.4841 18.5158H23.5152V24.4532H16.4841V18.5158Z" fill="#5A2DBC"/>
<path d="M23.5152 27.1871H16.4841V33.1245H23.5152V27.1871Z" fill="#5A2DBC"/>
<path d="M26.9525 18.5158H33.9836V24.4532H26.9525V18.5158Z" fill="#5A2DBC"/>
<path d="M33.9836 27.1871H26.9525V33.1245H33.9836V27.1871Z" fill="#5A2DBC"/>
<path fill-rule="evenodd" clip-rule="evenodd" d="M33.6715 2.96898V8.57519C33.6715 10.4089 32.2652 11.8751 30.4997 11.8751H29.4997C27.7341 11.8751 26.3279 10.4094 26.3279 8.57519V2.96898H14.2966V8.57519C14.2966 10.4089 12.8639 11.8751 11.0997 11.8751H10.0997C8.3358 11.8751 6.8749 10.4094 6.8749 8.57519V2.96898H2.40011C1.07984 2.96898 0 4.12132 0 5.49323V37.5056C0 38.8772 1.07977 40 2.40011 40H37.5996C38.9198 40 39.9997 38.8772 39.9997 37.5056V5.49323C39.9997 4.12132 38.9199 2.96898 37.5996 2.96898H33.6715ZM36.6402 34.8042C36.6388 35.2699 36.4529 35.7163 36.1237 36.0456C35.7945 36.3748 35.3481 36.5606 34.8824 36.562H5.1171C4.65143 36.5606 4.20497 36.3748 3.87576 36.0456C3.54655 35.7163 3.36071 35.2699 3.35931 34.8042V16.8359C3.3607 16.3702 3.54653 15.9238 3.87576 15.5946C4.205 15.2654 4.65139 15.0795 5.1171 15.0781H34.8824C35.348 15.0795 35.7945 15.2653 36.1237 15.5946C36.4529 15.9238 36.6388 16.3702 36.6402 16.8359V34.8042Z" fill="#5A2DBC"/>
</svg>
