<svg width="61" height="60" viewBox="0 0 61 60" fill="none" xmlns="http://www.w3.org/2000/svg">
<rect x="0.65625" width="60" height="60" rx="12" fill="#FFB400"/>
<path d="M34.916 16.4866L41.0377 21.7647H37.9184L33.656 18.0272L31.176 19.882L33.0335 21.7647H30.2135L26.6561 18.159L23.0986 21.7647H20.3278L25.2461 16.7298C25.6208 16.3523 26.1277 16.1404 26.6561 16.1404C27.1844 16.1404 27.6913 16.3523 28.0661 16.7298L29.746 18.4326L32.416 16.4055C32.7798 16.129 33.2256 15.9863 33.6801 16.001C34.1345 16.0158 34.5705 16.187 34.916 16.4866Z" fill="black"/>
<path d="M20.328 23.4118L20.2462 23.4954C19.5321 23.5953 18.8774 23.9524 18.4018 24.5014C17.9261 25.0505 17.6615 25.7548 17.6562 26.4854V40.9593C17.6562 41.7657 17.9723 42.5392 18.5349 43.1094C19.0975 43.6796 19.8606 44 20.6562 44H40.6561C41.4518 44 42.2148 43.6796 42.7774 43.1094C43.34 42.5392 43.6561 41.7657 43.6561 40.9593V39.0588H41.6561V40.9593C41.6561 41.2281 41.5508 41.4859 41.3632 41.676C41.1757 41.8661 40.9213 41.9729 40.6561 41.9729H20.6562C20.391 41.9729 20.1367 41.8661 19.9491 41.676C19.7616 41.4859 19.6562 41.2281 19.6562 40.9593V26.4854C19.6562 26.2166 19.7616 25.9588 19.9491 25.7687C20.1367 25.5787 20.391 25.4719 20.6562 25.4719H40.6561C40.9213 25.4719 41.1757 25.5787 41.3632 25.7687C41.5508 25.9588 41.6561 26.2166 41.6561 26.4854V28.3529H43.6561V26.4854C43.6633 25.7476 43.4055 25.0323 42.9308 24.4729C42.4561 23.9134 41.7969 23.548 41.0761 23.4447L41.0379 23.4118H37.9185L37.9561 23.4447H33.0662L33.0336 23.4118H30.2136L30.2462 23.4447H23.0662L23.0988 23.4118H20.328Z" fill="black"/>
<path d="M35.6227 32.9716C35.4371 33.1689 35.3319 33.4299 35.3281 33.7025C35.3281 33.9755 35.4351 34.2373 35.6256 34.4304C35.8161 34.6234 36.0744 34.7319 36.3438 34.7319C36.6131 34.7319 36.8714 34.6234 37.0619 34.4304C37.2524 34.2373 37.3594 33.9755 37.3594 33.7025C37.3605 33.498 37.3016 33.2978 37.1901 33.1274C37.0786 32.957 36.9195 32.8242 36.7332 32.7458C36.5469 32.6674 36.3418 32.647 36.144 32.6872C35.9462 32.7274 35.7647 32.8264 35.6227 32.9716Z" fill="black"/>
<path fill-rule="evenodd" clip-rule="evenodd" d="M43.6562 29.5893V37.8235H36.3438C35.2663 37.8235 34.233 37.3897 33.4711 36.6175C32.7093 35.8453 32.2812 34.798 32.2812 33.7059C32.2812 32.6138 32.7093 31.5665 33.4711 30.7943C34.233 30.0221 35.2663 29.5882 36.3438 29.5882L43.6562 29.5893ZM36.3438 35.7647C35.805 35.7647 35.2884 35.5478 34.9074 35.1617C34.5265 34.7756 34.3125 34.2519 34.3125 33.7059C34.3125 33.1598 34.5265 32.6362 34.9074 32.2501C35.2884 31.864 35.805 31.6471 36.3438 31.6471H41.625V35.7647H36.3438Z" fill="black"/>
</svg>
