<svg width="40" height="40" viewBox="0 0 40 40" fill="none" xmlns="http://www.w3.org/2000/svg">
<path fill-rule="evenodd" clip-rule="evenodd" d="M2.05268 28.8295C5.31509 35.4446 12.1304 40 20 40C31.0375 40 40 31.0375 40 20C40 8.9625 31.0375 0 20 0C12.1299 0 5.31518 4.555 2.05268 11.1705C1.44268 12.4079 1.95258 13.908 3.19 14.518C4.42777 15.128 5.9275 14.6202 6.5375 13.3828C8.98518 8.41804 14.0951 5.00036 20 5.00036C28.2774 5.00036 35 11.7229 35 20.0004C35 28.2778 28.2774 35.0004 20 35.0004C14.0949 35.0004 8.98482 31.5828 6.5375 26.6179C5.9275 25.3805 4.42777 24.8727 3.19 25.4827C1.95259 26.0927 1.44268 27.5928 2.05268 28.8302V28.8295ZM17.5 12.5V20C17.5 20.835 17.9175 21.6176 18.6126 22.0801L26.1126 27.0801C27.2625 27.8449 28.8153 27.5352 29.5801 26.3874C30.3449 25.2375 30.0352 23.6847 28.8874 22.9199L22.5 18.6624V12.4999C22.5 11.1198 21.3801 9.99993 20 9.99993C18.6199 9.99993 17.5 11.1198 17.5 12.4999L17.5 12.5ZM2.5 17.5C1.11991 17.5 0 18.6199 0 20C0 21.3801 1.11991 22.5 2.5 22.5C3.88009 22.5 5 21.3801 5 20C5 18.6199 3.88009 17.5 2.5 17.5Z" fill="#AA0064"/>
</svg>
