<svg width="120" height="120" viewBox="0 0 120 120" fill="none" xmlns="http://www.w3.org/2000/svg">
<rect width="120" height="120" rx="4" fill="#FFF2DF"/>
<path d="M99.9997 43.2542C99.9997 37.5575 95.3547 33 89.7455 33H31.2875C30.4985 33 29.7096 33.4382 29.3595 34.2271C29.0087 34.928 29.0968 35.8924 29.6223 36.5059C31.3756 38.4339 34.618 43.6051 29.6223 50.0907H22.2605C21.4715 50.0907 20.6826 50.5289 20.3325 51.3178C19.9817 52.0187 20.0698 52.9831 20.5953 53.5966C22.2605 55.5246 25.591 60.6958 20.4199 67.1814C19.8937 67.795 19.8937 68.6713 20.2445 69.3722C20.5953 70.0731 21.3835 70.5993 22.1724 70.5993H29.7098C31.375 72.5273 34.6181 77.6985 29.5344 84.1841C29.0082 84.7976 29.0082 85.6739 29.359 86.3749C29.7098 87.0759 30.498 87.602 31.2869 87.602H89.745C95.4417 87.602 99.9992 82.957 99.9992 77.3478C99.9992 71.6511 95.3542 67.0936 89.745 67.0936L88.3439 67.0943C89.9217 65.2537 90.8854 62.9748 90.8854 60.346C90.8854 57.7165 89.921 55.4377 88.3439 53.5977H89.6583C95.355 53.597 100 48.952 100 43.2548L99.9997 43.2542ZM34.0042 36.5059H89.745C93.5136 36.5059 96.4933 39.5736 96.4933 43.2542C96.4933 47.0228 93.4255 50.0025 89.745 50.0025L80.6306 50.0032H77.9135V42.0276C77.9135 41.0633 77.1246 40.275 76.1609 40.275L64.5034 40.2743C63.539 40.2743 62.7508 41.0633 62.7508 42.0269V50.0025H33.8288C37.1594 44.3058 35.5821 39.3981 34.0042 36.5057L34.0042 36.5059ZM74.409 43.7804V54.9991L71.3413 52.9831C71.0785 52.8077 70.7278 52.7203 70.377 52.7203C70.0261 52.7203 69.6761 52.8077 69.4126 52.9831L66.3449 54.9991L66.3456 43.7804H74.409ZM96.4963 77.3488C96.4963 81.1174 93.4286 84.0971 89.748 84.0971H33.8297C37.1603 78.4004 35.5823 73.492 34.0051 70.5996H80.7193H81.1575H89.8346C93.4279 70.5123 96.4956 73.58 96.4956 77.3486L96.4963 77.3488ZM87.3811 60.3454C87.3811 63.9387 84.5768 66.831 81.0709 67.0937L31.288 67.0944H31.1126H24.7143C28.0449 61.3977 26.4669 56.4893 24.8017 53.5969H62.6633V58.2419C62.6633 58.8555 63.0141 59.469 63.5396 59.8198C64.0658 60.1706 64.7667 60.0826 65.2922 59.7325L70.1125 56.5774L74.9328 59.7325C75.1956 59.9079 75.5464 59.9952 75.8972 59.9952C76.1599 59.9952 76.5107 59.9079 76.7735 59.8198C77.2997 59.469 77.6498 58.9435 77.6498 58.2419V53.597H80.3668C84.4004 53.597 87.3801 56.5766 87.3801 60.3452L87.3811 60.3454ZM59.0715 77.3488C59.0715 78.3131 58.2825 79.1014 57.3189 79.1014H53.2874C52.3231 79.1014 51.5348 78.3125 51.5348 77.3488C51.5348 76.3844 52.3238 75.5962 53.2874 75.5962H57.2316C58.2833 75.5955 59.0715 76.3844 59.0715 77.3488ZM81.5953 77.3488C81.5953 76.3844 82.3843 75.5962 83.3479 75.5962H87.292C88.2564 75.5962 89.0446 76.3851 89.0446 77.3488C89.0446 78.3131 88.2557 79.1014 87.292 79.1014H83.3479C82.3843 79.1014 81.5953 78.3125 81.5953 77.3488ZM36.2832 42.0287C36.2832 41.0644 37.0721 40.2761 38.0358 40.2761H58.4565C59.4209 40.2761 60.2091 41.0651 60.2091 42.0287C60.2091 42.9931 59.4202 43.7813 58.4565 43.7813H38.0358C37.0714 43.7813 36.2825 42.9924 36.2825 42.0287H36.2832ZM80.1932 42.0287C80.1932 41.0644 80.9822 40.2761 81.9458 40.2761H85.9773C86.9416 40.2761 87.7299 41.0651 87.7299 42.0287C87.7299 42.9931 86.9409 43.7813 85.9773 43.7813H81.9458C80.9815 43.7813 80.1932 42.9924 80.1932 42.0287ZM77.9144 77.3488C77.9144 78.3131 77.1255 79.1014 76.1618 79.1014H61.7874C60.8231 79.1014 60.0348 78.3125 60.0348 77.3488C60.0348 76.3844 60.8238 75.5962 61.7874 75.5962H76.1611C77.1255 75.5955 77.9144 76.3844 77.9144 77.3488H77.9144Z" fill="#AA0064"/>
</svg>
